<svg width="287" height="182" viewBox="0 0 287 182" fill="none" xmlns="http://www.w3.org/2000/svg">
<g opacity="0.3">
<path d="M0.491361 181.031C-1.30864 167.156 1.84136 155.831 9.86636 147.281C25.9164 130.031 61.3164 123.281 117.941 126.581C186.266 130.631 236.966 118.781 256.991 94.031C266.366 82.481 268.841 68.306 264.341 52.031C260.141 36.581 245.816 22.781 224.141 13.181C204.266 4.33097 180.116 -0.169025 157.841 0.805975C124.766 2.23097 102.716 15.506 98.9664 36.281C95.0664 57.806 105.866 75.881 131.216 90.056L130.841 90.731C105.566 76.631 94.3164 57.731 98.2164 36.206C100.241 25.031 107.066 16.106 118.466 9.80597C128.666 4.18097 142.241 0.805974 157.766 0.130974C180.116 -0.844026 204.416 3.65597 224.441 12.581C246.341 22.331 260.741 36.281 265.091 51.956C269.591 68.531 267.116 82.856 257.591 94.631C237.416 119.531 186.491 131.456 117.941 127.406C61.5414 124.106 26.3664 130.781 10.4664 147.806C2.66636 156.206 -0.408635 167.306 1.31637 180.956L0.491361 181.031Z" fill="white"/>
<path d="M192.491 126.056C177.266 122.306 136.166 107.831 122.141 98.7555L122.516 98.1555C136.541 107.156 177.491 121.631 192.641 125.381L192.491 126.056Z" fill="white"/>
<path d="M286.316 166.331C269.591 163.931 225.941 146.981 219.116 143.531L219.491 142.856C226.316 146.306 269.816 163.181 286.466 165.581L286.316 166.331Z" fill="white"/>
</g>
<path d="M141.312 68.8501C140.112 68.8501 139.512 70.3501 140.487 71.1751C159.912 87.3001 227.562 124.65 256.062 132.525C259.137 133.35 264.687 134.7 266.037 133.8C267.912 132.6 261.012 129.9 257.037 125.625C240.162 107.475 228.162 76.6501 225.312 69.1501C224.937 68.1001 223.962 67.5001 222.837 67.5751C217.062 67.8751 199.737 68.8501 198.012 68.8501L193.362 75.5251L186.387 69.7501L141.312 68.8501Z" fill="#A6F4DC"/>
<path d="M262.662 132.226L259.737 131.326C220.512 119.326 150.312 76.5756 147.612 72.9006L146.712 71.7006H189.987V73.2006H150.162C160.362 80.8506 221.487 117.001 257.187 128.926C233.562 104.701 223.887 76.5756 222.537 72.3006L200.187 73.5756L200.112 72.0756L223.662 70.7256L223.812 71.3256C223.887 71.6256 233.562 103.726 260.487 130.126L262.662 132.226Z" fill="#71E2BD"/>
<path d="M211.212 82.875C198.912 81.375 194.262 91.425 198.987 96.825C206.487 105.375 216.162 105.6 222.612 105.075C229.062 104.55 229.737 95.7 227.337 91.725C223.587 85.725 217.437 83.55 211.212 82.875Z" fill="#71E2BD"/>
<path d="M198.011 68.7751C198.011 68.7751 213.386 88.6502 225.311 100.5C232.886 108 257.261 128.925 257.261 128.925C257.261 128.925 243.461 122.175 216.761 100.8C205.736 92.0251 193.361 75.5251 193.361 75.5251L198.011 68.7751Z" fill="#60C49E"/>
<path d="M176.412 81.45C171.312 77.7 147.537 55.5 146.562 54.525L147.087 54C147.312 54.225 171.837 77.175 176.862 80.85L176.412 81.45Z" fill="white"/>
<path d="M264.686 141.75C253.361 140.4 245.411 136.35 239.636 133.425C238.886 133.05 238.211 132.675 237.536 132.375L237.836 131.7C238.511 132 239.186 132.375 239.936 132.75C245.636 135.675 253.511 139.725 264.686 141V141.75Z" fill="white"/>
</svg>
