<svg width="287" height="349" viewBox="0 0 287 349" fill="none" xmlns="http://www.w3.org/2000/svg">
<path d="M148.343 300.657L132.657 316.343C129.533 319.467 129.533 324.533 132.657 327.657L148.343 343.343C151.467 346.467 156.533 346.467 159.657 343.343L175.343 327.657C178.467 324.533 178.467 319.467 175.343 316.343L159.657 300.657C156.533 297.533 151.467 297.533 148.343 300.657Z" fill="#F7CBD0"/>
<path d="M198.672 220.828L192.828 226.672C191.266 228.234 191.266 230.766 192.828 232.328L198.672 238.172C200.234 239.734 202.766 239.734 204.328 238.172L210.172 232.328C211.734 230.766 211.734 228.234 210.172 226.672L204.328 220.828C202.766 219.266 200.234 219.266 198.672 220.828Z" fill="white"/>
<g opacity="0.3">
<path d="M0.491361 181.031C-1.30864 167.156 1.84136 155.831 9.86636 147.281C25.9164 130.031 61.3164 123.281 117.941 126.581C186.266 130.631 236.966 118.781 256.991 94.031C266.366 82.481 268.841 68.306 264.341 52.031C260.141 36.581 245.816 22.781 224.141 13.181C204.266 4.33097 180.116 -0.169025 157.841 0.805975C124.766 2.23097 102.716 15.506 98.9664 36.281C95.0664 57.806 105.866 75.881 131.216 90.056L130.841 90.731C105.566 76.631 94.3164 57.731 98.2164 36.206C100.241 25.031 107.066 16.106 118.466 9.80597C128.666 4.18097 142.241 0.805974 157.766 0.130974C180.116 -0.844026 204.416 3.65597 224.441 12.581C246.341 22.331 260.741 36.281 265.091 51.956C269.591 68.531 267.116 82.856 257.591 94.631C237.416 119.531 186.491 131.456 117.941 127.406C61.5414 124.106 26.3664 130.781 10.4664 147.806C2.66636 156.206 -0.408635 167.306 1.31637 180.956L0.491361 181.031Z" fill="#D8D7FC"/>
<path d="M192.491 126.056C177.266 122.306 136.166 107.831 122.141 98.7555L122.516 98.1555C136.541 107.156 177.491 121.631 192.641 125.381L192.491 126.056Z" fill="#D8D7FC"/>
<path d="M286.316 166.331C269.591 163.931 225.941 146.981 219.116 143.531L219.491 142.856C226.316 146.306 269.816 163.181 286.466 165.581L286.316 166.331Z" fill="#D8D7FC"/>
</g>
</svg>

