<svg width="190" height="102" viewBox="0 0 190 102" fill="none" xmlns="http://www.w3.org/2000/svg">
<path d="M0 102C0 102 0.279187 102 0.558362 102C24.8465 102 49.4139 102 73.7021 102C116.974 102 160.246 102 203.518 102C235.344 102 245.394 100.842 277.22 102C277.499 81.7357 272.195 62.3399 262.703 52.2078C254.886 43.8126 241.765 39.1807 230.877 42.0756C217.198 45.839 207.706 55.3921 198.772 62.3399C195.701 34.2594 184.534 8.78428 172.53 2.99448C151.871 -6.55868 130.095 8.49479 120.603 23.5483C112.507 35.7068 108.32 50.1813 106.645 64.9453C93.5235 50.1813 64.4893 38.6017 54.1599 62.3399C49.9722 71.6036 50.2514 82.3147 50.8098 92.4468C33.2218 87.5255 14.2379 91.2889 0 102Z" fill="#E2F3FF"/>
</svg>
