<svg width="150" height="70" viewBox="0 0 217 102" fill="none" xmlns="http://www.w3.org/2000/svg">
<path d="M216.77 102C216.77 102 216.49 102 216.21 102C191.875 102 167.26 102 142.924 102C99.5682 102 56.2121 102 12.856 102C-19.0317 102 -29.1015 100.842 -60.9892 102C-61.2689 81.7357 -55.9543 62.3399 -46.4439 52.2078C-38.6119 43.8126 -25.4652 39.1807 -14.5562 42.0756C-0.850113 45.839 8.66025 55.3921 17.6112 62.3399C20.6881 34.2594 31.8768 8.78428 43.9046 2.99448C64.6036 -6.55868 86.4215 8.49479 95.9319 23.5483C104.044 35.7068 108.239 50.1813 109.918 64.9453C123.064 50.1813 152.155 38.6017 162.504 62.3399C166.7 71.6036 166.421 82.3147 165.861 92.4468C183.483 87.5255 202.504 91.2889 216.77 102Z" fill="#E2F3FF"/>
</svg>
