<svg width="1017" height="452" viewBox="0 0 1017 452" fill="none" xmlns="http://www.w3.org/2000/svg">
<g clip-path="url(#clip0)">
<circle cx="508.5" cy="253.5" r="240.5" fill="#F7FCFF"/>
<path d="M634 339.5L89.5 339V452H725V363.5H635.5V361L628.5 358.5L634 339.5Z" fill="#E7F4FD"/>
<path d="M581.926 301.425L516.826 312.675L507.976 261.375L571.276 250.5C572.251 250.35 573.226 251.025 573.376 252L581.926 301.425Z" fill="#A6F4DC"/>
<path d="M574.724 303.3L566.924 258.15L518.624 266.475L518.399 265.05L568.199 256.425L576.224 303.075L574.724 303.3Z" fill="#71E2BD"/>
<path d="M525.825 309.225C535.808 309.225 543.9 301.133 543.9 291.15C543.9 281.168 535.808 273.075 525.825 273.075C515.842 273.075 507.75 281.168 507.75 291.15C507.75 301.133 515.842 309.225 525.825 309.225Z" fill="#71E2BD"/>
<path d="M88.7999 338.175C76.7999 333.9 58.3499 317.175 67.2749 309.075C76.0499 301.2 91.0499 321.9 92.5499 323.925C92.0249 315.15 99.2999 314.025 101.325 314.85C109.35 318.075 113.85 325.95 116.325 332.025C122.325 322.425 134.325 330.675 136.8 334.875C144.825 323.4 157.275 338.1 157.275 338.1H88.7999V338.175Z" fill="#B9C3EE"/>
<path d="M180.075 339C180.075 327 188.85 323.475 192.075 323.475C192.075 298.2 210.075 292.05 224.85 292.05C224.85 258.6 251.85 223.2 287.175 223.2L349.8 339H180.075Z" fill="#FFE9E9"/>
<path d="M552 389.025H460.5V387.525H552C558.225 387.525 564.15 384.9 568.275 380.25L577.05 370.425C581.475 365.475 587.775 362.625 594.45 362.625H926.625V364.125H594.45C588.225 364.125 582.3 366.75 578.175 371.4L569.4 381.225C564.975 386.175 558.6 389.025 552 389.025Z" fill="#000061"/>
<path d="M630.825 338.25H95.3252V339.75H630.825V338.25Z" fill="#000061"/>
<path d="M585.974 329.85H519.899V277.8H584.174C585.149 277.8 585.974 278.625 585.974 279.6V329.85Z" fill="#A6F4DC"/>
<path d="M594.824 329.55C590.324 316.575 597.449 306.975 610.199 309.9C603.224 284.475 611.999 277.65 622.049 275.175C638.699 271.05 648.899 291.9 648.899 291.9L637.799 329.625H594.824V329.55Z" fill="#FFE9E9"/>
<path d="M678.75 199.225H678C678 181.6 686.925 165.4 701.775 155.95L702.15 156.55C687.45 165.85 678.75 181.825 678.75 199.225Z" fill="#000061"/>
<path d="M749.026 246.55L748.726 245.875C755.326 243.1 761.401 238.825 766.351 233.575C775.051 224.2 779.851 211.975 779.851 199.225C779.851 171.325 757.201 148.675 729.301 148.675C723.451 148.675 717.676 149.65 712.201 151.675L711.976 151C717.526 148.975 723.376 148 729.376 148C757.651 148 780.676 171.025 780.676 199.3C780.676 212.275 775.801 224.65 767.026 234.175C761.926 239.425 755.776 243.775 749.026 246.55Z" fill="#000061"/>
<path d="M237.975 324.9C235.65 322.35 229.125 318.15 225.825 321.9C220.575 327.9 235.275 338.7 235.275 338.7L248.25 338.85C248.25 338.85 241.575 328.875 237.975 324.9Z" fill="#000061"/>
<path d="M243 339C237.975 336.45 227.4 327.75 225.45 321.975L226.125 321.75C228 327.3 238.5 335.925 243.3 338.4L243 339Z" fill="white"/>
<path d="M249.075 333.675C228.3 322.5 221.175 302.175 221.4 288.15C221.475 284.85 221.925 282.075 222.675 280.05C220.275 279 217.95 276.675 217.425 272.775C216.9 269.025 219.3 264.675 221.55 260.4C224.1 255.675 226.8 250.725 225.45 246.6C224.7 244.2 222.6 242.25 219.225 240.6L219.525 239.925C223.125 241.65 225.3 243.75 226.2 246.375C227.625 250.8 224.85 255.825 222.225 260.775C219.9 265.05 217.65 269.1 218.175 272.7C218.7 276.3 220.8 278.4 222.975 279.375C223.5 278.25 224.175 277.5 224.925 277.05C225.525 276.75 226.5 276.525 227.7 277.425C228.975 278.4 229.05 279.15 228.9 279.6C228.525 280.5 227.1 280.95 225.225 280.725C224.625 280.65 224.025 280.5 223.35 280.275C222.6 282.15 222.15 284.925 222.075 288.075C221.85 301.875 228.9 321.975 249.375 332.925L249.075 333.675ZM223.725 279.6C224.25 279.825 224.85 279.9 225.375 279.975C226.95 280.125 228.075 279.825 228.225 279.3C228.375 279 228 278.475 227.325 277.95C226.65 277.425 225.975 277.35 225.3 277.65C224.7 278.025 224.175 278.7 223.725 279.6Z" fill="#000061"/>
<path d="M235.35 314.625C245.55 313.95 246.525 306.75 245.025 299.175C237.45 301.65 234.075 305.4 235.35 314.625Z" fill="#FF5776"/>
<path d="M206.55 283.5C207.675 290.7 212.775 290.925 218.025 289.35C215.85 284.1 213 282 206.55 283.5Z" fill="#FF5776"/>
<path d="M216.9 267.825C215.475 260.925 210.525 260.925 205.5 262.725C207.825 267.675 210.675 269.625 216.9 267.825Z" fill="#FF5776"/>
<path d="M222.825 313.05C217.65 304.8 211.125 307.2 205.5 312C210.975 317.25 215.625 318.375 222.825 313.05Z" fill="#FF5776"/>
<path d="M216.524 315.3C212.249 315.3 209.174 312.9 206.249 307.8L206.024 307.425L206.399 307.275C211.274 305.175 215.099 304.8 217.949 306.15C220.424 307.35 222.149 309.75 223.199 313.425L223.274 313.725L222.974 313.875C220.574 314.85 218.474 315.3 216.524 315.3ZM207.149 307.8C210.374 313.425 214.199 316.275 222.524 313.35C221.549 310.05 219.974 307.875 217.724 306.825C215.099 305.625 211.649 305.925 207.149 307.8Z" fill="#000061"/>
<path d="M229.726 260.55C234.601 261.525 235.951 258.3 236.176 254.55C232.351 254.7 230.326 256.05 229.726 260.55Z" fill="#FF5776"/>
<path d="M227.774 260.025C227.699 260.025 227.699 260.025 227.624 260.025H227.249V259.65C226.949 254.625 229.199 252.975 232.799 252.225L233.174 252.15L233.249 252.6C233.549 255.3 233.174 257.25 232.049 258.525C231.149 259.5 229.649 260.025 227.774 260.025ZM232.499 253.05C229.499 253.8 227.774 255.15 227.924 259.275C229.499 259.275 230.699 258.825 231.449 257.925C232.424 256.95 232.724 255.375 232.499 253.05Z" fill="#000061"/>
<path d="M241.425 332.4C238.425 327.45 242.625 322.05 244.425 322.8C249.45 324.9 251.4 338.85 251.4 338.85H246.375C246.375 338.85 243.675 336.15 241.425 332.4Z" fill="#000061"/>
<path d="M247.125 338.85C248.475 334.35 253.8 329.325 257.025 330.975C260.25 332.625 258.45 338.85 258.45 338.85H247.125Z" fill="#000061"/>
<path d="M253.2 338.85C254.85 335.925 261.525 331.35 263.85 332.55C266.175 333.825 263.85 338.85 263.85 338.85H253.2Z" fill="#000061"/>
<path d="M210.976 269.85C208.276 269.85 206.176 268.275 204.151 266.025L203.851 265.725L204.151 265.5C207.301 263.25 209.926 262.425 212.176 262.95C214.126 263.4 215.776 264.9 217.051 267.3L217.201 267.6L216.901 267.75C214.726 269.25 212.701 269.85 210.976 269.85ZM204.976 265.8C208.651 269.7 211.651 270.15 216.301 267.3C215.101 265.2 213.676 264 212.101 263.625C210.151 263.175 207.826 263.85 204.976 265.8Z" fill="#000061"/>
<path d="M758.099 306.225C756.449 306.225 754.874 306.375 753.374 306.6C753.449 306 753.449 305.4 753.449 304.8C753.449 291.225 742.424 280.275 728.924 280.275C715.349 280.275 704.399 291.3 704.399 304.8C704.399 317.85 698.774 362.175 698.774 362.175L790.349 362.7C790.349 362.7 790.349 356.25 790.349 338.475C790.349 320.7 775.874 306.225 758.099 306.225Z" fill="#FFE9E9"/>
<path d="M93.0756 338.25H89.1006V339.75H93.0756V338.25Z" fill="#000061"/>
<path d="M779.775 203.4C784.248 203.4 787.875 199.774 787.875 195.3C787.875 190.827 784.248 187.2 779.775 187.2C775.301 187.2 771.675 190.827 771.675 195.3C771.675 199.774 775.301 203.4 779.775 203.4Z" fill="#3850B5"/>
<path d="M243.653 243.696L243.123 244.226L307.451 308.555L307.982 308.024L243.653 243.696Z" fill="white"/>
<path d="M249.856 237.984L249.325 238.515L313.654 302.843L314.184 302.313L249.856 237.984Z" fill="white"/>
<path d="M403.95 387.825H381.45V389.325H403.95V387.825Z" fill="#000061"/>
<path d="M761.85 362.925C756.525 345 755.025 332.85 762.9 324C770.7 315.3 766.2 299.775 761.175 294.225L761.7 293.7C766.95 299.4 771.525 315.45 763.425 324.45C755.7 333.075 757.275 345 762.525 362.625L761.85 362.925Z" fill="#000061"/>
<path d="M608.549 286.351C608.549 286.576 608.474 286.726 608.399 286.951C608.399 287.026 608.399 287.101 608.324 287.176L639.749 318.601L640.274 318.076L608.549 286.351Z" fill="white"/>
<path d="M594.526 316.275C594.451 316.5 594.376 316.725 594.226 316.95C594.226 316.95 594.226 316.95 594.226 317.025L616.651 339.45C616.801 339.225 616.951 339.075 617.101 338.85L594.526 316.275Z" fill="white"/>
<path d="M613.125 279.226C612.975 279.451 612.9 279.676 612.675 279.901L647.925 315.151L648.45 314.626L613.125 279.226Z" fill="white"/>
<path d="M934.875 362.7H929.775V364.2H934.875V362.7Z" fill="#000061"/>
<path d="M759.825 295.65C761.109 295.65 762.15 294.609 762.15 293.325C762.15 292.041 761.109 291 759.825 291C758.541 291 757.5 292.041 757.5 293.325C757.5 294.609 758.541 295.65 759.825 295.65Z" fill="#000061"/>
<path d="M580.049 330.525H578.549V284.7H529.574V283.2H580.049V330.525Z" fill="#71E2BD"/>
<path d="M590.999 277.351H549.149V278.101H590.999V277.351Z" fill="#000061"/>
<path d="M532.426 328.275C542.408 328.275 550.501 320.183 550.501 310.2C550.501 300.217 542.408 292.125 532.426 292.125C522.443 292.125 514.351 300.217 514.351 310.2C514.351 320.183 522.443 328.275 532.426 328.275Z" fill="#71E2BD"/>
<path d="M542.55 277.351H533.55V278.101H542.55V277.351Z" fill="#000061"/>
<path d="M391.725 163.2C383.55 129.15 396.6 92.1751 422.025 77.2501C435.6 69.3001 464.175 61.2001 502.875 96.7501L502.35 97.2751C464.025 62.0251 435.825 69.9751 422.4 77.8501C397.275 92.6251 384.375 129.225 392.4 162.975L391.725 163.2Z" fill="#000061"/>
<path d="M493.575 183.825L492.9 183.525C498.675 170.1 489.525 152.4 468.3 136.05C420.675 99.4503 314.775 73.2753 238.575 133.425L238.125 132.825C281.7 98.4003 330.675 94.5753 364.05 97.4253C402.975 100.725 442.125 114.975 468.825 135.45C490.275 152.025 499.575 170.1 493.575 183.825Z" fill="#000061"/>
<path d="M348.6 338.85L332.25 339.45L254.475 180.225C252.75 176.7 255.3 172.65 259.2 172.65L272.55 172.8L348.6 338.85Z" fill="#000061"/>
<path d="M657.75 261.9C649.875 256.95 648.375 254.4 637.5 248.775C629.25 244.5 624.075 255 629.775 260.475C633.075 263.7 646.425 276.525 650.175 278.1C653.85 279.675 656.625 275.625 658.05 272.1C660 267.375 662.775 265.125 657.75 261.9Z" fill="#FFB2A8"/>
<path d="M556.95 338.401H335.025L256.5 179.176C254.775 175.651 257.325 171.601 261.225 171.601H468.3C472.575 171.601 476.55 174.076 478.425 177.901L556.95 338.401Z" fill="#FF5776"/>
<path d="M542.324 323.701H337.275L266.325 180.151C265.875 179.176 266.55 177.976 267.675 177.976H467.475C469.2 177.976 470.775 178.951 471.525 180.526L542.324 323.701Z" fill="#FFE9E9"/>
<path d="M643.8 339H333C330.675 339 328.8 337.125 328.8 334.8V329.25H643.8V339Z" fill="#000061"/>
<path d="M726.3 215.4H739.125C745.05 215.4 749.325 221.1 747.675 226.8L710.025 355.95C708.9 359.85 705.3 362.625 701.175 362.55L685.425 362.475L726.3 215.4Z" fill="#000061"/>
<path d="M695.475 362.625L633.15 362.55C628.725 362.55 625.575 358.35 626.85 354.075L665.025 223.05C666.375 218.475 670.575 215.325 675.375 215.325L737.7 215.4C742.125 215.4 745.275 219.6 744 223.875L705.825 354.9C704.475 359.475 700.275 362.625 695.475 362.625Z" fill="#FF5776"/>
<path d="M736.275 219.675H723.825C723 221.4 721.35 222.525 719.4 222.525H689.25C687.75 222.525 686.7 221.025 687.15 219.675H675.675C672.525 219.675 669.675 221.775 668.775 224.775L630.9 353.325C630.225 355.65 631.95 357.975 634.35 357.975L694.35 358.05C697.65 358.05 700.575 355.875 701.55 352.725L739.425 224.025C740.025 221.775 738.45 219.675 736.275 219.675Z" fill="#FFE9E9"/>
<path d="M705.077 219.465C705.303 218.711 705.132 217.993 704.696 217.863C704.259 217.732 703.722 218.237 703.497 218.991C703.271 219.745 703.442 220.462 703.878 220.593C704.315 220.724 704.852 220.218 705.077 219.465Z" fill="#000061"/>
<path d="M739.875 252.6C739.725 252.6 739.5 252.6 739.35 252.525C738.375 252.225 737.85 251.25 738.15 250.275L741.15 240.375C741.3 239.925 741.6 239.55 742.05 239.325C742.5 239.1 742.95 239.025 743.4 239.175C743.85 239.325 744.225 239.625 744.45 240.075C744.675 240.525 744.75 240.975 744.6 241.425L741.6 251.325C741.375 252.075 740.625 252.6 739.875 252.6ZM739.575 251.775C740.1 251.925 740.7 251.625 740.925 251.1L743.925 241.2C744.075 240.675 743.775 240.075 743.25 239.85C742.95 239.775 742.725 239.775 742.425 239.925C742.2 240.075 741.975 240.3 741.9 240.525L738.9 250.425C738.675 251.025 738.975 251.625 739.575 251.775Z" fill="#FF5776"/>
<path d="M646.586 362.93L638.312 371.203L639.373 372.264L647.646 363.991L646.586 362.93Z" fill="#000061"/>
<path d="M653.334 362.926L645.061 371.199L646.121 372.26L654.394 363.987L653.334 362.926Z" fill="#000061"/>
<path d="M782.323 362.903L774.05 371.176L775.11 372.237L783.383 363.964L782.323 362.903Z" fill="#000061"/>
<path d="M789.072 362.901L780.799 371.174L781.859 372.234L790.133 363.961L789.072 362.901Z" fill="#000061"/>
<path d="M389.415 336.987L381.142 345.26L382.202 346.321L390.475 338.048L389.415 336.987Z" fill="#000061"/>
<path d="M396.163 336.985L387.89 345.258L388.95 346.318L397.224 338.045L396.163 336.985Z" fill="#000061"/>
<path d="M512.325 292.35L468.6 199.875C468.075 198.825 467.025 198.15 465.9 198.15L290.475 198.225C289.35 198.225 288.675 199.35 289.125 200.4L332.85 292.875C333.375 293.925 334.425 294.6 335.55 294.6L510.975 294.525C512.025 294.525 512.775 293.4 512.325 292.35Z" fill="white"/>
<path d="M670.124 237.225L648.749 311.175C648.374 312.6 649.424 314.025 650.849 314.025H703.499C705.449 314.025 707.174 312.75 707.774 310.8L729.299 236.85C729.749 235.425 728.624 234 727.199 234H674.399C672.374 234 670.649 235.35 670.124 237.225Z" fill="white"/>
<path d="M644.85 324.6L640.2 341.1C639.825 342.525 640.875 343.95 642.3 343.95H694.875C696.825 343.95 698.55 342.675 699.15 340.725L703.95 324.225C704.325 322.8 703.275 321.375 701.85 321.375H649.125C647.1 321.375 645.375 322.725 644.85 324.6Z" fill="white"/>
<path d="M684.825 350.4H645.6V351.9H684.825V350.4Z" fill="#000061"/>
<path d="M319.35 185.4H280.125V186.9H319.35V185.4Z" fill="#000061"/>
<path d="M359.774 304.125H341.774V305.625H359.774V304.125Z" fill="#000061"/>
<path d="M679.049 226.726H672.824V228.226H679.049V226.726Z" fill="#000061"/>
<path d="M337.05 335.025L336.975 334.8L299.25 258.225L299.925 257.925L337.5 334.275H558.6L480.3 174.375C478.5 170.7 474.675 168.3 470.55 168.3H263.475C261.75 168.3 260.25 169.125 259.35 170.625C258.45 172.125 258.375 173.85 259.125 175.35L273.9 205.35L273.225 205.65L258.45 175.65C257.625 173.925 257.7 171.825 258.75 170.175C259.8 168.525 261.6 167.55 263.55 167.55H470.625C475.05 167.55 479.1 170.1 481.05 174.075L559.875 335.1L337.05 335.025Z" fill="#000061"/>
<path d="M693.974 360.75L631.649 360.675C629.399 360.675 627.374 359.625 626.099 357.9C624.749 356.1 624.374 353.925 624.974 351.75L663.149 220.725C664.499 216 668.924 212.7 673.799 212.7V213.45C669.224 213.45 665.099 216.525 663.824 220.95L625.649 351.975C625.124 353.85 625.424 355.875 626.624 357.45C627.824 359.025 629.624 359.925 631.574 359.925L693.899 360C698.474 360 702.599 356.925 703.874 352.5L742.049 221.475C742.574 219.6 742.274 217.575 741.074 216C739.874 214.425 738.074 213.525 736.124 213.525H698.624V212.775H736.124C738.374 212.775 740.399 213.825 741.674 215.55C743.024 217.35 743.399 219.525 742.799 221.7L704.624 352.725C703.274 357.45 698.924 360.75 693.974 360.75Z" fill="#000061"/>
<path d="M721.05 247.575C714.45 257.85 711.225 272.1 713.1 280.875C714.975 289.65 717.15 293.625 719.325 300.3C721.275 306.3 721.5 315.6 721.5 315.6L709.575 356.85C708.6 360.375 705.375 362.7 701.7 362.7H719.85C719.85 362.7 740.25 351 743.925 344.325C747.525 337.725 746.325 309.225 745.125 304.875C743.4 298.8 734.4 281.25 733.875 275.4C733.575 272.325 730.275 252.15 730.425 248.925C730.575 245.7 725.1 241.275 721.05 247.575Z" fill="#FFB2A8"/>
<path d="M717.225 362.625C721.05 362.175 733.875 353.925 739.575 347.25C744 342.075 745.5 337.425 745.65 336.9C745.8 336.375 745.95 333.525 745.95 333.525C745.95 333.525 748.5 333.9 751.275 336.9C754.05 339.9 763.049 363.15 763.049 363.15L717.225 362.625Z" fill="#000061"/>
<path d="M637.2 292.124C633.675 293.849 630.45 302.324 632.775 306.599C635.1 310.874 651.375 311.024 656.325 311.024C663.15 311.024 663.15 301.949 660.975 299.399C658.65 296.774 640.725 290.399 637.2 292.124Z" fill="#FFB2A8"/>
<path d="M630.825 310.575C627.75 313.35 627.45 319.8 629.775 322.95C632.1 326.1 650.25 323.85 651.45 322.425C653.475 319.725 653.925 313.425 651.525 311.325C648.825 308.925 633.15 308.475 630.825 310.575Z" fill="#FFB2A8"/>
<path d="M630.374 324.6C627.824 327.975 629.399 332.25 632.624 334.125C634.799 335.4 645.224 335.925 648.899 334.65C652.499 333.375 651.749 327.825 649.799 326.1C647.774 324.45 631.424 323.25 630.374 324.6Z" fill="#FFB2A8"/>
<path d="M659.175 300.975C655.575 299.7 648.675 295.275 647.175 302.475C646.2 307.05 657.15 307.95 657.15 307.95L659.175 300.975Z" stroke="#FFE9E9" stroke-miterlimit="10"/>
<path d="M639.6 313.275C636.225 314.55 638.475 320.55 640.575 320.55C644.325 320.55 648.9 320.175 648.9 320.175V312.6C648.9 312.675 643.725 311.775 639.6 313.275Z" stroke="#FFE9E9" stroke-miterlimit="10"/>
<path d="M640.125 329.25C639.9 331.875 640.875 333.075 642.375 333.45C643.875 333.825 648.75 333.45 648.75 333.45V327.525C648.75 327.525 645.675 327.15 643.05 327.375C642.225 327.45 640.275 327.375 640.125 329.25Z" stroke="#FFE9E9" stroke-miterlimit="10"/>
<path d="M720.899 308.325C721.499 315.525 726.674 322.65 726.674 322.65" stroke="#FFE9E9" stroke-miterlimit="10"/>
<path d="M903.6 281.55C904.275 280.65 900.825 280.35 898.05 279.3L893.1 269.325C893.175 268.725 892.95 267.75 892.875 267.45C892.65 266.325 892.2 264.6 892.5 263.4C892.575 263.025 892.875 262.5 893.025 262.35C893.175 262.125 893.175 261.9 893.025 261.75C892.95 261.6 892.725 261.525 892.575 261.6C892.5 261.6 892.425 261.6 892.35 261.675C892.275 261.675 891.525 262.05 891.225 262.875C891.15 263.1 891.075 263.325 891 263.625C890.85 264.075 890.7 264.6 890.55 264.825C890.55 264.825 890.475 264.9 890.25 264.9C889.8 264.825 889.2 264.525 888.75 263.85L886.35 260.7C886.275 260.55 886.05 260.475 885.9 260.475C885.825 260.475 885.675 260.55 885.6 260.55C885.375 260.7 885.3 261.075 885.525 261.3L888 264.525C888.15 264.75 888.15 264.975 888.075 265.05C888 265.125 887.775 265.125 887.625 264.975C886.725 263.925 884.025 261 883.875 260.925C883.65 260.7 883.35 260.7 883.125 260.925C882.9 261.15 882.9 261.45 883.125 261.675C883.125 261.675 885.075 263.775 886.2 265.05C886.575 265.425 886.575 265.725 886.425 265.875C886.35 265.95 886.05 265.95 885.75 265.65L882.975 262.725C882.9 262.575 882.75 262.575 882.6 262.575C882.45 262.575 882.375 262.65 882.225 262.725C882 262.95 882 263.25 882.225 263.475L885 266.475C885.225 266.7 885.225 266.85 885.225 266.925C885.225 267 885.15 267 885.075 267.075C885 267.075 884.925 267.075 884.85 267.075C884.25 266.55 883.575 265.95 882.975 265.425C882.75 265.2 882.45 265.275 882.225 265.5C882 265.725 882.075 266.025 882.3 266.25C882.6 266.55 883.2 267.075 883.875 267.6C884.025 267.75 884.1 267.825 884.25 267.9C885.675 269.1 887.325 270.375 888.075 270.675L893.4 284.025C893.925 285.375 895.05 286.425 896.4 286.8C899.85 287.925 904.575 289.125 904.95 288.6C905.175 287.775 903.225 282 903.6 281.55Z" fill="#FFBDB8"/>
<path d="M885.826 258C885.526 257.925 884.701 257.775 884.176 257.55C882.676 256.725 881.176 254.625 880.201 253.275C879.901 252.9 879.076 251.775 878.401 251.25L870.301 234.45L865.876 212.55L856.726 216L860.926 235.125L872.476 255.675C872.026 256.8 871.876 259.8 871.801 262.425C871.726 262.65 871.726 262.875 871.801 263.175C871.801 263.175 871.801 263.175 871.801 263.25C871.801 264.525 871.801 265.575 871.801 266.25C871.801 266.7 872.176 267 872.551 267C873.001 267 873.301 266.625 873.301 266.25C873.301 265.05 873.301 263.85 873.376 262.65C873.451 262.5 873.526 262.425 873.601 262.35C873.676 262.275 873.826 262.275 873.901 262.275C873.976 262.35 874.126 262.5 874.126 262.95L874.651 268.8C874.651 269.25 875.026 269.55 875.476 269.475C875.701 269.475 875.851 269.4 875.926 269.25C876.076 269.1 876.151 268.875 876.151 268.65L875.626 262.875C875.626 262.275 875.776 261.9 876.001 261.9C876.226 261.9 876.601 262.2 876.601 262.95C876.901 265.425 877.276 269.475 877.276 269.55C877.351 270 877.651 270.3 878.101 270.225C878.551 270.15 878.851 269.85 878.776 269.4C878.776 269.175 878.251 263.55 877.951 261.525C877.876 261.225 878.101 261 878.251 260.925C878.401 260.925 878.626 261.15 878.701 261.525L879.751 267.225C879.826 267.6 880.201 267.9 880.651 267.825C880.801 267.825 880.951 267.75 881.026 267.6C881.176 267.45 881.251 267.15 881.251 266.925L880.201 261.375C879.901 260.175 880.201 259.2 880.501 258.675C880.651 258.45 880.801 258.375 880.876 258.375C881.326 258.375 882.001 258.75 882.601 258.975C882.976 259.125 883.276 259.35 883.576 259.425C884.701 259.875 885.826 259.425 885.901 259.35C885.976 259.275 886.051 259.275 886.126 259.2C886.276 259.05 886.351 258.825 886.351 258.6C886.426 258.3 886.126 258 885.826 258Z" fill="#FFBDB8"/>
<path d="M817.725 203.925L804.975 211.875C804.975 211.875 797.7 207.9 794.025 204.9C793.35 204.375 791.85 202.275 791.85 202.275C791.7 201.45 791.025 200.25 790.8 199.875C789.975 198.525 788.775 196.35 788.625 194.7C788.55 194.175 788.775 193.35 788.85 193.05C788.925 192.75 788.85 192.375 788.55 192.225C788.325 192.075 788.1 192.075 787.875 192.15C787.8 192.15 787.725 192.225 787.65 192.3C787.575 192.375 786.75 193.2 786.675 194.325C786.675 194.625 786.675 195 786.675 195.375C786.675 195.975 787.2 197.4 786.975 197.775C786.975 197.775 786.825 197.925 786.6 197.925C786 198.075 784.65 197.325 783.675 196.575L779.175 193.425C778.95 193.275 778.725 193.275 778.5 193.35C778.35 193.425 778.2 193.5 778.125 193.65C777.9 193.95 777.975 194.475 778.275 194.7L782.4 197.925C782.625 198.15 780.3 200.025 782.025 204.375C782.175 204.675 782.4 204.975 782.7 205.2C784.05 206.1 785.775 207.075 786.45 207.15C786.45 207.15 788.625 209.175 789.225 210L800.4 220.725C802.275 222.525 805.05 222.975 807.375 221.85L823.35 214.35L817.725 203.925Z" fill="#FFBDB8"/>
<path d="M222 152.475C222 152.475 222.75 142.275 223.575 139.8C224.1 138.075 226.5 135.525 227.925 134.1C228.525 133.5 228.9 133.125 228.9 133.125L231.825 142.05L229.8 144.75L229.275 152.55L222 152.475Z" fill="#FFBDB8"/>
<path d="M198.825 197.1L217.8 191.1C221.7 189.825 224.625 186.525 225.375 182.475L229.725 151.95C229.8 151.5 229.5 151.125 229.05 151.05L222.375 150.45C221.775 150.375 221.25 150.75 221.1 151.35L213.675 177.825L198.975 182.1L198.825 197.1Z" fill="#FF5776"/>
<path d="M124.65 209.025L122.925 210.6C122.325 210.825 117.525 211.875 117.525 211.875C116.4 211.95 113.7 213.075 111.375 214.05C111.15 214.125 110.925 214.2 110.7 214.35C110.7 214.35 110.7 214.35 110.625 214.35C109.575 214.875 108.6 215.25 108 215.55C107.625 215.7 107.475 216.15 107.625 216.525C107.775 216.9 108.225 217.05 108.6 216.9C109.65 216.375 110.7 215.925 111.75 215.475C111.9 215.475 111.975 215.475 112.125 215.55C112.2 215.625 112.275 215.7 112.275 215.775C112.275 215.85 112.125 216.075 111.825 216.225L106.95 219.075C106.575 219.3 106.5 219.75 106.725 220.05C106.8 220.2 106.95 220.35 107.1 220.35C107.325 220.425 107.475 220.425 107.7 220.275L112.5 217.425C113.025 217.125 113.4 217.2 113.475 217.35C113.55 217.575 113.475 217.95 112.8 218.325C110.775 219.6 107.4 221.55 107.4 221.625C107.025 221.85 106.95 222.3 107.175 222.6C107.4 222.975 107.85 223.05 108.15 222.825C108.375 222.675 113.025 219.9 114.675 218.85C114.9 218.7 115.2 218.775 115.35 218.925C115.425 219.075 115.275 219.3 115.05 219.525L110.55 222.825C110.25 223.05 110.175 223.5 110.4 223.875C110.475 224.025 110.625 224.1 110.775 224.1C111 224.175 111.225 224.175 111.45 224.025L115.875 220.8C115.875 220.8 117.9 219.75 119.775 218.925C119.85 219.225 120.075 219.375 119.85 219.6C119.25 220.125 119.025 220.725 118.5 221.475C117.375 222.975 117.15 223.575 117.525 224.1C117.975 224.625 119.625 222.15 120.75 221.775C121.35 221.55 121.725 221.25 122.325 220.95C123.075 220.575 123.75 220.125 124.35 219.525L128.925 213.9L124.65 209.025Z" fill="#FFBDB8"/>
<path d="M224.775 137.775C224.85 138.075 225 138.3 225.3 138.375C225.75 138.6 226.275 138.375 226.5 137.925L228.45 133.5C228.675 133.05 228.45 132.525 228 132.3C227.55 132.075 227.025 132.3 226.8 132.75L224.85 137.175C224.775 137.4 224.775 137.625 224.775 137.775Z" fill="#FFBDB8"/>
<path d="M226.051 136.125C226.051 136.425 226.126 136.8 226.351 137.025C226.726 137.4 227.326 137.325 227.626 136.875L231.376 131.625C231.676 131.175 231.601 130.5 231.226 130.2C230.851 129.825 230.251 129.9 229.951 130.35L226.201 135.6C226.126 135.75 226.051 135.9 226.051 136.125Z" fill="#FFBDB8"/>
<path d="M234.675 129.6C234.825 129.225 234.75 128.85 234.45 128.55C234.075 128.175 233.475 128.25 233.175 128.625L229.05 133.125C228.675 133.5 228.75 134.1 229.125 134.4C229.5 134.775 230.1 134.7 230.4 134.325L234.525 129.825C234.6 129.75 234.675 129.675 234.675 129.6Z" fill="#FFBDB8"/>
<path d="M230.175 132.525C232.35 131.175 235.725 128.4 237 128.7C238.275 129 237.6 129.525 236.325 130.8C235.05 132.075 230.925 135.15 231.075 136.2C231.225 137.25 231.825 140.1 232.575 139.125C233.475 138.075 235.8 136.725 237 136.725C238.2 136.725 238.875 137.775 237.975 138.075C237.075 138.375 234.825 140.925 233.925 141.75C232.95 142.5 229.8 144.825 229.8 144.825L227.4 134.7L230.175 132.525Z" fill="#FFBDB8"/>
<path d="M190.201 149.925C181.876 147.225 179.326 152.25 180.001 155.175C180.301 156.6 190.201 171.75 190.201 171.75V149.925Z" fill="#000061"/>
<path d="M163.95 323.925L160.5 338.25H188.85C188.85 338.25 185.175 333 174.225 329.175L176.25 323.925H163.95Z" fill="#3850B5"/>
<path d="M160.426 336.675H187.426L188.851 338.25H160.501L160.426 336.675Z" fill="#B9C3EE"/>
<path d="M171.075 330.9C171 330.9 170.85 330.825 170.85 330.75C170.775 330.6 170.85 330.45 171 330.375L174.225 328.95C174.375 328.875 174.525 328.95 174.6 329.1C174.675 329.25 174.6 329.4 174.45 329.475L171.225 330.9C171.15 330.9 171.075 330.9 171.075 330.9Z" fill="#000061"/>
<path d="M175.276 333.525C175.201 333.525 175.051 333.45 175.051 333.375C174.976 333.225 175.051 333.075 175.201 333L179.551 331.2C179.701 331.125 179.851 331.2 179.926 331.35C180.001 331.5 179.926 331.65 179.776 331.725L175.426 333.525C175.351 333.525 175.276 333.525 175.276 333.525Z" fill="#000061"/>
<path d="M180.376 335.4C180.301 335.4 180.151 335.325 180.151 335.25C180.076 335.1 180.151 334.95 180.301 334.875L183.451 333.375C183.601 333.3 183.751 333.375 183.826 333.525C183.901 333.675 183.826 333.825 183.676 333.9L180.526 335.4C180.451 335.4 180.451 335.4 180.376 335.4Z" fill="#000061"/>
<path d="M175.35 329.475C175.275 329.475 175.125 329.4 175.125 329.325C175.05 329.175 175.125 329.025 175.275 328.95C177.525 328.05 181.125 326.325 181.275 325.35C181.275 325.275 181.275 325.2 181.125 325.05C180.375 324.45 178.35 325.5 176.475 326.85C175.425 327.75 174.525 328.425 174.45 328.5C174.3 328.575 174.15 328.575 174.075 328.425C174 328.275 174 328.125 174.075 328.05C174.3 327.825 175.125 327.15 176.175 326.4C177.975 324.825 180.15 322.725 180.3 321.525C180.3 321.3 180.3 321.15 180.225 321.075C180 320.85 179.775 320.7 179.55 320.7C178.65 320.775 176.775 322.125 172.95 328.425C172.875 328.575 172.725 328.575 172.575 328.5C172.425 328.425 172.425 328.275 172.5 328.125C175.725 322.8 177.975 320.25 179.55 320.175C180 320.175 180.375 320.325 180.75 320.7C180.975 320.925 181.05 321.225 180.975 321.6C180.825 322.5 179.925 323.7 178.8 324.9C179.925 324.375 180.975 324.15 181.65 324.675C182.025 324.975 182.025 325.275 182.025 325.5C181.8 327.075 176.7 329.1 175.65 329.55C175.425 329.475 175.35 329.475 175.35 329.475Z" fill="#000061"/>
<path d="M909.225 330.45L903.675 355.5H897.825L901.725 330.45H909.225Z" fill="#FFB2A8"/>
<path d="M925.575 330.45L929.175 356.025H923.325L918.075 330.45H925.575Z" fill="#FFB2A8"/>
<path d="M198.6 184.125L200.775 172.725C200.775 172.725 204 172.725 204.975 169.8C206.85 164.25 201.15 149.325 201.15 149.325C197.475 150.675 187.5 149.25 189.375 155.55C190.65 159.975 188.85 163.875 188.175 163.5C187.65 162.3 185.7 162.075 185.025 163.05C184.05 164.475 186.6 168 188.625 167.1C189.975 170.1 189.225 170.025 188.7 172.05C188.025 174.675 187.275 175.95 185.925 178.875L198.6 184.125Z" fill="#FFBDB8"/>
<path d="M838.2 194.475V186.9C838.2 186.9 835.95 187.05 834.375 184.875C831.375 180.75 833.025 166.575 833.025 166.575C849.6 165.675 846.675 179.7 846.525 181.575C846.375 183.375 846.75 194.55 848.85 196.125C848.85 196.125 847.65 198 842.325 197.475C837 197.025 835.725 194.475 835.725 194.475H838.2Z" fill="#FFBDB8"/>
<path d="M922.425 355.125L923.325 362.4H937.575C937.575 362.4 935.7 359.775 930.15 357.825L929.1 355.125H922.425Z" fill="#3850B5"/>
<path d="M923.25 362.025C923.1 362.025 936.825 362.025 936.825 362.025L937.575 362.85H923.325L923.25 362.025Z" fill="#B9C3EE"/>
<path d="M897.076 362.025C896.926 362.025 903.976 362.025 903.976 362.025V362.85H897.151L897.076 362.025Z" fill="#B9C3EE"/>
<path d="M830.175 236.475C828.525 239.175 826.8 242.25 825.3 245.175C822.225 251.175 821.475 251.775 820.875 258.45L819.525 341.925H833.025L839.925 272.475L838.275 237L830.175 236.475Z" fill="#3850B5"/>
<path d="M833.851 236.625L853.951 236.85C853.951 236.85 859.801 256.275 860.026 265.65C860.326 274.95 866.776 341.775 866.776 341.775H852.226C852.226 341.775 836.701 265.2 836.776 258.675C836.851 252.075 833.851 236.625 833.851 236.625Z" fill="#3850B5"/>
<path d="M855.3 350.85L855.375 362.475L878.4 362.55C878.4 362.55 875.4 358.275 866.475 355.2L865.125 350.925L855.3 350.85Z" fill="#000061"/>
<path d="M855.3 361.2L877.2 361.275L878.4 362.55L855.375 362.475L855.3 361.2Z" fill="#B9C3EE"/>
<path d="M863.775 356.55C863.7 356.55 863.55 356.475 863.55 356.4C863.475 356.25 863.55 356.1 863.7 356.025L866.325 354.9C866.475 354.825 866.625 354.9 866.7 355.05C866.775 355.2 866.7 355.35 866.55 355.425L863.925 356.55C863.85 356.55 863.85 356.55 863.775 356.55Z" fill="#000061"/>
<path d="M867.225 358.65C867.15 358.65 867 358.575 867 358.5C866.925 358.35 867 358.2 867.15 358.125L870.675 356.625C870.825 356.55 870.975 356.625 871.05 356.775C871.125 356.925 871.05 357.075 870.9 357.15L867.375 358.65C867.3 358.65 867.3 358.65 867.225 358.65Z" fill="#000061"/>
<path d="M871.425 360.225C871.35 360.225 871.2 360.15 871.2 360.075C871.125 359.925 871.2 359.775 871.35 359.7L873.9 358.5C874.05 358.425 874.2 358.5 874.275 358.65C874.35 358.8 874.275 358.95 874.125 359.025L871.575 360.225C871.5 360.225 871.5 360.225 871.425 360.225Z" fill="#000061"/>
<path d="M867.3 355.425C867.15 355.425 867.075 355.35 867.075 355.275C867 355.125 867.075 354.975 867.225 354.9C869.175 354.15 871.95 352.725 872.1 352.05C872.1 352.05 872.1 351.975 872.025 351.9C871.425 351.45 869.85 352.275 868.425 353.325C867.6 354.075 866.85 354.6 866.7 354.75C866.55 354.825 866.4 354.825 866.325 354.675C866.25 354.525 866.25 354.375 866.325 354.3C866.475 354.15 867.15 353.55 867.975 352.95C869.475 351.675 871.2 349.95 871.35 348.975C871.35 348.825 871.35 348.675 871.275 348.6C871.125 348.375 870.975 348.3 870.75 348.375C870 348.45 868.5 349.575 865.425 354.675C865.35 354.825 865.2 354.825 865.05 354.75C864.9 354.675 864.9 354.525 864.975 354.375C867.675 350.025 869.475 347.925 870.75 347.85C871.125 347.85 871.5 348 871.725 348.3C871.875 348.525 871.95 348.75 871.95 349.05C871.875 349.725 871.2 350.7 870.3 351.525C871.125 351.15 871.875 351.075 872.4 351.45C872.7 351.675 872.7 351.975 872.7 352.125C872.475 353.4 868.35 355.125 867.45 355.425C867.375 355.425 867.375 355.425 867.3 355.425Z" fill="#000061"/>
<path d="M859.275 357.225C858.375 357.225 857.7 356.475 857.7 355.65C857.7 354.825 858.45 354.075 859.275 354.075C860.1 354.075 860.85 354.825 860.85 355.65C860.85 356.475 860.175 357.225 859.275 357.225ZM859.275 354.525C858.675 354.525 858.225 354.975 858.225 355.575C858.225 356.175 858.675 356.625 859.275 356.625C859.875 356.625 860.325 356.175 860.325 355.575C860.325 354.975 859.875 354.525 859.275 354.525Z" fill="#000061"/>
<path d="M821.55 341.925L821.025 350.85H828.525L829.875 341.775L821.55 341.925Z" fill="#FFB2A8"/>
<path d="M855.3 341.775L856.125 350.85H863.775V341.925L855.3 341.775Z" fill="#FFB2A8"/>
<path d="M929.251 289.725C929.026 289.2 929.701 282.15 929.476 281.625C929.251 281.1 933.451 280.95 934.726 280.5L941.476 270.9C941.551 270.3 941.926 269.4 942.076 269.1C942.601 268.05 943.351 266.475 943.276 265.275C943.276 264.9 943.051 264.3 942.976 264.15C942.901 263.925 942.976 263.7 943.126 263.55C943.276 263.475 943.426 263.4 943.576 263.475C943.651 263.475 943.726 263.55 943.726 263.55C943.801 263.625 944.476 264.075 944.551 264.975C944.551 265.2 944.626 265.5 944.626 265.725C944.626 266.175 944.701 266.775 944.851 267C944.851 267 944.926 267.075 945.151 267.075C945.526 267.15 946.201 266.925 946.876 266.325L949.876 263.775C950.026 263.625 950.176 263.625 950.326 263.7C950.401 263.7 950.551 263.775 950.626 263.85C950.776 264.075 950.776 264.375 950.551 264.6L947.476 267.225C947.326 267.375 947.176 267.6 947.251 267.675C947.326 267.75 947.551 267.825 947.701 267.675C948.826 266.85 952.051 264.6 952.201 264.525C952.426 264.375 952.801 264.45 952.951 264.675C953.101 264.9 953.026 265.275 952.801 265.425C952.801 265.425 950.476 267.075 949.051 268.05C948.601 268.35 948.526 268.65 948.601 268.8C948.676 268.95 948.976 268.95 949.351 268.725L952.726 266.4C952.876 266.325 953.026 266.325 953.176 266.325C953.326 266.325 953.401 266.4 953.476 266.55C953.626 266.775 953.551 267.15 953.326 267.3L949.951 269.625C949.726 269.775 949.651 269.925 949.651 270C949.651 270.075 949.726 270.15 949.801 270.15C949.876 270.15 949.951 270.225 950.026 270.15C950.776 269.775 951.526 269.325 952.201 268.95C952.426 268.8 952.801 268.875 952.951 269.175C953.101 269.4 953.026 269.775 952.726 269.925C952.351 270.15 951.676 270.525 950.926 270.9C950.776 270.975 950.626 271.05 950.476 271.125C948.826 271.95 946.951 272.925 946.126 273L938.176 286.65C937.726 287.4 937.126 288 936.301 288.3C934.051 289.35 929.701 290.775 929.251 289.725Z" fill="#FFBDB8"/>
<path d="M905.7 303.15L903 309.45C902.475 310.8 902.1 312.15 901.95 313.575L899.85 334.875C899.775 335.625 900.375 336.225 901.05 336.225H910.65C911.25 336.225 911.775 335.775 911.85 335.175L913.875 322.65L916.95 335.325C917.1 335.85 917.55 336.3 918.15 336.3H926.7C927.45 336.3 927.975 335.625 927.9 334.95C927.3 330 925.275 312.975 924.825 310.35C923.925 305.325 923.325 303.6 923.325 303.6L905.7 303.15Z" fill="#FF5776"/>
<path d="M199.275 178.8L187.8 175.5C187.125 175.275 186.45 175.65 186.15 176.25L184.35 180.675L177.075 181.725C176.4 181.8 175.725 181.95 175.05 182.1C168.9 183.525 156.075 186.15 149.175 187.575C146.775 188.025 144.6 189.225 142.875 190.95L123.75 209.55L127.875 215.475L151.275 201.225L167.7 199.8C165.975 203.325 164.475 206.175 163.875 207C161.925 209.475 158.25 210.675 157.725 213.225C157.2 215.85 157.725 216.75 156.525 218.7C155.325 220.65 152.85 221.025 151.35 223.65C149.775 226.275 149.775 229.875 151.35 232.35H180.9L181.425 232.2C183.3 231.6 184.875 230.175 185.7 228.3C187.575 223.875 191.25 215.7 193.2 212.85C195.9 208.8 199.725 204.225 200.25 199.95C200.775 195.675 200.475 184.65 200.475 184.65L200.625 180.6C200.625 179.85 200.1 179.025 199.275 178.8Z" fill="#FF5776"/>
<path d="M202.275 148.125C201.675 143.1 194.1 140.625 191.25 140.475C188.55 140.325 187.05 142.275 189.15 144.6C185.55 143.7 181.35 144.9 182.25 147.525C183.675 151.875 187.05 155.55 189.45 155.55C188.55 148.275 202.725 151.8 202.275 148.125Z" fill="#000061"/>
<path d="M191.475 169.8C192.675 171 195.75 173.025 200.775 172.725C200.025 175.5 199.875 177.525 199.875 177.525C199.875 177.525 195.525 175.95 193.95 174.225C192.375 172.425 191.475 169.8 191.475 169.8Z" fill="#000061"/>
<path d="M169.65 304.875L164.85 323.925H176.325L183 309.525L169.65 304.875Z" fill="#FFB2A8"/>
<path d="M167.775 312.3L180.375 315.15L176.325 323.925H164.85L167.775 312.3Z" fill="#000061"/>
<path d="M830.044 264.57L829.958 264.935L846.82 268.913L846.906 268.548L830.044 264.57Z" fill="#000061"/>
<path d="M829.507 268.73L825.238 341.581L825.613 341.603L829.881 268.752L829.507 268.73Z" fill="#000061"/>
<path d="M850.489 271.334L850.117 271.383L859.339 341.878L859.711 341.83L850.489 271.334Z" fill="#000061"/>
<path d="M177.676 234.375L197.176 269.1C199.651 273.45 199.801 278.775 197.701 283.35L185.626 308.925C185.251 309.675 184.426 310.05 183.676 309.75L170.251 305.025C169.426 304.725 168.976 303.75 169.276 302.925C170.926 298.725 175.351 287.175 175.876 285.375C177.151 281.325 180.451 276.975 180.451 276.975L164.926 257.175L177.676 234.375Z" fill="#000061"/>
<path d="M119.775 285.9L95.4004 275.4L99.1504 264.525L119.775 273.075V285.9Z" fill="#FFB2A8"/>
<path d="M106.275 280.05L110.85 269.4L99.1504 264.525L95.4004 275.4L106.275 280.05Z" fill="#000061"/>
<path d="M118.95 273.15L116.7 287.325C116.55 288.45 117.225 289.5 118.275 289.8L131.85 293.7C134.4 294.45 137.176 293.55 138.826 291.45C145.201 283.35 157.576 269.175 164.851 257.175C167.701 252.525 180.826 232.425 180.826 232.425H151.276C151.276 232.425 146.176 234 144.001 238.95C141.75 243.9 141.75 250.05 141.75 250.05L127.65 272.85L121.5 271.425C120.375 271.05 119.175 271.875 118.95 273.15Z" fill="#000061"/>
<path d="M94.5753 276.975L83.2503 272.55L67.0503 271.725C65.3253 271.65 64.8753 269.25 66.5253 268.575L88.3503 259.575L100.5 264.6L94.5753 276.975Z" fill="#3850B5"/>
<path d="M65.5503 270.3L90.3753 260.325L88.3503 259.575L66.5253 268.575C66.5253 268.575 66.0753 268.8 65.7753 269.175C65.4753 269.625 65.5503 270.3 65.5503 270.3Z" fill="#B9C3EE"/>
<path d="M74.6252 272.4C74.4002 272.4 74.3252 272.25 74.3252 272.1L74.8502 269.1C74.8502 268.95 75.0002 268.875 75.1502 268.875C75.3002 268.875 75.3752 269.025 75.3752 269.175L74.8502 272.175C74.8502 272.325 74.7752 272.4 74.6252 272.4Z" fill="#000061"/>
<path d="M79.8 272.7C79.8 272.7 79.725 272.7 79.8 272.7C79.575 272.7 79.5 272.55 79.5 272.4L79.95 269.1C79.95 268.95 80.1 268.875 80.25 268.875C80.4 268.875 80.475 269.025 80.475 269.175L80.025 272.475C80.025 272.55 79.95 272.7 79.8 272.7Z" fill="#000061"/>
<path d="M83.2499 272.85C83.1749 272.85 83.0998 272.775 83.0248 272.7C82.9498 272.55 82.9499 272.4 83.0999 272.325C83.4749 272.1 83.9249 270.3 84.1499 268.725C84.1499 268.575 84.2999 268.5 84.4499 268.5C84.5999 268.5 84.6749 268.65 84.6749 268.8C84.5249 269.625 84.0749 272.325 83.3249 272.775C83.3249 272.85 83.3249 272.85 83.2499 272.85Z" fill="#000061"/>
<path d="M84.9757 281.025C84.8257 281.025 84.6757 281.025 84.5257 280.95C84.1507 280.875 83.7757 280.575 83.5507 280.2C82.8757 278.925 83.1007 276.375 83.5507 274.35C82.8757 275.625 82.0507 276.825 81.3007 277.05C81.0007 277.125 80.7007 277.125 80.4757 276.975C80.2507 276.825 80.1007 276.525 80.0257 276.225C79.8007 274.5 82.8007 271.05 83.1007 270.675C83.1757 270.525 83.4007 270.525 83.4757 270.675C83.6257 270.75 83.6257 270.975 83.4757 271.05C82.5757 272.025 80.3257 274.95 80.4757 276.15C80.4757 276.3 80.5507 276.45 80.7007 276.525C80.7757 276.6 80.9257 276.6 81.0757 276.6C82.2007 276.225 83.7007 272.775 84.2257 271.5C84.3007 271.35 84.4507 271.275 84.6007 271.35C84.7507 271.425 84.8257 271.575 84.7507 271.725C84.7507 271.8 82.8757 278.025 84.0007 280.05C84.1507 280.35 84.3757 280.5 84.6007 280.575C84.9757 280.65 85.2007 280.575 85.3507 280.5C86.3257 279.675 85.7257 275.85 85.4257 273.525C85.3507 273.075 85.2757 272.625 85.2757 272.25C85.2757 272.1 85.3507 271.95 85.5007 271.95C85.6507 271.95 85.8007 272.025 85.8007 272.175C85.8757 272.55 85.8757 273 85.9507 273.45C86.4757 276.975 86.7757 279.975 85.7257 280.95C85.5757 280.875 85.2757 281.025 84.9757 281.025Z" fill="#000061"/>
<path d="M820.951 350.85C820.951 351.9 818.851 361.2 818.851 361.2H829.726V350.475L820.951 350.85Z" fill="#000061"/>
<path d="M897.9 355.125C897.9 355.725 897.075 361.95 897.075 361.95H903.9V355.125H897.9Z" fill="#3850B5"/>
<path d="M829.876 361.2H818.851V362.4H829.876V361.2Z" fill="#B9C3EE"/>
<path d="M869.401 218.475L865.876 203.625C864.526 198.075 859.726 194.025 854.026 193.725L848.851 193.425H840.301H835.201C830.701 193.425 827.251 195.225 823.351 197.475L813.676 204.225C813.676 204.225 815.176 207.375 816.601 210.375C818.176 213.675 820.576 216.375 820.576 216.375L827.551 212.775V227.25C827.551 229.425 828.076 231.525 829.126 233.4L830.176 236.475L854.026 236.85L855.451 216.15L858.076 223.2C858.076 223.2 860.851 223.275 864.226 222C867.526 220.65 869.401 218.475 869.401 218.475Z" fill="#000061"/>
<path d="M900.525 288.9C899.25 286.65 899.475 281.25 901.65 279.825C904.425 279.225 912.225 279.825 912.225 279.825L926.851 280.425C926.851 280.425 931.201 280.2 931.726 280.65C933.526 282.3 934.051 287.625 932.551 289.65C931.051 291.675 924.15 291.525 924.15 291.525L924.075 301.425C924.075 301.725 924 302.025 923.85 302.325L923.25 303.525C923.25 303.525 918 304.725 913.8 304.575C910.425 304.425 905.625 303.15 905.625 303.15L905.175 302.55C904.8 301.95 904.575 301.275 904.65 300.6L905.625 290.25C905.7 290.175 902.025 289.725 900.525 288.9Z" fill="#000061"/>
<path d="M195.076 167.4C196.235 167.4 197.176 166.459 197.176 165.3C197.176 164.14 196.235 163.2 195.076 163.2C193.916 163.2 192.976 164.14 192.976 165.3C192.976 166.459 193.916 167.4 195.076 167.4Z" fill="#FF5776"/>
<path d="M205.051 162.975C204.151 163.275 203.176 162.75 202.951 161.85C202.726 160.95 203.326 159.975 204.226 159.675L205.051 162.975Z" fill="#FF5776"/>
<path d="M201.451 158.4L200.926 158.325C201.001 157.5 201.376 156.825 201.976 156.45C202.576 156.075 203.251 156 204.076 156.3L203.926 156.825C203.326 156.6 202.801 156.675 202.351 156.975C201.751 157.2 201.451 157.725 201.451 158.4Z" fill="#000061"/>
<path d="M202.726 158.175C203.14 158.175 203.476 157.84 203.476 157.425C203.476 157.011 203.14 156.675 202.726 156.675C202.311 156.675 201.976 157.011 201.976 157.425C201.976 157.84 202.311 158.175 202.726 158.175Z" fill="#000061"/>
<path d="M194.4 161.474L193.875 161.399C193.95 160.574 194.325 159.899 194.925 159.449C195.525 159.074 196.2 158.999 197.025 159.299L196.875 159.824C196.275 159.599 195.75 159.674 195.3 159.974C194.7 160.274 194.4 160.799 194.4 161.474Z" fill="#000061"/>
<path d="M195.676 161.025C196.09 161.025 196.426 160.689 196.426 160.275C196.426 159.861 196.09 159.525 195.676 159.525C195.262 159.525 194.926 159.861 194.926 160.275C194.926 160.689 195.262 161.025 195.676 161.025Z" fill="#000061"/>
<path d="M203.851 154.125C204.076 152.925 200.926 153 200.476 153.9C200.101 154.8 201.076 154.95 201.826 154.725C202.651 154.5 203.776 154.65 203.851 154.125Z" fill="#000061"/>
<path d="M191.7 159C190.725 158.175 193.275 156.225 194.1 156.675C195 157.125 194.325 157.875 193.575 158.175C192.825 158.475 192.075 159.375 191.7 159Z" fill="#000061"/>
<path d="M203.851 164.55C201.826 165.975 199.051 166.35 199.051 166.35C199.051 166.35 200.476 169.275 202.651 168.45C204.901 167.475 203.851 164.55 203.851 164.55Z" fill="white"/>
<path d="M130.2 279.075C129.45 276.375 128.7 275.4 128.025 274.425C127.725 274.05 127.425 273.6 127.125 273.15L128.4 272.4C128.625 272.85 128.925 273.15 129.225 273.525C129.975 274.5 130.875 275.7 131.7 278.7L130.2 279.075Z" fill="#000061"/>
<path d="M157.2 241.875V241.5C165.6 241.5 167.925 235.725 168.9 233.175C169.05 232.8 169.2 232.5 169.275 232.35L169.575 232.5C169.5 232.65 169.35 232.95 169.2 233.325C168.225 235.875 165.825 241.875 157.2 241.875Z" fill="#B9C3EE"/>
<path d="M180.9 277.5L179.85 276.45C183.075 273.3 186.375 272.775 186.45 272.775L186.675 274.275C186.675 274.275 183.825 274.725 180.9 277.5Z" fill="#000061"/>
<path d="M121.65 290.7L121.275 290.625L123.075 271.725H123.45L121.65 290.7Z" fill="#B9C3EE"/>
<path d="M170.507 299.576L170.372 299.926L186.82 306.259L186.954 305.909L170.507 299.576Z" fill="#B9C3EE"/>
<path d="M132.825 283.05C130.275 283.05 122.625 281.475 122.325 281.4L122.4 281.025C122.475 281.025 131.475 282.9 133.275 282.6C134.7 282.375 144.075 266.775 149.1 258.375C150.3 256.425 151.275 254.7 152.1 253.425C154.8 249.075 156.45 243.525 157.8 239.025C158.775 235.725 159.6 233.1 160.425 232.275L160.725 232.5C159.975 233.325 159.15 235.875 158.175 239.1C156.825 243.6 155.175 249.15 152.475 253.575C151.65 254.925 150.6 256.575 149.475 258.525C141.825 271.275 134.85 282.675 133.35 282.9C133.125 283.05 132.975 283.05 132.825 283.05Z" fill="#B9C3EE"/>
<path d="M136.126 210.225L130.801 202.65L131.101 202.425L136.426 210L136.126 210.225Z" fill="#B9C3EE"/>
<path d="M141.613 192.312L141.274 192.473L146.781 204.055L147.12 203.894L141.613 192.312Z" fill="#B9C3EE"/>
<path d="M156.75 200.55L153.975 186.825L154.35 186.75L157.125 200.475L156.75 200.55Z" fill="#B9C3EE"/>
<path d="M167.025 184.125H166.65V199.95H167.025V184.125Z" fill="#B9C3EE"/>
<path d="M203.009 180.853L202.646 180.946L206.158 194.757L206.522 194.664L203.009 180.853Z" fill="#B9C3EE"/>
<path d="M212.987 177.864L212.643 178.011L218.166 190.903L218.51 190.756L212.987 177.864Z" fill="#B9C3EE"/>
<path d="M215.463 170.982L215.356 171.342L226.433 174.615L226.539 174.256L215.463 170.982Z" fill="#B9C3EE"/>
<path d="M218.936 158.609L218.888 158.981L228.483 160.215L228.531 159.843L218.936 158.609Z" fill="#B9C3EE"/>
<g opacity="0.5">
<path opacity="0.5" d="M912.225 333H900V333.375H912.225V333Z" fill="white"/>
</g>
<g opacity="0.5">
<path opacity="0.5" d="M927.675 333H916.425V333.375H927.675V333Z" fill="white"/>
</g>
<path d="M412.125 258.075L395.475 257.925C390.075 257.85 382.65 260.625 379.35 268.725C375 279.3 374.025 282.675 374.025 282.675C375.3 288.45 386.025 288.375 386.025 288.375C386.25 288.45 382.8 303.15 382.8 303.45L382.725 311.55C382.725 311.55 382.725 311.55 382.725 311.625L383.1 318.375C383.1 318.75 384.6 320.025 384.975 319.95L421.125 314.775C421.5 314.7 421.725 314.475 421.725 314.1V299.55C421.725 299.25 421.95 298.95 422.25 298.875L431.7 296.1C432.075 296.025 432.3 295.65 432.15 295.275L423.9 265.8C422.625 261.6 416.475 259.05 412.125 258.075Z" fill="#000061"/>
<path d="M447.451 374.025L447.826 386.1L453.076 400.35C453.676 401.925 451.726 403.125 450.526 402L434.776 386.55L434.551 374.25L447.451 374.025Z" fill="#000061"/>
<path d="M452.475 402.15L434.775 384.45L434.85 386.475L450.6 401.925C450.6 401.925 450.975 402.225 451.425 402.375C451.875 402.45 452.475 402.15 452.475 402.15Z" fill="#B9C3EE"/>
<path d="M450.525 393.294L447.749 393.94L447.919 394.67L450.695 394.025L450.525 393.294Z" fill="#FF5776"/>
<path d="M448.856 388.805L445.894 389.628L446.094 390.351L449.057 389.527L448.856 388.805Z" fill="#FF5776"/>
<path d="M444.225 386.85L444.075 386.1C445.05 385.875 447.45 385.35 448.125 385.8L447.675 386.4L447.9 386.1L447.675 386.4C447.375 386.25 445.8 386.475 444.225 386.85Z" fill="#FF5776"/>
<path d="M452.551 388.5C450.376 388.5 446.701 387.225 446.176 387L446.401 386.325C448.576 387.075 452.401 388.125 453.376 387.6C453.451 387.525 453.451 387.525 453.451 387.45C453.451 387.45 453.451 387.375 453.376 387.3C452.701 386.475 448.726 385.875 446.326 385.725V384.975C447.526 384.825 450.826 384.3 451.726 383.1C451.951 382.875 452.026 382.575 451.951 382.275C451.951 382.05 451.876 381.75 451.651 381.675C451.126 381.45 449.626 382.5 448.426 383.325C447.826 383.775 447.151 384.225 446.551 384.6L446.176 383.925C446.776 383.625 447.376 383.175 447.976 382.725C449.551 381.6 450.976 380.625 451.876 381C452.251 381.15 452.551 381.6 452.626 382.2C452.701 382.725 452.551 383.175 452.251 383.55C451.576 384.375 450.226 384.9 448.951 385.275C450.901 385.5 453.226 386.025 453.826 386.85C453.976 387.075 454.051 387.375 454.051 387.6C453.976 387.9 453.826 388.125 453.601 388.275C453.451 388.425 453.076 388.5 452.551 388.5Z" fill="#FF5776"/>
<path d="M423.751 374.7L424.126 386.1L429.376 400.35C429.976 401.925 428.026 403.125 426.826 402L411.076 386.55L410.851 374.25L423.751 374.7Z" fill="#000061"/>
<path d="M428.7 402.15L411 384.45L411.075 386.475L426.825 401.925C426.825 401.925 427.2 402.225 427.65 402.375C428.1 402.525 428.7 402.15 428.7 402.15Z" fill="#B9C3EE"/>
<path d="M426.826 393.289L424.05 393.934L424.22 394.664L426.996 394.019L426.826 393.289Z" fill="#FF5776"/>
<path d="M425.155 388.797L422.192 389.62L422.393 390.343L425.356 389.52L425.155 388.797Z" fill="#FF5776"/>
<path d="M420.525 386.85L420.375 386.1C421.35 385.875 423.75 385.35 424.425 385.8L423.975 386.4L424.2 386.1L423.975 386.4C423.675 386.25 422.1 386.475 420.525 386.85Z" fill="#FF5776"/>
<path d="M427.126 387.9C425.326 387.9 422.851 387.15 422.551 387L422.776 386.25C424.426 386.775 427.351 387.45 428.176 386.925C428.326 386.85 428.326 386.775 428.326 386.7C428.326 386.625 428.326 386.55 428.251 386.475C427.651 385.8 424.576 385.65 422.776 385.725L422.701 384.975C424.351 384.75 429.001 384 430.051 382.575C430.201 382.35 430.276 382.125 430.276 381.975C430.201 381.6 430.051 381.525 429.976 381.45C429.001 381 425.926 382.875 424.051 384C423.676 384.225 423.301 384.45 423.001 384.6L422.626 383.925C422.926 383.775 423.301 383.55 423.601 383.325C426.451 381.6 428.926 380.175 430.201 380.775C430.501 380.925 430.801 381.225 430.951 381.825C431.026 382.275 430.876 382.65 430.576 383.025C429.826 384 427.876 384.675 426.151 385.125C427.276 385.275 428.326 385.5 428.701 386.025C428.926 386.25 429.001 386.55 428.926 386.85C428.851 387.15 428.701 387.375 428.401 387.6C428.176 387.825 427.651 387.9 427.126 387.9Z" fill="#FF5776"/>
<path d="M405.675 329.175H432C432 329.175 431.175 340.725 431.4 342.9L432.9 370.95H445.95L448.875 324.225C449.325 320.025 446.775 315.825 443.025 314.4C432.525 310.35 415.875 310.2 415.875 310.2C410.325 310.575 407.325 313.125 404.55 321.375C403.5 324.45 405.675 329.175 405.675 329.175Z" fill="#3850B5"/>
<path d="M426 236.475C425.775 237.9 424.65 239.025 424.05 240.3C423.45 241.575 423.3 243.225 422.4 244.275C421.5 245.4 419.925 245.775 418.8 246.6C417.675 247.425 416.7 248.775 415.425 249.225C414.075 249.75 412.575 249.3 411.15 249.45C409.8 249.6 408.3 250.275 406.875 250.05C405.45 249.825 404.325 248.7 403.05 248.1C401.775 247.5 400.125 247.35 399.075 246.45C397.95 245.55 397.575 243.975 396.75 242.85C395.925 241.725 394.575 240.75 394.125 239.475C393.6 238.125 394.05 236.625 393.9 235.2C393.75 233.85 393.075 232.35 393.3 230.925C393.525 229.5 394.65 228.375 395.25 227.1C395.85 225.825 396 224.175 396.9 223.125C397.8 222 399.375 221.625 400.5 220.8C401.625 219.975 402.6 218.625 403.875 218.175C405.225 217.65 406.725 218.1 408.15 217.95C409.5 217.8 411 217.125 412.425 217.35C413.85 217.575 414.975 218.7 416.25 219.3C417.525 219.9 419.175 220.05 420.225 220.95C421.35 221.85 421.725 223.425 422.55 224.55C423.375 225.675 424.725 226.65 425.175 227.925C425.7 229.275 425.25 230.775 425.4 232.2C425.55 233.55 426.225 235.05 426 236.475Z" fill="#000061"/>
<path d="M399.825 253.95L402.375 244.95C400.275 245.475 399.225 241.35 400.35 240.15C401.175 239.325 403.05 239.925 403.275 241.125C403.875 241.575 404.775 241.875 405.3 241.725C406.05 241.425 404.475 239.55 406.425 235.5C408.45 231.225 413.625 236.4 420.75 234.75C420.75 234.75 420.075 245.025 418.05 250.425C416.7 253.95 413.55 254.4 412.2 254.175C411.525 254.025 410.85 253.725 410.1 253.35L409.125 256.875L412.125 258.075C411.825 262.125 408.6 264 403.05 263.55C394.875 262.875 395.475 257.925 395.475 257.925L396 257.775C397.8 257.25 399.3 255.825 399.825 253.95Z" fill="#B88370"/>
<path d="M410.1 253.275C408.15 252.525 404.925 248.175 404.925 248.175C404.925 248.175 404.625 251.7 406.5 253.95C407.7 255.3 409.2 256.425 409.2 256.425L410.1 253.275Z" fill="#000061"/>
<path d="M402.45 243.975C401.625 243.825 401.25 243.525 400.95 242.55L401.625 242.325C401.85 243.075 402 243.15 402.525 243.225L402.45 243.975Z" fill="#000061"/>
<path d="M417.376 241.8L416.926 241.5C417.376 240.9 418.051 240.525 418.726 240.525C419.401 240.525 420.001 240.825 420.451 241.425L420.001 241.8C419.626 241.35 419.176 241.125 418.726 241.125C418.201 241.05 417.751 241.35 417.376 241.8Z" fill="#000061"/>
<path d="M418.875 242.4C419.248 242.4 419.55 242.098 419.55 241.725C419.55 241.352 419.248 241.05 418.875 241.05C418.502 241.05 418.2 241.352 418.2 241.725C418.2 242.098 418.502 242.4 418.875 242.4Z" fill="#000061"/>
<path d="M410.551 240.75L410.101 240.45C410.551 239.85 411.226 239.475 411.901 239.475C412.576 239.475 413.176 239.775 413.626 240.375L413.176 240.75C412.801 240.3 412.351 240 411.901 240.075C411.376 240 410.926 240.3 410.551 240.75Z" fill="#000061"/>
<path d="M412.125 241.125C412.498 241.125 412.8 240.823 412.8 240.45C412.8 240.077 412.498 239.775 412.125 239.775C411.752 239.775 411.45 240.077 411.45 240.45C411.45 240.823 411.752 241.125 412.125 241.125Z" fill="#000061"/>
<path d="M421.276 238.65C422.101 237.525 418.876 236.175 418.051 236.85C417.226 237.525 418.126 238.2 419.026 238.35C419.926 238.425 420.901 239.1 421.276 238.65Z" fill="#000061"/>
<path d="M409.5 237.375C408.825 236.025 412.575 235.2 413.325 236.1C414.075 237 412.95 237.525 411.975 237.45C411 237.45 409.8 237.975 409.5 237.375Z" fill="#000061"/>
<path d="M411.45 247.575C413.625 248.4 416.925 248.475 416.925 248.475C416.925 248.475 416.025 250.2 413.925 249.975C411.6 249.6 411.45 247.575 411.45 247.575Z" fill="white"/>
<path d="M413.176 370.425V374.325L422.626 374.7V370.875L413.176 370.425Z" fill="#B88370"/>
<path d="M436.426 370.95V374.25L446.026 374.1L445.951 370.95H436.426Z" fill="#B88370"/>
<path d="M201.226 149.7L201.076 148.95C202.276 148.65 202.726 147.45 202.576 146.325C202.351 144.6 200.776 142.875 197.851 142.875V142.125C201.301 142.125 203.101 144.225 203.326 146.25C203.476 147.9 202.651 149.325 201.226 149.7Z" fill="#000061"/>
<path d="M182.475 157.125C180.75 157.125 178.725 156.3 177.825 154.2L178.5 153.9C179.55 156.3 182.025 156.525 183.15 156.3L183.3 157.05C183 157.125 182.775 157.125 182.475 157.125Z" fill="#000061"/>
<path d="M177.075 302.325L176.7 302.25C176.7 302.175 180 291.15 182.775 285.075C184.05 282.225 185.625 280.35 186.825 278.775C188.25 276.975 189.225 275.85 188.7 274.575C187.575 271.8 174.825 250.575 171.6 246.675L171.9 246.45C175.2 250.35 187.95 271.725 189.075 274.5C189.675 276 188.625 277.275 187.2 279.15C186 280.65 184.425 282.6 183.15 285.375C180.375 291.3 177.15 302.25 177.075 302.325Z" fill="#B9C3EE"/>
<path d="M199.35 184.95C194.55 184.95 186.225 182.325 184.275 180.9L184.5 180.6C186.525 182.025 195.975 185.025 200.325 184.575V184.95C200.1 184.95 199.725 184.95 199.35 184.95Z" fill="#B9C3EE"/>
<path d="M186.525 182.025C186.45 182.025 186.375 182.025 186.3 181.95C185.925 181.5 187.65 177.9 188.925 175.8L189.225 176.025C187.65 178.575 186.525 181.425 186.6 181.725C186.6 181.725 186.6 181.65 186.525 181.65H186.45L186.525 182.025Z" fill="#B9C3EE"/>
<path d="M190.125 183.075L189.75 182.925L192 176.7L192.375 176.85L190.125 183.075Z" fill="#B9C3EE"/>
<path d="M195.474 177.853L194.16 184.321L194.528 184.395L195.842 177.927L195.474 177.853Z" fill="#B9C3EE"/>
<path d="M198.976 184.8L198.601 184.725L199.051 178.8H199.426L198.976 184.8Z" fill="#B9C3EE"/>
<path d="M841.576 180.75C834.376 181.425 829.201 186.225 838.276 193.275C835.351 202.95 851.401 207.375 854.551 199.425C862.126 204 870.826 192.15 864.451 187.275C868.126 180.75 864.601 173.475 857.776 174C858.601 164.1 853.126 159.45 847.051 159.3C839.026 153.3 836.926 158.025 836.101 160.275C829.801 156.375 826.351 166.95 832.126 167.775C835.126 168.15 835.651 169.425 837.226 170.325C835.501 174.075 835.276 179.25 841.576 180.75Z" fill="#FF5776"/>
<path d="M850.35 167.25C852.67 167.25 854.55 165.369 854.55 163.05C854.55 160.73 852.67 158.85 850.35 158.85C848.031 158.85 846.15 160.73 846.15 163.05C846.15 165.369 848.031 167.25 850.35 167.25Z" fill="#000061"/>
<path d="M846 158.7C846 162.675 849.225 165.825 853.125 165.825C857.025 165.825 860.25 162.6 860.25 158.7C860.25 154.8 857.175 152.175 853.125 154.2C850.05 151.275 846 154.725 846 158.7Z" fill="#FF5776"/>
<path d="M843.376 184.05C841.876 184.05 837.376 183.75 835.651 180.225C834.301 177.525 835.351 174.975 836.326 172.575C836.851 171.225 837.451 169.875 837.601 168.525L838.351 168.6C838.126 170.1 837.601 171.525 837.001 172.875C836.026 175.275 835.051 177.525 836.251 179.925C838.126 183.6 843.676 183.3 843.751 183.3L843.826 184.05C843.751 184.05 843.601 184.05 843.376 184.05Z" fill="#FF5776"/>
<path d="M846.376 160.2C845.401 157.275 845.626 154.35 846.976 152.7C847.876 151.5 849.301 150.975 851.026 151.125C852.001 151.2 852.676 151.575 853.201 152.25C854.326 153.825 853.576 156.375 853.576 156.525L852.826 156.3C852.826 156.3 853.426 153.9 852.526 152.625C852.151 152.1 851.701 151.875 850.951 151.8C849.451 151.65 848.326 152.1 847.576 153.075C846.376 154.575 846.226 157.2 847.126 159.9L846.376 160.2Z" fill="#FF5776"/>
<path d="M829.65 235.125H854.1L854.55 238.875H828.75L829.65 235.125Z" fill="#FF5776"/>
<path d="M842.476 234.75H840.601V240H842.476V234.75Z" fill="#3850B5"/>
<path d="M832.351 234.75H830.476V240H832.351V234.75Z" fill="#3850B5"/>
<path d="M853.125 234.75H851.25V240H853.125V234.75Z" fill="#3850B5"/>
<path d="M822.9 215.325C820.5 213.15 816.45 205.95 815.775 202.725L816.15 202.65C816.825 205.725 820.875 212.925 823.2 215.025L822.9 215.325Z" fill="#B9C3EE"/>
<path d="M857.775 221.475C857.7 221.475 857.625 221.475 857.55 221.475V221.1C857.625 221.1 857.7 221.1 857.775 221.1C860.4 221.1 866.7 217.875 868.725 216L868.95 216.3C866.925 218.25 860.475 221.475 857.775 221.475Z" fill="#B9C3EE"/>
<path d="M920.7 278.85L921.375 272.85C922.65 273.975 924.9 271.5 924.525 270.225C924.225 269.325 922.725 269.1 922.125 269.85C921.525 269.925 920.85 269.775 920.475 269.55C919.275 268.725 919.425 267.225 919.5 263.625C919.575 259.95 916.275 263.625 911.925 259.95C911.925 259.95 908.925 266.55 908.475 270.975C908.175 273.9 910.125 275.4 911.175 275.7C911.7 275.85 912.3 275.925 912.975 275.925L912.75 278.25C912.675 278.925 912.3 279.45 911.775 279.825C911.625 279.9 911.475 279.9 911.4 279.825L910.575 279.75C910.875 280.95 913.05 282.15 916.5 282.3C921.675 282.45 922.35 280.275 922.35 280.275L921.45 280.05C920.925 279.9 920.625 279.375 920.7 278.85Z" fill="#FFBDB8"/>
<path d="M913.575 261.75C912.825 265.65 908.85 266.775 910.8 270.15C909.825 272.025 912.3 276.075 915.675 274.65C916.425 278.4 920.625 277.275 922.05 275.1C925.8 276.75 926.625 272.7 924.675 271.8C924.075 268.5 928.65 265.275 922.575 262.725C916.5 260.25 913.8 260.55 913.575 261.75Z" fill="#FF5776"/>
<path d="M910.5 263.625C908.025 261.225 906.375 256.05 909.675 254.55C913.65 252.75 916.65 255.225 918.75 257.4C920.775 259.575 910.5 263.625 910.5 263.625Z" fill="#FF5776"/>
<path d="M922.5 257.7C914.475 253.2 909.9 263.175 909.9 263.175C910.05 265.575 912.525 270.225 916.8 271.8C923.025 274.2 926.1 270.75 926.1 270.75C926.1 270.75 928.65 261.15 922.5 257.7ZM924.45 270.225C922.05 271.425 918.45 270.975 916.875 269.85C916.875 269.85 918.15 266.775 921.3 266.775C924.975 266.775 924.975 269.925 924.45 270.225Z" fill="#000061"/>
<path d="M920.85 259.65C921.513 259.65 922.05 259.314 922.05 258.9C922.05 258.486 921.513 258.15 920.85 258.15C920.188 258.15 919.65 258.486 919.65 258.9C919.65 259.314 920.188 259.65 920.85 259.65Z" fill="#3850B5"/>
<path d="M912.15 268.35L911.775 267.9C913.35 262.35 917.925 258.825 923.55 258.525L923.925 258.825C918.45 259.125 913.725 262.95 912.15 268.35Z" fill="#3850B5"/>
<path d="M926.625 266.625C925.35 263.475 924.375 261.825 921.375 259.65C918.525 257.55 916.125 257.175 913.575 258.3C913.575 258.3 914.55 257.55 915.075 257.4C917.175 256.95 919.2 257.625 921.6 259.35C924.75 261.6 925.35 262.65 926.625 265.8V266.625Z" fill="#3850B5"/>
<path d="M425.625 319.5C427.5 321.6 430.65 322.875 431.775 325.275C432.9 327.675 431.1 332.85 431.1 332.85L427.8 332.925L425.625 319.5Z" fill="#000061"/>
<path d="M387.225 329.325H411.525C411.525 329.325 408.45 335.775 408.75 341.625L411.45 370.425L423.45 371.025L429.825 323.85C430.275 319.65 427.875 315.675 423.975 314.475C413.325 311.25 398.25 310.875 398.25 310.875C398.25 310.875 384.525 312.6 384.3 321.6C384.225 324.975 387.225 329.325 387.225 329.325Z" fill="#3850B5"/>
<path d="M416.326 370.05C416.326 369.825 413.851 344.7 414.001 339.975C414.076 337.8 415.051 334.125 415.951 330.975C416.776 327.9 417.751 324.375 417.301 323.925C417.301 323.925 417.301 323.925 417.226 323.925C415.726 324.3 391.576 325.875 385.726 317.1L386.026 316.875C391.726 325.5 415.576 323.925 417.076 323.55C417.301 323.475 417.451 323.55 417.526 323.7C418.051 324.3 417.451 326.775 416.251 331.125C415.351 334.35 414.376 337.95 414.301 340.05C414.151 344.775 416.626 369.825 416.626 370.05H416.326Z" fill="#B9C3EE"/>
<path d="M406.651 281.025L424.351 287.775L427.651 288L441.226 283.2L435.826 309.975L424.276 312.9L420.601 312.975L403.051 308.25L406.651 281.025Z" fill="#FF5776"/>
<path d="M409.351 282L411.901 281.625L424.351 287.775L409.351 282Z" fill="#B9C3EE"/>
<path d="M439.725 283.725L437.025 282.15L427.65 288L439.725 283.725Z" fill="#B9C3EE"/>
<path d="M425.7 287.85L432.9 279.075V284.7L427.65 288L425.7 287.85Z" fill="#B9C3EE"/>
<path d="M420.301 311.1L420.076 311.025L404.926 307.5L408.001 283.95L423.826 290.025V290.175L420.301 311.1ZM405.301 307.2L419.926 310.575L423.376 290.25L408.301 284.4L405.301 307.2Z" fill="white"/>
<path d="M424.801 311.625L424.876 311.325L428.176 289.725L428.251 289.65L439.726 285.3L435.076 309.225L424.801 311.625ZM428.476 290.025L425.251 311.175L434.626 309L439.126 285.975L428.476 290.025Z" fill="white"/>
<path d="M416.4 304.125C416.175 304.125 411.075 303.45 409.2 303.225C408.9 303.225 408.75 302.925 408.75 302.775C408.75 302.625 409.05 302.55 409.35 302.475L414.675 302.7C415.05 302.7 415.35 302.4 415.425 302.025C415.425 301.875 415.425 301.725 415.35 301.65C415.2 301.5 415.05 301.35 414.825 301.35L409.65 301.125C409.65 301.125 407.55 300.75 405.75 300.3C405.75 300.3 405.075 300.3 404.55 299.475C404.25 299.1 404.475 298.35 404.625 297.45C404.85 296.475 404.925 295.275 404.925 295.275C404.925 295.275 404.475 295.8 403.95 296.625C403.65 297 403.35 297.3 402.975 297.9C402.6 298.425 401.925 298.65 401.4 298.35L385.575 291.3L386.475 287.7C386.475 287.7 384.15 288.45 381 287.4C377.175 286.125 375.3 284.7 375.3 284.7L374.85 290.775C374.7 292.95 375.75 295.05 377.55 296.25C380.475 298.05 384.975 300.6 388.725 301.5C394.8 302.925 401.85 305.1 401.85 305.1C402.525 306.075 403.125 306.825 403.125 306.825C404.025 307.425 406.65 308.175 408.975 308.775C409.2 308.85 409.35 308.925 409.65 308.925C409.65 308.925 409.65 308.925 409.725 308.925C410.85 309.225 411.825 309.45 412.35 309.525C412.725 309.6 413.1 309.375 413.175 309C413.25 308.625 413.025 308.25 412.65 308.175C411.6 307.95 410.475 307.65 409.425 307.425C409.35 307.35 409.275 307.275 409.2 307.2C409.125 307.125 409.125 306.975 409.2 306.9C409.275 306.825 409.425 306.75 409.8 306.825L415.125 307.575C415.5 307.65 415.875 307.35 415.875 306.975C415.875 306.825 415.875 306.675 415.8 306.525C415.725 306.375 415.5 306.225 415.35 306.225L410.1 305.475C409.575 305.4 409.275 305.1 409.35 304.95C409.35 304.725 409.725 304.5 410.4 304.575C412.65 304.875 416.325 305.325 416.4 305.325C416.775 305.4 417.15 305.1 417.15 304.725C417 304.575 416.775 304.2 416.4 304.125Z" fill="#B88370"/>
<path d="M383.851 286.05C378.601 286.05 375.751 283.575 373.801 281.25L374.101 281.025C376.426 283.8 379.801 286.575 386.701 285.45L386.776 285.825C385.726 285.975 384.751 286.05 383.851 286.05Z" fill="#B9C3EE"/>
<path d="M404.626 265.8C397.876 265.8 393.676 263.175 392.476 258.15L392.851 258.075C393.976 262.875 398.026 265.5 404.626 265.5C410.101 265.5 413.026 263.25 413.626 258.525L414.001 258.6C413.401 263.4 410.326 265.8 404.626 265.8Z" fill="#B9C3EE"/>
<path d="M411.975 243.825C410.175 243.825 408.75 242.4 408.75 240.6C408.75 238.8 410.175 237.375 411.975 237.375C413.775 237.375 415.2 238.8 415.2 240.6C415.2 242.4 413.7 243.825 411.975 243.825ZM411.975 237.825C410.4 237.825 409.125 239.1 409.125 240.675C409.125 242.25 410.4 243.525 411.975 243.525C413.55 243.525 414.825 242.25 414.825 240.675C414.825 239.1 413.55 237.825 411.975 237.825Z" fill="white"/>
<path d="M419.55 244.8C417.75 244.8 416.325 243.375 416.325 241.575C416.325 239.775 417.75 238.35 419.55 238.35C421.35 238.35 422.775 239.775 422.775 241.575C422.775 243.375 421.35 244.8 419.55 244.8ZM419.55 238.8C417.975 238.8 416.7 240.075 416.7 241.65C416.7 243.225 417.975 244.5 419.55 244.5C421.125 244.5 422.4 243.225 422.4 241.65C422.4 240.075 421.125 238.8 419.55 238.8Z" fill="white"/>
<g opacity="0.5">
<path opacity="0.5" d="M906.525 318.15L906.45 318.075C906.375 318 904.725 315.825 904.275 315.075V315V314.925C904.575 311.925 905.025 309.675 905.025 309.675V309.525H905.175C905.25 309.525 909.525 310.275 911.175 310.275H911.4V310.5C911.25 314.175 910.5 316.575 910.5 316.575V316.65L906.525 318.15ZM904.65 314.925C905.1 315.6 906.375 317.325 906.675 317.775L910.125 316.425C910.275 315.975 910.875 313.875 910.95 310.725C909.375 310.65 906.075 310.125 905.325 309.975C905.25 310.5 904.875 312.45 904.65 314.925Z" fill="white"/>
</g>
<g opacity="0.5">
<path opacity="0.5" d="M921.075 318.9L917.175 317.4V317.325C917.175 317.325 916.425 314.925 916.275 311.25V311.025H916.5C918.15 311.025 922.425 310.275 922.5 310.275H922.65V310.425C922.65 310.425 923.025 312.675 923.4 315.675V315.75V315.825C922.95 316.575 921.3 318.75 921.225 318.825L921.075 318.9ZM917.475 317.1L920.925 318.45C921.3 318 922.575 316.35 922.95 315.6C922.65 313.125 922.35 311.25 922.275 310.65C921.45 310.8 918.225 311.325 916.65 311.4C916.8 314.55 917.4 316.65 917.475 317.1Z" fill="white"/>
</g>
<path d="M901.65 289.5C900.225 285.525 901.5 280.875 902.55 279.6L902.85 279.825C902.025 280.8 900.525 285.225 901.95 289.35L901.65 289.5Z" fill="#3850B5"/>
<path d="M931.275 290.7L930.9 290.55C932.25 286.575 930.9 281.7 930.075 280.5L930.375 280.275C931.425 281.7 932.625 286.65 931.275 290.7Z" fill="#3850B5"/>
<g opacity="0.42">
<g opacity="0.42">
<path opacity="0.42" d="M930.6 284.55L929.775 281.7L932.7 282.45L930.6 284.55ZM930.375 282.15L930.825 283.8L932.025 282.6L930.375 282.15Z" fill="white"/>
</g>
<g opacity="0.42">
<path opacity="0.42" d="M903.676 282.225L902.851 279.375L905.776 280.125L903.676 282.225ZM903.376 279.825L903.826 281.475L905.026 280.275L903.376 279.825Z" fill="white"/>
</g>
<g opacity="0.42">
<path opacity="0.42" d="M925.2 283.95L924.375 281.1L927.3 281.85L925.2 283.95ZM924.9 281.55L925.35 283.2L926.55 282L924.9 281.55Z" fill="white"/>
</g>
<g opacity="0.42">
<path opacity="0.42" d="M919.801 285.9L918.976 283.05L921.901 283.8L919.801 285.9ZM919.576 283.5L920.026 285.15L921.226 283.95L919.576 283.5Z" fill="white"/>
</g>
<g opacity="0.42">
<path opacity="0.42" d="M914.4 285L913.575 282.15L916.5 282.9L914.4 285ZM914.1 282.6L914.55 284.25L915.75 283.05L914.1 282.6Z" fill="white"/>
</g>
<g opacity="0.42">
<path opacity="0.42" d="M910.35 287.4L909.525 284.55L912.45 285.3L910.35 287.4ZM910.05 285.075L910.5 286.725L911.7 285.525L910.05 285.075Z" fill="white"/>
</g>
<g opacity="0.42">
<path opacity="0.42" d="M904.575 286.425L903.75 283.575L906.675 284.325L904.575 286.425ZM904.275 284.1L904.725 285.75L905.925 284.55L904.275 284.1Z" fill="white"/>
</g>
<g opacity="0.42">
<path opacity="0.42" d="M908.251 283.275L907.426 280.425L910.351 281.175L908.251 283.275ZM907.951 280.95L908.401 282.6L909.601 281.4L907.951 280.95Z" fill="white"/>
</g>
<g opacity="0.42">
<path opacity="0.42" d="M922.275 294.3L921.45 291.45L924.375 292.2L922.275 294.3ZM922.05 291.975L922.5 293.625L923.7 292.425L922.05 291.975Z" fill="white"/>
</g>
<g opacity="0.42">
<path opacity="0.42" d="M916.051 295.8L915.226 292.95L918.151 293.7L916.051 295.8ZM915.751 293.475L916.201 295.125L917.401 293.925L915.751 293.475Z" fill="white"/>
</g>
<g opacity="0.42">
<path opacity="0.42" d="M925.876 289.725L925.051 286.875L927.976 287.625L925.876 289.725ZM925.651 287.4L926.101 289.05L927.301 287.85L925.651 287.4Z" fill="white"/>
</g>
<g opacity="0.42">
<path opacity="0.42" d="M930.6 288.825L929.775 285.975L932.7 286.725L930.6 288.825ZM930.375 286.5L930.825 288.15L932.025 286.95L930.375 286.5Z" fill="white"/>
</g>
<g opacity="0.42">
<path opacity="0.42" d="M920.025 290.025L919.2 287.175L922.125 287.925L920.025 290.025ZM919.725 287.625L920.175 289.275L921.375 288.075L919.725 287.625Z" fill="white"/>
</g>
<g opacity="0.42">
<path opacity="0.42" d="M913.275 291.075L912.45 288.225L915.375 288.975L913.275 291.075ZM913.05 288.75L913.5 290.4L914.7 289.2L913.05 288.75Z" fill="white"/>
</g>
<g opacity="0.42">
<path opacity="0.42" d="M909.075 294.15L908.25 291.3L911.175 292.05L909.075 294.15ZM908.775 291.75L909.225 293.4L910.425 292.2L908.775 291.75Z" fill="white"/>
</g>
<g opacity="0.42">
<path opacity="0.42" d="M918.751 300L917.926 297.15L920.851 297.9L918.751 300ZM918.526 297.675L918.976 299.325L920.176 298.125L918.526 297.675Z" fill="white"/>
</g>
<g opacity="0.42">
<path opacity="0.42" d="M911.1 298.425L910.275 295.575L913.2 296.325L911.1 298.425ZM910.875 296.1L911.325 297.75L912.525 296.55L910.875 296.1Z" fill="white"/>
</g>
<g opacity="0.42">
<path opacity="0.42" d="M905.926 299.175L905.101 296.325L908.026 297.075L905.926 299.175ZM905.626 296.775L906.076 298.425L907.276 297.225L905.626 296.775Z" fill="white"/>
</g>
<g opacity="0.42">
<path opacity="0.42" d="M921.676 302.7L920.851 299.85L923.776 300.6L921.676 302.7ZM921.451 300.3L921.901 301.95L923.101 300.75L921.451 300.3Z" fill="white"/>
</g>
<g opacity="0.42">
<path opacity="0.42" d="M914.7 303.9L913.875 301.05L916.8 301.8L914.7 303.9ZM914.475 301.5L914.925 303.15L916.125 301.95L914.475 301.5Z" fill="white"/>
</g>
<g opacity="0.42">
<path opacity="0.42" d="M909.075 302.775L908.25 299.925L911.175 300.675L909.075 302.775ZM908.85 300.375L909.3 302.025L910.5 300.825L908.85 300.375Z" fill="white"/>
</g>
<g opacity="0.42">
<path opacity="0.42" d="M900.6 288.975L899.775 286.125L902.7 286.875L900.6 288.975ZM900.375 286.65L900.825 288.3L902.025 287.1L900.375 286.65Z" fill="white"/>
</g>
<g opacity="0.42">
<path opacity="0.42" d="M906.45 290.625L905.625 287.775L908.55 288.525L906.45 290.625ZM906.15 288.3L906.6 289.95L907.8 288.75L906.15 288.3Z" fill="white"/>
</g>
</g>
<g opacity="0.5">
<path opacity="0.5" d="M914.475 306.225C909.6 306.225 906.45 305.325 905.025 304.725L905.175 304.35C907.35 305.175 913.425 306.9 923.775 304.8L923.85 305.175C920.175 305.925 917.025 306.225 914.475 306.225Z" fill="white"/>
</g>
<g opacity="0.5">
<path opacity="0.5" d="M910.875 312.15C909.45 312.15 905.85 311.625 904.8 311.175L904.95 310.8C906 311.25 910.125 311.85 911.175 311.775V312.15C911.1 312.075 911.025 312.15 910.875 312.15Z" fill="white"/>
</g>
<g opacity="0.5">
<path opacity="0.5" d="M916.575 312.9V312.525C918.15 312.525 921.75 311.925 922.65 311.775L922.725 312.15C921.675 312.3 918.225 312.9 916.575 312.9Z" fill="white"/>
</g>
<g opacity="0.5">
<path opacity="0.5" d="M913.726 322.65C912.901 319.35 913.126 308.85 913.501 306L913.876 306.075C913.501 308.925 913.276 319.35 914.101 322.575L913.726 322.65Z" fill="white"/>
</g>
<path d="M728.191 144.702L724.373 148.521L728.191 152.339L732.01 148.521L728.191 144.702Z" fill="#FCB560"/>
<path d="M289.281 101.676L285.038 105.918L289.281 110.161L293.523 105.918L289.281 101.676Z" fill="#FCB560"/>
<path d="M539.302 222.116L535.06 226.359L539.302 230.601L543.545 226.359L539.302 222.116Z" fill="#B9C3EE"/>
<path d="M915.311 228.548L911.068 232.791L915.311 237.033L919.554 232.791L915.311 228.548Z" fill="#FCB560"/>
<path d="M677.943 196.607L674.125 200.425L677.943 204.244L681.762 200.425L677.943 196.607Z" fill="#FCB560"/>
<path d="M510.45 270.15C508.725 270.15 507.825 269.625 507 269.1C506.25 268.65 505.65 268.275 504.3 268.275C502.95 268.275 502.35 268.65 501.6 269.1C500.775 269.55 499.875 270.15 498.15 270.15C496.425 270.15 495.525 269.625 494.7 269.1C493.95 268.65 493.35 268.275 492 268.275C490.65 268.275 490.05 268.65 489.3 269.1C488.475 269.55 487.575 270.15 485.85 270.15C484.125 270.15 483.225 269.625 482.4 269.1C481.65 268.65 481.05 268.275 479.7 268.275V266.775C481.425 266.775 482.325 267.3 483.15 267.825C483.9 268.275 484.5 268.65 485.85 268.65C487.2 268.65 487.8 268.275 488.55 267.825C489.375 267.375 490.275 266.775 492 266.775C493.725 266.775 494.625 267.3 495.45 267.825C496.2 268.275 496.8 268.65 498.15 268.65C499.5 268.65 500.1 268.275 500.85 267.825C501.675 267.375 502.575 266.775 504.3 266.775C506.025 266.775 506.925 267.3 507.75 267.825C508.5 268.275 509.1 268.65 510.45 268.65V270.15Z" fill="#FF5776"/>
<path d="M510.45 276.226C508.725 276.226 507.825 275.701 507 275.176C506.25 274.726 505.65 274.351 504.3 274.351C502.95 274.351 502.35 274.726 501.6 275.176C500.775 275.626 499.875 276.226 498.15 276.226C496.425 276.226 495.525 275.701 494.7 275.176C493.95 274.726 493.35 274.351 492 274.351C490.65 274.351 490.05 274.726 489.3 275.176C488.475 275.626 487.575 276.226 485.85 276.226C484.125 276.226 483.225 275.701 482.4 275.176C481.65 274.726 481.05 274.351 479.7 274.351V272.851C481.425 272.851 482.325 273.376 483.15 273.901C483.9 274.351 484.5 274.726 485.85 274.726C487.2 274.726 487.8 274.351 488.55 273.901C489.375 273.451 490.275 272.851 492 272.851C493.725 272.851 494.625 273.376 495.45 273.901C496.2 274.351 496.8 274.726 498.15 274.726C499.5 274.726 500.1 274.351 500.85 273.901C501.675 273.451 502.575 272.851 504.3 272.851C506.025 272.851 506.925 273.376 507.75 273.901C508.5 274.351 509.1 274.726 510.45 274.726V276.226Z" fill="#000061"/>
<path d="M829.875 250.125C828.15 250.125 827.25 249.6 826.425 249.075C825.675 248.625 825.075 248.25 823.725 248.25C822.375 248.25 821.775 248.625 821.025 249.075C820.2 249.525 819.3 250.125 817.575 250.125C815.85 250.125 814.95 249.6 814.125 249.075C813.375 248.625 812.775 248.25 811.425 248.25C810.075 248.25 809.475 248.625 808.725 249.075C807.9 249.525 807 250.125 805.275 250.125C803.55 250.125 802.65 249.6 801.825 249.075C801.075 248.625 800.475 248.25 799.125 248.25V246.75C800.85 246.75 801.75 247.275 802.575 247.8C803.325 248.25 803.925 248.625 805.275 248.625C806.625 248.625 807.225 248.25 807.975 247.8C808.8 247.35 809.7 246.75 811.425 246.75C813.15 246.75 814.05 247.275 814.875 247.8C815.625 248.25 816.225 248.625 817.575 248.625C818.925 248.625 819.525 248.25 820.275 247.8C821.1 247.35 822 246.75 823.725 246.75C825.45 246.75 826.35 247.275 827.175 247.8C827.925 248.25 828.525 248.625 829.875 248.625V250.125Z" fill="#FCB560"/>
<path d="M276.375 338.4H318.15C318.975 338.4 319.65 337.725 319.65 336.9V330.825C319.65 330 318.975 329.325 318.15 329.325H276.375C275.55 329.325 274.875 330 274.875 330.825V336.9C274.875 337.725 275.55 338.4 276.375 338.4Z" fill="#FCB560"/>
<path d="M270.075 320.176H311.85C312.675 320.176 313.35 319.501 313.35 318.676V312.601C313.35 311.776 312.675 311.101 311.85 311.101H270.075C269.25 311.101 268.575 311.776 268.575 312.601V318.676C268.65 319.576 269.25 320.176 270.075 320.176Z" fill="#FCB560"/>
<path d="M276.375 311.176H318.15C318.975 311.176 319.65 310.501 319.65 309.676V303.601C319.65 302.776 318.975 302.101 318.15 302.101H276.375C275.55 302.101 274.875 302.776 274.875 303.601V309.676C274.875 310.501 275.55 311.176 276.375 311.176Z" fill="#FCB560"/>
<path d="M270.075 329.325H311.85C312.675 329.325 313.35 328.65 313.35 327.825V321.75C313.35 320.925 312.675 320.25 311.85 320.25H270.075C269.25 320.25 268.575 320.925 268.575 321.75V327.825C268.65 328.65 269.25 329.325 270.075 329.325Z" fill="#FCB560"/>
<path d="M315.975 319.95H295.575V320.55H315.975V319.95Z" fill="#000061"/>
<path d="M292.651 302.025H292.051V311.1H292.651V302.025Z" fill="#000061"/>
<path d="M289.651 302.025H289.051V311.1H289.651V302.025Z" fill="#000061"/>
<path d="M294.526 302.025H293.926V311.1H294.526V302.025Z" fill="#000061"/>
<path d="M297.6 311.101H297V320.176H297.6V311.101Z" fill="#000061"/>
<path d="M299.925 311.101H299.325V320.176H299.925V311.101Z" fill="#000061"/>
<path d="M302.25 320.25H301.65V329.325H302.25V320.25Z" fill="#000061"/>
<path d="M304.8 320.25H304.2V329.325H304.8V320.25Z" fill="#000061"/>
<path d="M307.5 329.325H306.9V338.4H307.5V329.325Z" fill="#000061"/>
<path d="M292.275 319.95H283.95V320.55H292.275V319.95Z" fill="#000061"/>
<path d="M300.075 329.025H283.95V329.625H300.075V329.025Z" fill="#000061"/>
<path d="M783.3 362.625H741.525C740.7 362.625 740.025 361.95 740.025 361.125V355.05C740.025 354.225 740.7 353.55 741.525 353.55H783.3C784.125 353.55 784.8 354.225 784.8 355.05V361.125C784.8 361.95 784.125 362.625 783.3 362.625Z" fill="#FCB560"/>
<path d="M795.451 344.4H753.676C752.851 344.4 752.176 343.725 752.176 342.9V336.825C752.176 336 752.851 335.325 753.676 335.325H795.451C796.276 335.325 796.951 336 796.951 336.825V342.9C796.951 343.8 796.276 344.4 795.451 344.4Z" fill="#FCB560"/>
<path d="M789.6 353.551H747.825C747 353.551 746.325 352.876 746.325 352.051V345.976C746.325 345.151 747 344.476 747.825 344.476H789.6C790.425 344.476 791.1 345.151 791.1 345.976V352.051C791.1 352.876 790.425 353.551 789.6 353.551Z" fill="#FCB560"/>
<path d="M762.751 335.325H762.15V344.4H762.751V335.325Z" fill="#000061"/>
<path d="M764.549 335.325H763.949V344.4H764.549V335.325Z" fill="#000061"/>
<path d="M766.95 344.476H766.351V353.551H766.95V344.476Z" fill="#000061"/>
<path d="M768.674 344.476H768.074V353.551H768.674V344.476Z" fill="#000061"/>
<path d="M772.799 353.4H772.199V362.475H772.799V353.4Z" fill="#000061"/>
<path d="M775.725 344.175H767.4V344.775H775.725V344.175Z" fill="#000061"/>
<path d="M775.726 353.25H759.601V353.85H775.726V353.25Z" fill="#000061"/>
<path d="M524.475 134.851C524.25 139.576 525.375 144.226 525.375 144.226L568.425 159.676L524.475 134.851Z" fill="#60C49E"/>
<path d="M275.176 338.4V324.75L285.751 304.5L285.451 329.4L279.826 338.4H275.176Z" fill="#000061"/>
<path d="M280.65 323.85C274.425 334.575 265.575 341.1 260.775 338.4C259.35 337.575 255.9 335.175 255.9 335.175L278.4 296.175C278.4 296.175 281.55 298.425 283.275 299.4C288.075 302.175 286.875 313.125 280.65 323.85Z" fill="#FCB560"/>
<path d="M262.205 334.168L261.814 334.808L267.323 338.164L267.713 337.524L262.205 334.168Z" fill="#000061"/>
<path d="M266.234 331.43L265.844 332.071L271.352 335.426L271.742 334.786L266.234 331.43Z" fill="#000061"/>
<path d="M275.8 320.632C282.013 309.871 283.212 298.931 278.477 296.197C273.742 293.463 264.867 299.971 258.653 310.732C252.44 321.493 251.242 332.433 255.977 335.167C260.712 337.901 269.587 331.393 275.8 320.632Z" fill="#FCB560"/>
<path d="M258.45 336.151C257.475 336.151 256.575 335.926 255.75 335.476C253.35 334.051 252.225 330.676 252.75 325.876C253.275 321.226 255.225 315.751 258.225 310.501C261.225 305.251 265.05 300.826 268.8 298.051C272.7 295.201 276.15 294.451 278.625 295.801C281.025 297.226 282.15 300.601 281.625 305.401C281.1 310.051 279.15 315.526 276.15 320.776C273.15 326.026 269.325 330.451 265.575 333.226C262.95 335.176 260.55 336.151 258.45 336.151ZM276 295.951C274.125 295.951 271.8 296.851 269.325 298.726C265.65 301.426 261.9 305.776 258.975 310.951C256.05 316.126 254.1 321.451 253.575 326.026C253.125 330.526 254.025 333.601 256.2 334.876C258.375 336.151 261.525 335.326 265.2 332.701C268.875 330.001 272.625 325.651 275.55 320.476C278.55 315.301 280.425 309.976 280.95 305.401C281.4 300.901 280.5 297.826 278.325 296.551C277.65 296.101 276.825 295.951 276 295.951Z" fill="white"/>
<path d="M256.125 335.175C255.15 335.175 254.25 334.95 253.425 334.5C248.475 331.65 249.6 320.475 255.9 309.525C262.2 298.575 271.35 292.051 276.3 294.9C281.25 297.75 280.125 308.925 273.825 319.875C270.825 325.125 267 329.55 263.25 332.325C260.55 334.2 258.15 335.175 256.125 335.175ZM273.6 294.9C268.8 294.9 261.75 300.9 256.575 309.9C250.5 320.475 249.225 331.2 253.8 333.825C255.975 335.1 259.125 334.275 262.8 331.65C266.475 328.95 270.225 324.6 273.15 319.425C279.225 308.85 280.5 298.125 275.925 295.5C275.25 295.125 274.425 294.9 273.6 294.9Z" fill="#000061"/>
<path d="M512.55 386.925L511.8 386.775C515.025 373.35 511.2 361.725 507.15 355.275C504.3 355.8 501.825 355.425 500.55 354.15C499.875 353.475 499.275 352.125 500.175 350.025C500.55 349.2 501.225 348.975 502.2 349.275C503.55 349.725 505.575 351.525 507.525 354.45C508.425 354.225 509.325 354 510.225 353.625C512.625 352.65 520.425 348.675 520.425 339C520.425 335.1 518.7 331.875 517.2 328.95C514.8 324.3 512.7 320.325 518.55 315.9L519 316.5C513.675 320.55 515.55 324.15 517.875 328.65C519.45 331.575 521.175 334.95 521.175 339.075C521.175 349.275 513 353.4 510.45 354.45C509.625 354.825 508.725 355.05 507.9 355.275C512.175 361.725 515.85 373.275 512.55 386.925ZM501.525 349.875C501.15 349.875 501 350.1 500.925 350.325C500.325 351.75 500.4 352.875 501.15 353.625C502.2 354.675 504.3 354.975 506.775 354.6C505.05 351.975 503.25 350.4 502.05 349.95C501.825 349.875 501.675 349.875 501.525 349.875Z" fill="#B9C3EE"/>
<path d="M517.875 339.076C514.575 332.851 509.775 334.276 505.5 337.426C509.1 341.476 512.4 342.526 517.875 339.076Z" fill="#B9C3EE"/>
<path d="M501 370.426C500.4 370.426 499.8 370.351 499.275 370.201C495.975 369.451 493.125 366.751 490.425 361.876L490.2 361.501L490.575 361.351C498.75 357.976 503.55 359.476 508.35 367.126L508.5 367.426L508.2 367.651C505.725 369.451 503.25 370.426 501 370.426ZM491.25 361.876C493.725 366.376 496.425 368.851 499.35 369.526C501.825 370.051 504.6 369.301 507.525 367.201C502.5 359.401 497.55 359.326 491.25 361.876Z" fill="#000061"/>
<path d="M533.55 339.45C532.425 346.651 527.325 346.876 522.075 345.3C524.175 340.125 527.025 337.95 533.55 339.45Z" fill="#B9C3EE"/>
<path d="M773.25 273.45C781.275 283.575 775.35 290.625 766.95 295.575C762.75 286.425 763.5 280.125 773.25 273.45Z" fill="#FF5776"/>
<path d="M512.325 343.576C510 343.576 507.975 342.376 505.875 340.576L505.575 340.276L505.875 339.976C508.725 337.351 511.2 336.151 513.525 336.451C515.475 336.676 517.35 337.951 518.925 340.201L519.15 340.501L518.85 340.726C516.375 342.676 514.275 343.576 512.325 343.576ZM506.7 340.276C510.825 343.726 513.825 343.726 518.1 340.351C516.675 338.476 515.1 337.351 513.45 337.201C511.5 336.976 509.25 337.951 506.7 340.276Z" fill="#000061"/>
<path d="M512.4 365.25C516.075 356.175 522.9 357.45 529.275 361.05C524.85 367.275 520.425 369.15 512.4 365.25Z" fill="#B9C3EE"/>
<path d="M518.625 363.525C517.35 363.525 516 363.375 514.5 363.15L514.125 363.075V362.7C514.5 358.875 515.775 356.175 518.025 354.6C520.65 352.725 524.4 352.425 529.65 353.625L530.025 353.7L529.875 354.075C527.625 360.675 524.4 363.525 518.625 363.525ZM514.95 362.475C523.65 363.825 526.875 360.375 529.05 354.3C524.325 353.25 520.8 353.55 518.475 355.275C516.525 356.625 515.325 359.025 514.95 362.475Z" fill="#000061"/>
<path d="M768.676 310.726C772.276 301.801 778.951 303.001 785.251 306.601C780.976 312.751 776.626 314.626 768.676 310.726Z" fill="#FF5776"/>
<path d="M774.825 309.001C773.625 309.001 772.275 308.851 770.775 308.626L770.4 308.551V308.176C770.775 304.425 772.05 301.725 774.225 300.15C776.775 298.275 780.525 297.975 785.625 299.175L786 299.25L785.85 299.625C783.675 306.226 780.525 309.001 774.825 309.001ZM771.225 307.951C779.775 309.301 782.925 305.851 785.1 299.925C780.45 298.875 777 299.175 774.675 300.825C772.8 302.25 771.6 304.651 771.225 307.951Z" fill="#000061"/>
<path d="M762.225 318.9C754.275 317.925 753.9 312.225 755.4 306.45C761.25 308.7 763.65 311.775 762.225 318.9Z" fill="#FF5776"/>
<path d="M757.574 318.3C755.549 318.3 753.824 317.775 752.549 316.725C750.524 315.075 749.474 312.075 749.324 307.725V307.275H749.774C755.474 307.725 759.449 309.675 760.199 317.625V318L759.824 318.075C759.074 318.225 758.324 318.3 757.574 318.3ZM750.149 308.1C750.299 312 751.274 314.625 753.074 316.125C754.574 317.325 756.674 317.775 759.449 317.4C758.774 311.175 756.299 308.7 750.149 308.1Z" fill="#000061"/>
<path d="M525.751 330.601C530.626 331.576 531.976 328.351 532.201 324.601C528.376 324.826 526.351 326.101 525.751 330.601Z" fill="#B9C3EE"/>
<path d="M523.801 330.15C523.726 330.15 523.726 330.15 523.651 330.15H523.276V329.775C522.976 324.75 525.226 323.1 528.826 322.35L529.201 322.275L529.276 322.725C529.651 325.425 529.201 327.375 528.076 328.65C527.176 329.625 525.676 330.15 523.801 330.15ZM528.526 323.175C525.526 323.925 523.801 325.275 523.951 329.4C525.526 329.4 526.726 328.95 527.476 328.05C528.451 327 528.751 325.425 528.526 323.175Z" fill="#000061"/>
<path d="M483.675 387.376C478.8 380.851 481.425 378.076 483.675 378.451C485.925 378.826 492.3 387.376 492.3 387.376H483.675Z" fill="#000061"/>
<path d="M505.426 387.676C495.676 381.751 499.201 378.076 503.101 379.276C507.001 380.476 510.151 387.676 510.151 387.676H505.426Z" fill="#B9C3EE"/>
<path d="M506.85 388.125C503.925 382.725 506.475 374.325 510.525 374.7C514.575 375.075 519.825 388.65 519.825 388.65L506.85 388.125Z" fill="#000061"/>
<path d="M515.925 387.45C516.9 384.6 519.525 373.725 522.525 374.7C525.525 375.675 521.625 387.975 521.625 387.975L515.925 387.45Z" fill="#000061"/>
<path d="M776.025 339.9C776.175 341.775 778.5 353.55 778.5 353.55L782.85 362.7H784.8V351.525L776.025 339.9Z" fill="#000061"/>
<path d="M779.475 347.1C785.7 357.825 794.55 364.35 799.35 361.65C801.075 360.6 804.225 358.425 804.225 358.425C804.225 358.425 800.625 343.95 796.725 337.2C792.75 330.3 781.725 319.425 781.725 319.425C781.725 319.425 778.575 321.675 776.85 322.65C772.05 325.35 773.25 336.3 779.475 347.1Z" fill="#FCB560"/>
<path d="M804.144 358.402C808.879 355.668 807.68 344.728 801.467 333.967C795.254 323.206 786.379 316.698 781.644 319.432C776.909 322.166 778.107 333.106 784.32 343.867C790.533 354.628 799.409 361.136 804.144 358.402Z" fill="#FCB560"/>
<path d="M801.675 359.4C799.65 359.4 797.175 358.425 794.55 356.475C790.725 353.7 786.975 349.275 783.975 344.025C777.675 333.075 776.55 321.9 781.5 319.05C786.45 316.2 795.525 322.8 801.9 333.675C808.2 344.625 809.325 355.8 804.375 358.65C803.55 359.175 802.65 359.4 801.675 359.4ZM784.65 343.65C787.65 348.825 791.325 353.175 795 355.875C798.6 358.5 801.825 359.325 804 358.05C808.575 355.425 807.3 344.7 801.225 334.125C795.15 323.55 786.45 317.1 781.875 319.725C777.3 322.35 778.5 333.15 784.65 343.65Z" fill="white"/>
<path d="M805.2 357.3C800.1 357.3 792.825 351.225 787.575 342C781.275 331.125 780.15 319.95 785.025 317.175C787.425 315.825 790.875 316.575 794.7 319.35C798.45 322.125 802.2 326.55 805.275 331.725C811.575 342.6 812.7 353.775 807.825 356.55C807 357.075 806.175 357.3 805.2 357.3ZM787.65 317.025C786.75 317.025 786 317.25 785.325 317.625C780.75 320.25 781.95 331.05 788.1 341.7C794.25 352.275 802.95 358.8 807.6 356.1C812.175 353.475 810.975 342.675 804.825 332.025C801.825 326.85 798.15 322.5 794.4 319.8C791.85 318 789.525 317.025 787.65 317.025Z" fill="#000061"/>
<path d="M504 117.975C502.8 117.975 502.2 119.475 503.175 120.3C522.6 136.425 590.25 173.775 618.75 181.65C621.825 182.475 627.375 183.825 628.725 182.925C630.6 181.725 623.7 179.025 619.725 174.75C602.85 156.6 590.85 125.775 588 118.275C587.625 117.225 586.65 116.625 585.525 116.7C579.75 117 562.425 117.975 560.7 117.975L556.05 124.65L549.075 118.875L504 117.975Z" fill="#A6F4DC"/>
<path d="M625.35 181.351L622.425 180.451C583.2 168.451 513 125.701 510.3 122.026L509.4 120.826H552.675V122.326H512.85C523.05 129.976 584.175 166.126 619.875 178.051C596.25 153.826 586.575 125.701 585.225 121.426L562.875 122.701L562.8 121.201L586.35 119.851L586.5 120.451C586.575 120.751 596.25 152.851 623.175 179.251L625.35 181.351Z" fill="#71E2BD"/>
<path d="M573.9 132C561.6 130.5 556.95 140.55 561.675 145.95C569.175 154.5 578.85 154.725 585.3 154.2C591.75 153.675 592.425 144.825 590.025 140.85C586.275 134.85 580.125 132.675 573.9 132Z" fill="#71E2BD"/>
<path d="M560.7 117.9C560.7 117.9 576.075 137.775 588 149.625C595.575 157.125 619.95 178.05 619.95 178.05C619.95 178.05 606.15 171.3 579.45 149.925C568.425 141.15 556.05 124.65 556.05 124.65L560.7 117.9Z" fill="#60C49E"/>
<path d="M539.1 130.575C534 126.825 510.225 104.625 509.25 103.65L509.775 103.125C510 103.35 534.525 126.3 539.55 129.975L539.1 130.575Z" fill="#000061"/>
<path d="M627.375 190.875C616.05 189.525 608.1 185.475 602.325 182.55C601.575 182.175 600.9 181.8 600.225 181.5L600.525 180.825C601.2 181.125 601.875 181.5 602.625 181.875C608.325 184.8 616.2 188.85 627.375 190.125V190.875Z" fill="#000061"/>
<path d="M762 120C762 120 762.107 120 762.213 120C771.5 120 780.894 120 790.18 120C806.725 120 823.271 120 839.816 120C851.985 120 855.827 119.557 867.996 120C868.103 112.252 866.075 104.836 862.445 100.962C859.457 97.7519 854.44 95.9809 850.277 97.0877C845.046 98.5267 841.417 102.179 838.001 104.836C836.827 94.0992 832.557 84.3587 827.967 82.145C820.068 78.4923 811.742 84.248 808.113 90.0037C805.018 94.6526 803.416 100.187 802.776 105.832C797.759 100.187 786.658 95.7595 782.708 104.836C781.107 108.378 781.214 112.473 781.427 116.347C774.702 114.466 767.444 115.905 762 120Z" fill="white"/>
<path d="M269.778 72.816C265.921 62.8807 258.733 57.5451 250.143 56.6252C239.274 55.3373 228.405 61.9608 228.405 61.9608C228.405 61.9608 232.437 45.586 227.002 32.7069C223.321 23.8756 217.185 15.5962 208.946 13.5723C200.356 11.3645 191.24 15.7801 184.753 22.7716C178.267 29.7631 174.235 38.9625 170.553 48.1618C168.625 41.5383 166.17 34.3628 160.561 31.787C154.775 29.2112 147.938 33.6269 144.958 39.8824C141.978 46.1379 141.802 53.6814 142.153 60.6729C135.316 56.4412 126.726 55.1533 120.064 59.385C115.681 62.1448 112.701 67.4804 112 73H269.778V72.816Z" fill="white"/>
</g>
<defs>
<clipPath id="clip0">
<rect width="1016.85" height="451.125" fill="white"/>
</clipPath>
</defs>
</svg>
