<svg width="768" height="576" viewBox="0 0 768 576" fill="none" xmlns="http://www.w3.org/2000/svg">
<circle cx="390" cy="274" r="200" fill="#F6FCFF"/>
<path d="M617.399 415.725L617.024 415.05C623.249 411.375 628.124 406.875 631.124 401.925C634.874 395.775 634.724 391.725 634.049 389.4C632.249 389.85 630.674 389.55 629.624 388.95C628.799 388.425 628.349 387.675 628.424 386.775C628.499 385.875 629.024 385.275 629.774 385.05C630.974 384.675 632.549 385.5 633.674 386.925C633.899 387.225 634.199 387.75 634.499 388.425C635.099 388.2 635.699 387.975 636.224 387.6C638.849 385.95 642.899 381.15 641.174 368.175L641.924 368.1C643.649 381.45 639.374 386.475 636.599 388.2C635.999 388.575 635.324 388.95 634.724 389.1C635.474 391.575 635.624 395.85 631.724 402.225C628.724 407.4 623.699 412.05 617.399 415.725ZM630.374 385.8C630.224 385.8 630.074 385.8 629.999 385.875C629.549 386.025 629.249 386.4 629.174 386.925C629.099 387.675 629.699 388.125 629.999 388.35C630.824 388.875 632.249 389.1 633.749 388.725C633.524 388.125 633.224 387.75 632.999 387.45C632.174 386.325 631.124 385.8 630.374 385.8Z" fill="#FF5776"/>
<path d="M636.15 379.35C636.675 370.575 630.6 369 624 369.525C625.275 376.2 628.125 379.425 636.15 379.35Z" fill="#FF5776"/>
<path d="M636.15 380.25L635.85 380.175C627.375 377.775 626.1 373.125 626.775 366.9L626.85 366.45L627.225 366.525C631.95 367.5 634.875 369.225 636.3 371.775C637.5 373.95 637.5 376.65 636.375 379.875L636.15 380.25ZM627.45 367.425C626.925 373.125 628.2 377.175 635.7 379.35C636.675 376.5 636.675 374.025 635.625 372.15C634.35 369.9 631.65 368.4 627.45 367.425Z" fill="#000061"/>
<path d="M634.274 404.025C639.524 408.3 643.274 405.3 645.974 400.875C641.174 398.55 637.874 398.925 634.274 404.025Z" fill="#FF5776"/>
<path d="M639.599 407.625C639.374 407.625 639.149 407.625 638.924 407.55C636.974 407.325 635.249 406.05 633.749 403.875L633.524 403.575L633.824 403.35C639.224 399.075 642.749 400.35 646.424 403.65L646.724 403.95L646.424 404.25C643.949 406.5 641.699 407.625 639.599 407.625ZM634.574 403.725C635.924 405.6 637.424 406.65 638.999 406.8C640.949 407.025 643.124 406.125 645.599 403.95C641.699 400.575 638.774 400.5 634.574 403.725Z" fill="#000061"/>
<path d="M626.475 405.225C627.825 398.55 623.4 396.675 618.225 396.375C618.45 401.625 620.325 404.4 626.475 405.225Z" fill="#FF5776"/>
<path d="M626.474 406.05L626.174 405.9C619.874 403.125 619.424 399.375 620.624 394.65L620.699 394.275L621.074 394.425C624.599 395.7 626.699 397.35 627.524 399.525C628.199 401.325 627.899 403.425 626.699 405.825L626.474 406.05ZM621.149 395.25C619.949 400.275 621.299 402.9 626.099 405.075C627.149 403.05 627.374 401.25 626.774 399.675C626.099 397.875 624.224 396.375 621.149 395.25Z" fill="#000061"/>
<path d="M442.124 117.15C439.199 117.15 435.449 116.7 430.874 115.425C415.799 111.15 398.024 111.525 388.574 116.4L388.199 115.725C397.799 110.775 415.799 110.4 431.024 114.675C443.024 118.125 449.249 115.2 449.324 115.2L449.624 115.875C449.624 115.95 447.074 117.15 442.124 117.15Z" fill="#FF5776"/>
<path d="M437.324 176.55C432.674 173.55 428.024 172.05 418.049 172.95C404.924 174.225 400.424 164.325 397.199 157.125C396.974 156.6 396.674 156 396.449 155.475L397.124 155.175C397.349 155.7 397.649 156.225 397.874 156.825C401.024 163.875 405.374 173.475 417.974 172.275C428.099 171.3 432.899 172.875 437.699 175.95L437.324 176.55Z" fill="#FF5776"/>
<path d="M460.575 132.9C460.35 132.9 460.125 132.9 459.9 132.9C452.925 132.6 447.6 130.275 442.5 128.025C436.275 125.25 430.425 122.7 422.4 124.2L422.25 123.45C430.5 121.875 436.5 124.5 442.8 127.275C447.9 129.525 453.15 131.85 459.975 132.075C468.675 132.45 482.025 125.55 482.175 125.475L482.55 126.15C481.875 126.45 469.425 132.9 460.575 132.9Z" fill="#FF5776"/>
<path d="M622.724 306.3C619.724 300.525 622.499 298.875 625.349 297.075C627.449 295.8 629.774 294.375 630.524 291.15C631.574 286.575 623.699 282.75 615.374 278.7C604.949 273.6 594.149 268.35 596.924 260.25C599.024 254.25 605.699 255.6 613.349 257.1C623.174 259.125 635.399 261.6 643.349 249.975C645.974 246.15 646.499 241.5 644.849 236.55C640.799 224.55 624.974 213.3 601.349 205.65C588.074 201.3 572.549 198.825 554.624 195.975C522.224 190.8 481.874 184.35 431.024 163.5L431.324 162.825C482.099 183.6 522.374 190.05 554.774 195.225C572.774 198.075 588.299 200.625 601.574 204.9C625.349 212.625 641.399 224.1 645.524 236.325C647.249 241.5 646.724 246.375 643.949 250.425C635.699 262.425 623.249 259.875 613.199 257.85C605.549 256.275 599.549 255.075 597.599 260.475C595.049 267.9 605.549 273 615.674 277.95C624.299 282.15 632.399 286.125 631.199 291.225C630.374 294.75 627.899 296.325 625.649 297.675C622.724 299.475 620.624 300.75 623.249 305.925L622.724 306.3Z" fill="#000061"/>
<path d="M134.475 392.25C135.825 379.275 153.825 374.775 163.35 377.175C162.375 363.075 172.05 354.75 182.625 351C190.35 348.3 200.925 350.4 200.925 350.4L206.475 392.25H134.475Z" fill="#FFE9E9"/>
<path d="M365.399 355.2C365.549 354.15 365.624 353.025 365.624 351.975C365.624 336.975 353.474 324.825 338.474 324.825C323.474 324.825 311.324 336.975 311.324 351.975C311.324 366.975 311.324 392.7 311.324 392.7C311.624 392.7 333.149 392.7 333.449 392.7C333.449 392.7 349.274 392.7 357.974 392.7C368.699 392.7 377.399 384 377.399 373.275C377.399 365.025 372.449 358.125 365.399 355.2Z" fill="#FFE9E9"/>
<path d="M157.35 380.1C155.25 377.85 149.4 374.025 146.475 377.4C141.75 382.8 154.95 392.475 154.95 392.475L166.65 392.625C166.575 392.625 160.65 383.7 157.35 380.1Z" fill="#000061"/>
<path d="M161.925 392.85C157.425 390.6 147.9 382.725 146.175 377.55L146.85 377.325C148.5 382.275 157.95 390.075 162.225 392.25L161.925 392.85Z" fill="white"/>
<path d="M167.324 387.975C147.449 376.125 142.124 353.625 142.124 344.325C142.049 344.325 142.049 344.325 141.974 344.325C139.949 343.95 137.549 341.925 136.949 337.725C136.574 334.875 137.099 331.575 137.699 328.125C139.049 320.55 140.399 312.675 131.774 308.25L132.149 307.575C141.224 312.225 139.724 320.775 138.449 328.2C137.849 331.65 137.324 334.875 137.699 337.575C138.374 342.45 141.224 343.425 142.124 343.575C142.124 343.05 142.199 342.6 142.199 342.225C142.349 340.725 142.799 339.9 143.399 339.75C143.699 339.675 144.149 339.675 144.599 340.275C145.499 341.325 145.724 342.375 145.199 343.275C144.749 344.025 143.849 344.4 142.799 344.4C142.799 354.15 149.024 376.2 167.624 387.375L167.324 387.975ZM143.624 340.5C143.474 340.575 143.099 341.025 142.949 342.375C142.874 342.75 142.874 343.275 142.874 343.725C143.624 343.725 144.299 343.425 144.599 342.975C144.899 342.45 144.749 341.7 144.074 340.875C143.849 340.575 143.699 340.5 143.624 340.5Z" fill="#000061"/>
<path d="M135.825 328.275C132.825 322.725 128.55 324 124.725 326.775C127.95 330.45 130.875 331.35 135.825 328.275Z" fill="#B9C3EE"/>
<path d="M148.275 356.4C157.425 355.8 158.325 349.35 156.975 342.6C150.075 344.7 147.15 348.075 148.275 356.4Z" fill="#B9C3EE"/>
<path d="M128.699 343.05C129.674 349.5 134.324 349.725 139.049 348.3C137.099 343.65 134.549 341.775 128.699 343.05Z" fill="#B9C3EE"/>
<path d="M132.3 329.55C128.7 329.55 126.825 327.375 125.25 324.225L125.1 323.85L125.475 323.7C128.775 322.575 131.25 322.5 133.05 323.55C134.625 324.45 135.675 326.1 136.2 328.575L136.275 328.95L135.975 329.025C134.55 329.4 133.35 329.55 132.3 329.55ZM126.15 324.225C128.25 328.425 130.725 329.55 135.45 328.35C135 326.325 134.1 324.9 132.75 324.15C131.175 323.25 129 323.325 126.15 324.225Z" fill="#000061"/>
<path d="M140.7 362.1C132 360.75 129.825 366.6 129.75 373.2C136.575 372.675 140.025 370.125 140.7 362.1Z" fill="#B9C3EE"/>
<path d="M131.475 370.725C130.2 370.725 128.85 370.575 127.35 370.275L126.975 370.2L127.125 369.825C128.55 365.25 130.575 362.475 133.2 361.35C135.45 360.375 138.15 360.6 141.3 362.1L141.6 362.25L141.45 362.55C139.05 368.775 135.75 370.725 131.475 370.725ZM127.95 369.6C133.575 370.725 137.7 369.825 140.625 362.55C137.85 361.275 135.45 361.125 133.5 361.95C131.175 363 129.375 365.475 127.95 369.6Z" fill="#000061"/>
<path d="M143.1 321.45C147.45 322.35 148.65 319.425 148.875 316.125C145.425 316.275 143.625 317.475 143.1 321.45Z" fill="#B9C3EE"/>
<path d="M141.3 321.075C141.225 321.075 141.225 321.075 141.15 321.075H140.775V320.7C140.55 316.725 141.9 314.85 145.725 313.95L146.1 313.875L146.175 314.325C146.475 316.8 146.1 318.525 145.125 319.65C144.3 320.625 143.025 321.075 141.3 321.075ZM145.5 314.85C142.875 315.525 141.375 316.725 141.525 320.325C142.95 320.25 143.925 319.875 144.6 319.125C145.425 318.225 145.725 316.875 145.5 314.85Z" fill="#000061"/>
<path d="M160.499 386.85C157.799 382.35 161.624 377.55 163.199 378.225C167.699 380.1 169.424 392.625 169.424 392.625H164.924C164.924 392.625 162.524 390.225 160.499 386.85Z" fill="#000061"/>
<path d="M165.6 392.625C166.8 388.575 171.525 384.075 174.45 385.5C177.375 386.925 175.725 392.625 175.725 392.625H165.6Z" fill="#000061"/>
<path d="M171 392.625C172.5 390 178.5 385.875 180.6 387C182.7 388.125 180.6 392.625 180.6 392.625H171Z" fill="#000061"/>
<path d="M622.05 415.275C620.85 408.3 616.125 400.5 613.2 403.05C610.275 405.6 611.925 415.275 611.925 415.275H622.05Z" fill="#000061"/>
<path d="M616.574 415.275C615.074 411 609.074 404.325 606.974 406.125C604.874 407.925 606.974 415.275 606.974 415.275H616.574Z" fill="#000061"/>
<path d="M168.3 391.875H141V393.375H168.3V391.875Z" fill="#000061"/>
<path d="M423.525 123.15L388.425 115.5C389.25 119.4 396.75 129.525 405.825 139.65C410.625 132.975 416.775 126.375 423.525 123.15Z" fill="#FCB560"/>
<path d="M405.75 139.725C414.9 149.925 425.7 160.2 432.975 164.325C432.675 163.425 427.8 148.125 426.525 142.725C425.175 136.875 423.6 123.225 423.6 123.225H423.45C416.775 126.375 410.625 132.975 405.75 139.725Z" fill="#FF5776"/>
<path d="M388.35 115.575C388.35 115.575 388.5 126.6 390.525 137.025C392.475 147 396 153.975 396.675 155.175C398.25 151.5 401.475 145.575 405.75 139.725C396.675 129.6 389.175 119.475 388.35 115.575Z" fill="#FF5776"/>
<path d="M405.75 139.725C401.475 145.575 398.25 151.5 396.675 155.175C396.75 155.325 396.75 155.4 396.75 155.4L432.975 164.4C432.975 164.4 432.975 164.4 432.975 164.325C425.7 160.2 414.9 149.925 405.75 139.725Z" fill="#FCB560"/>
<path d="M532.486 189.221L531.803 189.531L534.006 194.379L534.689 194.069L532.486 189.221Z" fill="#000061"/>
<path d="M644.028 229.649L640.671 231.32L641.005 231.992L644.362 230.321L644.028 229.649Z" fill="#000061"/>
<path d="M534.723 189.981L534.064 190.34L536.327 194.488L536.986 194.129L534.723 189.981Z" fill="#000061"/>
<path d="M358.123 327.773L353.881 332.016L358.123 336.259L362.366 332.016L358.123 327.773Z" fill="#3850B5"/>
<path d="M134.025 168.3C125.85 168.3 120 176.1 122.325 183.975L180.825 384.525C182.25 389.325 186.6 392.55 191.55 392.55H199.95L134.025 168.3Z" fill="#000061"/>
<path d="M198 392.625H341.7C347.25 392.625 351.225 387.3 349.725 381.975L290.25 177.9C288.6 172.2 283.35 168.3 277.5 168.3H133.725C128.175 168.3 124.2 173.625 125.7 178.95L185.25 383.025C186.9 388.725 192.075 392.625 198 392.625Z" fill="#FF5776"/>
<path d="M345.75 389.025H201.975C195.899 389.025 190.5 384.975 188.85 379.2L157.8 272.775L158.55 272.55L189.6 378.975C191.175 384.45 196.275 388.275 202.05 388.275H345.75C348.3 388.275 350.625 387.15 352.125 385.125C353.625 383.1 354.075 380.55 353.4 378.15L293.85 174C292.275 168.525 287.175 164.7 281.4 164.7H137.7C135.15 164.7 132.825 165.825 131.325 167.85C129.825 169.875 129.375 172.425 130.05 174.825L145.8 228.75L145.05 228.975L129.3 175.05C128.55 172.425 129 169.575 130.725 167.4C132.45 165.225 134.925 163.95 137.7 163.95H281.4C287.475 163.95 292.875 168 294.525 173.775L354 377.85C354.75 380.475 354.3 383.325 352.575 385.5C351.075 387.75 348.525 389.025 345.75 389.025Z" fill="#000061"/>
<path d="M197.325 374.925H333.6C335.85 374.925 337.425 372.825 336.825 370.65L282.225 182.325C281.4 179.475 278.775 177.525 275.85 177.525H139.5C137.25 177.525 135.675 179.625 136.275 181.8L190.875 370.125C191.7 372.975 194.325 374.925 197.325 374.925Z" fill="#FFE9E9"/>
<path d="M213.15 172.5C213.225 172.575 213.375 172.725 213.45 173.025C213.525 173.25 213.525 173.475 213.45 173.625C213.375 173.55 213.225 173.4 213.15 173.1C213.15 172.8 213.15 172.575 213.15 172.5ZM213.15 171.675C213.075 171.675 213 171.675 213 171.675C212.55 171.825 212.325 172.5 212.55 173.25C212.775 173.925 213.225 174.375 213.6 174.375C213.675 174.375 213.75 174.375 213.75 174.375C214.2 174.225 214.425 173.55 214.2 172.8C213.975 172.125 213.525 171.675 213.15 171.675Z" fill="black"/>
<path d="M628.125 416.7H409.2L405.675 396.45C405.375 394.65 403.8 393.375 402 393.375H148.725V391.875H402C404.55 391.875 406.65 393.675 407.1 396.15L410.4 415.125H628.05V416.7H628.125Z" fill="#000061"/>
<path d="M193.199 317.175H306.599C308.099 317.175 309.149 315.75 308.774 314.325L277.874 207.675C277.424 206.1 275.924 204.975 274.274 204.975H160.874C159.374 204.975 158.324 206.4 158.699 207.825L189.599 314.475C190.124 316.125 191.549 317.175 193.199 317.175Z" fill="white"/>
<path d="M204.075 356.1H317.175C318.675 356.1 319.725 354.675 319.35 353.25L313.425 332.925C312.975 331.35 311.475 330.225 309.825 330.225H196.725C195.225 330.225 194.175 331.65 194.55 333.075L200.475 353.4C200.925 354.975 202.425 356.1 204.075 356.1Z" fill="white"/>
<path d="M288.524 369.6H239.774V371.1H288.524V369.6Z" fill="#000061"/>
<path d="M162.525 185.25H151.725V186.75H162.525V185.25Z" fill="#000061"/>
<path d="M163.875 189.225H153.075V190.725H163.875V189.225Z" fill="#000061"/>
<path d="M273.6 189.225H249.075V190.725H273.6V189.225Z" fill="#000061"/>
<path d="M382.35 400.275H221.85V401.775H382.35V400.275Z" fill="#000061"/>
<path d="M445.807 415.646L437.534 423.919L438.595 424.98L446.868 416.706L445.807 415.646Z" fill="#000061"/>
<path d="M452.556 415.643L444.283 423.916L445.344 424.977L453.617 416.703L452.556 415.643Z" fill="#000061"/>
<path d="M329.151 392.179L328.091 393.24L336.364 401.513L337.425 400.452L329.151 392.179Z" fill="#000061"/>
<path d="M322.402 392.182L321.342 393.243L329.615 401.516L330.676 400.455L322.402 392.182Z" fill="#000061"/>
<path d="M213.754 396.743L209.512 400.985L213.754 405.228L217.997 400.985L213.754 396.743Z" fill="#FCB560"/>
<path d="M588.9 297.6C586.8 297.6 585.6 296.775 585.15 295.275L585.9 295.05C586.275 296.25 587.175 296.775 588.975 296.775L588.9 297.6Z" fill="#FF5776"/>
<path d="M627.225 311.625C627.3 311.625 627.3 311.625 627.225 311.625L630.675 309.375C630.9 309.225 630.975 308.925 630.825 308.625C630.75 308.55 630.675 308.475 630.525 308.4C630.375 308.325 630.225 308.4 630.075 308.475L626.7 310.725C626.325 310.95 626.025 310.95 625.95 310.8C625.875 310.65 625.95 310.35 626.4 310.05C627.825 309.075 630.225 307.5 630.225 307.5C630.45 307.35 630.525 307.05 630.375 306.75C630.225 306.525 629.925 306.45 629.625 306.6C629.475 306.675 626.175 308.85 625.05 309.675C624.9 309.825 624.675 309.75 624.6 309.675C624.525 309.6 624.6 309.375 624.825 309.225L627.975 306.675C628.2 306.525 628.275 306.15 628.05 305.925C627.975 305.85 627.9 305.775 627.75 305.775C627.6 305.7 627.45 305.775 627.3 305.85L624.225 308.325C623.55 308.925 622.875 309.075 622.5 309C622.275 309 622.2 308.925 622.2 308.925C622.05 308.7 622.05 308.1 622.05 307.65C622.05 307.35 622.05 307.125 621.975 306.9C621.9 306.075 621.225 305.55 621.15 305.475C621.075 305.4 621 305.4 621 305.4C620.85 305.325 620.7 305.4 620.55 305.475C620.325 305.625 620.25 305.85 620.4 306.075C620.475 306.225 620.625 306.825 620.625 307.2C620.625 308.4 619.8 309.975 619.275 311.025C619.125 311.325 618.75 312.225 618.675 312.75L611.025 323.25L602.925 323.7L602.25 331.5L612.3 330.15C613.2 330 613.95 329.55 614.4 328.8L623.25 315C624.075 314.925 626.025 314.025 627.6 313.2C627.75 313.125 627.9 313.05 628.05 312.975C628.8 312.6 629.475 312.225 629.85 312C630.075 311.85 630.225 311.55 630.075 311.25C629.925 311.025 629.625 310.875 629.325 311.025C628.575 311.4 627.825 311.775 627.075 312.15C627 312.15 626.925 312.15 626.85 312.15C626.775 312.075 626.7 312.075 626.7 312C626.925 311.925 627 311.775 627.225 311.625Z" fill="#FFBDB8"/>
<path d="M576.9 334.05L575.025 326.925L571.125 328.725L562.425 321.15C562.2 320.625 561.6 319.8 561.45 319.575C560.7 318.675 559.575 317.325 559.35 316.125C559.275 315.75 559.275 315.15 559.35 314.925C559.35 314.7 559.275 314.475 559.05 314.4C558.9 314.325 558.75 314.325 558.6 314.4C558.525 314.4 558.525 314.475 558.45 314.55C558.375 314.625 557.85 315.3 557.925 316.125C557.925 316.35 558 316.65 558.075 316.875C558.15 317.325 558.3 317.85 558.15 318.15C558.15 318.15 558.075 318.225 557.925 318.3C557.55 318.45 556.875 318.45 556.05 318L552.525 316.275C552.375 316.2 552.15 316.2 552.075 316.275C552 316.35 551.925 316.425 551.85 316.5C551.7 316.725 551.85 317.1 552.075 317.175L555.75 318.975C555.975 319.125 556.125 319.275 556.05 319.35C555.975 319.425 555.825 319.575 555.6 319.5C554.325 318.975 550.65 317.55 550.5 317.475C550.2 317.4 549.9 317.475 549.825 317.775C549.75 318.075 549.825 318.375 550.125 318.45C550.125 318.45 552.825 319.425 554.4 320.1C554.85 320.25 555 320.55 555 320.7C554.925 320.85 554.7 320.925 554.25 320.775L550.425 319.35C550.275 319.275 550.125 319.275 549.975 319.35C549.9 319.425 549.75 319.5 549.75 319.65C549.675 319.95 549.75 320.25 550.05 320.325L553.875 321.75C554.175 321.825 554.25 321.975 554.25 322.05C554.25 322.125 554.25 322.2 554.175 322.2C554.1 322.275 554.025 322.275 553.95 322.275C553.125 322.05 552.3 321.825 551.55 321.675C551.25 321.6 550.95 321.75 550.875 322.05C550.8 322.35 550.95 322.65 551.25 322.725C551.7 322.875 552.45 323.025 553.275 323.25C553.425 323.325 553.575 323.325 553.8 323.325C555.6 323.775 557.625 324.225 558.45 324.075C558.45 324.075 566.1 331.8 569.175 334.8C569.925 335.55 570.975 335.775 572.025 335.475L576.9 334.05Z" fill="#FFBDB8"/>
<path d="M407.4 305.625C404.4 305.4 405.6 308.625 406.8 309.825C408 311.025 409.725 312 409.725 312L421.275 323.7C421.275 323.7 425.85 322.2 426.075 318.15C427.95 317.025 428.7 314.925 428.25 313.575C429.225 310.425 427.275 306.375 425.4 305.625C423.525 304.875 422.55 305.25 421.95 305.7C422.55 302.4 421.35 300.9 419.4 300C416.175 298.65 413.25 303 412.575 303.825C410.925 301.95 409.35 301.425 407.925 302.25C406.425 303.075 406.5 304.575 407.4 305.625Z" fill="#000061"/>
<path d="M548.7 314.775C548.55 313.2 547.425 311.175 546.6 309.9C546.375 309.525 545.775 308.4 545.625 307.65L522.6 280.425L530.025 273.225L551.55 304.35C552.675 304.425 555.225 305.4 557.475 306.3C557.7 306.375 557.925 306.45 558.075 306.525C558.075 306.525 558.075 306.525 558.15 306.525C559.2 306.975 560.1 307.35 560.625 307.65C561 307.8 561.15 308.25 561 308.55C560.85 308.925 560.4 309.075 560.1 308.925C559.125 308.475 558.075 308.025 557.025 307.65C556.875 307.65 556.8 307.65 556.725 307.725C556.65 307.8 556.575 307.875 556.575 307.95C556.575 308.025 556.725 308.25 557.025 308.4L561.75 311.025C562.05 311.175 562.2 311.625 562.05 312C561.975 312.15 561.825 312.225 561.675 312.3C561.525 312.375 561.3 312.375 561.075 312.225L556.425 309.6C555.9 309.375 555.525 309.375 555.45 309.6C555.375 309.825 555.45 310.2 556.05 310.5C558 311.625 561.3 313.5 561.3 313.5C561.6 313.725 561.75 314.1 561.6 314.475C561.375 314.775 561 314.925 560.625 314.775C560.4 314.7 555.9 312.15 554.325 311.175C554.1 311.025 553.8 311.1 553.725 311.25C553.65 311.4 553.8 311.625 554.025 311.85L558.45 314.85C558.75 315.075 558.825 315.525 558.6 315.825C558.525 315.975 558.375 316.05 558.3 316.05C558.075 316.125 557.85 316.125 557.7 315.975L553.425 313.05C552.525 312.375 551.625 312.225 551.1 312.3C550.8 312.375 550.725 312.45 550.725 312.45C550.575 312.825 550.575 313.5 550.575 314.1C550.575 314.475 550.575 314.85 550.575 315.15C550.5 316.275 549.75 317.025 549.6 317.1C549.525 317.175 549.45 317.175 549.375 317.25C549.15 317.325 548.925 317.325 548.775 317.175C548.475 317.025 548.4 316.725 548.475 316.425C548.55 316.05 548.775 315.3 548.7 314.775Z" fill="#FFBDB8"/>
<path d="M470.325 403.2L469.2 412.05L464.1 422.775C463.575 423.9 464.925 425.025 465.975 424.2L479.4 413.325L480.45 403.8L470.325 403.2Z" fill="#3850B5"/>
<path d="M514.05 404.55L516 415.05H535.725C535.725 415.05 533.025 411.225 525 408.45L523.8 404.625L514.05 404.55Z" fill="#3850B5"/>
<path d="M464.475 424.2L479.55 411.75L479.325 413.325L465.9 424.2C465.9 424.2 465.6 424.425 465.225 424.5C464.925 424.5 464.475 424.2 464.475 424.2Z" fill="#B9C3EE"/>
<path d="M515.925 413.925H534.675L535.725 415.05H516L515.925 413.925Z" fill="#B9C3EE"/>
<path d="M473.175 386.7L471.6 403.2L479.925 404.625L481.65 388.35L473.175 386.7Z" fill="#FFB2A8"/>
<path d="M510.375 388.95L514.575 404.55H523.125L518.85 387.675L510.375 388.95Z" fill="#FFB2A8"/>
<path d="M468.6 418.725H468.525L466.425 418.05C466.275 417.975 466.2 417.825 466.275 417.675C466.35 417.525 466.5 417.45 466.65 417.525L468.75 418.2C468.9 418.275 468.975 418.425 468.9 418.575C468.825 418.65 468.675 418.725 468.6 418.725Z" fill="#000061"/>
<path d="M470.325 415.425H470.25L468 414.6C467.85 414.525 467.775 414.375 467.85 414.225C467.925 414.075 468.075 414 468.225 414.075L470.475 414.9C470.625 414.975 470.7 415.125 470.625 415.275C470.55 415.35 470.475 415.425 470.325 415.425Z" fill="#000061"/>
<path d="M472.049 412.875H471.974C470.774 412.425 469.574 412.2 469.349 412.275C469.199 412.35 469.049 412.275 468.974 412.125C468.899 411.975 468.974 411.825 469.049 411.75C469.574 411.45 471.374 412.05 472.124 412.275C472.274 412.35 472.349 412.5 472.274 412.65C472.274 412.8 472.199 412.875 472.049 412.875Z" fill="#000061"/>
<path d="M522.75 409.725C522.675 409.725 522.525 409.65 522.525 409.575C522.45 409.425 522.525 409.275 522.675 409.2L525.074 408.15C525.224 408.075 525.374 408.15 525.449 408.3C525.524 408.45 525.449 408.6 525.299 408.675L522.9 409.725C522.825 409.725 522.75 409.725 522.75 409.725Z" fill="#000061"/>
<path d="M525.825 411.675C525.75 411.675 525.6 411.6 525.6 411.525C525.525 411.375 525.6 411.225 525.75 411.15L528.975 409.8C529.125 409.725 529.275 409.8 529.35 409.95C529.425 410.1 529.35 410.25 529.2 410.325L525.975 411.675C525.9 411.675 525.825 411.675 525.825 411.675Z" fill="#000061"/>
<path d="M529.575 413.025C529.5 413.025 529.35 412.95 529.35 412.875C529.275 412.725 529.35 412.575 529.5 412.5L531.825 411.375C531.975 411.3 532.125 411.375 532.2 411.525C532.275 411.675 532.2 411.825 532.05 411.9L529.725 413.025C529.65 413.025 529.575 413.025 529.575 413.025Z" fill="#000061"/>
<path d="M454.05 252.9C454.05 252.9 450.75 251.025 450.15 248.85C449.55 246.75 446.475 244.425 445.575 244.125C444.525 243.75 443.85 244.2 443.25 244.5C442.725 244.8 442.275 245.325 441.15 245.325C440.625 245.325 440.1 245.475 440.1 246C440.1 246.525 440.475 246.825 441 246.9C442.8 247.125 443.55 246.375 444.15 246C444.675 245.7 445.5 246.975 443.7 247.575C441.9 248.175 437.025 251.7 437.025 251.7C441.825 255.075 444.675 254.625 444.675 254.625L447.675 257.625L454.05 252.9Z" fill="#FFBDB8"/>
<path d="M445.349 251.25L430.199 247.875C429.674 247.725 429.299 247.2 429.449 246.675C429.599 246.15 430.124 245.775 430.649 245.925L445.799 249.3C446.324 249.45 446.699 249.975 446.549 250.5C446.399 251.025 445.874 251.325 445.349 251.25Z" fill="#000061"/>
<path d="M439.125 251.475C439.05 251.475 438.975 251.475 438.825 251.475L433.275 250.2C432.825 250.125 432.525 249.6 432.6 249.15C432.675 248.7 433.2 248.4 433.65 248.475L439.2 249.75C439.65 249.825 439.95 250.35 439.875 250.8C439.8 251.175 439.5 251.4 439.125 251.475Z" fill="#FFBDB8"/>
<path d="M437.025 253.575C436.8 253.575 436.5 253.5 436.35 253.275C436.05 252.9 436.05 252.375 436.425 252.075L439.8 249.075C440.175 248.775 440.7 248.775 441 249.15C441.3 249.525 441.3 250.05 440.925 250.35L437.55 253.35C437.4 253.5 437.175 253.575 437.025 253.575Z" fill="#FFBDB8"/>
<path d="M438.674 254.175C438.374 254.175 438.074 254.1 437.924 253.875C437.624 253.5 437.699 252.975 438.074 252.675L442.499 249.3C442.874 249 443.399 249.075 443.699 249.45C443.999 249.825 443.924 250.35 443.549 250.65L439.124 254.025C439.049 254.1 438.899 254.175 438.674 254.175Z" fill="#FFBDB8"/>
<path d="M440.7 254.25C440.325 254.25 440.025 254.1 439.875 253.725C439.725 253.275 439.875 252.825 440.325 252.6L445.575 250.425C446.025 250.275 446.475 250.425 446.7 250.875C446.85 251.325 446.7 251.775 446.25 252L441 254.175C440.85 254.25 440.775 254.25 440.7 254.25Z" fill="#FFBDB8"/>
<path d="M481.724 291.225C478.499 298.35 471.224 310.8 470.999 328.05C470.774 345.3 470.999 387 470.999 387C470.999 387 473.774 388.575 477.674 388.875C482.099 389.175 485.024 387.825 485.024 387.825C485.024 387.825 489.674 352.05 490.199 346.425C490.724 340.8 491.699 291.9 491.699 291.9L481.724 291.225Z" fill="#3850B5"/>
<path d="M502.275 291.9C504.525 297.075 507.3 299.175 509.775 308.925C512.25 318.6 520.8 387.075 520.8 387.075C520.8 387.075 518.55 387.9 515.925 388.425C512.775 389.025 508.575 389.025 508.575 389.025C508.575 389.025 492.975 340.95 490.875 331.725C488.85 322.5 489.075 292.05 489.075 292.05H502.275V291.9Z" fill="#3850B5"/>
<path d="M472.425 394.65L480.9 395.4L479.925 404.625L471.6 403.2L472.425 394.65Z" fill="#000061"/>
<path d="M512.55 397.125H521.25L523.125 404.55H514.575L512.55 397.125Z" fill="#000061"/>
<path d="M492.825 296.1C487.425 296.1 481.875 295.5 480.225 294.375L480.45 294.075C483.15 296.025 498.975 296.4 503.625 294.6L503.775 294.975C501.75 295.725 497.325 296.1 492.825 296.1Z" fill="#B9C3EE"/>
<path d="M507.15 306.9C501.45 306.9 499.425 300.375 498.3 296.775C498.225 296.475 498.15 296.25 498.075 296.025L498.45 295.875C498.525 296.1 498.6 296.4 498.675 296.625C500.025 300.825 502.2 307.875 509.1 306.3L509.175 306.675C508.425 306.825 507.75 306.9 507.15 306.9Z" fill="#B9C3EE"/>
<path d="M476.475 384.225H476.1C476.1 347.25 479.4 314.925 485.1 295.425L485.475 295.5C479.775 314.7 476.475 347.85 476.475 384.225Z" fill="#B9C3EE"/>
<path d="M514.35 384.3C500.925 344.475 495.375 296.625 495.3 296.175L495.675 296.1C495.75 296.55 501.3 344.4 514.65 384.15L514.35 384.3Z" fill="#B9C3EE"/>
<path d="M490.2 321.3C486.075 320.775 486.3 315.825 487.8 301.875L488.175 301.95C486.675 315.675 486.525 320.475 490.275 321L490.2 321.3Z" fill="#B9C3EE"/>
<path d="M480 384.45C476.325 384.45 472.575 383.625 470.85 382.275L471.075 381.975C473.55 383.925 480.6 384.675 485.175 383.475L485.25 383.85C483.675 384.225 481.8 384.45 480 384.45Z" fill="#B9C3EE"/>
<path d="M512.475 384.225C510.3 384.225 508.275 383.85 506.55 383.325L506.625 382.95C510.375 384.075 515.85 384.45 519.975 381.9L520.2 382.2C517.875 383.7 515.175 384.225 512.475 384.225Z" fill="#B9C3EE"/>
<path d="M447.825 257.625L466.2 276.3L489 262.35L481.65 252.3L467.175 263.475L454.05 252.9L447.825 257.625Z" fill="#FFBDB8"/>
<path d="M481.725 291.225L481.2 290.25C480.675 289.2 480.525 288 480.825 286.8L484.2 274.575C484.2 274.575 482.475 272.325 482.25 269.475C482.025 266.55 483.075 265.95 483.075 265.95L476.85 271.05C476.85 271.05 474.075 269.55 471.825 266.55C469.575 263.55 468.975 259.65 468.975 259.65L483.525 249.45C485.475 248.1 487.725 247.35 490.05 247.2L504.075 246.375L515.7 254.175C518.625 256.125 521.175 258.6 523.2 261.45L532.2 274.125C532.2 274.125 531.9 275.7 528.075 278.85C526.05 280.425 522.225 282.45 522.225 282.45C522.225 282.45 515.7 272.25 514.35 270.975C513 269.7 510.6 268.725 510.6 268.725L505.35 288.675C505.125 289.65 504.45 290.475 503.625 291L502.35 291.825C502.35 291.825 492.75 291.9 490.725 291.825C487.5 291.825 481.725 291.225 481.725 291.225Z" fill="#B9C3EE"/>
<g opacity="0.42">
<g opacity="0.42">
<path opacity="0.42" d="M511.2 260.55L510.45 257.775L513.225 258.525L511.2 260.55ZM510.9 258.3L511.35 259.8L512.475 258.675L510.9 258.3Z" fill="white"/>
</g>
<g opacity="0.42">
<path opacity="0.42" d="M482.7 252.675L481.95 249.9L484.725 250.65L482.7 252.675ZM482.475 250.425L482.925 251.925L484.05 250.8L482.475 250.425Z" fill="white"/>
</g>
<g opacity="0.42">
<path opacity="0.42" d="M505.05 260.85L504.3 258.075L507.075 258.825L505.05 260.85ZM504.825 258.6L505.275 260.1L506.4 258.975L504.825 258.6Z" fill="white"/>
</g>
<g opacity="0.42">
<path opacity="0.42" d="M499.125 262.275L498.375 259.5L501.15 260.25L499.125 262.275ZM498.9 260.025L499.35 261.525L500.475 260.4L498.9 260.025Z" fill="white"/>
</g>
<g opacity="0.42">
<path opacity="0.42" d="M507.675 257.475L506.925 254.7L509.7 255.45L507.675 257.475ZM507.45 255.225L507.9 256.725L509.025 255.6L507.45 255.225Z" fill="white"/>
</g>
<g opacity="0.42">
<path opacity="0.42" d="M511.35 254.475L510.6 251.7L513.375 252.45L511.35 254.475ZM511.125 252.225L511.575 253.725L512.7 252.6L511.125 252.225Z" fill="white"/>
</g>
<g opacity="0.42">
<path opacity="0.42" d="M504.675 253.95L503.925 251.175L506.7 251.925L504.675 253.95ZM504.45 251.7L504.9 253.2L506.025 252.075L504.45 251.7Z" fill="white"/>
</g>
<g opacity="0.42">
<path opacity="0.42" d="M517.2 261.525L516.45 258.75L519.225 259.5L517.2 261.525ZM516.975 259.275L517.425 260.775L518.55 259.65L516.975 259.275Z" fill="white"/>
</g>
<g opacity="0.42">
<path opacity="0.42" d="M514.725 257.625L513.975 254.85L516.75 255.6L514.725 257.625ZM514.5 255.375L514.95 256.875L516.075 255.75L514.5 255.375Z" fill="white"/>
</g>
<g opacity="0.42">
<path opacity="0.42" d="M500.925 257.475L500.175 254.7L502.95 255.45L500.925 257.475ZM500.625 255.15L501.075 256.65L502.2 255.525L500.625 255.15Z" fill="white"/>
</g>
<g opacity="0.42">
<path opacity="0.42" d="M495.6 259.2L494.85 256.425L497.625 257.175L495.6 259.2ZM495.375 256.95L495.825 258.45L496.95 257.325L495.375 256.95Z" fill="white"/>
</g>
<g opacity="0.42">
<path opacity="0.42" d="M492.3 262.8L491.55 260.025L494.325 260.775L492.3 262.8ZM492.075 260.55L492.525 262.05L493.65 260.925L492.075 260.55Z" fill="white"/>
</g>
<g opacity="0.42">
<path opacity="0.42" d="M486.075 262.05L485.325 259.275L488.1 260.025L486.075 262.05ZM485.85 259.8L486.3 261.3L487.425 260.175L485.85 259.8Z" fill="white"/>
</g>
<g opacity="0.42">
<path opacity="0.42" d="M478.125 262.575L477.375 259.8L480.15 260.55L478.125 262.575ZM477.9 260.325L478.35 261.825L479.475 260.7L477.9 260.325Z" fill="white"/>
</g>
<g opacity="0.42">
<path opacity="0.42" d="M482.7 258.675L481.95 255.9L484.725 256.65L482.7 258.675ZM482.475 256.425L482.925 257.925L484.05 256.8L482.475 256.425Z" fill="white"/>
</g>
<g opacity="0.42">
<path opacity="0.42" d="M490.275 258.825L489.525 256.05L492.3 256.8L490.275 258.825ZM490.05 256.575L490.5 258.075L491.625 256.95L490.05 256.575Z" fill="white"/>
</g>
<g opacity="0.42">
<path opacity="0.42" d="M509.85 268.05L509.1 265.275L511.875 266.025L509.85 268.05ZM509.55 265.8L510 267.3L511.125 266.175L509.55 265.8Z" fill="white"/>
</g>
<g opacity="0.42">
<path opacity="0.42" d="M503.775 269.4L503.025 266.625L505.8 267.375L503.775 269.4ZM503.55 267.15L504 268.65L505.125 267.525L503.55 267.15Z" fill="white"/>
</g>
<g opacity="0.42">
<path opacity="0.42" d="M497.4 269.925L496.65 267.15L499.425 267.9L497.4 269.925ZM497.175 267.675L497.625 269.175L498.75 268.05L497.175 267.675Z" fill="white"/>
</g>
<g opacity="0.42">
<path opacity="0.42" d="M506.7 264.3L505.95 261.525L508.725 262.275L506.7 264.3ZM506.475 262.05L506.925 263.55L508.05 262.425L506.475 262.05Z" fill="white"/>
</g>
<g opacity="0.42">
<path opacity="0.42" d="M516.225 268.425L515.475 265.65L518.25 266.4L516.225 268.425ZM516 266.175L516.45 267.675L517.575 266.55L516 266.175Z" fill="white"/>
</g>
<g opacity="0.42">
<path opacity="0.42" d="M518.4 273.675L517.65 270.9L520.425 271.65L518.4 273.675ZM518.1 271.425L518.55 272.925L519.675 271.8L518.1 271.425Z" fill="white"/>
</g>
<g opacity="0.42">
<path opacity="0.42" d="M513.75 264.45L513 261.675L515.775 262.425L513.75 264.45ZM513.525 262.2L513.975 263.7L515.1 262.575L513.525 262.2Z" fill="white"/>
</g>
<g opacity="0.42">
<path opacity="0.42" d="M501.525 265.275L500.775 262.5L503.55 263.25L501.525 265.275ZM501.3 263.025L501.75 264.525L502.875 263.4L501.3 263.025Z" fill="white"/>
</g>
<g opacity="0.42">
<path opacity="0.42" d="M495.15 264.9L494.4 262.125L497.175 262.875L495.15 264.9ZM494.925 262.65L495.375 264.15L496.5 263.025L494.925 262.65Z" fill="white"/>
</g>
<g opacity="0.42">
<path opacity="0.42" d="M491.1 269.175L490.35 266.4L493.125 267.15L491.1 269.175ZM490.875 266.925L491.325 268.425L492.45 267.3L490.875 266.925Z" fill="white"/>
</g>
<g opacity="0.42">
<path opacity="0.42" d="M484.35 269.025L483.6 266.25L486.375 267L484.35 269.025ZM484.125 266.775L484.575 268.275L485.7 267.15L484.125 266.775Z" fill="white"/>
</g>
<g opacity="0.42">
<path opacity="0.42" d="M506.55 273.375L505.8 270.6L508.575 271.35L506.55 273.375ZM506.325 271.125L506.775 272.625L507.9 271.5L506.325 271.125Z" fill="white"/>
</g>
<g opacity="0.42">
<path opacity="0.42" d="M500.4 273.375L499.65 270.6L502.425 271.35L500.4 273.375ZM500.175 271.125L500.625 272.625L501.75 271.5L500.175 271.125Z" fill="white"/>
</g>
<g opacity="0.42">
<path opacity="0.42" d="M493.05 273.375L492.3 270.6L495.075 271.35L493.05 273.375ZM492.825 271.125L493.275 272.625L494.4 271.5L492.825 271.125Z" fill="white"/>
</g>
<g opacity="0.42">
<path opacity="0.42" d="M486.45 273.225L485.7 270.45L488.475 271.2L486.45 273.225ZM486.225 270.975L486.675 272.475L487.8 271.35L486.225 270.975Z" fill="white"/>
</g>
<g opacity="0.42">
<path opacity="0.42" d="M503.775 277.65L503.025 274.875L505.8 275.625L503.775 277.65ZM503.55 275.4L504 276.9L505.125 275.775L503.55 275.4Z" fill="white"/>
</g>
<g opacity="0.42">
<path opacity="0.42" d="M497.1 277.125L496.35 274.35L499.125 275.1L497.1 277.125ZM496.875 274.875L497.325 276.375L498.45 275.25L496.875 274.875Z" fill="white"/>
</g>
<g opacity="0.42">
<path opacity="0.42" d="M522.225 269.1L521.475 266.325L524.25 267.075L522.225 269.1ZM522 266.85L522.45 268.35L523.575 267.225L522 266.85Z" fill="white"/>
</g>
<g opacity="0.42">
<path opacity="0.42" d="M526.575 270.975L525.825 268.2L528.6 268.95L526.575 270.975ZM526.35 268.725L526.8 270.225L527.925 269.1L526.35 268.725Z" fill="white"/>
</g>
<g opacity="0.42">
<path opacity="0.42" d="M519.9 278.475L519.15 275.7L521.925 276.45L519.9 278.475ZM519.6 276.225L520.05 277.725L521.175 276.6L519.6 276.225Z" fill="white"/>
</g>
<g opacity="0.42">
<path opacity="0.42" d="M519.75 265.125L519 262.35L521.775 263.1L519.75 265.125ZM519.525 262.875L519.975 264.375L521.1 263.25L519.525 262.875Z" fill="white"/>
</g>
<g opacity="0.42">
<path opacity="0.42" d="M523.275 274.2L522.525 271.425L525.3 272.175L523.275 274.2ZM523.05 271.95L523.5 273.45L524.625 272.325L523.05 271.95Z" fill="white"/>
</g>
<g opacity="0.42">
<path opacity="0.42" d="M491.1 277.5L490.35 274.725L493.125 275.475L491.1 277.5ZM490.875 275.25L491.325 276.75L492.45 275.625L490.875 275.25Z" fill="white"/>
</g>
<g opacity="0.42">
<path opacity="0.42" d="M484.65 277.95L483.9 275.175L486.675 275.925L484.65 277.95ZM484.425 275.7L484.875 277.2L486 276.075L484.425 275.7Z" fill="white"/>
</g>
<g opacity="0.42">
<path opacity="0.42" d="M505.65 281.175L504.9 278.4L507.675 279.15L505.65 281.175ZM505.425 278.85L505.875 280.35L507 279.225L505.425 278.85Z" fill="white"/>
</g>
<g opacity="0.42">
<path opacity="0.42" d="M499.875 279.975L499.125 277.2L501.9 277.95L499.875 279.975ZM499.575 277.725L500.025 279.225L501.15 278.1L499.575 277.725Z" fill="white"/>
</g>
<g opacity="0.42">
<path opacity="0.42" d="M493.05 281.625L492.3 278.85L495.075 279.6L493.05 281.625ZM492.825 279.375L493.275 280.875L494.4 279.75L492.825 279.375Z" fill="white"/>
</g>
<g opacity="0.42">
<path opacity="0.42" d="M487.2 281.325L486.45 278.55L489.225 279.3L487.2 281.325ZM486.975 279.075L487.425 280.575L488.55 279.45L486.975 279.075Z" fill="white"/>
</g>
<g opacity="0.42">
<path opacity="0.42" d="M503.55 285L502.8 282.225L505.575 282.975L503.55 285ZM503.325 282.75L503.775 284.25L504.9 283.125L503.325 282.75Z" fill="white"/>
</g>
<g opacity="0.42">
<path opacity="0.42" d="M496.8 284.475L496.05 281.7L498.825 282.45L496.8 284.475ZM496.575 282.225L497.025 283.725L498.15 282.6L496.575 282.225Z" fill="white"/>
</g>
<g opacity="0.42">
<path opacity="0.42" d="M489.975 284.925L489.225 282.15L492 282.9L489.975 284.925ZM489.75 282.675L490.2 284.175L491.325 283.05L489.75 282.675Z" fill="white"/>
</g>
<g opacity="0.42">
<path opacity="0.42" d="M484.125 284.625L483.375 281.85L486.15 282.6L484.125 284.625ZM483.9 282.375L484.35 283.875L485.475 282.75L483.9 282.375Z" fill="white"/>
</g>
<g opacity="0.42">
<path opacity="0.42" d="M500.85 288.9L500.1 286.125L502.875 286.875L500.85 288.9ZM500.625 286.65L501.075 288.15L502.2 287.025L500.625 286.65Z" fill="white"/>
</g>
<g opacity="0.42">
<path opacity="0.42" d="M494.1 288.375L493.35 285.6L496.125 286.35L494.1 288.375ZM493.875 286.05L494.325 287.55L495.45 286.425L493.875 286.05Z" fill="white"/>
</g>
<g opacity="0.42">
<path opacity="0.42" d="M528.15 276.075L527.4 273.3L530.175 274.05L528.15 276.075ZM527.925 273.825L528.375 275.325L529.5 274.2L527.925 273.825Z" fill="white"/>
</g>
<g opacity="0.42">
<path opacity="0.42" d="M488.175 288.675L487.425 285.9L490.2 286.65L488.175 288.675ZM487.95 286.425L488.4 287.925L489.525 286.8L487.95 286.425Z" fill="white"/>
</g>
<g opacity="0.42">
<path opacity="0.42" d="M481.8 288.675L481.05 285.9L483.825 286.65L481.8 288.675ZM481.575 286.425L482.025 287.925L483.15 286.8L481.575 286.425Z" fill="white"/>
</g>
<g opacity="0.42">
<path opacity="0.42" d="M502.125 291.9L501.375 289.125L504.15 289.875L502.125 291.9ZM501.9 289.65L502.35 291.15L503.475 290.025L501.9 289.65Z" fill="white"/>
</g>
<g opacity="0.42">
<path opacity="0.42" d="M496.875 291.225L496.125 288.45L498.9 289.2L496.875 291.225ZM496.65 288.975L497.1 290.475L498.225 289.35L496.65 288.975Z" fill="white"/>
</g>
<g opacity="0.42">
<path opacity="0.42" d="M490.725 292.05L489.975 289.275L492.75 290.025L490.725 292.05ZM490.5 289.8L490.95 291.3L492.075 290.175L490.5 289.8Z" fill="white"/>
</g>
<g opacity="0.42">
<path opacity="0.42" d="M484.2 291.3L483.45 288.525L486.225 289.275L484.2 291.3ZM483.975 289.05L484.425 290.55L485.55 289.425L483.975 289.05Z" fill="white"/>
</g>
<g opacity="0.42">
<path opacity="0.42" d="M524.1 279.45L523.35 276.675L526.125 277.425L524.1 279.45ZM523.875 277.2L524.325 278.7L525.45 277.575L523.875 277.2Z" fill="white"/>
</g>
<g opacity="0.42">
<path opacity="0.42" d="M482.025 265.05L481.275 262.275L484.05 263.025L482.025 265.05ZM481.8 262.8L482.25 264.3L483.375 263.175L481.8 262.8Z" fill="white"/>
</g>
<g opacity="0.42">
<path opacity="0.42" d="M479.025 256.65L478.275 253.875L481.05 254.625L479.025 256.65ZM478.725 254.4L479.175 255.9L480.3 254.775L478.725 254.4Z" fill="white"/>
</g>
<g opacity="0.42">
<path opacity="0.42" d="M474.9 259.725L474.15 256.95L476.925 257.7L474.9 259.725ZM474.675 257.475L475.125 258.975L476.25 257.85L474.675 257.475Z" fill="white"/>
</g>
<g opacity="0.42">
<path opacity="0.42" d="M471 263.325L470.25 260.55L473.025 261.3L471 263.325ZM470.775 261.075L471.225 262.575L472.35 261.45L470.775 261.075Z" fill="white"/>
</g>
<g opacity="0.42">
<path opacity="0.42" d="M473.85 267.75L473.1 264.975L475.875 265.725L473.85 267.75ZM473.625 265.5L474.075 267L475.2 265.875L473.625 265.5Z" fill="white"/>
</g>
<g opacity="0.42">
<path opacity="0.42" d="M478.5 267.9L477.75 265.125L480.525 265.875L478.5 267.9ZM478.2 265.65L478.65 267.15L479.775 266.025L478.2 265.65Z" fill="white"/>
</g>
<g opacity="0.42">
<path opacity="0.42" d="M488.55 265.875L487.8 263.1L490.575 263.85L488.55 265.875ZM488.325 263.625L488.775 265.125L489.9 264L488.325 263.625Z" fill="white"/>
</g>
<g opacity="0.42">
<path opacity="0.42" d="M488.25 254.625L487.5 251.85L490.275 252.6L488.25 254.625ZM488.025 252.375L488.475 253.875L489.6 252.75L488.025 252.375Z" fill="white"/>
</g>
<g opacity="0.42">
<path opacity="0.42" d="M494.1 255.075L493.35 252.3L496.125 253.05L494.1 255.075ZM493.875 252.825L494.325 254.325L495.45 253.2L493.875 252.825Z" fill="white"/>
</g>
<g opacity="0.42">
<path opacity="0.42" d="M498.975 252.3L498.225 249.525L501 250.275L498.975 252.3ZM498.675 250.05L499.125 251.55L500.25 250.425L498.675 250.05Z" fill="white"/>
</g>
<g opacity="0.42">
<path opacity="0.42" d="M494.025 250.425L493.275 247.65L496.05 248.4L494.025 250.425ZM493.8 248.175L494.25 249.675L495.375 248.55L493.8 248.175Z" fill="white"/>
</g>
<g opacity="0.42">
<path opacity="0.42" d="M488.925 250.35L488.175 247.575L490.95 248.325L488.925 250.35ZM488.7 248.1L489.15 249.6L490.275 248.475L488.7 248.1Z" fill="white"/>
</g>
</g>
<path d="M527.85 233.85C527.55 232.275 526.35 230.925 524.775 230.475C524.625 230.4 524.475 230.4 524.325 230.4C523.425 230.25 526.425 227.25 522.6 225.075C523.725 223.725 522.825 222.45 522.525 220.5C522.15 217.8 520.05 215.625 517.35 215.1C515.85 214.8 514.425 215.1 513.225 215.7C513.225 215.475 513.225 215.25 513.225 214.95C513.225 211.05 510.6 209.475 507.225 208.95C504.45 208.575 500.55 210.375 500.175 212.1C500.025 213 498.975 213.525 498 213.525C497.625 213.525 497.175 213.525 496.8 213.675C495.15 214.05 493.8 215.475 493.425 217.125C492.825 220.05 495.075 222.6 497.85 222.6C499.575 222.6 503.1 222.675 503.1 223.35C503.1 227.925 504.675 230.25 509.55 229.8C509.025 230.775 508.725 231.975 508.725 233.175C508.725 233.55 508.725 233.925 508.8 234.3C507.525 235.05 506.625 236.475 506.625 238.05V246C506.625 250.65 509.925 254.85 514.5 255.525C520.35 256.425 525.45 251.925 525.45 246.225C525.45 243.075 522.825 242.025 522.45 240.975C521.925 239.4 522.675 239.025 523.35 239.025C526.275 239.1 528.375 236.7 527.85 233.85Z" fill="#71B8F2"/>
<path d="M496.575 246.75C496.575 246.75 497.55 244.95 497.85 243.225C498 242.25 498.225 239.025 498.225 239.025C498.225 239.025 495.525 238.2 494.55 235.725C492.75 230.85 495.525 221.925 495.525 221.925C501.6 224.4 501.975 219.3 503.1 223.35C504.225 227.325 505.65 229.125 507.225 229.575C507.675 229.725 508.5 229.65 509.1 229.35C509.55 228.3 511.275 228 511.875 228.9C512.775 230.175 511.2 233.625 509.4 232.875C508.275 235.575 506.1 245.25 507 248.475C507.225 249.3 507.75 250.425 507.75 250.425C506.7 251.25 503.1 251.55 500.85 251.175C498.375 250.8 495.9 249.6 494.175 246.825L496.575 246.75Z" fill="#FFBDB8"/>
<path d="M498.225 239.1C501.45 239.775 504.75 237.675 505.8 237C503.925 241.05 497.85 243.225 497.85 243.225L498.225 239.1Z" fill="#000061"/>
<path d="M490.65 331.65C490.65 331.5 489.6 313.65 489.6 309.375H489.975C489.975 313.65 490.95 331.425 491.025 331.575L490.65 331.65Z" fill="#B9C3EE"/>
<path d="M502.275 232.575C503.104 232.575 503.775 231.903 503.775 231.075C503.775 230.247 503.104 229.575 502.275 229.575C501.447 229.575 500.775 230.247 500.775 231.075C500.775 231.903 501.447 232.575 502.275 232.575Z" fill="#E88F88"/>
<path d="M493.95 230.475C494.625 230.625 495.225 230.1 495.3 229.425C495.375 228.75 494.85 228.15 494.175 228L493.95 230.475Z" fill="#E88F88"/>
<path d="M510.075 231.975L509.85 231.3C510.45 231.075 510.675 230.7 510.6 230.025L511.35 229.95C511.425 230.925 510.975 231.675 510.075 231.975Z" fill="#000061"/>
<path d="M496.5 226.65C496.35 226.2 496.05 225.825 495.675 225.675C495.3 225.525 494.925 225.6 494.475 225.825L494.175 225.375C494.775 225 495.375 224.925 495.9 225.15C496.425 225.375 496.875 225.825 497.025 226.5L496.5 226.65Z" fill="#000061"/>
<path d="M495.3 226.725C495.632 226.725 495.9 226.456 495.9 226.125C495.9 225.793 495.632 225.525 495.3 225.525C494.969 225.525 494.7 225.793 494.7 226.125C494.7 226.456 494.969 226.725 495.3 226.725Z" fill="#000061"/>
<path d="M502.5 227.85C502.35 227.4 502.05 227.025 501.675 226.875C501.3 226.725 500.925 226.8 500.475 227.025L500.175 226.575C500.775 226.2 501.375 226.125 501.9 226.35C502.425 226.575 502.875 227.025 503.025 227.7L502.5 227.85Z" fill="#000061"/>
<path d="M501.375 227.7C501.707 227.7 501.975 227.431 501.975 227.1C501.975 226.769 501.707 226.5 501.375 226.5C501.044 226.5 500.775 226.769 500.775 227.1C500.775 227.431 501.044 227.7 501.375 227.7Z" fill="#000061"/>
<path d="M494.7 222.75C494.475 221.85 496.725 221.775 497.1 222.375C497.4 222.975 496.725 223.2 496.2 223.05C495.6 222.975 494.85 223.125 494.7 222.75Z" fill="#000061"/>
<path d="M503.775 225.45C504.45 224.85 502.5 223.575 501.9 223.95C501.3 224.325 501.825 224.85 502.35 225C502.875 225.225 503.475 225.75 503.775 225.45Z" fill="#000061"/>
<path d="M499.2 233.85C497.4 234.075 495.6 233.325 495.6 233.325C495.6 233.325 495.45 235.725 497.175 235.875C498.825 236.1 499.2 233.85 499.2 233.85Z" fill="white"/>
<path d="M513.6 215.85L512.925 215.55C513.75 213.825 515.7 212.475 516.525 212.1L516.825 212.775C515.925 213.15 514.275 214.425 513.6 215.85Z" fill="#71B8F2"/>
<path d="M527.55 247.125C527.25 244.95 526.125 244.275 525 243.525C523.65 242.7 522.225 241.8 522.225 238.8H522.975C522.975 241.35 524.1 242.025 525.375 242.85C526.575 243.6 527.925 244.5 528.3 246.975L527.55 247.125Z" fill="#71B8F2"/>
<path d="M504.75 250.65C502.65 246 504.975 242.025 507 238.5C507.825 237.075 508.575 235.725 508.95 234.45L509.7 234.675C509.325 236.025 508.5 237.375 507.675 238.875C505.725 242.25 503.55 246 505.5 250.35L504.75 250.65Z" fill="#71B8F2"/>
<path d="M525.9 408.675C525.75 408.675 525.675 408.6 525.675 408.525C525.6 408.375 525.675 408.225 525.825 408.15C527.55 407.475 530.1 406.2 530.175 405.6C530.175 405.6 530.175 405.525 530.1 405.45C529.575 405 528.15 405.75 526.875 406.725C526.125 407.325 525.525 407.85 525.375 407.925C525.225 408 525.075 408 525 407.85C524.925 407.7 524.925 407.55 525 407.475C525.225 407.25 525.825 406.725 526.575 406.2C527.925 405.075 529.35 403.575 529.5 402.75C529.5 402.6 529.5 402.525 529.425 402.45C529.275 402.3 529.125 402.225 528.975 402.225C528.375 402.3 527.025 403.275 524.25 407.85C524.175 408 524.025 408 523.875 407.925C523.725 407.85 523.725 407.7 523.8 407.55C526.2 403.575 527.85 401.775 528.975 401.7C529.35 401.7 529.65 401.85 529.875 402.15C530.025 402.375 530.1 402.6 530.025 402.9C529.95 403.5 529.35 404.25 528.675 405.075C529.35 404.775 530.025 404.7 530.475 405.075C530.7 405.225 530.775 405.45 530.775 405.75C530.625 406.95 526.8 408.45 526.05 408.75C525.975 408.675 525.9 408.675 525.9 408.675Z" fill="#000061"/>
<path d="M467.325 413.25C466.65 413.25 466.05 413.175 465.675 412.875C465.45 412.725 465.375 412.5 465.3 412.275C465.3 412.05 465.375 411.825 465.525 411.675C465.9 411.3 466.8 411.15 467.7 411.15C466.35 410.7 464.85 410.025 464.325 409.2C464.1 408.9 464.1 408.6 464.175 408.225C464.325 407.7 464.55 407.55 464.775 407.475C465.825 407.1 467.625 408.375 469.725 409.95C470.025 410.175 470.25 410.325 470.475 410.475C470.625 410.55 470.625 410.775 470.55 410.85C470.475 411 470.25 411 470.175 410.925C469.95 410.775 469.725 410.55 469.425 410.4C468.075 409.425 465.825 407.7 465 408C464.925 408 464.775 408.075 464.7 408.375C464.625 408.525 464.7 408.75 464.775 408.9C465.525 410.1 469.05 411 470.325 411.3C470.475 411.3 470.55 411.45 470.55 411.6C470.55 411.75 470.4 411.825 470.25 411.825C468.825 411.675 466.425 411.525 465.9 412.05C465.825 412.125 465.825 412.125 465.825 412.2C465.825 412.275 465.825 412.35 465.975 412.425C466.575 412.875 468.9 412.575 470.25 412.275C470.4 412.275 470.55 412.35 470.55 412.5C470.55 412.65 470.475 412.8 470.325 412.8C470.175 412.875 468.6 413.25 467.325 413.25Z" fill="#000061"/>
<path d="M416.625 380.85L420.15 408.3H426.6L424.8 380.85H416.625Z" fill="#FFB2A8"/>
<path d="M430.95 380.85L437.775 394.2C438.825 396.3 441.45 397.125 443.55 396L455.175 388.275L452.25 383.25L443.4 387.9L440.775 381H430.95V380.85Z" fill="#FFB2A8"/>
<path d="M397.95 334.95L384.675 330.9C384.3 330.45 383.4 330 383.1 329.85C382.05 329.325 380.55 328.5 379.8 327.525C379.575 327.225 379.35 326.625 379.35 326.475C379.275 326.25 379.05 326.1 378.825 326.1C378.675 326.1 378.525 326.175 378.375 326.325C378.3 326.4 378.3 326.4 378.3 326.475C378.3 326.55 378.075 327.375 378.45 328.125C378.525 328.35 378.675 328.575 378.825 328.8C379.05 329.175 379.425 329.625 379.425 329.925C379.425 329.925 379.425 330.075 379.275 330.15C378.975 330.45 378.375 330.675 377.475 330.6L373.5 330.375C373.35 330.375 373.125 330.45 373.05 330.6C372.975 330.675 372.975 330.75 372.975 330.9C372.975 331.2 373.2 331.425 373.5 331.425L377.55 331.65C377.775 331.65 378 331.8 378 331.875C378 332.025 377.85 332.175 377.625 332.175C376.2 332.175 372.3 332.325 372.15 332.325C371.85 332.325 371.625 332.55 371.625 332.85C371.625 333.15 371.85 333.375 372.15 333.375C372.15 333.375 375 333.225 376.725 333.225C377.25 333.225 377.475 333.375 377.475 333.525C377.475 333.675 377.25 333.825 376.875 333.9L372.825 334.125C372.675 334.125 372.525 334.2 372.45 334.35C372.375 334.425 372.3 334.575 372.375 334.725C372.375 335.025 372.6 335.25 372.9 335.25L376.95 335.025C377.25 335.025 377.4 335.1 377.4 335.175C377.4 335.25 377.4 335.325 377.4 335.4C377.325 335.475 377.325 335.55 377.25 335.55C376.425 335.7 375.6 335.85 374.775 335.925C374.475 336 374.25 336.225 374.325 336.525C374.4 336.825 374.625 337.05 374.925 336.975C375.375 336.9 376.125 336.825 376.95 336.675C376.95 336.675 376.95 336.675 377.025 336.675C377.175 336.675 377.4 336.6 377.55 336.6C379.35 336.3 381.375 335.925 382.125 335.475L397.5 341.775C398.25 342.075 399 342.15 399.825 341.925L413.475 338.1L410.55 330L397.95 334.95Z" fill="#FFBDB8"/>
<path d="M459.825 320.25C461.55 319.875 464.325 319.425 464.325 319.425C464.625 319.35 464.775 319.125 464.775 318.825C464.7 318.525 464.475 318.375 464.175 318.375C464.025 318.375 460.125 319.125 458.775 319.425C458.55 319.5 458.4 319.35 458.325 319.2C458.325 319.125 458.475 318.975 458.7 318.825L462.6 317.775C462.9 317.7 463.05 317.4 462.975 317.1C462.975 317.025 462.9 316.875 462.825 316.8C462.675 316.725 462.525 316.65 462.375 316.725L458.55 317.775C457.725 318.075 457.05 317.925 456.675 317.7C456.525 317.625 456.45 317.475 456.45 317.475C456.45 317.175 456.6 316.65 456.75 316.275C456.825 316.05 456.975 315.75 456.975 315.525C457.2 314.7 456.825 313.95 456.75 313.875C456.75 313.8 456.675 313.8 456.6 313.725C456.45 313.65 456.3 313.575 456.15 313.65C455.925 313.725 455.775 313.875 455.775 314.1C455.775 314.325 455.7 314.925 455.55 315.225C455.1 316.35 453.75 317.475 452.85 318.225C452.625 318.45 451.875 319.125 451.575 319.575L439.125 327L424.8 329.775L425.925 337.65L441.75 333.525C442.275 333.375 442.8 333.15 443.175 332.775L454.95 323.4C455.775 323.625 457.875 323.55 459.675 323.475C459.825 323.475 459.975 323.475 460.2 323.475C461.1 323.4 461.85 323.325 462.3 323.325C462.6 323.325 462.825 323.025 462.75 322.725C462.75 322.425 462.45 322.2 462.15 322.275C461.325 322.35 460.5 322.425 459.675 322.5C459.6 322.5 459.525 322.425 459.45 322.35C459.375 322.275 459.375 322.2 459.375 322.125C459.375 322.05 459.525 321.975 459.825 321.9L463.875 321.15C464.175 321.075 464.325 320.85 464.325 320.55C464.325 320.4 464.25 320.325 464.175 320.25C464.025 320.175 463.875 320.1 463.725 320.175L459.75 320.925C459.3 321 459.075 320.85 459.075 320.7C459.075 320.625 459.3 320.4 459.825 320.25Z" fill="#FFBDB8"/>
<path d="M399.075 334.275L402 343.95L410.625 342.15L412.425 349.725C412.575 350.25 412.725 350.775 412.95 351.225L414.225 353.85L432 353.025C432 353.025 432 347.025 431.775 344.475C431.4 340.125 431.325 337.5 431.325 337.875L438.975 336.825C438.975 336.825 437.85 332.775 437.475 331.425C437.175 330.375 436.35 327.225 436.35 327.225L429.6 328.275L426.6 328.35L414.3 329.25C412.35 329.4 410.4 329.85 408.525 330.525C405 331.875 399.075 334.275 399.075 334.275Z" fill="#FF5776"/>
<path d="M414.225 353.85C414.225 353.85 412.5 357.825 413.25 363C414.375 371.325 415.5 384.075 415.425 383.175L426 383.1C426.525 383.1 426.975 382.65 426.9 382.125L426.15 371.4L431.475 384.075L442.651 380.925C442.651 380.925 437.925 366.45 435.975 360.675C435.3 358.65 432.075 353.1 432.075 353.1L414.225 353.85Z" fill="#000061"/>
<path d="M422.25 328.725L420.525 320.025C422.025 320.625 423.3 317.775 422.55 316.725C422.025 315.975 420.6 316.2 420.3 317.1C419.775 317.325 419.175 317.4 418.725 317.25C417.45 316.875 417.075 315.45 416.175 312.225C415.2 308.85 413.325 313.125 408.3 311.1C408.3 311.1 407.55 317.85 408.375 322.05C408.9 324.825 411.15 325.5 412.2 325.5C412.725 325.5 413.25 325.35 413.85 325.2L414.225 329.325C414.225 329.325 413.175 329.4 412.875 329.475C412.2 329.55 412.875 329.475 412.875 329.475C413.85 331.875 415.8 333 419.025 332.625C423.525 332.025 423.525 328.65 423.525 328.65L422.25 328.725Z" fill="#FFBDB8"/>
<path d="M414.225 380.25H426.75L426.9 382.05C426.975 382.575 426.525 383.1 425.925 383.1L415.5 383.175C415.05 383.175 414.6 382.8 414.525 382.35L414.225 380.25Z" fill="#3850B5"/>
<path d="M442.275 377.7L442.875 380.025C442.95 380.475 442.725 380.925 442.275 381.075L431.325 384.15C430.875 384.3 430.425 384.075 430.275 383.625L429.525 381.525L442.275 377.7Z" fill="#3850B5"/>
<path d="M436.275 362.7C432.9 362.1 430.2 359.925 429.375 357.075L429.75 357C430.575 359.7 433.125 361.8 436.35 362.4L436.275 362.7Z" fill="#3850B5"/>
<path d="M413.4 363.975L413.25 363.6C415.2 362.775 416.775 358.8 417.225 357.3L417.6 357.375C417.525 357.525 415.875 362.925 413.4 363.975Z" fill="#3850B5"/>
<path d="M451.5 382.65L457.575 378.45L465.525 392.25C465.525 392.25 462.225 391.95 457.725 388.05L455.4 389.475L451.5 382.65Z" fill="#3850B5"/>
<path d="M456.9 378.825L464.55 392.025L465.6 392.25L457.65 378.45L456.9 378.825Z" fill="#B9C3EE"/>
<path d="M427.2 407.85L427.8 415.2H411.975C411.975 415.2 413.85 412.5 419.475 410.55L419.4 407.85H427.2Z" fill="#3850B5"/>
<path d="M427.8 414.375H412.65L411.9 415.2H427.725L427.8 414.375Z" fill="#B9C3EE"/>
<path d="M573.225 377.7L564 408.3H570.45L581.55 377.7H573.225Z" fill="#FFBDB8"/>
<path d="M598.725 377.7L601.575 407.925H595.125L591.375 377.7H598.725Z" fill="#FFBDB8"/>
<path d="M571.05 407.85L568.95 415.2H555.3C555.3 415.2 557.175 412.5 562.8 410.55L563.7 407.85H571.05Z" fill="#3850B5"/>
<path d="M569.025 414.375C569.175 414.375 556.05 414.375 556.05 414.375L555.3 415.2H568.95L569.025 414.375Z" fill="#B9C3EE"/>
<path d="M594.675 407.85L595.5 415.2H609.9C609.9 415.2 608.025 412.5 602.4 410.55L602.25 407.85H594.675Z" fill="#3850B5"/>
<path d="M595.425 414.375C595.275 414.375 609.15 414.375 609.15 414.375L609.9 415.2H595.5L595.425 414.375Z" fill="#B9C3EE"/>
<path d="M574.425 336.075L581.55 333.975L600.45 333.3H606.9L607.275 323.1H596.4C596.4 323.1 586.125 322.35 582.825 323.1C579.975 323.775 572.175 328.2 572.175 328.2L574.425 336.075Z" fill="#3850B5"/>
<path d="M582.9 328.125C582.975 329.7 583.05 333.6 581.55 333.975C580.65 337.425 579.375 340.95 579.375 340.95L569.025 377.775C569.025 377.775 578.625 380.175 586.5 380.25C594.375 380.325 602.7 377.775 602.7 377.775L600 337.575L600.75 323.1H598.275L597.45 330.825C597.45 330.825 595.05 331.575 591.3 331.425C588.3 331.35 585.675 330.75 585.675 330.75L584.775 322.875L582.15 323.25C582.15 323.175 582.825 326.625 582.9 328.125Z" fill="#000061"/>
<path d="M408.75 329.925C408.525 330 408.375 330.225 408.45 330.45L416.7 357.15C417 358.05 417.975 358.575 418.875 358.35C419.85 358.05 420.375 357.075 420.075 356.1L411.975 329.55C411.9 329.325 411.675 329.25 411.525 329.25L408.75 329.925Z" fill="#3850B5"/>
<path d="M425.325 327.9C425.1 327.9 424.875 328.125 424.875 328.35L426.6 355.725C426.675 356.7 427.425 357.375 428.4 357.375C429.45 357.375 430.275 356.475 430.2 355.425L428.325 328.125C428.325 327.9 428.1 327.675 427.875 327.675L425.325 327.9Z" fill="#3850B5"/>
<path d="M520.275 279.675L520.2 279.3C522.3 278.775 527.55 275.475 530.55 271.875L530.85 272.1C527.775 275.775 522.375 279.15 520.275 279.675Z" fill="#000061"/>
<path d="M479.1 269.325C476.25 267.6 471.675 261.525 471.675 257.625H472.05C472.05 261.45 476.475 267.3 479.25 269.025L479.1 269.325Z" fill="#000061"/>
<path d="M487.575 276.225C487.575 276.225 483.975 275.625 482.7 272.175L483.075 272.025C484.275 275.25 487.65 275.85 487.65 275.85L487.575 276.225Z" fill="#000061"/>
<path d="M503.175 253.725C500.925 253.725 498.675 253.2 496.725 252.15C494.25 250.875 492.6 249 492.225 246.975L492.6 246.9C492.975 248.775 494.55 250.575 496.875 251.775C500.55 253.65 505.05 253.8 509.025 252.075L509.175 252.45C507.225 253.35 505.2 253.725 503.175 253.725Z" fill="#000061"/>
<path d="M428.55 355.95C428.923 355.95 429.225 355.648 429.225 355.275C429.225 354.902 428.923 354.6 428.55 354.6C428.177 354.6 427.875 354.902 427.875 355.275C427.875 355.648 428.177 355.95 428.55 355.95Z" fill="#000061"/>
<path d="M418.35 357.15C418.723 357.15 419.025 356.848 419.025 356.475C419.025 356.102 418.723 355.8 418.35 355.8C417.977 355.8 417.675 356.102 417.675 356.475C417.675 356.848 417.977 357.15 418.35 357.15Z" fill="#000061"/>
<path d="M597.3 293.025C597.3 295.95 594.975 298.275 592.05 298.275C589.125 298.275 586.8 295.95 586.8 293.025C586.8 290.1 590.175 289.125 592.05 292.125C594.375 290.175 597.3 290.1 597.3 293.025Z" fill="#FF5776"/>
<path d="M588.45 298.05C588.45 296.85 589.35 295.875 591.15 295.95C592.95 296.025 593.325 297.525 593.4 298.275C593.475 299.025 588.45 298.05 588.45 298.05Z" fill="#000061"/>
<path d="M581.25 303.3C582.525 300.525 586.275 297.45 589.95 297.225C593.625 297 597.375 300.675 597.075 303.6C596.775 306.525 589.8 316.5 587.7 316.5C583.275 316.575 578.1 309.975 581.25 303.3Z" fill="#FF5776"/>
<path d="M588.075 322.725L587.475 315C586.35 316.125 584.025 314.025 584.325 312.75C584.475 311.85 585.9 311.55 586.575 312.225C587.1 312.225 587.775 312.075 588.075 311.775C588.525 311.4 586.2 309.675 587.025 308.475C588.15 306.825 590.4 305.475 591.075 303.45C591.3 302.85 591.9 302.55 592.5 302.775C593.775 303.3 595.35 303.45 596.175 302.7C596.175 302.7 598.275 307.05 599.1 311.25C599.625 314.025 598.875 315.825 597.675 316.5C597.075 316.875 595.875 317.1 595.2 317.1L595.725 322.875L597.9 322.95C597.15 325.275 595.575 326.85 592.35 326.775C587.4 326.7 585.525 322.65 585.525 322.65L588.075 322.725Z" fill="#FFBDB8"/>
<path d="M581.851 304.575C582.976 304.875 583.351 306.075 583.201 307.425C583.051 308.775 582.151 309.9 580.801 309.6C579.826 309.3 581.851 304.575 581.851 304.575Z" fill="#000061"/>
<path d="M582 307.125C581.475 309.9 579 311.325 575.925 310.725C572.85 310.125 570.225 307.2 574.125 305.7C571.125 302.775 574.575 300.975 577.575 301.575C580.575 302.175 582.525 304.35 582 307.125Z" fill="#FF5776"/>
<path d="M564.15 407.775H570.6L572.025 403.95H565.275L564.15 407.775Z" fill="#B9C3EE"/>
<path d="M594.675 404.25H601.2L601.575 407.925H595.125L594.675 404.25Z" fill="#B9C3EE"/>
<path d="M567.375 412.5C567.955 412.5 568.425 412.03 568.425 411.45C568.425 410.87 567.955 410.4 567.375 410.4C566.795 410.4 566.325 410.87 566.325 411.45C566.325 412.03 566.795 412.5 567.375 412.5Z" fill="#B9C3EE"/>
<path d="M597.525 412.5C598.105 412.5 598.575 412.03 598.575 411.45C598.575 410.87 598.105 410.4 597.525 410.4C596.945 410.4 596.475 410.87 596.475 411.45C596.475 412.03 596.945 412.5 597.525 412.5Z" fill="#B9C3EE"/>
<path d="M413.85 325.125C415.35 324.825 418.275 322.05 418.275 322.05C418.275 322.05 418.05 324.675 416.4 326.025C415.35 326.85 414.15 327.45 414.15 327.45L413.85 325.125Z" fill="#000061"/>
<path d="M589.5 315.825C592.65 317.325 595.275 317.175 595.275 317.175L595.5 319.8C595.5 319.8 594.15 319.425 592.95 318.9C590.475 317.85 589.5 315.825 589.5 315.825Z" fill="#000061"/>
<path d="M586.725 314.7C586.125 314.7 585.45 314.4 585.15 313.8L585.825 313.5C586.05 313.95 586.575 314.1 586.95 314.025L587.1 314.775C587.025 314.7 586.875 314.7 586.725 314.7Z" fill="#000061"/>
<path d="M420.6 319.35V318.6C420.975 318.6 421.05 318.6 421.275 318.075L421.95 318.45C421.575 319.125 421.275 319.35 420.6 319.35Z" fill="#000061"/>
<path d="M422.25 305.925L421.65 305.475C422.475 304.275 423.9 303.525 423.975 303.45L424.35 304.125C424.275 304.125 423 304.875 422.25 305.925Z" fill="#000061"/>
<path d="M409.95 311.775C407.775 311.775 405.9 310.875 405.15 309.375L405.825 309.075C406.65 310.8 409.425 311.55 412.125 310.725L412.35 311.475C411.525 311.7 410.7 311.775 409.95 311.775Z" fill="#000061"/>
<path d="M409.875 315.9C409.65 315.525 409.35 315.3 409.05 315.225C408.75 315.15 408.375 315.3 408.075 315.525L407.7 315.075C408.15 314.7 408.675 314.55 409.125 314.625C409.65 314.7 410.1 315.075 410.325 315.6L409.875 315.9Z" fill="#000061"/>
<path d="M408.9 316.125C409.19 316.125 409.425 315.89 409.425 315.6C409.425 315.31 409.19 315.075 408.9 315.075C408.61 315.075 408.375 315.31 408.375 315.6C408.375 315.89 408.61 316.125 408.9 316.125Z" fill="#000061"/>
<path d="M414.975 315.975C414.75 315.6 414.45 315.375 414.15 315.3C413.85 315.225 413.475 315.375 413.175 315.6L412.8 315.15C413.25 314.775 413.775 314.625 414.225 314.7C414.75 314.775 415.2 315.15 415.425 315.675L414.975 315.975Z" fill="#000061"/>
<path d="M413.925 315.975C414.215 315.975 414.45 315.74 414.45 315.45C414.45 315.16 414.215 314.925 413.925 314.925C413.635 314.925 413.4 315.16 413.4 315.45C413.4 315.74 413.635 315.975 413.925 315.975Z" fill="#000061"/>
<path d="M407.55 313.05C407.1 312.15 409.65 311.55 410.175 312.15C410.7 312.75 409.95 313.125 409.275 313.125C408.525 313.05 407.7 313.425 407.55 313.05Z" fill="#000061"/>
<path d="M416.25 313.575C416.925 312.675 414.225 311.625 413.625 312.15C412.95 312.75 413.7 313.275 414.45 313.35C415.125 313.425 415.95 313.95 416.25 313.575Z" fill="#000061"/>
<path d="M413.4 320.175C411.75 320.475 409.95 319.95 409.95 319.95C409.95 319.95 410.025 322.2 411.6 322.275C413.25 322.35 413.4 320.175 413.4 320.175Z" fill="white"/>
<path d="M425.7 371.25C423.3 371.25 422.775 368.1 421.875 359.625L422.25 359.55C423.225 368.625 423.75 371.025 426 370.875V371.25C425.925 371.25 425.775 371.25 425.7 371.25Z" fill="#3850B5"/>
<path d="M426.075 372C426.075 371.925 424.575 366.525 423.975 363.975L424.35 363.9C424.95 366.525 426.45 371.85 426.45 371.925L426.075 372Z" fill="#3850B5"/>
<path d="M574.125 362.1H573.75V378.75H574.125V362.1Z" fill="#3850B5"/>
<path d="M578.625 345.3H578.25V379.425H578.625V345.3Z" fill="#3850B5"/>
<path d="M583.125 323.1H582.75V379.95H583.125V323.1Z" fill="#3850B5"/>
<path d="M587.625 331.05H587.25V380.25H587.625V331.05Z" fill="#3850B5"/>
<path d="M592.125 331.425H591.75V379.875H592.125V331.425Z" fill="#3850B5"/>
<path d="M596.625 331.05H596.25V379.2H596.625V331.05Z" fill="#3850B5"/>
<path d="M601.125 363.3H600.75V378.225H601.125V363.3Z" fill="#3850B5"/>
<path d="M600.825 349.575H576.9V349.95H600.825V349.575Z" fill="#3850B5"/>
<path d="M600.975 354.075H576.9V354.45H600.975V354.075Z" fill="#3850B5"/>
<path d="M600.975 358.575H576.9V358.95H600.975V358.575Z" fill="#3850B5"/>
<path d="M600.975 363.075H573.975V363.45H600.975V363.075Z" fill="#3850B5"/>
<path d="M601.875 367.575H572.025V367.95H601.875V367.575Z" fill="#3850B5"/>
<path d="M602.325 372.075H570.675V372.45H602.325V372.075Z" fill="#3850B5"/>
<path d="M602.625 376.575H569.4V376.95H602.625V376.575Z" fill="#3850B5"/>
<path d="M600.6 327.075H582.975V327.45H600.6V327.075Z" fill="#3850B5"/>
<path d="M600.225 331.575H582.975V331.95H600.225V331.575Z" fill="#3850B5"/>
<path d="M599.85 336.075H580.875V336.45H599.85V336.075Z" fill="#3850B5"/>
<path d="M599.925 340.575H579.525V340.95H599.925V340.575Z" fill="#3850B5"/>
<path d="M600.375 345.075H578.475V345.45H600.375V345.075Z" fill="#3850B5"/>
<path d="M574.5 351.675H581.55L578.625 362.85C578.25 364.2 577.05 365.175 575.625 365.175L572.475 365.25L574.5 351.675Z" fill="#000061"/>
<path d="M573.975 365.4V365.025L575.7 364.95C577.05 364.95 578.175 363.975 578.475 362.7L581.325 351.75H579.45V351.375H581.85L578.85 362.775C578.475 364.2 577.2 365.25 575.7 365.25L573.975 365.4Z" fill="#3850B5"/>
<path d="M597.975 351.675H602.7L601.875 365.175H599.925C599.1 365.175 598.35 364.5 598.35 363.675L597.975 351.675Z" fill="#000061"/>
<path d="M601.875 365.325H599.925C598.95 365.325 598.2 364.575 598.2 363.6L597.75 351.45H599.925V351.825H598.2L598.575 363.6C598.575 364.35 599.175 364.95 599.925 364.95H601.875V365.325Z" fill="#3850B5"/>
<path d="M627.906 315.784C628.388 315.544 627.534 312.855 625.999 309.779C624.464 306.702 622.829 304.403 622.347 304.644C621.865 304.884 622.719 307.573 624.254 310.649C625.789 313.726 627.424 316.024 627.906 315.784Z" fill="#FF5776"/>
<path d="M591.675 314.325C592.503 314.325 593.175 313.653 593.175 312.825C593.175 311.997 592.503 311.325 591.675 311.325C590.846 311.325 590.175 311.997 590.175 312.825C590.175 313.653 590.846 314.325 591.675 314.325Z" fill="#FF5776"/>
<path d="M598.95 310.875C598.275 311.1 597.6 310.725 597.45 310.05C597.3 309.375 597.75 308.7 598.35 308.475L598.95 310.875Z" fill="#FF5776"/>
<path d="M596.475 307.575L595.95 307.5C596.025 306.9 596.25 306.375 596.7 306.075C597.15 305.775 597.675 305.775 598.275 305.925L598.125 306.45C597.75 306.3 597.375 306.3 597.075 306.525C596.7 306.825 596.475 307.125 596.475 307.575Z" fill="#000061"/>
<path d="M597.3 307.425C597.59 307.425 597.825 307.19 597.825 306.9C597.825 306.61 597.59 306.375 597.3 306.375C597.01 306.375 596.775 306.61 596.775 306.9C596.775 307.19 597.01 307.425 597.3 307.425Z" fill="#000061"/>
<path d="M591.375 309.825L590.85 309.75C590.925 309.15 591.15 308.625 591.6 308.325C592.05 308.025 592.575 307.95 593.175 308.175L593.025 308.7C592.65 308.55 592.275 308.55 591.975 308.775C591.6 309 591.375 309.375 591.375 309.825Z" fill="#000061"/>
<path d="M592.2 309.45C592.49 309.45 592.725 309.215 592.725 308.925C592.725 308.635 592.49 308.4 592.2 308.4C591.91 308.4 591.675 308.635 591.675 308.925C591.675 309.215 591.91 309.45 592.2 309.45Z" fill="#000061"/>
<path d="M598.125 304.5C598.275 303.6 596.025 303.675 595.725 304.35C595.425 305.025 596.175 305.1 596.7 304.95C597.225 304.8 598.05 304.875 598.125 304.5Z" fill="#FF5776"/>
<path d="M589.35 308.025C588.675 307.425 590.475 306.075 591.075 306.375C591.675 306.675 591.225 307.275 590.7 307.5C590.175 307.725 589.65 308.325 589.35 308.025Z" fill="#FF5776"/>
<path d="M598.125 312C596.625 313.05 594.675 313.275 594.675 313.275C594.675 313.275 595.725 315.375 597.3 314.775C598.875 314.175 598.125 312 598.125 312Z" fill="white"/>
<path d="M578.625 313.875L578.175 313.275C579.45 312.3 579.975 311.025 579.825 308.925L580.575 308.85C580.8 311.25 580.2 312.825 578.625 313.875Z" fill="#FF5776"/>
<path d="M594.3 298.65C594.15 298.65 594 298.65 593.85 298.65H593.475V297.9H593.85C594.975 297.9 596.4 297.9 596.85 297.075L597.525 297.375C596.925 298.5 595.5 298.65 594.3 298.65Z" fill="#FF5776"/>
<path d="M542.4 304.5L548.925 299.7L550.275 301.5L543.675 306.15L542.4 304.5Z" fill="#000061"/>
<path d="M546.45 304.725C547.693 304.725 548.7 303.718 548.7 302.475C548.7 301.232 547.693 300.225 546.45 300.225C545.208 300.225 544.2 301.232 544.2 302.475C544.2 303.718 545.208 304.725 546.45 304.725Z" fill="#000061"/>
<path d="M546.6 304.125C547.594 304.125 548.4 303.319 548.4 302.325C548.4 301.331 547.594 300.525 546.6 300.525C545.606 300.525 544.8 301.331 544.8 302.325C544.8 303.319 545.606 304.125 546.6 304.125Z" fill="#3850B5"/>
<g opacity="0.71">
<path opacity="0.71" d="M400.859 333.744L400.504 333.866L403.838 343.585L404.193 343.463L400.859 333.744Z" fill="white"/>
</g>
<path d="M434.947 327.391L434.584 327.484L437.056 337.07L437.419 336.977L434.947 327.391Z" fill="white"/>
<path d="M161.525 235.425C162.725 249.6 193.85 294.825 205.925 302.175C238.625 287.4 297.125 254.25 313.775 240.525C318.5 236.625 317.525 235.65 310.25 236.325C215.15 245.925 161.525 235.425 161.525 235.425Z" fill="#A6F4DC"/>
<path d="M173.075 260.4C182.375 261.525 249.65 253.65 285.125 246.825C259.1 258.075 193.25 270.75 180.425 272.4C176.525 266.1 173.075 260.4 173.075 260.4Z" fill="#60C49E"/>
<path d="M172.1 258.975L165.8 294.075L190.325 285.975L172.1 258.975Z" fill="#60C49E"/>
<path d="M358.05 392.1H399.825C400.65 392.1 401.325 391.425 401.325 390.6V384.525C401.325 383.7 400.65 383.025 399.825 383.025H358.05C357.225 383.025 356.55 383.7 356.55 384.525V390.6C356.55 391.425 357.225 392.1 358.05 392.1Z" fill="#FCB560"/>
<path d="M364.05 382.95H405.825C406.65 382.95 407.325 382.275 407.325 381.45V375.375C407.325 374.55 406.65 373.875 405.825 373.875H364.05C363.225 373.875 362.55 374.55 362.55 375.375V381.45C362.55 382.275 363.225 382.95 364.05 382.95Z" fill="#FCB560"/>
<path d="M364.2 373.725H377.475L362.55 378.075V375.375C362.475 374.475 363.225 373.725 364.2 373.725Z" fill="#000061"/>
<path d="M391.2 373.875H390.45V382.95H391.2V373.875Z" fill="white"/>
<path d="M389.4 373.875H388.65V382.95H389.4V373.875Z" fill="white"/>
<path d="M385.275 382.8H384.525V391.875H385.275V382.8Z" fill="white"/>
<path d="M358.05 373.875H399.825C400.65 373.875 401.325 373.2 401.325 372.375V366.3C401.325 365.475 400.65 364.8 399.825 364.8H358.05C357.225 364.8 356.55 365.475 356.55 366.3V372.375C356.55 373.2 357.225 373.875 358.05 373.875Z" fill="#FCB560"/>
<path d="M385.275 364.65H384.525V373.725H385.275V364.65Z" fill="white"/>
<path d="M381.825 382.575H365.7V383.325H381.825V382.575Z" fill="#000061"/>
<path d="M409.876 373.5H389.476V374.25H409.876V373.5Z" fill="#000061"/>
<path d="M276.2 272.25L275.9 271.575C296.825 262.65 325.85 237.9 332.45 229.8L333.05 230.25C326.375 238.425 297.2 263.325 276.2 272.25Z" fill="#000061"/>
<path d="M181.175 233.825C174.125 233.825 164.675 232.7 157.925 231.05L158.075 230.3C166.025 232.25 177.725 233.45 184.7 232.925L184.775 233.675C183.65 233.75 182.45 233.825 181.175 233.825Z" fill="#000061"/>
<path d="M261.696 221.782L257.453 226.025L261.696 230.267L265.938 226.025L261.696 221.782Z" fill="#FCB560"/>
<path d="M184 306L158.5 218.5L145 222L170.5 310L184 306Z" fill="#FF5776"/>
<path d="M187 306L157.5 204.5L146.5 217L173.5 310L187 306Z" fill="#FFE9E9"/>
<path d="M618.276 337.747L614.033 341.989L618.276 346.232L622.518 341.989L618.276 337.747Z" fill="#FCB560"/>
<path d="M542.476 357C540.751 357 539.851 356.475 539.026 355.95C538.276 355.5 537.676 355.125 536.326 355.125C534.976 355.125 534.376 355.5 533.626 355.95C532.801 356.4 531.901 357 530.176 357C528.451 357 527.551 356.475 526.726 355.95C525.976 355.5 525.376 355.125 524.026 355.125C522.676 355.125 522.076 355.5 521.326 355.95C520.501 356.4 519.601 357 517.876 357C516.151 357 515.251 356.475 514.426 355.95C513.676 355.5 513.076 355.125 511.726 355.125V353.625C513.451 353.625 514.351 354.15 515.176 354.675C515.926 355.125 516.526 355.5 517.876 355.5C519.226 355.5 519.826 355.125 520.576 354.675C521.401 354.225 522.301 353.625 524.026 353.625C525.751 353.625 526.651 354.15 527.476 354.675C528.226 355.125 528.826 355.5 530.176 355.5C531.526 355.5 532.126 355.125 532.876 354.675C533.701 354.225 534.601 353.625 536.326 353.625C538.051 353.625 538.951 354.15 539.776 354.675C540.526 355.125 541.126 355.5 542.476 355.5V357Z" fill="#000061"/>
<path d="M311.25 304.65C309.525 304.65 308.625 304.125 307.8 303.6C307.05 303.15 306.45 302.775 305.1 302.775C303.75 302.775 303.15 303.15 302.4 303.6C301.575 304.05 300.675 304.65 298.95 304.65C297.225 304.65 296.325 304.125 295.5 303.6C294.75 303.15 294.15 302.775 292.8 302.775C291.45 302.775 290.85 303.15 290.1 303.6C289.275 304.05 288.375 304.65 286.65 304.65C284.925 304.65 284.025 304.125 283.2 303.6C282.45 303.15 281.85 302.775 280.5 302.775V301.275C282.225 301.275 283.125 301.8 283.95 302.325C284.7 302.775 285.3 303.15 286.65 303.15C288 303.15 288.6 302.775 289.35 302.325C290.175 301.875 291.075 301.275 292.8 301.275C294.525 301.275 295.425 301.8 296.25 302.325C297 302.775 297.6 303.15 298.95 303.15C300.3 303.15 300.9 302.775 301.65 302.325C302.475 301.875 303.375 301.275 305.1 301.275C306.825 301.275 307.725 301.8 308.55 302.325C309.3 302.775 309.9 303.15 311.25 303.15V304.65Z" fill="#000061"/>
<path d="M542.476 351.225C540.751 351.225 539.851 350.7 539.026 350.175C538.276 349.725 537.676 349.35 536.326 349.35C534.976 349.35 534.376 349.725 533.626 350.175C532.801 350.625 531.901 351.225 530.176 351.225C528.451 351.225 527.551 350.7 526.726 350.175C525.976 349.725 525.376 349.35 524.026 349.35C522.676 349.35 522.076 349.725 521.326 350.175C520.501 350.625 519.601 351.225 517.876 351.225C516.151 351.225 515.251 350.7 514.426 350.175C513.676 349.725 513.076 349.35 511.726 349.35V347.85C513.451 347.85 514.351 348.375 515.176 348.9C515.926 349.35 516.526 349.725 517.876 349.725C519.226 349.725 519.826 349.35 520.576 348.9C521.401 348.45 522.301 347.85 524.026 347.85C525.751 347.85 526.651 348.375 527.476 348.9C528.226 349.35 528.826 349.725 530.176 349.725C531.526 349.725 532.126 349.35 532.876 348.9C533.701 348.45 534.601 347.85 536.326 347.85C538.051 347.85 538.951 348.375 539.776 348.9C540.526 349.35 541.126 349.725 542.476 349.725V351.225Z" fill="#FCB560"/>
<path d="M612 169.324C609.336 162.46 604.37 158.774 598.436 158.138C590.927 157.249 583.418 161.824 583.418 161.824C583.418 161.824 586.203 150.512 582.449 141.614C579.906 135.513 575.667 129.794 569.974 128.395C564.04 126.87 557.742 129.921 553.261 134.751C548.78 139.581 545.994 145.936 543.451 152.291C542.119 147.716 540.423 142.758 536.548 140.979C532.551 139.199 527.828 142.25 525.769 146.572C523.71 150.893 523.589 156.105 523.831 160.935C519.108 158.011 513.173 157.121 508.571 160.045C505.543 161.951 503.484 165.638 503 169.451H612V169.324Z" fill="#E2F3FF"/>
<path d="M167 135C167 135 167.153 135 167.307 135C180.641 135 194.129 135 207.464 135C231.221 135 254.978 135 278.735 135C296.209 135 301.726 134.364 319.199 135C319.353 123.875 316.44 113.226 311.229 107.663C306.938 103.054 299.734 100.511 293.756 102.1C286.246 104.167 281.035 109.411 276.13 113.226C274.444 97.8091 268.313 83.8227 261.722 80.644C250.38 75.3992 238.425 83.6638 233.214 91.9285C228.769 98.6038 226.47 106.551 225.55 114.656C218.346 106.551 202.406 100.193 196.735 113.226C194.436 118.312 194.589 124.192 194.896 129.755C185.239 127.053 174.817 129.119 167 135Z" fill="#E2F3FF"/>
</svg>
