<svg width="700" height="559" viewBox="0 0 724 559" fill="none" xmlns="http://www.w3.org/2000/svg">
<ellipse cx="329.5" cy="300" rx="226.5" ry="228" fill="#F7FCFF"/>
<g clip-path="url(#clip0)">
<path d="M599.85 459.825H599.625C588.675 459.6 585.975 459.6 585.975 459.6H585L597.075 448.725H597.225C598.275 448.65 599.4 449.325 600.225 450.6C601.5 452.55 602.1 455.925 600 459.675L599.85 459.825ZM586.875 458.85C588.375 458.85 591.975 458.925 599.325 459.075C601.05 455.625 600.525 452.55 599.475 450.975C598.875 450 598.05 449.475 597.3 449.475L586.875 458.85Z" fill="#2A2958"/>
<path d="M584.024 436.125C587.849 431.925 598.799 424.8 604.274 431.025C613.124 441.075 588.524 459.15 588.524 459.15L566.774 459.375C566.774 459.45 577.949 442.8 584.024 436.125Z" fill="#2A2958"/>
<path d="M565.499 429.3C573.374 415.125 581.849 407.55 588.524 411.45C602.399 419.475 566.774 459.45 566.774 459.45L551.399 459.375C551.474 459.375 561.449 436.5 565.499 429.3Z" fill="#B9C3EE"/>
<path d="M182.875 235.075C181.075 221.2 184.225 209.875 192.25 201.325C208.3 184.075 243.7 177.325 300.325 180.625C368.65 184.675 419.35 172.825 439.375 148.075C448.75 136.525 451.225 122.35 446.725 106.075C442.525 90.6252 428.2 76.8252 406.525 67.2252C386.65 58.3752 362.5 53.8752 340.225 54.8502C307.15 56.2752 285.1 69.5502 281.35 90.3252C277.45 111.85 288.25 129.925 313.6 144.1L313.225 144.775C287.95 130.675 276.7 111.775 280.6 90.2502C282.625 79.0752 289.45 70.1502 300.85 63.8502C311.05 58.2252 324.625 54.8502 340.15 54.1752C362.5 53.2002 386.8 57.7002 406.825 66.6252C428.725 76.3752 443.125 90.3252 447.475 106C451.975 122.575 449.5 136.9 439.975 148.675C419.8 173.575 368.875 185.5 300.325 181.45C243.925 178.15 208.75 184.825 192.85 201.85C185.05 210.25 181.975 221.35 183.7 235L182.875 235.075Z" fill="#2A2958"/>
<path d="M253.5 436.125C254.325 434.7 253.5 420.975 253.5 407.1C253.5 393.225 242.25 382.05 228.45 382.05C217.5 382.05 208.125 389.1 204.75 398.925C203.1 398.625 201.45 398.4 199.725 398.4C185.85 398.4 174.675 409.65 174.675 423.45C174.675 423.75 174.675 424.05 174.675 424.35C173.4 423.75 171.9 423.45 170.4 423.45C164.475 423.45 159.675 428.25 159.675 434.175C159.675 434.85 159.75 435.45 159.825 436.05H253.5V436.125Z" fill="#FFE9E9"/>
<path d="M575.4 459.525L575.1 458.85C583.125 454.8 600.9 440.175 603.975 430.875L604.65 431.1C601.5 440.625 583.575 455.475 575.4 459.525Z" fill="white"/>
<path d="M586.65 430.125L586.35 429.45C602.175 422.7 607.95 409.725 608.1 399.825C608.1 398.025 607.95 396.525 607.65 395.25C607.35 395.475 607.05 395.55 606.825 395.625C605.7 395.925 604.5 395.325 603.9 394.275C603.45 393.375 603.6 392.4 604.425 391.725C605.025 391.2 605.625 391.125 606.225 391.35C606.9 391.65 607.5 392.475 607.95 393.6C608.325 392.85 608.625 391.65 608.55 389.775C608.475 387.15 607.65 384.3 606.825 381.375C604.725 374.25 602.55 366.825 610.95 360.675L611.4 361.275C603.45 367.125 605.55 374.25 607.575 381.15C608.475 384.15 609.3 387 609.375 389.775C609.45 392.325 608.925 393.75 608.325 394.575C608.7 396 608.925 397.8 608.85 399.75C608.7 409.95 602.775 423.225 586.65 430.125ZM605.7 392.025C605.475 392.025 605.25 392.1 605.025 392.325C604.275 393 604.5 393.675 604.65 393.975C605.025 394.65 605.85 395.175 606.675 394.95C606.9 394.875 607.2 394.8 607.425 394.5C607.05 393.225 606.525 392.4 605.925 392.1C605.925 392.025 605.775 392.025 605.7 392.025Z" fill="#B9C3EE"/>
<path d="M609.075 382.275C611.1 376.275 615.6 376.875 619.8 379.05C617.175 383.175 614.4 384.525 609.075 382.275Z" fill="#B9C3EE"/>
<path d="M604.35 407.925C595.8 411.225 592.275 405.75 590.625 399C597.75 398.1 601.875 399.9 604.35 407.925Z" fill="#B9C3EE"/>
<path d="M620.024 395.25C620.099 401.775 615.524 402.675 610.649 402.075C611.849 397.125 614.099 394.875 620.024 395.25Z" fill="#B9C3EE"/>
<path d="M611.025 383.176C610.425 383.176 609.75 383.101 609.075 383.026L608.7 382.951V382.576C608.775 380.101 609.6 378.226 610.95 377.101C612.6 375.751 615.075 375.451 618.525 376.051L618.9 376.126L618.75 376.501C617.7 380.551 615.9 383.176 611.025 383.176ZM609.525 382.351C614.325 382.801 616.575 381.376 618 376.876C615 376.426 612.9 376.726 611.475 377.851C610.35 378.676 609.675 380.251 609.525 382.351Z" fill="#2A2958"/>
<path d="M605.55 416.775C613.875 414.075 616.95 419.475 618.15 426C611.325 426.45 607.5 424.575 605.55 416.775Z" fill="#B9C3EE"/>
<path d="M614.174 423.975C610.799 423.975 607.724 422.25 604.799 417.3L604.649 417L604.949 416.775C607.799 414.825 610.424 414.15 612.824 414.75C615.599 415.5 618.074 417.9 620.174 422.175L620.399 422.55L620.024 422.7C617.924 423.45 615.974 423.975 614.174 423.975ZM605.624 417.15C609.674 423.825 613.874 424.05 619.274 422.1C617.249 418.275 615.074 416.1 612.599 415.425C610.499 414.9 608.174 415.5 605.624 417.15Z" fill="#2A2958"/>
<path d="M602.4 376.2C598.275 377.775 596.55 375.075 595.875 371.85C599.325 371.4 601.275 372.3 602.4 376.2Z" fill="#B9C3EE"/>
<path d="M485.355 234.022L481.112 238.265L485.355 242.507L489.598 238.265L485.355 234.022Z" fill="#FCB560"/>
<path d="M393.276 130.622L389.033 134.865L393.276 139.107L397.518 134.865L393.276 130.622Z" fill="#FFB2A8"/>
<path d="M283.521 176.007L279.278 180.249L283.521 184.492L287.764 180.249L283.521 176.007Z" fill="#FCB560"/>
<path d="M720.005 385.23L715.763 389.473L720.005 393.715L724.248 389.473L720.005 385.23Z" fill="#FCB560"/>
<path d="M206.67 342.618L202.428 346.86L206.67 351.103L210.913 346.86L206.67 342.618Z" fill="#FFB2A8"/>
<path d="M374.874 180.1C359.649 176.35 318.549 161.875 304.524 152.8L304.899 152.2C318.924 161.2 359.874 175.675 375.024 179.425L374.874 180.1Z" fill="#2A2958"/>
<path d="M468.7 220.375C451.975 217.975 408.325 201.025 401.5 197.575L401.875 196.9C408.7 200.35 452.2 217.225 468.85 219.625L468.7 220.375Z" fill="#2A2958"/>
<path d="M304.19 435.584L295.175 444.6L296.235 445.661L305.251 436.645L304.19 435.584Z" fill="#2A2958"/>
<path d="M309.294 435.593L300.278 444.609L301.339 445.669L310.354 436.654L309.294 435.593Z" fill="#2A2958"/>
<path d="M496.622 458.12L495.562 459.18L504.577 468.196L505.638 467.135L496.622 458.12Z" fill="#2A2958"/>
<path d="M491.518 458.083L490.457 459.144L499.473 468.159L500.533 467.098L491.518 458.083Z" fill="#2A2958"/>
<path d="M616.729 458.733L615.668 459.794L624.683 468.809L625.744 467.749L616.729 458.733Z" fill="#2A2958"/>
<path d="M611.625 458.724L610.564 459.785L619.58 468.8L620.641 467.74L611.625 458.724Z" fill="#2A2958"/>
<path d="M602.925 375.6C601.8 375.6 600.825 375.3 600.075 374.7C598.875 373.725 598.275 372.075 598.2 369.6V369.15H598.65C602.55 369.45 604.275 371.025 604.65 375V375.375L604.275 375.45C603.75 375.6 603.3 375.6 602.925 375.6ZM598.95 370.05C599.1 372.075 599.625 373.425 600.525 374.175C601.275 374.775 602.4 375 603.75 374.85C603.3 371.25 601.65 370.275 598.95 370.05Z" fill="#2A2958"/>
<path d="M72.3004 436.05C70.9504 432.825 73.5754 428.7 78.2254 436.05H72.3004Z" fill="#B9C3EE"/>
<path d="M65.8496 409.8C68.3246 408.9 73.2746 410.4 74.1746 413.401C71.1746 414.826 66.6746 412.875 65.8496 409.8Z" fill="#B9C3EE"/>
<path d="M76.3499 436.05C72.5249 428.55 72.2999 423.675 76.1249 423.525C82.3499 423.225 86.9249 436.05 86.9249 436.05H76.3499Z" fill="#2A2958"/>
<path d="M66.0754 390.6C69.4504 391.35 73.9504 396.6 72.8254 400.575C68.4754 399.975 64.8754 394.575 66.0754 390.6Z" fill="#B9C3EE"/>
<path d="M72.9744 401.025L72.6744 400.875C70.5744 400.05 68.8494 397.95 68.0244 395.4C67.2744 393 67.4244 390.675 68.4744 388.95L68.6244 388.65L68.9244 388.8C70.7994 389.775 72.6744 392.4 73.4994 395.1C74.0994 397.2 73.9494 399.225 73.1244 400.65L72.9744 401.025ZM68.9244 389.775C68.1744 391.275 68.0994 393.3 68.6994 395.25C69.4494 397.5 70.8744 399.225 72.5994 400.125C73.1994 398.925 73.2744 397.275 72.7494 395.475C72.0744 393.075 70.4994 390.75 68.9244 389.775Z" fill="#2A2958"/>
<path d="M87.8994 401.175C84.2994 400.5 77.5494 403.65 77.0244 408C81.4494 409.35 87.3744 405.6 87.8994 401.175Z" fill="#B9C3EE"/>
<path d="M77.1747 408.45C77.0996 408.45 77.0246 408.45 77.0246 408.45H76.7247L76.6496 408.15C76.4246 406.35 77.1747 404.4 78.6747 402.6C80.6247 400.275 83.5496 398.55 85.8747 398.4H86.2497L86.3246 398.775C86.6246 400.875 85.7997 403.275 83.9996 405.225C81.9746 407.175 79.4997 408.45 77.1747 408.45ZM85.4997 399.075C83.4746 399.375 80.9246 400.95 79.1996 402.975C77.9246 404.55 77.2496 406.2 77.3246 407.625C79.4246 407.55 81.5996 406.425 83.3246 404.55C84.8246 402.9 85.5746 400.875 85.4997 399.075Z" fill="#2A2958"/>
<path d="M82.425 436.05H81.675C81.825 432.975 80.85 431.325 79.725 429.45C78.825 428.025 77.85 426.375 77.4 423.825C76.8 420.525 77.85 417.525 79.35 415.575C78.9 415.425 78.525 415.2 78.075 414.9C74.925 412.8 70.575 406.65 76.725 388.35L77.4 388.575C71.475 406.35 75.525 412.275 78.45 414.225C78.9 414.525 79.35 414.75 79.8 414.9C80.475 414.225 81.15 413.775 81.75 413.55C82.725 413.25 83.625 413.55 84.075 414.375C84.225 414.75 84.15 415.125 83.85 415.425C83.25 415.95 81.75 416.175 80.1 415.725C78.675 417.45 77.55 420.375 78.15 423.6C78.6 426 79.5 427.5 80.325 429C81.45 430.95 82.575 432.75 82.425 436.05ZM80.7 415.2C81.975 415.5 83.025 415.275 83.4 414.975C83.475 414.9 83.475 414.825 83.475 414.825C83.175 414.3 82.725 414.15 82.125 414.375C81.6 414.45 81.15 414.75 80.7 415.2Z" fill="#B9C3EE"/>
<path d="M70.4998 414.975C70.0498 414.975 69.5248 414.9 69.0748 414.825C67.1998 414.45 65.6998 413.475 64.9498 412.125L64.7998 411.825L65.0998 411.6C66.4498 410.7 68.9248 410.4 71.0248 410.85C72.6748 411.225 73.9498 412.05 74.6248 413.1L74.7748 413.4L74.5498 413.625C73.3498 414.525 71.9998 414.975 70.4998 414.975ZM65.6998 412.125C66.3748 413.1 67.6498 413.85 69.1498 414.15C70.7998 414.45 72.4498 414.15 73.6498 413.4C73.0498 412.65 71.9998 412.05 70.7248 411.75C68.9998 411.225 66.9748 411.45 65.6998 412.125Z" fill="#2A2958"/>
<path d="M321.325 149.2C320.575 148.9 320.725 147.775 321.475 147.625C325.6 146.8 333.625 145.225 336.475 144.25C339.625 143.275 349.6 140.275 349.6 140.275L351.775 142.15L353.95 136.9L367.975 135.1C368.575 135.025 369.175 135.25 369.55 135.7C372.25 138.7 383.05 150.7 393.475 160.15C403.225 169 416.35 178.975 422.95 183.85C425.5 185.725 425.125 186.4 421.9 185.65C410.425 182.875 384.625 176.275 372.925 172.075C361.3 167.8 330.175 153.175 321.325 149.2Z" fill="#A6F4DC"/>
<path d="M369.175 155.05C365.725 158.35 368.275 163.825 373.75 167.05C379.75 170.5 385.6 169.675 388.525 168.1C384.25 165.25 369.175 155.05 369.175 155.05Z" fill="#71E2BD"/>
<path d="M375.1 153.55C377.2 153.1 381.775 154.375 385.675 157.375C391 161.425 392.2 164.725 392.05 166.675C387.7 163.3 375.1 153.55 375.1 153.55Z" fill="#71E2BD"/>
<path d="M421.45 184.525L418.075 183.625C418.075 183.625 416.95 183.325 415.075 182.8C405.4 180.175 381.925 173.65 373.6 170.2C361.9 165.325 329.725 149.875 329.425 149.725L327.625 148.9L352.75 141.775L353.125 143.2L331.825 149.2C338.8 152.5 364.075 164.575 374.125 168.775C382.375 172.225 406.975 179.05 415 181.225C409.6 176.8 395.125 164.8 389.875 160.075C381.625 152.65 369.7 140.65 367.825 138.775L356.425 139.9L356.275 138.4L368.425 137.2L368.65 137.425C368.8 137.575 381.925 150.925 390.85 158.95C396.4 163.9 412.075 176.875 416.725 180.7L421.45 184.525Z" fill="#71E2BD"/>
<path d="M421 184.225C421 184.225 407.275 177.7 382.525 158.875C374.95 153.1 354.025 136.9 354.025 136.9L351.85 142.15C351.85 142.15 366.55 154.375 377.8 161.725C392.5 171.325 421 184.225 421 184.225Z" fill="#60C49E"/>
<path d="M205.801 234C198.451 234 193.201 241.05 195.226 248.1L247.951 428.85C249.226 433.125 253.126 436.125 257.626 436.125" fill="#2A2958"/>
<path d="M263.476 436.125H393.001C398.026 436.125 401.626 431.325 400.201 426.525L346.576 242.625C345.076 237.525 340.426 234 335.026 234H205.501C200.476 234 196.876 238.8 198.301 243.6L251.926 427.5C253.426 432.6 258.151 436.125 263.476 436.125Z" fill="#FF5776"/>
<path d="M251.775 392.325C254.775 387.525 243.75 386.7 243.75 386.7L238.5 393.675L241.95 398.85L243.9 398.775C246.225 398.175 249.75 395.625 251.775 392.325Z" fill="#2A2958"/>
<path d="M396.976 433.125H267.451V432.375H396.976C399.226 432.375 401.326 431.325 402.676 429.525C404.026 427.725 404.476 425.4 403.801 423.225L350.176 239.325C348.751 234.375 344.176 230.925 339.001 230.925H209.551C207.301 230.925 205.201 231.975 203.851 233.775C202.501 235.575 202.051 237.9 202.726 240.075L233.926 346.95L233.176 347.175L201.976 240.3C201.301 237.9 201.751 235.35 203.251 233.4C204.751 231.45 207.076 230.25 209.551 230.25H339.076C344.551 230.25 349.426 233.925 350.926 239.175L404.551 423C405.226 425.4 404.776 427.95 403.276 429.9C401.776 431.85 399.526 433.125 396.976 433.125Z" fill="#2A2958"/>
<path d="M262.8 420.225H385.65C387.675 420.225 389.1 418.275 388.5 416.4L339.3 246.675C338.55 244.125 336.225 242.325 333.525 242.325H210.75C208.725 242.325 207.3 244.275 207.9 246.15L257.1 415.875C257.775 418.425 260.1 420.225 262.8 420.225Z" fill="#FFE9E9"/>
<path d="M310.651 386.1C294.301 386.1 276.751 369.075 269.476 344.625C265.501 331.275 265.051 317.625 268.351 306.3C271.651 294.9 278.326 287.1 287.101 284.475C295.876 281.85 305.701 284.625 314.701 292.425C323.626 300.075 330.751 311.7 334.801 325.05C343.126 352.8 335.251 379.725 317.251 385.125C315.001 385.8 312.826 386.1 310.651 386.1ZM293.626 285.075C291.526 285.075 289.501 285.375 287.476 285.975C279.226 288.45 272.926 295.8 269.776 306.75C266.626 317.775 267.001 331.05 270.901 344.175C279.001 371.1 299.551 388.875 316.726 383.7C333.901 378.525 341.326 352.425 333.301 325.5C329.401 312.375 322.426 301.05 313.651 293.55C307.126 288 300.151 285.075 293.626 285.075Z" fill="white"/>
<path d="M277.501 239.775C277.276 239.775 276.976 239.7 276.751 239.475C276.451 239.25 276.301 238.875 276.151 238.5C275.926 237.6 276.151 236.775 276.826 236.625C277.126 236.55 277.501 236.625 277.801 236.85C278.101 237.075 278.251 237.45 278.401 237.825C278.626 238.725 278.401 239.55 277.726 239.7C277.651 239.775 277.576 239.775 277.501 239.775ZM277.051 237.375C276.826 237.45 276.676 237.825 276.826 238.35C276.901 238.575 277.051 238.8 277.201 238.95C277.276 239.025 277.426 239.1 277.501 239.025C277.651 238.95 277.801 238.575 277.651 238.05C277.576 237.825 277.426 237.6 277.276 237.45C277.201 237.45 277.126 237.375 277.051 237.375Z" fill="#2A2958"/>
<path d="M581.55 258.75L599.025 258.825C607.125 258.825 612.9 266.625 610.65 274.425L559.35 450.45C557.775 455.85 552.9 459.525 547.275 459.525L515.025 459.45" fill="#2A2958"/>
<path d="M539.476 459.375L454.576 459.3C448.576 459.3 444.301 453.525 445.951 447.75L498.001 269.25C499.801 263.025 505.576 258.675 512.101 258.675L597.001 258.75C603.001 258.75 607.276 264.525 605.626 270.3L553.576 448.875C551.776 455.1 546.001 459.375 539.476 459.375Z" fill="#FF5776"/>
<path d="M595.126 264.525H578.176C577.126 266.85 574.726 268.425 572.176 268.425H531.076C529.051 268.425 527.551 266.4 528.151 264.525H512.476C508.126 264.525 504.301 267.375 503.101 271.5L451.501 446.7C450.601 449.85 452.926 453 456.226 453L537.976 453.075C542.476 453.075 546.451 450.075 547.726 445.8L599.401 270.375C600.301 267.45 598.126 264.525 595.126 264.525Z" fill="#FFE9E9"/>
<path d="M517.35 402.676C515.775 402.676 514.2 402.451 512.7 402.001C505.35 399.826 500.025 392.551 497.7 381.676C495.375 370.951 496.276 357.826 500.176 344.776C504.075 331.726 510.525 320.325 518.4 312.6C526.35 304.8 534.75 301.65 542.1 303.9C549.45 306.075 554.775 313.35 557.1 324.225C559.425 334.95 558.525 348.076 554.625 361.126C547.35 385.351 531.375 402.676 517.35 402.676ZM537.3 304.725C531.6 304.725 525.375 307.8 519.375 313.725C511.725 321.3 505.425 332.475 501.6 345.226C497.775 357.976 496.875 370.876 499.125 381.376C501.375 391.726 506.325 398.551 513.15 400.576C527.4 404.851 545.325 386.926 553.2 360.676C557.025 347.851 557.925 335.026 555.675 324.526C553.425 314.175 548.475 307.35 541.65 305.325C540.225 304.875 538.8 304.725 537.3 304.725Z" fill="white"/>
<path d="M551.175 266.25C551.1 266.25 550.95 266.25 550.875 266.175C550.05 265.95 549.75 264.825 550.125 263.55C550.5 262.275 551.4 261.525 552.15 261.75C552.6 261.9 552.825 262.275 552.975 262.8C553.05 263.25 553.05 263.85 552.9 264.375C552.75 264.9 552.45 265.425 552.075 265.8C551.775 266.1 551.475 266.25 551.175 266.25ZM551.925 262.5C551.625 262.5 551.1 262.95 550.875 263.85C550.575 264.75 550.8 265.5 551.1 265.575C551.25 265.575 551.4 265.5 551.625 265.35C551.85 265.125 552.075 264.675 552.225 264.3C552.375 263.85 552.375 263.4 552.3 263.1C552.225 262.725 552.15 262.5 551.925 262.5Z" fill="#2A2958"/>
<path d="M622.876 460.125H435.826C430.951 460.125 426.601 457.05 425.026 452.475L419.476 436.875H72.3008V435.375H420.526L426.451 451.95C427.876 455.925 431.626 458.625 435.901 458.625H622.951V460.125H622.876Z" fill="#2A2958"/>
<path d="M720.975 458.625H636.375V460.125H720.975V458.625Z" fill="#2A2958"/>
<path d="M315.299 374.91C329.148 370.764 334.962 349.324 328.286 327.023C321.609 304.722 304.97 290.005 291.122 294.15C277.273 298.296 271.458 319.736 278.135 342.037C284.811 364.338 301.45 379.056 315.299 374.91Z" fill="white"/>
<path d="M310.373 358.456C318.547 356.009 321.967 343.313 318.011 330.099C314.055 316.885 304.222 308.157 296.047 310.604C287.873 313.051 284.453 325.747 288.409 338.961C292.365 352.175 302.198 360.903 310.373 358.456Z" fill="#FF5776"/>
<path d="M547.234 358.818C553.744 337.072 549.693 316.651 538.185 313.206C526.677 309.761 512.071 324.596 505.561 346.342C499.051 368.088 503.102 388.509 514.61 391.954C526.118 395.399 540.724 380.563 547.234 358.818Z" fill="white"/>
<path d="M538.684 356.258C542.533 343.401 540.152 331.332 533.366 329.3C526.581 327.269 517.96 336.045 514.111 348.901C510.262 361.758 512.642 373.828 519.428 375.859C526.214 377.891 534.835 369.115 538.684 356.258Z" fill="#FF5776"/>
<path d="M237.451 252.525H220.726V254.025H237.451V252.525Z" fill="#2A2958"/>
<path d="M331.05 252.525H278.775V254.025H331.05V252.525Z" fill="#2A2958"/>
<path d="M374.4 406.95H322.125V408.45H374.4V406.95Z" fill="#2A2958"/>
<path d="M528.975 443.475H471V444.975H528.975V443.475Z" fill="#2A2958"/>
<path d="M518.625 272.025H510.45V273.525H518.625V272.025Z" fill="#2A2958"/>
<path d="M517.276 275.025H509.101V276.525H517.276V275.025Z" fill="#2A2958"/>
<path d="M516.151 278.025H507.976V279.525H516.151V278.025Z" fill="#2A2958"/>
<path d="M536.775 456.15L451.8 456.075C448.8 456.075 446.1 454.725 444.3 452.325C442.5 449.925 441.975 446.925 442.8 444.075L494.85 265.5C496.725 259.125 502.65 254.7 509.25 254.7L594.15 254.775C597.15 254.775 599.85 256.125 601.65 258.525C603.45 260.925 603.975 263.925 603.15 266.775L598.425 283.05L597.675 282.825L602.4 266.55C603.15 263.925 602.7 261.15 601.05 258.975C599.4 256.8 596.925 255.525 594.15 255.525L509.25 255.45C502.95 255.45 497.325 259.65 495.525 265.725L443.475 444.3C442.725 446.925 443.175 449.7 444.825 451.875C446.475 454.05 448.95 455.325 451.725 455.325L536.625 455.4C542.925 455.4 548.55 451.2 550.35 445.125L587.625 317.325L588.375 317.55L551.1 445.35C549.3 451.725 543.375 456.15 536.775 456.15Z" fill="#2A2958"/>
<path d="M69.9004 435.375H66.9004V436.875H69.9004V435.375Z" fill="#2A2958"/>
<path d="M599.476 315.525C599.251 315.525 599.026 315.525 598.801 315.45C598.201 315.3 597.751 314.85 597.451 314.325C597.151 313.8 597.076 313.125 597.301 312.525L601.351 299.025C601.501 298.425 601.951 297.975 602.476 297.675C603.001 297.375 603.676 297.3 604.276 297.525C604.876 297.675 605.326 298.125 605.626 298.65C605.926 299.175 606.001 299.85 605.776 300.45L601.726 313.95C601.576 314.55 601.126 315 600.601 315.3C600.226 315.375 599.851 315.525 599.476 315.525ZM603.526 298.05C603.301 298.05 603.001 298.125 602.776 298.275C602.401 298.5 602.101 298.8 602.026 299.175L597.976 312.675C597.826 313.05 597.901 313.5 598.126 313.875C598.351 314.25 598.651 314.55 599.101 314.625C599.476 314.775 599.926 314.7 600.301 314.475C600.676 314.25 600.976 313.95 601.051 313.575L605.101 300.075C605.251 299.7 605.176 299.25 604.951 298.875C604.726 298.5 604.426 298.2 604.051 298.125C603.826 298.125 603.676 298.05 603.526 298.05Z" fill="#FF5776"/>
<path d="M400.5 444.375H271.275V445.875H400.5V444.375Z" fill="#2A2958"/>
<path d="M450.75 302.924C444.675 307.274 422.325 320.849 421.5 319.049C420.375 316.724 427.275 310.049 430.425 304.424C431.85 301.8 441.075 297.525 447.15 295.875C451.875 294.525 453.15 301.2 450.75 302.924Z" fill="#B88370"/>
<path d="M521.249 337.5C506.999 341.25 496.499 334.5 478.499 336.75C461.324 338.925 446.924 349.875 431.324 352.2C430.124 352.35 429.375 353.7 429.9 354.825C431.55 357.975 434.4 360 441.675 360C448.875 360 458.024 357.15 461.324 355.95C462.074 355.725 462.824 356.1 463.124 356.85C463.274 357.375 463.125 357.975 462.675 358.35C460.425 360.225 453.524 365.925 449.699 369.075C439.349 377.775 420.075 379.125 416.775 379.05C411.225 378.975 408.075 386.475 415.275 387.675C415.275 387.675 411.525 395.325 419.025 396.375C423.9 397.05 425.699 396.825 425.699 396.825C425.699 396.825 423.375 401.775 430.875 402.75C435.75 403.425 438.75 402.75 438.75 402.75C438.75 402.75 437.7 408.15 444.375 407.625C452.849 407.025 473.249 400.2 482.099 395.25C495.899 387.45 505.949 376.5 506.849 375C513.599 374.25 517.799 372.975 523.124 372.45C530.024 371.775 537.899 355.425 537.149 342.525C536.024 323.55 521.249 337.5 521.249 337.5Z" fill="#FFBDB8"/>
<path d="M486.3 359.475C480.375 359.475 472.2 358.275 469.65 354.975L470.25 354.525C473.175 358.35 485.55 359.325 490.875 358.35L491.025 359.1C489.9 359.325 488.25 359.475 486.3 359.475Z" fill="white"/>
<path d="M443.925 408.075C440.7 408.075 438.9 406.125 438.6 404.1C438.3 402.075 439.425 399.6 442.275 398.925L443.175 398.7C449.025 397.35 464.625 393.6 472.425 388.125L472.875 388.725C465 394.35 449.25 398.025 443.325 399.45L442.5 399.675C439.95 400.275 439.125 402.375 439.35 404.025C439.575 405.675 441.15 407.625 444.525 407.325L444.6 408.075C444.3 408 444.075 408.075 443.925 408.075Z" fill="white"/>
<path d="M430.95 403.125C426.675 402.525 424.95 399.975 425.025 397.725C425.1 395.85 426.6 393.825 429.6 393.75C432.15 393.675 449.325 391.5 463.125 382.95L463.5 383.625C449.475 392.25 432.15 394.5 429.525 394.575C427.05 394.65 425.775 396.3 425.7 397.8C425.625 399.75 427.2 401.925 430.95 402.45V403.125Z" fill="white"/>
<path d="M419.1 396.75C414.825 396.15 413.175 393.075 413.4 390.375C413.625 388.275 415.2 386.025 418.125 386.325C423.6 386.775 442.35 384.75 454.125 377.175L454.5 377.775C442.575 385.425 423.525 387.525 417.975 387C415.575 386.775 414.225 388.65 414 390.375C413.775 392.7 415.2 395.4 419.025 395.925L419.1 396.75Z" fill="white"/>
<path d="M400.65 273.6C397.65 274.35 394.275 275.175 391.35 275.625C386.1 276.375 370.95 277.5 363.6 282.9C357.3 287.475 338.25 308.25 338.25 308.25C338.25 308.25 305.4 311.475 297.15 312.975C297.15 312.975 288.15 320.175 291.3 335.025C295.875 356.25 307.5 356.25 307.5 356.25C312.75 355.5 335.25 351.75 338.25 351C342.75 353.25 355.5 354 363 352.5C370.5 351 380.25 348 380.25 348V347.7C370.65 341.475 360.825 333.15 356.25 326.025C362.475 321.675 368.25 316.35 373.65 310.425L373.575 310.35C377.85 305.25 380.55 291.525 380.55 291.525C380.55 291.525 385.95 289.725 390.45 287.4C397.05 283.95 399.15 283.575 402.975 278.25C404.7 275.85 402.825 273.075 400.65 273.6Z" fill="#B88370"/>
<path d="M356.25 326.025C361.5 336.375 372.525 350.4 372.525 350.4L380.25 348L356.25 326.025Z" fill="#2A2958"/>
<path d="M356.25 326.025C384 306.525 404.25 266.775 411 249C436.5 264 448.5 268.5 452.25 270C447 287.4 422.25 332.475 393 354.75C381 349.5 363 336.525 356.25 326.025Z" fill="#A6F4DC"/>
<path d="M392.624 350.55L392.249 350.4C381.899 345.9 366.599 334.95 361.199 326.625L360.824 326.025L361.424 325.575C384.299 309.525 407.099 268.2 412.349 254.475L412.649 253.65L413.399 254.1C433.124 265.725 442.874 269.55 446.474 270.975L447.599 271.425L447.449 272.025C443.399 288.15 416.174 333.525 392.999 350.25L392.624 350.55ZM362.849 326.4C368.324 334.35 382.499 344.4 392.399 348.825C414.974 332.25 441.224 288.675 445.799 272.325C442.049 270.825 432.524 267 413.399 255.825C407.549 270.3 385.349 310.125 362.849 326.4Z" fill="#71E2BD"/>
<path d="M403.05 346.125L404.55 335.1L407.025 332.55V342.6L403.05 346.125Z" fill="#2A2958"/>
<path d="M416.876 312.841C422.891 305.885 423.017 296.139 417.159 291.073C411.3 286.006 401.674 287.538 395.659 294.493C389.645 301.449 389.518 311.194 395.377 316.261C401.236 321.327 410.862 319.796 416.876 312.841Z" fill="#71E2BD"/>
<path d="M400.275 318.15C396.9 318.15 393.75 317.025 391.35 314.925C388.275 312.3 386.625 308.4 386.7 303.975C386.775 299.55 388.5 295.125 391.65 291.525C394.8 287.925 398.85 285.525 403.2 284.85C407.55 284.175 411.675 285.225 414.75 287.85C421.05 293.325 420.9 303.825 414.45 311.25C411.3 314.85 407.25 317.25 402.9 317.925C402 318.075 401.1 318.15 400.275 318.15ZM405.75 285.45C404.925 285.45 404.1 285.525 403.275 285.675C399.075 286.35 395.175 288.6 392.175 292.05C389.175 295.5 387.525 299.775 387.45 303.975C387.375 308.175 388.95 311.85 391.875 314.4C394.8 316.875 398.625 317.925 402.825 317.25C407.025 316.575 410.925 314.325 413.925 310.875C420.075 303.75 420.225 293.7 414.3 288.525C411.9 286.5 408.975 285.45 405.75 285.45Z" fill="white"/>
<path d="M418.649 314.85C415.874 319.125 417.899 329.025 420.524 329.025C423.749 329.025 428.399 322.425 426.899 318C425.249 313.575 421.574 310.275 418.649 314.85Z" fill="#B88370"/>
<path d="M411.3 323.475C408.525 327.75 411.6 336.975 414.15 336.75C418.65 336.3 421.05 331.05 419.475 326.625C417.975 322.2 414.3 318.9 411.3 323.475Z" fill="#B88370"/>
<path d="M405.825 330.9C403.05 335.175 405.075 344.1 407.625 344.1C412.8 344.1 414.3 339.225 412.725 334.8C411.15 330.375 408.825 326.325 405.825 330.9Z" fill="#B88370"/>
<path d="M345.825 330.15L345.6 329.4C346.35 329.175 347.1 328.95 347.775 328.8C349.95 328.275 352.125 327.675 356.025 325.65L356.4 326.325C352.425 328.425 350.175 329.025 348 329.55C347.325 329.775 346.575 329.925 345.825 330.15Z" fill="white"/>
<path d="M380.399 291.75C378.749 291 377.849 289.8 376.574 288.225L377.174 287.775C378.449 289.35 379.274 290.475 380.699 291.075L380.399 291.75Z" fill="white"/>
<path d="M336.9 351.525C336.6 351.225 336.225 351 335.85 350.7C333.6 348.9 330.6 346.5 330 342.675L330.75 342.525C331.275 346.125 334.125 348.3 336.375 350.1C336.75 350.4 337.125 350.7 337.425 350.925L336.9 351.525Z" fill="white"/>
<path d="M387.3 293.4C387.3 293.4 395.925 288.6 399.675 283.875C401.1 282.075 403.05 278.175 403.05 278.175L393.6 283.5L387.3 293.4Z" fill="#2A2958"/>
<path d="M400.65 273.6C397.65 274.35 394.275 275.175 391.35 275.625C386.1 276.375 386.025 289.65 390.45 287.325C397.05 283.875 399.15 283.5 402.975 278.175C404.7 275.85 402.825 273.075 400.65 273.6Z" fill="#B88370"/>
<path d="M420.15 330.675C419.1 323.325 416.25 322.275 414.525 321.675L414.375 321.6L414.6 320.925L414.75 321C416.625 321.675 419.775 322.8 420.9 330.6L420.15 330.675Z" fill="white"/>
<path d="M412.95 337.65C412.35 333.525 410.775 329.325 408.9 329.25V328.5C411.6 328.65 413.175 334.2 413.7 337.575L412.95 337.65Z" fill="white"/>
<path d="M426.75 320.325C425.925 315.45 424.05 313.875 423 313.425C422.025 312.975 421.125 313.05 420.675 313.35L420.3 312.675C421.125 312.225 422.25 312.225 423.3 312.75C424.725 313.425 426.6 315.3 427.425 320.25L426.75 320.325Z" fill="white"/>
<path d="M258.675 435.301H216.9C216.075 435.301 215.4 434.626 215.4 433.801V427.726C215.4 426.901 216.075 426.226 216.9 426.226H258.675C259.5 426.226 260.175 426.901 260.175 427.726V433.801C260.175 434.626 259.5 435.301 258.675 435.301Z" fill="#FCB560"/>
<path d="M252.675 417.15H210.9C210.075 417.15 209.4 416.475 209.4 415.65V409.5C209.4 408.675 210.075 408 210.9 408H252.675C253.5 408 254.175 408.675 254.175 409.5V415.575C254.175 416.475 253.5 417.15 252.675 417.15Z" fill="#FCB560"/>
<path d="M258.675 408.075H216.9C216.075 408.075 215.4 407.4 215.4 406.575V400.5C215.4 399.675 216.075 399 216.9 399H258.675C259.5 399 260.175 399.675 260.175 400.5V406.575C260.175 407.4 259.5 408.075 258.675 408.075Z" fill="#FCB560"/>
<path d="M252.675 426.225H210.9C210.075 426.225 209.4 425.55 209.4 424.725V418.65C209.4 417.825 210.075 417.15 210.9 417.15H252.675C253.5 417.15 254.175 417.825 254.175 418.65V424.725C254.175 425.55 253.5 426.225 252.675 426.225Z" fill="#FCB560"/>
<path d="M229.575 398.926C241.918 398.926 251.925 388.919 251.925 376.576C251.925 364.232 241.918 354.226 229.575 354.226C217.231 354.226 207.225 364.232 207.225 376.576C207.225 388.919 217.231 398.926 229.575 398.926Z" fill="#FCB560"/>
<path d="M227.25 416.775H206.85V417.525H227.25V416.775Z" fill="#2A2958"/>
<path d="M219.377 357.065L218.847 357.595L249.128 387.877L249.659 387.347L219.377 357.065Z" fill="white"/>
<path d="M223.166 354.991L222.636 355.521L250.743 383.629L251.273 383.098L223.166 354.991Z" fill="white"/>
<path d="M659.324 421.425C657.599 421.425 656.699 420.9 655.874 420.375C655.124 419.925 654.524 419.55 653.174 419.55C651.824 419.55 651.224 419.925 650.474 420.375C649.649 420.825 648.749 421.425 647.024 421.425C645.299 421.425 644.399 420.9 643.574 420.375C642.824 419.925 642.224 419.55 640.874 419.55C639.524 419.55 638.924 419.925 638.174 420.375C637.349 420.825 636.449 421.425 634.724 421.425C632.999 421.425 632.099 420.9 631.274 420.375C630.524 419.925 629.924 419.55 628.574 419.55V418.05C630.299 418.05 631.199 418.575 632.024 419.1C632.774 419.55 633.374 419.925 634.724 419.925C636.074 419.925 636.674 419.55 637.424 419.1C638.249 418.65 639.149 418.05 640.874 418.05C642.599 418.05 643.499 418.575 644.324 419.1C645.074 419.55 645.674 419.925 647.024 419.925C648.374 419.925 648.974 419.55 649.724 419.1C650.549 418.65 651.449 418.05 653.174 418.05C654.899 418.05 655.799 418.575 656.624 419.1C657.374 419.55 657.974 419.925 659.324 419.925V421.425Z" fill="#2A2958"/>
<path d="M659.324 416.175C657.599 416.175 656.699 415.65 655.874 415.125C655.124 414.675 654.524 414.3 653.174 414.3C651.824 414.3 651.224 414.675 650.474 415.125C649.649 415.575 648.749 416.175 647.024 416.175C645.299 416.175 644.399 415.65 643.574 415.125C642.824 414.675 642.224 414.3 640.874 414.3C639.524 414.3 638.924 414.675 638.174 415.125C637.349 415.575 636.449 416.175 634.724 416.175C632.999 416.175 632.099 415.65 631.274 415.125C630.524 414.675 629.924 414.3 628.574 414.3V412.8C630.299 412.8 631.199 413.325 632.024 413.85C632.774 414.3 633.374 414.675 634.724 414.675C636.074 414.675 636.674 414.3 637.424 413.85C638.249 413.4 639.149 412.8 640.874 412.8C642.599 412.8 643.499 413.325 644.324 413.85C645.074 414.3 645.674 414.675 647.024 414.675C648.374 414.675 648.974 414.3 649.724 413.85C650.549 413.4 651.449 412.8 653.174 412.8C654.899 412.8 655.799 413.325 656.624 413.85C657.374 414.3 657.974 414.675 659.324 414.675V416.175Z" fill="#FCB560"/>
<path d="M190.125 330.675C188.4 330.675 187.5 330.15 186.675 329.625C185.925 329.175 185.325 328.8 183.975 328.8C182.625 328.8 182.025 329.175 181.275 329.625C180.45 330.075 179.55 330.675 177.825 330.675C176.1 330.675 175.2 330.15 174.375 329.625C173.625 329.175 173.025 328.8 171.675 328.8C170.325 328.8 169.725 329.175 168.975 329.625C168.15 330.075 167.25 330.675 165.525 330.675C163.8 330.675 162.9 330.15 162.075 329.625C161.325 329.175 160.725 328.8 159.375 328.8V327.3C161.1 327.3 162 327.825 162.825 328.35C163.575 328.8 164.175 329.175 165.525 329.175C166.875 329.175 167.475 328.8 168.225 328.35C169.05 327.9 169.95 327.3 171.675 327.3C173.4 327.3 174.3 327.825 175.125 328.35C175.875 328.8 176.475 329.175 177.825 329.175C179.175 329.175 179.775 328.8 180.525 328.35C181.35 327.9 182.25 327.3 183.975 327.3C185.7 327.3 186.6 327.825 187.425 328.35C188.175 328.8 188.775 329.175 190.125 329.175V330.675Z" fill="#B9C3EE"/>
<path d="M190.5 431.891L186.258 436.134L190.5 440.377L194.743 436.134L190.5 431.891Z" fill="#FF5776"/>
<path d="M680.343 455.064L676.101 459.306L680.343 463.549L684.586 459.306L680.343 455.064Z" fill="#FCB560"/>
<path d="M217.125 426.226H230.4L215.475 430.576V427.876C215.4 426.976 216.15 426.226 217.125 426.226Z" fill="#2A2958"/>
<path d="M243.15 398.925H242.4V408H243.15V398.925Z" fill="white"/>
<path d="M246.15 398.925H245.4V408H246.15V398.925Z" fill="white"/>
<path d="M241.275 398.925H240.525V408H241.275V398.925Z" fill="white"/>
<path d="M238.2 408.075H237.45V417.15H238.2V408.075Z" fill="white"/>
<path d="M240 408.075H239.25V417.15H240V408.075Z" fill="white"/>
<path d="M242.325 417.15H241.575V426.225H242.325V417.15Z" fill="white"/>
<path d="M244.125 417.15H243.375V426.225H244.125V417.15Z" fill="white"/>
<path d="M248.25 426.075H247.5V435.15H248.25V426.075Z" fill="white"/>
<path d="M265.2 407.7H218.85V408.45H265.2V407.7Z" fill="#2A2958"/>
<path d="M251.1 416.775H242.775V417.525H251.1V416.775Z" fill="#2A2958"/>
<path d="M251.1 425.851H234.975V426.601H251.1V425.851Z" fill="#2A2958"/>
<path d="M231.45 396.975C218.925 396.975 208.725 386.775 208.725 374.25C208.725 361.725 218.925 351.525 231.45 351.525C243.975 351.525 254.175 361.725 254.175 374.25C254.175 386.775 243.975 396.975 231.45 396.975ZM231.45 352.2C219.3 352.2 209.475 362.025 209.475 374.175C209.475 386.325 219.3 396.15 231.45 396.15C243.6 396.15 253.425 386.325 253.425 374.175C253.425 362.1 243.525 352.2 231.45 352.2Z" fill="#2A2958"/>
<path d="M556 219C556 219 556.107 219 556.213 219C565.5 219 574.894 219 584.18 219C600.725 219 617.271 219 633.816 219C645.985 219 649.827 218.557 661.996 219C662.103 211.252 660.075 203.836 656.445 199.962C653.457 196.752 648.44 194.981 644.277 196.088C639.046 197.527 635.417 201.179 632.001 203.836C630.827 193.099 626.557 183.359 621.967 181.145C614.068 177.492 605.742 183.248 602.113 189.004C599.018 193.653 597.416 199.187 596.776 204.832C591.759 199.187 580.658 194.759 576.708 203.836C575.107 207.378 575.214 211.473 575.427 215.347C568.702 213.466 561.444 214.905 556 219Z" fill="white"/>
<path d="M230.778 172.816C226.921 162.881 219.733 157.545 211.143 156.625C200.274 155.337 189.405 161.961 189.405 161.961C189.405 161.961 193.437 145.586 188.002 132.707C184.321 123.876 178.185 115.596 169.946 113.572C161.356 111.364 152.24 115.78 145.753 122.772C139.267 129.763 135.235 138.962 131.553 148.162C129.625 141.538 127.17 134.363 121.561 131.787C115.775 129.211 108.938 133.627 105.958 139.882C102.978 146.138 102.802 153.681 103.153 160.673C96.3161 156.441 87.7259 155.153 81.0642 159.385C76.6814 162.145 73.7012 167.48 73 173H230.778V172.816Z" fill="white"/>
<path d="M665.699 442.575L664.724 458.475H643.199C643.199 458.475 645.974 454.5 654.224 451.65L654.599 442.575H665.699Z" fill="#2A2958"/>
<path d="M691.8 441.975L694.425 457.875H715.95C715.95 457.875 713.175 453.9 704.925 451.05L702.825 441.975H691.8Z" fill="#2A2958"/>
<path d="M664.799 457.425H644.324L643.274 458.625H664.799V457.425Z" fill="#3850B5"/>
<path d="M694.425 457.425C695.175 457.425 715.65 457.425 715.65 457.425L716.7 458.625H694.575L694.425 457.425Z" fill="#3850B5"/>
<path d="M682.874 247.425C684.449 244.8 683.249 243.3 682.574 242.925C681.374 242.1 679.724 242.25 678.524 243.375C671.474 237.675 665.849 239.85 664.124 244.5C658.424 241.575 655.274 249.6 663.299 250.575C669.749 251.325 680.099 263.1 680.099 263.1C680.099 263.1 681.374 264.15 682.199 262.95C683.699 260.775 686.399 247.8 682.874 247.425Z" fill="#2A2958"/>
<path d="M660.074 328.5L651.824 446.025H667.349L675.899 354.375L692.024 446.025H705.974C705.974 446.025 697.199 369.525 693.449 344.25C692.849 340.275 690.074 328.5 690.074 328.5H660.074Z" fill="#3850B5"/>
<path d="M659.324 284.85C658.499 296.55 657.749 317.175 657.374 324C657.299 325.35 657.899 326.7 658.949 327.6L660.074 328.5C660.074 328.5 668.924 329.625 674.249 329.625C679.575 329.625 690.075 328.5 690.075 328.5L691.275 324.75C691.5 324 691.575 323.25 691.575 322.425L688.05 278.55L683.4 275.625L667.349 276.975C663.074 277.275 659.624 280.65 659.324 284.85Z" fill="#FF5776"/>
<path d="M632.625 299.25L646.2 316.35C648.15 318.75 650.25 320.475 653.325 321.075C654 321.225 657.675 320.925 657.675 320.925L659.325 284.85L654.75 306L639 292.5L632.625 299.25Z" fill="#FF5776"/>
<path d="M683.325 275.701C688.275 275.401 693 277.201 695.175 282.301L700.8 305.176C702.075 309.901 702.15 314.926 700.875 319.726L696.3 337.276C696.075 338.101 695.1 338.551 694.35 338.251L686.325 334.576C685.875 334.351 685.65 333.901 685.725 333.376L690.225 311.701L682.875 282.976L683.325 275.701Z" fill="#FF5776"/>
<path d="M651.825 439.875L651.225 446.025H667.35L668.475 439.875H651.825Z" fill="#B9C3EE"/>
<path d="M690.074 439.875L691.349 446.025H706.574L705.899 439.875H690.074Z" fill="#B9C3EE"/>
<path d="M682.8 275.7C680.85 273.45 680.1 265.425 680.1 263.55C680.175 263.1 680.4 259.125 680.4 259.125C680.4 259.125 683.475 258.525 683.175 256.05C682.875 253.5 680.1 254.4 679.8 255.675C679.125 255.9 678.9 255.975 678.075 255.15C676.95 254.025 677.775 247.425 671.625 248.475C668.7 249 666.3 250.725 663.375 250.575C663.375 250.575 663.825 263.025 664.725 266.25C665.775 270 670.275 269.775 670.275 269.775L670.5 274.425C670.575 275.625 669.675 276.675 668.475 276.825L668.175 276.9C668.175 276.9 667.65 281.775 673.425 281.775C679.5 281.625 682.8 275.7 682.8 275.7Z" fill="#FFBDB8"/>
<path d="M682.424 248.325C682.199 248.25 682.049 248.025 682.124 247.725C682.274 247.125 683.399 246.15 684.824 246.15V246.9C683.624 246.9 682.874 247.65 682.799 247.875C682.799 247.8 682.799 247.65 682.649 247.65L682.424 248.325Z" fill="#2A2958"/>
<path d="M679.799 255.675C680.174 266.4 676.799 272.325 671.624 272.85C666.749 273.3 664.949 270.225 664.499 268.05C664.349 267.15 663.824 263.025 664.274 262.275C664.949 261.15 666.299 260.55 668.099 260.55C671.399 260.55 671.699 263.55 674.999 262.95C678.599 262.35 677.774 254.625 677.774 254.625L679.799 255.675Z" fill="#2A2958"/>
<path d="M667.125 256.275C666.825 255.825 666.375 255.6 666 255.6C665.625 255.6 665.175 255.825 664.875 256.2L664.425 255.825C664.875 255.3 665.4 255 666 255C666.6 255 667.2 255.3 667.575 255.9L667.125 256.275Z" fill="#2A2958"/>
<path d="M665.775 256.8C666.106 256.8 666.375 256.531 666.375 256.2C666.375 255.868 666.106 255.6 665.775 255.6C665.443 255.6 665.175 255.868 665.175 256.2C665.175 256.531 665.443 256.8 665.775 256.8Z" fill="#2A2958"/>
<path d="M673.5 256.2C673.2 255.75 672.75 255.525 672.375 255.525C672 255.525 671.625 255.75 671.25 256.125L670.8 255.75C671.25 255.225 671.775 254.925 672.3 254.925C672.9 254.925 673.5 255.225 673.875 255.825L673.5 256.2Z" fill="#2A2958"/>
<path d="M672.15 256.425C672.481 256.425 672.75 256.156 672.75 255.825C672.75 255.493 672.481 255.225 672.15 255.225C671.818 255.225 671.55 255.493 671.55 255.825C671.55 256.156 671.818 256.425 672.15 256.425Z" fill="#2A2958"/>
<path d="M663.3 253.95C662.775 253.2 664.95 252.225 665.475 252.75C666 253.2 665.4 253.65 664.8 253.725C664.275 253.8 663.525 254.25 663.3 253.95Z" fill="#2A2958"/>
<path d="M673.8 253.8C674.325 253.05 672.15 252.075 671.625 252.6C671.1 253.05 671.7 253.5 672.3 253.575C672.9 253.65 673.575 254.1 673.8 253.8Z" fill="#2A2958"/>
<path d="M639 292.5C639 292.5 637.725 290.775 636.75 289.725C634.575 287.325 633.075 285.75 632.1 285.3C631.05 284.775 630.225 285.15 629.55 285.525C628.95 285.825 628.275 286.125 627 286.05C626.475 285.975 626.025 286.425 625.95 286.95C625.875 287.475 626.325 287.925 626.85 288C628.575 288.15 629.625 287.625 630.375 287.325C630.975 287.025 631.725 288.525 629.775 288.975C627.75 289.5 622.125 292.8 622.125 292.8C627 296.925 629.25 296.475 629.25 296.475L632.55 299.25L639 292.5Z" fill="#FFBDB8"/>
<path d="M631.95 293.25L615.675 288.15C615.15 288 614.85 287.4 615 286.8V286.725C615.15 286.2 615.75 285.9 616.35 286.05L632.625 291.15C633.15 291.3 633.45 291.9 633.3 292.5V292.575C633.15 293.175 632.55 293.475 631.95 293.25Z" fill="#2A2958"/>
<path d="M624.149 292.65C624.074 292.65 623.924 292.65 623.849 292.575L617.699 290.625C617.174 290.475 616.874 289.95 617.099 289.425C617.249 288.9 617.774 288.675 618.299 288.825L624.449 290.775C624.974 290.925 625.274 291.45 625.049 291.975C624.974 292.35 624.524 292.65 624.149 292.65Z" fill="#FFBDB8"/>
<path d="M621.525 294.825C621.225 294.825 620.925 294.675 620.775 294.45C620.475 294 620.55 293.4 620.925 293.1L624.975 290.025C625.425 289.725 626.025 289.8 626.325 290.175C626.625 290.625 626.55 291.225 626.175 291.525L622.125 294.6C621.9 294.825 621.75 294.825 621.525 294.825Z" fill="#FFBDB8"/>
<path d="M623.4 295.65C623.1 295.65 622.8 295.5 622.575 295.2C622.275 294.75 622.425 294.15 622.875 293.85L628.2 290.475C628.65 290.175 629.25 290.325 629.55 290.775C629.85 291.225 629.7 291.825 629.25 292.125L623.925 295.5C623.775 295.575 623.55 295.65 623.4 295.65Z" fill="#FFBDB8"/>
<path d="M625.574 295.95C625.199 295.95 624.749 295.65 624.674 295.275C624.524 294.75 624.824 294.225 625.274 294.075L631.424 292.125C631.949 291.975 632.474 292.275 632.624 292.725C632.774 293.25 632.474 293.775 632.024 293.925L625.874 295.875C625.799 295.95 625.724 295.95 625.574 295.95Z" fill="#FFBDB8"/>
<path d="M666.899 264.675C666.899 264.675 669.524 264.9 671.549 264.075C670.799 267.825 668.549 267.9 666.899 264.675Z" fill="white"/>
<path d="M686.175 334.5C686.175 334.5 684.525 336.6 683.625 337.2C682.725 337.8 679.875 338.025 679.125 338.025C678.3 337.95 678.825 339.45 679.8 339.6C680.775 339.75 684.075 339.375 684.075 339.375L683.55 340.65C683.55 340.65 685.65 342.525 687.45 343.2C689.25 343.875 690.75 344.1 690.75 344.1C690.75 344.1 692.925 340.05 693.225 339.375C693.525 338.7 693.3 337.875 693.3 337.875L686.175 334.5Z" fill="#FFBDB8"/>
<path d="M643.424 312.9L643.274 312.525C645.824 311.625 650.699 305.625 651.524 303.3L651.899 303.45C651.074 305.925 646.124 311.925 643.424 312.9Z" fill="white"/>
<path d="M671.999 304.425C666.299 304.425 662.249 303.3 659.774 302.55C659.324 302.4 658.949 302.325 658.574 302.25L658.649 301.875C659.024 301.95 659.399 302.1 659.849 302.175C664.124 303.375 673.049 305.925 687.074 301.575L687.149 301.95C681.224 303.75 676.199 304.425 671.999 304.425Z" fill="white"/>
<path d="M669.825 288.075C664.875 288.075 660.75 287.475 659.175 286.575L659.325 286.275C663.525 288.6 686.4 288.975 694.35 280.8L694.65 281.025C689.55 286.275 678.375 288.075 669.825 288.075Z" fill="white"/>
<path d="M689.55 305.325C689.1 305.325 688.725 305.25 688.425 305.175L688.575 304.8C690.075 305.475 696.975 303.675 699.825 301.575L700.05 301.875C697.65 303.675 692.175 305.325 689.55 305.325Z" fill="white"/>
<path d="M699.75 318.9C696.525 318.9 690.75 317.85 689.175 316.35L689.4 316.05C691.2 317.7 698.775 318.9 701.175 318.375L701.25 318.75C700.875 318.825 700.35 318.9 699.75 318.9Z" fill="white"/>
<path d="M696.825 335.7C692.25 335.1 688.125 332.625 686.175 330.675L686.475 330.45C688.35 332.4 692.475 334.725 696.9 335.325L696.825 335.7Z" fill="white"/>
<path d="M634.65 301.95L634.5 301.575C636.075 300.975 641.025 296.4 641.55 294.825L641.925 294.975C641.4 296.625 636.375 301.275 634.65 301.95Z" fill="white"/>
<path d="M654.375 321.225L654 321.075C654.9 318.6 655.275 310.05 654.525 306.075L654.9 306C655.575 309.675 655.425 318.45 654.375 321.225Z" fill="white"/>
<path d="M658.575 306.375C658.5 306.3 655.875 305.4 655.05 304.65L655.275 304.35C656.025 305.1 658.65 306 658.725 306L658.575 306.375Z" fill="white"/>
<path d="M680.174 324.15C671.774 324.15 659.474 323.4 657.524 321.975L657.749 321.675C660.224 323.475 684.374 324.375 687.749 323.325L687.899 323.7C686.849 324 683.924 324.15 680.174 324.15Z" fill="white"/>
<path d="M675.674 354.45C675.149 353.1 675.149 353.025 674.924 352.575C674.774 352.35 674.624 352.05 674.324 351.3C672.524 347.55 672.524 333.825 672.524 332.175H672.899C672.824 333.6 672.899 347.475 674.624 351.15C674.924 351.825 675.074 352.125 675.224 352.35C675.449 352.8 675.524 352.875 675.974 354.225L675.674 354.45Z" fill="#B9C3EE"/>
<path d="M676.125 332.625C670.275 332.625 663.375 332.325 659.85 331.2L660 330.825C666.15 332.775 682.5 332.25 686.025 331.95L686.1 332.325C684.525 332.475 680.625 332.625 676.125 332.625Z" fill="#B9C3EE"/>
<path d="M701.474 439.875C701.399 438.975 691.799 351.75 690.449 344.025L690.824 343.95C692.099 351.6 701.699 438.9 701.849 439.8L701.474 439.875Z" fill="#B9C3EE"/>
<path d="M704.156 439.827L703.783 439.868L704.467 446.056L704.839 446.015L704.156 439.827Z" fill="#2A2958"/>
<path d="M665.925 439.875H665.55C665.625 439.125 671.4 368.025 671.775 364.35C672.075 361.35 672.825 355.65 674.25 351.3L674.625 351.45C673.2 355.8 672.45 361.425 672.15 364.425C671.775 368.025 666 439.125 665.925 439.875Z" fill="#B9C3EE"/>
<path d="M666.449 446.025H666.074L666.749 439.8L667.124 439.875L666.449 446.025Z" fill="#2A2958"/>
<path d="M661.799 451.575C662.711 451.575 663.449 450.836 663.449 449.925C663.449 449.014 662.711 448.275 661.799 448.275C660.888 448.275 660.149 449.014 660.149 449.925C660.149 450.836 660.888 451.575 661.799 451.575Z" fill="#B9C3EE"/>
<path d="M696.15 451.575C697.061 451.575 697.8 450.836 697.8 449.925C697.8 449.014 697.061 448.275 696.15 448.275C695.239 448.275 694.5 449.014 694.5 449.925C694.5 450.836 695.239 451.575 696.15 451.575Z" fill="#B9C3EE"/>
<path d="M690.824 345.3C688.199 345.075 685.199 343.2 683.399 340.65L683.699 340.425C685.424 342.825 688.424 344.7 690.899 344.925L690.824 345.3Z" fill="#B9C3EE"/>
<path d="M680.924 257.85L680.774 257.325C681.524 257.1 681.824 256.8 681.899 256.125L682.424 256.2C682.349 257.25 681.599 257.625 680.924 257.85Z" fill="#2A2958"/>
<path d="M656.324 321L658.949 299.25L657.674 320.925L656.324 321Z" fill="#2A2958"/>
<path d="M690 310.8L686.775 298.275C686.775 298.275 687.825 308.1 687.15 311.625C686.475 315.15 684.375 329.025 684.375 329.025L686.625 328.8L690 312.45C690.15 311.925 690.15 311.4 690 310.8Z" fill="#2A2958"/>
<path d="M148.574 235.425C151.225 235.425 153.374 233.276 153.374 230.625C153.374 227.974 151.225 225.825 148.574 225.825C145.923 225.825 143.774 227.974 143.774 230.625C143.774 233.276 145.923 235.425 148.574 235.425Z" fill="#2A2958"/>
<path d="M143.7 232.65C141.975 230.1 142.875 227.325 144.675 225.825C146.175 224.625 148.425 224.25 150.15 226.125L149.625 226.65C148.125 225.075 146.25 225.525 145.125 226.425C143.625 227.625 142.875 230.025 144.3 232.2L143.7 232.65Z" fill="#2A2958"/>
<path d="M133.125 231.375C133.35 234.975 131.475 237.525 127.875 237.675C124.275 237.825 120.975 236.025 120.75 232.425C120.525 228.825 122.625 225.375 126.225 225.15C129.75 224.925 132.9 227.7 133.125 231.375Z" fill="#2A2958"/>
<path d="M133.425 230.925L132.675 230.775C133.05 229.2 132.3 227.475 130.875 226.125C129.225 224.7 127.2 224.1 125.475 224.7C123.525 225.375 122.175 227.4 121.5 230.55L120.75 230.4C121.575 226.05 123.6 224.55 125.175 224.025C127.125 223.35 129.525 223.95 131.325 225.6C133.05 227.1 133.8 229.125 133.425 230.925Z" fill="#2A2958"/>
<path d="M127.125 236.1C126.6 233.175 131.25 230.475 133.2 230.925C135.225 231.3 127.125 236.1 127.125 236.1Z" fill="#FF5776"/>
<path d="M143.699 231.376C146.549 229.651 149.774 232.651 149.549 234.976C149.324 236.626 143.699 231.376 143.699 231.376Z" fill="#FF5776"/>
<path d="M129.375 268.8C120.3 268.275 112.425 260.775 118.875 256.425C115.95 247.725 120.675 245.25 125.25 244.575C121.875 238.275 129.3 233.4 131.625 231.825C136.35 228.6 139.275 230.7 140.925 231.6C145.65 228.975 152.175 234.075 150.6 243.675C155.775 246.525 158.1 255.3 153.375 258.525C156.075 263.85 153.075 268.8 147.675 268.8C143.1 268.8 129.375 268.8 129.375 268.8Z" fill="#2A2958"/>
<path d="M108.449 332.925C107.999 331.425 108.449 329.1 108.749 327.6C108.824 327.15 109.049 325.875 108.899 325.125L115.199 307.8L106.874 307.05L102.149 324.075C101.099 324.525 98.9992 326.325 97.2742 327.9C97.1242 328.05 96.8992 328.2 96.7492 328.35C96.7492 328.35 96.7492 328.35 96.7492 328.425C95.9242 329.175 95.1742 329.925 94.7992 330.3C94.4992 330.6 94.4992 330.975 94.7992 331.275C95.0992 331.575 95.4742 331.575 95.7742 331.275C96.5242 330.525 97.3492 329.775 98.1742 329.025C98.2492 328.95 98.3992 328.95 98.4742 328.95C98.6242 328.95 98.6992 329.025 98.6992 329.1C98.6992 329.175 98.6992 329.4 98.3992 329.7L94.8742 333.75C94.6492 334.05 94.6492 334.5 94.9492 334.725C95.0992 334.875 95.2492 334.875 95.3992 334.875C95.6242 334.875 95.7742 334.8 95.9242 334.65L99.4492 330.6C99.8242 330.225 100.199 330.15 100.349 330.225C100.499 330.375 100.499 330.825 100.049 331.275C98.5492 333.075 96.1492 335.85 96.1492 335.925C95.9242 336.225 95.9242 336.675 96.2242 336.9C96.5242 337.125 96.9742 337.125 97.1992 336.825C97.3492 336.675 100.724 332.7 101.849 331.275C101.999 331.05 102.299 331.05 102.449 331.125C102.599 331.2 102.524 331.5 102.374 331.8L99.2992 336.15C99.0742 336.45 99.1492 336.9 99.4492 337.125C99.5992 337.2 99.7492 337.275 99.8242 337.275C100.049 337.275 100.274 337.2 100.424 336.975L103.424 332.775C104.024 331.8 104.849 331.35 105.374 331.275C105.674 331.2 105.749 331.275 105.749 331.275C106.049 331.575 106.274 332.25 106.424 332.775C106.499 333.15 106.649 333.45 106.799 333.75C107.249 334.8 108.224 335.175 108.374 335.25C108.449 335.25 108.524 335.325 108.599 335.325C108.824 335.325 109.049 335.25 109.124 335.025C109.349 334.8 109.349 334.425 109.124 334.2C108.974 334.125 108.599 333.45 108.449 332.925Z" fill="#B88370"/>
<path d="M124.35 309.75C124.35 309.75 119.25 313.5 114.375 337.125C111.975 348.675 102.3 404.1 100.35 415.425C100.125 416.55 100.95 417.6 102.075 417.825L114 419.85C115.05 420 116.1 419.325 116.325 418.275L135.375 341.25L139.875 418.275C139.95 419.4 140.85 420.225 141.975 420.225H153.375C154.5 420.225 155.475 419.325 155.475 418.2C155.55 407.25 155.775 355.575 154.95 335.1C154.35 320.1 150.15 309.75 150.15 309.75H124.35Z" fill="#2A2958"/>
<path d="M101.625 424.2L99.5247 432.825L93.2247 442.875C92.5497 444 93.8247 445.2 94.8747 444.525L109.425 435.225L111.525 425.85L101.625 424.2Z" fill="#FF5776"/>
<path d="M142.649 425.1L143.549 435.6H164.399C164.399 435.6 161.699 431.775 153.749 429L153.374 425.175H142.649V425.1Z" fill="#FF5776"/>
<path d="M139.35 313.275C130.875 313.275 122.325 312.825 122.25 312.825V312.45C122.475 312.45 141.6 313.5 150.975 312.45L151.05 312.825C147.825 313.125 143.625 313.275 139.35 313.275Z" fill="#B9C3EE"/>
<path d="M116.699 327.6V327.225C121.574 327.225 125.174 323.7 127.349 316.725L127.724 316.875C125.399 324 121.724 327.6 116.699 327.6Z" fill="#B9C3EE"/>
<path d="M154.2 327.6C148.125 327.525 146.625 320.025 146.25 316.8L146.625 316.725C147 319.875 148.5 327.15 154.275 327.225L154.2 327.6Z" fill="#B9C3EE"/>
<path d="M111 413.85L110.625 413.775L128.85 327.375L129.15 327.45L111 413.85Z" fill="#B9C3EE"/>
<path d="M148.2 414.225H147.825C147.825 407.4 147.3 380.55 146.85 358.95C146.55 344.325 146.25 331.725 146.25 327.45H146.625C146.7 331.725 146.925 344.325 147.225 358.95C147.6 380.55 148.2 407.475 148.2 414.225Z" fill="#B9C3EE"/>
<path d="M135.524 341.25L135.149 341.175C136.049 335.475 137.474 322.125 137.549 322.05L137.924 322.125C137.924 322.2 136.424 335.625 135.524 341.25Z" fill="#B9C3EE"/>
<path d="M135.975 337.2V336.825C139.575 336.6 140.025 329.625 140.7 320.7L140.85 318.975H141.225L141.075 320.7C140.4 330.15 139.875 336.975 135.975 337.2Z" fill="#B9C3EE"/>
<path d="M100.907 411.921L100.842 412.291L117.091 415.154L117.156 414.784L100.907 411.921Z" fill="#B9C3EE"/>
<path d="M155.463 414.073L139.645 414.506L139.655 414.88L155.473 414.448L155.463 414.073Z" fill="#B9C3EE"/>
<path d="M93.4492 444.45L109.874 433.8L109.499 435.3L94.9492 444.6C94.9492 444.6 94.6492 444.825 94.2742 444.825C93.8992 444.825 93.4492 444.45 93.4492 444.45Z" fill="#3850B5"/>
<path d="M143.475 434.475H163.275L164.325 435.6H143.475V434.475Z" fill="#3850B5"/>
<path d="M176.175 283.05L166.65 282.075L163.725 289.575L157.575 273.9C156.3 269.775 153.75 265.425 148.35 264.825C141.525 264.075 125.925 262.8 121.125 264.75C115.125 267.225 114.375 270.675 112.5 276.675C110.625 282.675 103.8 313.5 103.8 313.5L113.925 315.15L124.125 284.55C124.125 284.55 124.5 291.3 124.125 295.425C123.75 299.55 121.875 304.05 124.35 309.675C137.775 311.175 150.075 309.675 150.075 309.675C150.075 309.675 152.55 309.225 152.325 307.05C151.725 300.675 151.275 295.425 151.725 292.05L157.575 302.4C159.75 306.9 165.375 308.4 169.5 305.625C169.5 305.625 170.925 303.975 171 303.75C174.525 297.3 176.175 283.05 176.175 283.05Z" fill="#3850B5"/>
<path d="M144.074 264.45L142.874 255.45C142.874 255.45 145.199 255.3 146.474 252.9C148.949 248.325 147.749 237.75 147.749 237.75C147.749 236.55 145.574 234.075 143.474 235.725C137.999 233.925 135.749 238.35 135.449 241.8C135.149 245.1 133.499 244.875 133.349 244.725C133.049 243.6 130.949 242.925 130.199 243.675C129.149 244.8 130.499 248.025 132.449 247.5C133.124 250.35 133.349 249.375 133.799 251.175C134.249 252.975 133.649 261.9 131.774 263.775L129.449 263.625C130.349 267 132.374 270.45 138.149 270.45C146.024 270.45 146.474 264.75 146.474 264.75L144.074 264.45Z" fill="#B88370"/>
<path d="M163.725 289.65C162.9 293.475 162.525 297 162.525 297C162.525 297 161.85 295.275 161.55 293.325C161.325 291.375 162 285.375 162 285.375L163.725 289.65Z" fill="#2A2958"/>
<path d="M151.65 292.125C154.2 282.9 150.975 283.65 150.975 277.35C150.975 277.35 152.775 282.6 153.525 284.625C154.275 286.65 154.5 289.95 154.2 291.15C153.9 292.35 153.225 294.75 153.225 294.75L151.65 292.125Z" fill="#2A2958"/>
<path d="M116.7 306.375C116.475 305.55 116.325 304.725 116.175 303.975C115.35 300 114.75 297.45 107.55 295.875L107.625 295.5C115.125 297.075 115.725 299.925 116.55 303.9C116.7 304.65 116.85 305.475 117.075 306.3L116.7 306.375Z" fill="#2A2958"/>
<path d="M109.725 314.625C109.125 305.55 111.75 295.875 116.25 291.075C118.275 288.9 120.525 287.775 123 287.775V288.15C120.6 288.15 118.425 289.2 116.475 291.3C112.05 296.025 109.425 305.625 110.025 314.55L109.725 314.625Z" fill="#2A2958"/>
<path d="M135.525 310.425L135.15 310.35C137.475 288.675 130.8 278.7 126.6 274.65C122.325 270.525 117.675 269.55 115.05 269.925L114.975 269.55C117.675 269.175 122.475 270.15 126.825 274.425C131.175 278.475 137.925 288.6 135.525 310.425Z" fill="#2A2958"/>
<path d="M130.95 299.7C128.025 299.7 125.4 299.475 123.75 299.25L123.825 298.875C131.175 299.925 147.3 299.4 151.35 293.4L151.65 293.625C148.425 298.425 138.45 299.7 130.95 299.7Z" fill="#2A2958"/>
<path d="M151.65 301.65C149.25 301.125 146.55 298.725 144 294.825C139.725 288.15 136.275 277.2 137.85 270.45L138.225 270.525C136.65 277.2 140.1 288 144.3 294.6C146.775 298.425 149.4 300.825 151.65 301.275V301.65Z" fill="#2A2958"/>
<path d="M166.05 288.3C165.45 288.3 164.85 288.225 164.25 288.15L164.325 287.775C170.4 288.675 173.025 285 173.625 282.675L174 282.75C173.4 285 171.075 288.3 166.05 288.3Z" fill="#2A2958"/>
<path d="M159.975 305.475L159.675 305.325C162.525 300 166.125 295.275 173.7 296.025L173.625 296.4C166.35 295.575 162.75 300.3 159.975 305.475Z" fill="#2A2958"/>
<path d="M133.65 286.575C132.9 286.575 132.075 286.5 131.25 286.35C126.975 285.45 122.85 281.7 120.75 276.675C118.875 272.325 118.95 267.975 120.975 264.75L121.275 264.975C119.325 268.05 119.25 272.325 121.125 276.6C123.225 281.475 127.2 285.15 131.4 286.05C136.95 287.175 141.525 284.025 144.375 281.175C149.25 276.225 152.175 269.1 151.5 265.95L151.875 265.875C152.55 269.1 149.775 276.3 144.675 281.475C142.05 283.8 138.3 286.575 133.65 286.575Z" fill="#2A2958"/>
<path d="M111.449 282.15C111.299 282.15 111.224 282.15 111.074 282.15V281.775C113.174 281.925 116.099 280.5 118.799 277.95C122.174 274.8 125.699 269.4 125.474 263.85H125.849C125.999 269.55 122.399 275.025 119.024 278.25C116.399 280.65 113.624 282.15 111.449 282.15Z" fill="#2A2958"/>
<path d="M158.1 275.475C155.7 275.475 148.875 272.925 143.925 268.95L144.15 268.65C149.4 272.85 156.075 275.1 158.1 275.1C158.1 275.1 158.1 275.1 158.175 275.1L158.1 275.475Z" fill="#2A2958"/>
<path d="M155.699 298.875L155.324 298.8C155.474 298.2 158.324 284.7 160.949 282.6L161.174 282.9C158.624 284.925 155.699 298.725 155.699 298.875Z" fill="#2A2958"/>
<path d="M138.824 310.425L138.449 310.35C139.799 303 144.299 299.175 151.649 299.175V299.55C144.524 299.55 140.099 303.3 138.824 310.425Z" fill="#2A2958"/>
<path d="M136.425 252.75C140.1 255.9 142.8 255.45 142.8 255.45L143.4 260.025C143.4 260.025 140.4 259.2 139.05 258.3C136.425 256.35 136.425 252.75 136.425 252.75Z" fill="#A06358"/>
<path d="M124.124 284.625C125.624 287.475 126.974 294.825 126.074 299.925C125.699 302.4 127.499 310.125 127.499 310.125L124.349 309.825C124.349 309.825 123.149 306.75 123.149 304.05C123.149 301.05 124.049 297.525 124.199 295.575C124.349 293.625 124.124 284.625 124.124 284.625Z" fill="#2A2958"/>
<path d="M103.725 418.125L102.6 424.35L110.925 425.775L112.125 419.55L103.725 418.125Z" fill="#B88370"/>
<path d="M143.55 420.225L144.075 425.175H152.625L152.325 420.225H143.55Z" fill="#B88370"/>
<path d="M98.1747 439.425C98.0997 439.425 98.0997 439.425 98.0247 439.425L95.9997 438.525C95.8497 438.45 95.7747 438.3 95.8497 438.15C95.9247 438 96.0747 437.925 96.2247 438L98.2497 438.9C98.3997 438.975 98.4747 439.125 98.3997 439.275C98.3997 439.35 98.2497 439.425 98.1747 439.425Z" fill="#2A2958"/>
<path d="M100.274 436.425C100.199 436.425 100.199 436.425 100.124 436.425L97.949 435.3C97.799 435.225 97.724 435.075 97.799 434.925C97.874 434.775 98.024 434.7 98.174 434.775L100.349 435.9C100.499 435.975 100.574 436.125 100.499 436.275C100.499 436.35 100.424 436.425 100.274 436.425Z" fill="#2A2958"/>
<path d="M102.3 434.025C102.225 434.025 102.225 434.025 102.15 434.025C101.025 433.5 99.8247 433.05 99.5997 433.125C99.4497 433.2 99.2997 433.125 99.2247 432.975C99.1497 432.825 99.2247 432.675 99.3747 432.6C99.9747 432.375 101.7 433.125 102.375 433.5C102.525 433.575 102.6 433.725 102.525 433.875C102.525 433.95 102.375 434.025 102.3 434.025Z" fill="#2A2958"/>
<path d="M151.35 430.275C151.275 430.275 151.125 430.2 151.125 430.125C151.05 429.975 151.125 429.825 151.275 429.75L153.675 428.7C153.825 428.625 153.975 428.7 154.05 428.85C154.125 429 154.05 429.15 153.9 429.225L151.5 430.275C151.425 430.275 151.35 430.275 151.35 430.275Z" fill="#2A2958"/>
<path d="M154.424 432.15C154.349 432.15 154.199 432.075 154.199 432C154.124 431.85 154.199 431.7 154.349 431.625L157.499 430.275C157.649 430.2 157.799 430.275 157.874 430.425C157.949 430.575 157.874 430.725 157.724 430.8L154.574 432.15C154.499 432.15 154.424 432.15 154.424 432.15Z" fill="#2A2958"/>
<path d="M158.174 433.575C158.099 433.575 157.949 433.5 157.949 433.425C157.874 433.275 157.949 433.125 158.099 433.05L160.424 431.925C160.574 431.85 160.724 431.925 160.799 432.075C160.874 432.225 160.799 432.375 160.649 432.45L158.324 433.575C158.249 433.575 158.174 433.575 158.174 433.575Z" fill="#2A2958"/>
<path d="M139.574 248.025C140.403 248.025 141.074 247.354 141.074 246.525C141.074 245.697 140.403 245.025 139.574 245.025C138.746 245.025 138.074 245.697 138.074 246.525C138.074 247.354 138.746 248.025 139.574 248.025Z" fill="#A06358"/>
<path d="M147.824 247.5C147.149 247.575 146.399 246.9 146.399 246.225C146.399 245.325 147.224 245.025 147.974 244.95L147.824 247.5Z" fill="#A06358"/>
<path d="M131.474 246.825C130.574 246.375 130.274 245.55 130.574 244.575L131.324 244.8C131.099 245.475 131.324 245.925 131.849 246.225L131.474 246.825Z" fill="#2A2958"/>
<path d="M167.175 282.15C167.175 282.15 169.05 278.85 168.375 276.675C167.775 274.575 169.2 270.975 169.875 270.225C170.55 269.4 171.375 269.4 172.05 269.325C172.65 269.325 173.325 269.55 174.3 268.95C174.75 268.65 175.275 268.575 175.5 269.025C175.725 269.475 175.575 269.925 175.2 270.225C173.775 271.35 172.8 271.05 172.05 271.125C171.45 271.125 171.45 272.625 173.25 272.25C175.125 271.8 181.05 272.325 181.05 272.325C178.725 277.725 176.025 278.85 176.025 278.85L174.975 282.975L167.175 282.15Z" fill="#B88370"/>
<path d="M173.775 276.225L184.95 265.425C185.325 265.05 185.325 264.45 184.95 264C184.575 263.625 183.975 263.625 183.525 264L172.35 274.8C171.975 275.175 171.975 275.775 172.35 276.225C172.725 276.6 173.4 276.6 173.775 276.225Z" fill="#2A2958"/>
<path d="M179.174 273.225C179.249 273.15 179.324 273.15 179.399 273.075L183.449 269.1C183.749 268.8 183.824 268.2 183.449 267.9C183.149 267.6 182.549 267.525 182.249 267.9L178.199 271.875C177.899 272.175 177.824 272.775 178.199 273.075C178.499 273.3 178.874 273.375 179.174 273.225Z" fill="#B88370"/>
<path d="M182.175 273.901C182.4 273.751 182.55 273.601 182.625 273.301C182.7 272.851 182.4 272.401 181.95 272.326L177.525 271.5C177.075 271.425 176.625 271.725 176.55 272.176C176.475 272.626 176.775 273.076 177.225 273.151L181.65 273.976C181.8 274.051 181.95 274.051 182.175 273.901Z" fill="#B88370"/>
<path d="M180.975 275.25C181.2 275.1 181.425 274.875 181.425 274.575C181.5 274.125 181.125 273.675 180.675 273.6L175.2 273C174.75 272.925 174.3 273.3 174.225 273.75C174.15 274.2 174.525 274.65 174.975 274.725L180.45 275.325C180.675 275.4 180.825 275.325 180.975 275.25Z" fill="#B88370"/>
<path d="M179.4 276.375C179.7 276.225 179.925 275.85 179.85 275.475C179.775 275.025 179.325 274.725 178.875 274.725L173.25 275.55C172.8 275.625 172.5 276.075 172.5 276.525C172.575 276.975 173.025 277.275 173.475 277.275L179.1 276.45C179.175 276.45 179.25 276.45 179.4 276.375Z" fill="#B88370"/>
<path d="M145.799 242.849L145.274 242.624C145.574 242.024 146.099 241.574 146.624 241.499C147.149 241.424 147.749 241.574 148.274 242.024L147.899 242.474C147.524 242.174 147.149 242.024 146.774 242.099C146.324 242.099 146.024 242.399 145.799 242.849Z" fill="#2A2958"/>
<path d="M146.999 243.15C147.331 243.15 147.599 242.881 147.599 242.55C147.599 242.218 147.331 241.95 146.999 241.95C146.668 241.95 146.399 242.218 146.399 242.55C146.399 242.881 146.668 243.15 146.999 243.15Z" fill="#2A2958"/>
<path d="M139.724 243.599L139.199 243.374C139.499 242.774 140.024 242.324 140.549 242.249C141.074 242.174 141.674 242.324 142.199 242.774L141.824 243.224C141.449 242.924 141.074 242.774 140.699 242.849C140.324 242.849 139.949 243.149 139.724 243.599Z" fill="#2A2958"/>
<path d="M140.999 243.675C141.331 243.675 141.599 243.406 141.599 243.075C141.599 242.743 141.331 242.475 140.999 242.475C140.668 242.475 140.399 242.743 140.399 243.075C140.399 243.406 140.668 243.675 140.999 243.675Z" fill="#2A2958"/>
<path d="M148.425 239.925C148.8 239.1 146.55 238.575 146.1 239.175C145.65 239.7 146.325 240.075 146.925 240C147.525 239.925 148.275 240.3 148.425 239.925Z" fill="#2A2958"/>
<path d="M138.975 240.975C138.45 240.225 140.55 239.325 141.075 239.85C141.6 240.3 141 240.75 140.4 240.825C139.875 240.9 139.125 241.35 138.975 240.975Z" fill="#2A2958"/>
<path d="M141.975 249.825C143.7 250.35 145.65 249.975 145.65 249.975C145.65 249.975 145.35 252.525 143.7 252.45C141.9 252.3 141.975 249.825 141.975 249.825Z" fill="white"/>
<path d="M118.274 244.275L118.199 243.525C118.799 243.45 118.874 243.225 118.949 242.325C118.949 241.8 119.024 241.2 119.399 240.75C119.999 240.225 120.674 240.525 121.199 240.75C121.799 241.05 122.174 241.125 122.549 240.9C123.374 240.375 123.224 239.925 122.924 239.325C122.699 238.875 122.549 238.275 122.774 237.675C123.149 236.85 123.749 236.85 124.274 236.85C124.874 236.85 125.549 236.85 126.599 235.875L127.124 236.4C125.849 237.525 124.949 237.525 124.274 237.525C123.749 237.525 123.674 237.525 123.449 237.9C123.299 238.2 123.449 238.575 123.599 238.95C123.899 239.625 124.274 240.525 122.924 241.425C122.174 241.95 121.424 241.575 120.899 241.35C120.374 241.125 120.074 241.05 119.924 241.2C119.699 241.425 119.699 241.8 119.699 242.25C119.699 243.075 119.624 244.2 118.274 244.275Z" fill="#2A2958"/>
<path d="M151.274 236.625C150.524 236.625 149.549 235.95 148.949 235.425L149.474 234.9C150.299 235.65 151.274 236.025 151.424 235.875C151.874 235.5 152.774 234.675 153.599 235.125L153.224 235.8C152.849 235.575 152.174 236.175 151.874 236.4C151.724 236.55 151.499 236.625 151.274 236.625Z" fill="#2A2958"/>
<path d="M121.5 260.475C121.2 263.925 119.925 265.2 122.1 264.525C124.5 263.775 125.775 266.175 126.3 267.675C126.825 269.175 128.325 269.325 129.375 269.25C130.425 269.175 131.025 267.6 130.575 266.625C130.05 265.65 131.1 264.75 131.7 263.85C132.3 262.95 121.5 260.475 121.5 260.475Z" fill="#2A2958"/>
<path d="M160.672 492.828L154.828 498.672C153.266 500.234 153.266 502.766 154.828 504.328L160.672 510.172C162.234 511.734 164.766 511.734 166.328 510.172L172.172 504.328C173.734 502.766 173.734 500.234 172.172 498.672L166.328 492.828C164.766 491.266 162.234 491.266 160.672 492.828Z" fill="#C5E0F2"/>
<path d="M625.672 122.828L619.828 128.672C618.266 130.234 618.266 132.766 619.828 134.328L625.672 140.172C627.234 141.734 629.766 141.734 631.328 140.172L637.172 134.328C638.734 132.766 638.734 130.234 637.172 128.672L631.328 122.828C629.766 121.266 627.234 121.266 625.672 122.828Z" fill="#C5E0F2"/>
<path d="M271.343 510.657L255.657 526.343C252.533 529.467 252.533 534.533 255.657 537.657L271.343 553.343C274.467 556.467 279.533 556.467 282.657 553.343L298.343 537.657C301.467 534.533 301.467 529.467 298.343 526.343L282.657 510.657C279.533 507.533 274.467 507.533 271.343 510.657Z" fill="#71E2BD"/>
<path d="M509.343 83.6568L493.657 99.3432C490.533 102.467 490.533 107.533 493.657 110.657L509.343 126.343C512.467 129.467 517.533 129.467 520.657 126.343L536.343 110.657C539.467 107.533 539.467 102.467 536.343 99.3432L520.657 83.6568C517.533 80.5326 512.467 80.5326 509.343 83.6568Z" fill="#FCB560"/>
</g>
<defs>
<clipPath id="clip0">
<rect width="724" height="559" fill="white"/>
</clipPath>
</defs>
</svg>
