<svg width="800" height="250" viewBox="0 0 1161 362" fill="none" xmlns="http://www.w3.org/2000/svg">
<path d="M1080.34 82.6568L1064.66 98.3432C1061.53 101.467 1061.53 106.533 1064.66 109.657L1080.34 125.343C1083.47 128.467 1088.53 128.467 1091.66 125.343L1107.34 109.657C1110.47 106.533 1110.47 101.467 1107.34 98.3432L1091.66 82.6568C1088.53 79.5326 1083.47 79.5326 1080.34 82.6568Z" fill="#71B8F2"/>
<path d="M1130.67 2.82839L1124.83 8.6716C1123.27 10.2337 1123.27 12.7663 1124.83 14.3284L1130.67 20.1716C1132.23 21.7337 1134.77 21.7337 1136.33 20.1716L1142.17 14.3284C1143.73 12.7663 1143.73 10.2337 1142.17 8.6716L1136.33 2.82839C1134.77 1.2663 1132.23 1.2663 1130.67 2.82839Z" fill="#CCE6F9"/>
<path d="M148.343 313.657L132.657 329.343C129.533 332.467 129.533 337.533 132.657 340.657L148.343 356.343C151.467 359.467 156.533 359.467 159.657 356.343L175.343 340.657C178.467 337.533 178.467 332.467 175.343 329.343L159.657 313.657C156.533 310.533 151.467 310.533 148.343 313.657Z" fill="#F7CBD0"/>
<path d="M198.672 233.828L192.828 239.672C191.266 241.234 191.266 243.766 192.828 245.328L198.672 251.172C200.234 252.734 202.766 252.734 204.328 251.172L210.172 245.328C211.734 243.766 211.734 241.234 210.172 239.672L204.328 233.828C202.766 232.266 200.234 232.266 198.672 233.828Z" fill="white"/>
<g opacity="0.3">
<path d="M0.491361 194.031C-1.30864 180.156 1.84136 168.831 9.86636 160.281C25.9164 143.031 61.3164 136.281 117.941 139.581C186.266 143.631 236.966 131.781 256.991 107.031C266.366 95.481 268.841 81.306 264.341 65.031C260.141 49.581 245.816 35.781 224.141 26.181C204.266 17.331 180.116 12.831 157.841 13.806C124.766 15.231 102.716 28.506 98.9664 49.281C95.0664 70.806 105.866 88.881 131.216 103.056L130.841 103.731C105.566 89.631 94.3164 70.731 98.2164 49.206C100.241 38.031 107.066 29.106 118.466 22.806C128.666 17.181 142.241 13.806 157.766 13.131C180.116 12.156 204.416 16.656 224.441 25.581C246.341 35.331 260.741 49.281 265.091 64.956C269.591 81.531 267.116 95.856 257.591 107.631C237.416 132.531 186.491 144.456 117.941 140.406C61.5414 137.106 26.3664 143.781 10.4664 160.806C2.66636 169.206 -0.408635 180.306 1.31637 193.956L0.491361 194.031Z" fill="#D8D7FC"/>
<path d="M192.491 139.056C177.266 135.306 136.166 120.831 122.141 111.756L122.516 111.156C136.541 120.156 177.491 134.631 192.641 138.381L192.491 139.056Z" fill="#D8D7FC"/>
<path d="M286.316 179.331C269.591 176.931 225.941 159.981 219.116 156.531L219.491 155.856C226.316 159.306 269.816 176.181 286.466 178.581L286.316 179.331Z" fill="#D8D7FC"/>
</g>
<path d="M1046.6 293.806C1038.42 259.756 1051.47 222.781 1076.9 207.856C1090.47 199.906 1119.05 191.806 1157.75 227.356L1157.22 227.881C1118.9 192.631 1090.7 200.581 1077.27 208.456C1052.15 223.231 1039.25 259.831 1047.27 293.581L1046.6 293.806Z" fill="#D8D7FC" fill-opacity="0.3"/>
<g opacity="0.3">
<path d="M1147.77 314.132L1148.45 314.432C1154.45 300.707 1145.15 282.632 1123.7 266.057C1097 245.582 1057.85 231.332 1018.92 228.032C1006.04 226.931 990.828 226.826 974.5 229.092V230.084C1032.57 222.08 1091.1 242.003 1123.17 266.657C1144.4 283.007 1153.55 300.707 1147.77 314.132Z" fill="#D8D7FC"/>
</g>
<path d="M1057.49 308.114C1056.74 307.814 1056.89 306.689 1057.64 306.539C1061.77 305.714 1069.79 304.139 1072.64 303.164C1075.79 302.189 1085.77 299.189 1085.77 299.189L1087.94 301.064L1090.12 295.814L1104.14 294.014C1104.74 293.939 1105.34 294.164 1105.72 294.614C1108.42 297.614 1119.22 309.614 1129.64 319.064C1139.39 327.914 1152.52 337.889 1159.12 342.764C1161.67 344.639 1161.29 345.314 1158.07 344.564C1146.59 341.789 1120.79 335.189 1109.09 330.989C1097.47 326.714 1066.34 312.089 1057.49 308.114Z" fill="#A6F4DC"/>
<path d="M1105.34 313.964C1101.89 317.264 1104.44 322.739 1109.92 325.964C1115.92 329.414 1121.77 328.589 1124.69 327.014C1120.42 324.164 1105.34 313.964 1105.34 313.964Z" fill="#71E2BD"/>
<path d="M1111.27 312.465C1113.37 312.015 1117.94 313.29 1121.84 316.29C1127.17 320.34 1128.37 323.639 1128.22 325.589C1123.87 322.214 1111.27 312.465 1111.27 312.465Z" fill="#71E2BD"/>
<path d="M1157.62 343.439L1154.24 342.539C1154.24 342.539 1153.12 342.239 1151.24 341.714C1141.57 339.089 1118.09 332.564 1109.77 329.114C1098.07 324.239 1065.89 308.789 1065.59 308.639L1063.79 307.814L1088.92 300.689L1089.29 302.114L1067.99 308.114C1074.97 311.414 1100.24 323.489 1110.29 327.689C1118.54 331.139 1143.14 337.964 1151.17 340.139C1145.77 335.714 1131.29 323.714 1126.04 318.989C1117.79 311.564 1105.87 299.564 1103.99 297.689L1092.59 298.814L1092.44 297.314L1104.59 296.114L1104.82 296.339C1104.97 296.489 1118.09 309.839 1127.02 317.864C1132.57 322.814 1148.24 335.789 1152.89 339.614L1157.62 343.439Z" fill="#71E2BD"/>
<path d="M1157.17 343.139C1157.17 343.139 1143.44 336.614 1118.69 317.789C1111.12 312.014 1090.19 295.814 1090.19 295.814L1088.02 301.064C1088.02 301.064 1102.72 313.289 1113.97 320.639C1128.67 330.239 1157.17 343.139 1157.17 343.139Z" fill="#60C49E"/>
</svg>
