<svg width="1000" height="488" viewBox="0 0 1295 488" fill="none" xmlns="http://www.w3.org/2000/svg">
<path d="M1082.38 181.562C1080.84 180.763 1081.15 177.766 1082.69 177.366C1091.14 175.169 1107.58 170.973 1113.42 168.376C1119.87 165.778 1140.3 157.787 1140.3 157.787L1144.76 162.781L1149.22 148.796L1177.95 144.001C1179.18 143.801 1180.41 144.401 1181.17 145.599C1186.71 153.591 1208.83 185.558 1230.19 210.732C1250.16 234.307 1277.05 260.879 1290.57 273.866C1295.8 278.861 1295.03 280.659 1288.42 278.661C1264.91 271.269 1212.06 253.687 1188.09 242.499C1164.27 231.11 1100.51 192.151 1082.38 181.562Z" fill="#A6F4DC"/>
<path d="M1180.41 197.146C1173.34 205.937 1178.56 220.522 1189.78 229.113C1202.07 238.303 1214.05 236.106 1220.05 231.91C1211.29 224.318 1180.41 197.146 1180.41 197.146Z" fill="#71E2BD"/>
<path d="M1192.54 193.151C1196.85 191.952 1206.22 195.348 1214.21 203.34C1225.12 214.129 1227.58 222.92 1227.27 228.114C1218.36 219.124 1192.54 193.151 1192.54 193.151Z" fill="#71E2BD"/>
<path d="M1287.5 275.663L1280.58 273.265C1280.58 273.265 1278.28 272.466 1274.44 271.068C1254.62 264.075 1206.53 246.693 1189.47 237.503C1165.5 224.516 1099.59 183.359 1098.97 182.959L1095.29 180.762L1146.76 161.781L1147.53 165.577L1103.89 181.561C1118.18 190.352 1169.96 222.518 1190.55 233.706C1207.45 242.897 1257.84 261.078 1274.28 266.872C1263.22 255.084 1233.57 223.118 1222.81 210.531C1205.91 190.751 1181.48 158.784 1177.64 153.79L1154.29 156.786L1153.98 152.791L1178.87 149.594L1179.33 150.193C1179.64 150.593 1206.53 186.156 1224.81 207.534C1236.18 220.72 1268.29 255.284 1277.82 265.473L1287.5 275.663Z" fill="#71E2BD"/>
<path d="M1286.58 274.865C1286.58 274.865 1258.46 257.483 1207.75 207.335C1192.24 191.951 1149.37 148.796 1149.37 148.796L1144.91 162.781C1144.91 162.781 1175.03 195.348 1198.07 214.927C1228.19 240.501 1286.58 274.865 1286.58 274.865Z" fill="#60C49E"/>
<path d="M1140.86 157.592C1041.01 -220.051 1797.87 217.429 648.853 114.85C-500.166 12.2716 169.522 296.462 464.68 361.52C759.837 426.577 60.9424 13.0576 391.93 487" stroke="#D8D7FC"/>
<path d="M169.39 305.146L135.874 329.65C132.307 332.258 132.307 336.486 135.874 339.093L169.39 363.598C172.957 366.206 178.739 366.206 182.306 363.598L215.822 339.093C219.389 336.486 219.389 332.258 215.822 329.65L182.306 305.146C178.739 302.538 172.957 302.538 169.39 305.146Z" fill="#F7CBD0"/>
<path d="M254.358 206.046L241.034 215.778C239.25 217.081 239.25 219.194 241.034 220.497L254.358 230.229C256.142 231.532 259.035 231.532 260.819 230.229L274.143 220.497C275.927 219.194 275.927 217.081 274.143 215.778L260.819 206.046C259.035 204.743 256.142 204.743 254.358 206.046Z" fill="white"/>
<path d="M953.316 207.934L940.23 215.964C936.465 218.274 936.465 222.021 940.23 224.332L953.316 232.361C957.082 234.672 963.187 234.672 966.953 232.361L980.038 224.332C983.804 222.021 983.804 218.274 980.038 215.964L966.953 207.934C963.187 205.623 957.082 205.623 953.316 207.934Z" fill="#71B8F2"/>
<path d="M1003.76 159.118L999.196 161.917C997.312 163.071 997.312 164.943 999.196 166.098L1003.76 168.896C1005.64 170.051 1008.7 170.051 1010.58 168.896L1015.15 166.098C1017.03 164.943 1017.03 163.071 1015.15 161.917L1010.58 159.118C1008.7 157.964 1005.64 157.964 1003.76 159.118Z" fill="#CCE6F9"/>
</svg>
