<svg width="150" height="345" viewBox="0 0 187 345" fill="none" xmlns="http://www.w3.org/2000/svg">
<path d="M106.343 82.6568L90.6568 98.3432C87.5326 101.467 87.5326 106.533 90.6568 109.657L106.343 125.343C109.467 128.467 114.533 128.467 117.657 125.343L133.343 109.657C136.467 106.533 136.467 101.467 133.343 98.3432L117.657 82.6568C114.533 79.5326 109.467 79.5326 106.343 82.6568Z" fill="#71B8F2"/>
<path d="M156.672 2.82839L150.828 8.6716C149.266 10.2337 149.266 12.7663 150.828 14.3284L156.672 20.1716C158.234 21.7337 160.766 21.7337 162.328 20.1716L168.172 14.3284C169.734 12.7663 169.734 10.2337 168.172 8.6716L162.328 2.82839C160.766 1.2663 158.234 1.2663 156.672 2.82839Z" fill="#CCE6F9"/>
<path d="M72.5998 293.806C64.4248 259.756 77.4748 222.781 102.9 207.856C116.475 199.906 145.05 191.806 183.75 227.356L183.225 227.881C144.9 192.631 116.7 200.581 103.275 208.456C78.1498 223.231 65.2498 259.831 73.2748 293.581L72.5998 293.806Z" fill="#D8D7FC" fill-opacity="0.3"/>
<g opacity="0.3">
<path d="M173.775 314.132L174.45 314.432C180.45 300.707 171.15 282.632 149.7 266.057C123 245.582 83.8499 231.332 44.9249 228.032C32.0392 226.931 16.828 226.826 0.5 229.092V230.084C58.5742 222.08 117.095 242.003 149.175 266.657C170.4 283.007 179.55 300.707 173.775 314.132Z" fill="#D8D7FC"/>
</g>
<path d="M83.4931 308.114C82.7431 307.814 82.8931 306.689 83.6431 306.539C87.7681 305.714 95.7931 304.139 98.6431 303.164C101.793 302.189 111.768 299.189 111.768 299.189L113.943 301.064L116.118 295.814L130.143 294.014C130.743 293.939 131.343 294.164 131.718 294.614C134.418 297.614 145.218 309.614 155.643 319.064C165.393 327.914 178.518 337.889 185.118 342.764C187.668 344.639 187.293 345.314 184.068 344.564C172.593 341.789 146.793 335.189 135.093 330.989C123.468 326.714 92.3431 312.089 83.4931 308.114Z" fill="#A6F4DC"/>
<path d="M131.343 313.964C127.893 317.264 130.443 322.739 135.918 325.964C141.918 329.414 147.768 328.589 150.693 327.014C146.418 324.164 131.343 313.964 131.343 313.964Z" fill="#71E2BD"/>
<path d="M137.268 312.465C139.368 312.015 143.943 313.29 147.843 316.29C153.168 320.34 154.368 323.639 154.218 325.589C149.868 322.214 137.268 312.465 137.268 312.465Z" fill="#71E2BD"/>
<path d="M183.618 343.439L180.243 342.539C180.243 342.539 179.118 342.239 177.243 341.714C167.568 339.089 144.093 332.564 135.768 329.114C124.068 324.239 91.893 308.789 91.593 308.639L89.793 307.814L114.918 300.689L115.293 302.114L93.993 308.114C100.968 311.414 126.243 323.489 136.293 327.689C144.543 331.139 169.143 337.964 177.168 340.139C171.768 335.714 157.293 323.714 152.043 318.989C143.793 311.564 131.868 299.564 129.993 297.689L118.593 298.814L118.443 297.314L130.593 296.114L130.818 296.339C130.968 296.489 144.093 309.839 153.018 317.864C158.568 322.814 174.243 335.789 178.893 339.614L183.618 343.439Z" fill="#71E2BD"/>
<path d="M183.168 343.139C183.168 343.139 169.443 336.614 144.693 317.789C137.118 312.014 116.193 295.814 116.193 295.814L114.018 301.064C114.018 301.064 128.718 313.289 139.968 320.639C154.668 330.239 183.168 343.139 183.168 343.139Z" fill="#60C49E"/>
</svg>
