<svg width="768" height="576" viewBox="0 0 768 576" fill="none" xmlns="http://www.w3.org/2000/svg">
<circle cx="379" cy="292" r="200" fill="#F6FCFF"/>
<path d="M498.378 397.351L489.362 406.366L490.423 407.427L499.439 398.411L498.378 397.351Z" fill="#000061"/>
<path d="M503.481 397.36L494.466 406.375L495.526 407.436L504.542 398.42L503.481 397.36Z" fill="#000061"/>
<path d="M205.943 409.27L196.928 418.285L197.988 419.346L207.004 410.33L205.943 409.27Z" fill="#000061"/>
<path d="M211.048 409.279L202.032 418.294L203.093 419.355L212.108 410.339L211.048 409.279Z" fill="#000061"/>
<path d="M357.375 343.05H175.125V349.425H357.375V343.05Z" fill="#B9C3EE"/>
<path d="M364.5 316.725H168L160.5 300.75H372L364.5 316.725Z" fill="#B9C3EE"/>
<path d="M357.375 349.425H175.125V355.8H357.375V349.425Z" fill="#B9C3EE"/>
<path d="M202.2 355.8H190.725V409.05H202.2V355.8Z" fill="#B9C3EE"/>
<path d="M341.85 355.8H330.375V409.05H341.85V355.8Z" fill="#B9C3EE"/>
<path d="M194.1 343.05H187.35L180.75 316.725H187.5L194.1 343.05Z" fill="#B9C3EE"/>
<path d="M550.5 396.675C557.55 384.9 561.675 371.1 561.675 356.4C561.675 313.2 526.65 278.175 483.45 278.175C440.25 278.175 405.225 313.2 405.225 356.4C405.225 360.825 405.6 365.1 406.275 369.3C404.55 368.85 402.75 368.55 400.95 368.55C390.075 368.55 381.225 377.4 381.225 388.275C381.225 391.275 381.9 394.125 383.1 396.675H550.5Z" fill="#FFE9E9"/>
<path d="M554.549 366.525C562.424 352.35 570.899 344.775 577.574 348.675C591.449 356.7 555.824 396.675 555.824 396.675H539.324C539.324 396.675 550.499 373.8 554.549 366.525Z" fill="#B9C3EE"/>
<path d="M435.525 383.775C429.375 375.825 421.875 369 417.15 373.575C410.1 380.475 427.875 396.675 427.875 396.675L443.1 396.825C443.1 396.825 438.675 387.9 435.525 383.775Z" fill="#B9C3EE"/>
<path d="M575.624 367.35L575.324 366.675C591.149 359.925 596.924 346.95 597.074 337.05C597.074 335.25 596.924 333.75 596.624 332.475C596.324 332.7 596.024 332.775 595.799 332.85C594.674 333.15 593.474 332.55 592.874 331.5C592.424 330.6 592.574 329.625 593.399 328.95C593.999 328.425 594.599 328.35 595.199 328.575C595.874 328.875 596.474 329.7 596.924 330.825C597.299 330.075 597.599 328.875 597.524 327C597.449 324.375 596.624 321.525 595.799 318.6C593.699 311.475 591.524 304.05 599.924 297.9L600.374 298.5C592.424 304.35 594.524 311.475 596.549 318.375C597.449 321.375 598.274 324.225 598.349 327C598.424 329.55 597.899 330.975 597.299 331.8C597.674 333.225 597.899 335.025 597.824 336.975C597.749 347.175 591.824 360.45 575.624 367.35ZM594.674 329.25C594.449 329.25 594.224 329.325 593.999 329.55C593.249 330.225 593.474 330.9 593.624 331.2C593.999 331.875 594.824 332.4 595.649 332.175C595.874 332.1 596.174 332.025 596.399 331.725C596.024 330.45 595.499 329.625 594.899 329.325C594.899 329.25 594.824 329.25 594.674 329.25Z" fill="#B9C3EE"/>
<path d="M598.125 319.5C600.15 313.5 604.65 314.1 608.85 316.275C606.15 320.4 603.45 321.75 598.125 319.5Z" fill="#B9C3EE"/>
<path d="M593.325 345.15C584.775 348.45 581.25 342.975 579.6 336.225C586.725 335.325 590.85 337.125 593.325 345.15Z" fill="#FF5776"/>
<path d="M609 332.475C609.075 339 604.5 339.9 599.625 339.3C600.825 334.425 603.075 332.1 609 332.475Z" fill="#FF5776"/>
<path d="M600 320.4C599.4 320.4 598.725 320.325 598.05 320.25H597.75V319.875C597.825 317.4 598.65 315.525 600 314.4C601.65 313.05 604.125 312.75 607.575 313.35L607.95 313.425L607.8 313.8C606.75 317.775 604.875 320.4 600 320.4ZM598.5 319.575C603.3 320.025 605.55 318.6 606.975 314.1C603.975 313.65 601.875 313.95 600.45 315.075C599.325 315.9 598.65 317.475 598.5 319.575Z" fill="#000061"/>
<path d="M594.525 354C602.85 351.3 605.925 356.7 607.125 363.225C600.3 363.675 596.475 361.8 594.525 354Z" fill="#FF5776"/>
<path d="M603.224 361.2C599.849 361.2 596.774 359.475 593.849 354.525L593.699 354.225L593.999 354C596.849 352.05 599.474 351.375 601.874 351.975C604.649 352.725 607.124 355.125 609.224 359.4L609.449 359.775L609.074 359.925C606.899 360.675 605.024 361.2 603.224 361.2ZM594.674 354.375C598.724 361.05 602.924 361.275 608.324 359.325C606.299 355.5 604.124 353.325 601.649 352.65C599.549 352.125 597.224 352.725 594.674 354.375Z" fill="#000061"/>
<path d="M591.451 313.425C587.326 315 585.601 312.3 584.926 309.075C588.301 308.7 590.251 309.525 591.451 313.425Z" fill="#B9C3EE"/>
<path d="M591.901 312.9C590.776 312.9 589.801 312.6 589.051 312C587.851 311.025 587.251 309.375 587.176 306.9V306.45H587.626C591.526 306.75 593.251 308.325 593.626 312.3V312.675L593.251 312.75C592.801 312.825 592.351 312.9 591.901 312.9ZM587.926 307.275C588.076 309.3 588.601 310.65 589.501 311.4C590.251 312 591.376 312.225 592.726 312.075C592.351 308.475 590.701 307.5 587.926 307.275Z" fill="#000061"/>
<path d="M424.725 390.3C402.6 380.85 397.2 353.7 397.05 344.925C397.05 344.475 397.05 343.95 397.05 343.425C396.075 343.05 394.725 341.85 394.8 337.725C394.875 334.95 395.7 332.1 396.6 329.1C398.625 322.2 400.725 315.075 392.775 309.225L393.225 308.625C401.625 314.775 399.45 322.2 397.35 329.325C396.45 332.25 395.625 335.1 395.625 337.725C395.55 341.1 396.525 342.225 397.2 342.6C397.35 341.1 397.65 339.675 398.475 339.3C398.775 339.15 399.225 339.15 399.75 339.6C400.575 340.35 400.8 341.25 400.275 342.15C399.825 343.05 398.85 343.575 397.875 343.575C397.875 343.95 397.875 344.4 397.875 344.925C398.025 353.55 403.275 380.325 425.1 389.625L424.725 390.3ZM397.875 342.825C397.95 342.825 397.95 342.825 397.875 342.825C398.625 342.825 399.3 342.375 399.525 341.85C399.675 341.475 399.9 340.875 399.15 340.2C398.925 340.05 398.775 339.975 398.7 340.05C398.475 340.125 398.1 340.875 397.875 342.825Z" fill="#B9C3EE"/>
<path d="M395.174 330.15C393.149 324.15 388.649 324.75 384.449 326.925C387.074 331.05 389.849 332.4 395.174 330.15Z" fill="#B9C3EE"/>
<path d="M399.9 355.8C408.45 359.1 411.975 353.625 413.625 346.875C406.5 345.975 402.375 347.775 399.9 355.8Z" fill="#FF5776"/>
<path d="M384.225 343.125C384.15 349.65 388.725 350.55 393.6 349.95C392.4 345.075 390.15 342.75 384.225 343.125Z" fill="#FF5776"/>
<path d="M393.224 331.05C388.349 331.05 386.549 328.425 385.349 324.525L385.199 324.15L385.574 324.075C389.024 323.475 391.499 323.775 393.149 325.125C394.574 326.25 395.324 328.05 395.399 330.6V330.975L395.024 331.05C394.499 330.975 393.824 331.05 393.224 331.05ZM386.249 324.675C387.674 329.175 389.924 330.675 394.724 330.15C394.574 328.05 393.899 326.55 392.774 325.575C391.349 324.525 389.249 324.225 386.249 324.675Z" fill="#000061"/>
<path d="M398.7 364.65C390.375 361.95 387.3 367.35 386.1 373.875C392.925 374.325 396.75 372.45 398.7 364.65Z" fill="#FF5776"/>
<path d="M390.075 371.85C388.275 371.85 386.325 371.325 384.3 370.575L383.925 370.425L384.15 370.05C386.325 365.775 388.725 363.375 391.5 362.625C393.9 362.025 396.525 362.7 399.375 364.65L399.675 364.875L399.525 365.175C396.525 370.05 393.45 371.85 390.075 371.85ZM384.9 369.975C390.3 371.925 394.5 371.7 398.55 365.025C396 363.375 393.675 362.775 391.575 363.3C389.1 363.975 386.925 366.15 384.9 369.975Z" fill="#000061"/>
<path d="M401.85 324.075C405.975 325.65 407.7 322.95 408.375 319.725C404.925 319.35 402.975 320.175 401.85 324.075Z" fill="#FF5776"/>
<path d="M401.325 323.55C400.875 323.55 400.425 323.475 399.975 323.4L399.6 323.325V322.95C399.975 318.975 401.7 317.325 405.6 317.1H406.05V317.55C405.975 320.025 405.375 321.675 404.175 322.65C403.425 323.25 402.525 323.55 401.325 323.55ZM400.425 322.725C401.775 322.875 402.9 322.65 403.65 322.05C404.625 321.3 405.075 319.95 405.225 317.925C402.6 318.15 400.95 319.125 400.425 322.725Z" fill="#000061"/>
<path d="M555.225 380.175C561.225 370.875 574.35 366.3 577.5 373.2C583.125 385.575 553.425 397.425 553.425 397.425H538.8C538.725 397.425 551.85 385.425 555.225 380.175Z" fill="#3850B5"/>
<path d="M174.975 409.05C168.075 404.925 169.2 402.975 170.475 402.075C172.575 400.65 180.9 409.05 180.9 409.05H174.975Z" fill="#3850B5"/>
<path d="M179.175 409.05C177.825 407.25 170.1 398.175 173.1 396.15C176.1 394.05 181.8 403.5 183.45 405C185.175 406.575 186.375 409.05 186.375 409.05H179.175Z" fill="#3850B5"/>
<path d="M274.575 409.5C276.975 406.275 279.375 404.1 282.525 404.475C285.6 404.85 280.35 409.275 280.35 409.275L274.575 409.5Z" fill="#B9C3EE"/>
<path d="M337.5 409.05C340.8 400.05 348.825 385.575 354.3 386.7C359.775 387.825 344.325 409.05 344.325 409.05H337.5Z" fill="#FFE9E9"/>
<path d="M349.575 398.925C352.875 395.775 355.275 393.675 356.925 394.65C359.625 396.225 347.25 409.05 347.25 409.05H342.3C342.3 409.05 348.075 400.425 349.575 398.925Z" fill="#FFE9E9"/>
<path d="M354.975 402.3C358.275 399.675 360.225 399.225 361.05 400.575C361.875 401.925 354.225 409.05 354.225 409.05H347.25C347.25 409.05 353.775 403.275 354.975 402.3Z" fill="#B9C3EE"/>
<path d="M209.775 349.05H172.575V349.8H209.775V349.05Z" fill="#000061"/>
<path d="M186.675 308.625C183.15 308.625 179.625 308.325 176.1 307.5C172.575 306.675 170.4 305.925 168.6 305.325C165.9 304.35 164.4 303.825 160.65 304.275L160.575 303.9C164.4 303.45 165.9 303.975 168.675 304.95C170.4 305.55 172.575 306.3 176.1 307.125C185.4 309.225 195.075 307.95 203.25 306.375C204.825 306.075 206.25 305.775 207.675 305.475C214.125 304.125 219.75 303 226.125 303.9C234.525 305.025 281.025 307.05 285.075 305.175C289.2 303.225 293.85 304.05 299.25 305.025L299.775 305.1C305.625 306.15 342.6 308.55 351.825 305.925C362.25 302.925 370.35 303.6 370.425 303.6V303.975C370.35 303.975 362.25 303.3 351.975 306.3C342.75 309 305.625 306.6 299.775 305.475L299.25 305.4C293.7 304.425 289.275 303.6 285.3 305.475C281.025 307.5 233.175 305.175 226.125 304.275C219.825 303.45 214.275 304.575 207.825 305.85C206.4 306.15 204.9 306.45 203.325 306.75C198.3 307.725 192.525 308.625 186.675 308.625Z" fill="white"/>
<path d="M288.975 315.75C285.975 315.75 282.15 314.55 277.725 313.125C274.725 312.225 271.65 311.25 268.35 310.425C261.525 308.85 250.425 309.075 240.675 309.225C234 309.375 228.225 309.45 225.375 308.925C218.7 307.725 210 309.15 202.425 310.8C195.375 312.3 191.475 313.125 184.275 311.4C177.9 309.9 172.05 309.9 165.375 311.4L165.3 311.025C172.05 309.525 177.9 309.525 184.35 311.025C191.55 312.75 195.375 311.925 202.35 310.425C210 308.85 218.7 307.35 225.45 308.55C228.3 309.075 234 308.925 240.675 308.85C250.5 308.7 261.6 308.475 268.5 310.05C271.8 310.8 275.025 311.85 277.875 312.75C285.15 315 290.85 316.8 293.55 313.5C297.6 308.55 299.325 307.425 303.9 309C308.625 310.65 328.5 311.85 331.65 310.95C333.45 310.425 339.975 310.8 346.275 311.175C351.6 311.475 357.15 311.775 357.9 311.4C359.625 310.575 366.75 311.1 367.05 311.1V311.475C366.975 311.475 359.7 310.95 358.05 311.7C357.225 312.075 352.125 311.85 346.275 311.475C340.275 311.175 333.45 310.8 331.725 311.25C328.2 312.225 308.1 310.8 303.75 309.3C299.4 307.8 297.825 308.775 293.85 313.65C292.65 315.225 291 315.75 288.975 315.75Z" fill="white"/>
<path d="M213.975 348.525C203.925 348.525 193.275 348.15 189.45 347.925C180.225 347.325 175.2 347.85 175.125 347.85L175.05 347.475C175.125 347.475 180.15 346.95 189.45 347.55C196.575 348 228.15 348.975 234.15 346.95C236.85 346.05 239.325 346.425 241.725 346.8C243.6 347.1 245.475 347.4 247.05 346.95C250.875 345.9 293.1 347.1 299.325 347.625C304.95 348.075 309.825 347.475 315.525 346.8C316.8 346.65 318.075 346.5 319.5 346.35C326.775 345.525 335.4 344.85 343.65 345.975C346.8 346.425 348.75 346.8 350.25 347.1C352.65 347.625 354 347.85 357.3 347.625V348C353.925 348.225 352.575 347.925 350.1 347.475C348.525 347.175 346.65 346.725 343.5 346.35C335.25 345.225 326.7 345.9 319.425 346.725C318.075 346.875 316.725 347.025 315.45 347.175C309.75 347.85 304.8 348.45 299.175 348C291.75 347.4 250.575 346.35 247.05 347.325C245.325 347.775 243.45 347.55 241.5 347.25C239.175 346.875 236.7 346.5 234.075 347.325C231.45 348.225 222.9 348.525 213.975 348.525Z" fill="white"/>
<path d="M237.15 346.125C233.325 346.125 230.625 346.05 229.875 345.9C226.2 345.15 210.9 345.15 205.875 345.15H204.75C201.45 345.15 184.65 345.375 183.15 345.675C180.825 346.125 175.05 345.675 174.825 345.675V345.3C174.9 345.3 180.825 345.75 183.075 345.3C184.65 345 201.825 344.775 204.75 344.775H205.875C211.425 344.775 226.2 344.775 229.95 345.525C232.05 345.975 249.375 345.675 266.1 345.3C282.075 345 297.15 344.7 300.15 345.075C306.15 345.75 314.175 344.925 320.475 344.1C326.7 343.35 330.15 342.9 336.525 343.8C342.525 344.625 351.825 344.4 357.375 343.65L357.45 344.025C351.975 344.775 342.825 345.075 336.525 344.175C330.15 343.275 326.775 343.725 320.625 344.475C313.875 345.3 306.225 346.125 300.225 345.45C297.3 345.15 281.55 345.45 266.25 345.675C255.3 345.9 244.2 346.125 237.15 346.125Z" fill="white"/>
<path d="M201.975 353.7C197.175 353.7 192.225 353.4 187.425 352.725C184.275 352.275 182.475 351.9 181.2 351.675C179.25 351.225 178.425 351.075 175.125 351.3V350.925C178.425 350.7 179.25 350.85 181.275 351.3C182.55 351.6 184.275 351.9 187.425 352.35C195.75 353.475 204.45 353.625 211.95 352.8C213.3 352.65 214.65 352.5 215.925 352.35C221.625 351.675 226.575 351.075 232.2 351.525C239.625 352.125 280.8 353.175 284.325 352.2C286.05 351.75 287.925 351.975 289.875 352.275C292.2 352.65 294.675 353.025 297.3 352.2C303.375 350.175 335.025 351.15 342.15 351.6C351.375 352.2 357.375 351.825 357.45 351.825V352.2C357.375 352.2 351.375 352.575 342.075 351.975C334.95 351.525 303.375 350.55 297.375 352.575C294.675 353.475 292.2 353.1 289.8 352.725C287.925 352.425 286.05 352.125 284.475 352.575C280.65 353.625 238.425 352.425 232.2 351.9C226.575 351.45 221.7 352.05 216 352.725C214.725 352.875 213.45 353.025 212.025 353.175C208.8 353.475 205.425 353.7 201.975 353.7Z" fill="white"/>
<path d="M201.75 355.5C199.275 355.5 196.8 355.35 194.1 354.975C188.1 354.15 180.675 354.075 175.2 354.825L175.125 354.45C180.675 353.7 188.1 353.775 194.1 354.6C200.4 355.5 205.275 355.2 211.575 354.45C218.4 353.625 225.75 353.475 231.375 354.075C234.3 354.375 250.125 354.075 265.35 353.85C282.15 353.55 299.475 353.25 301.575 353.7C305.25 354.45 320.55 354.45 325.575 354.45H326.7C330 354.45 346.8 354.225 348.3 353.925C350.625 353.475 357.15 353.7 357.375 353.7V354.075C357.3 354.075 350.625 353.85 348.375 354.3C346.8 354.6 329.625 354.825 326.7 354.825H325.575C320.025 354.825 305.25 354.825 301.5 354.075C299.4 353.625 282.075 353.925 265.35 354.3C249.375 354.6 234.3 354.9 231.3 354.525C225.75 353.925 218.325 354.075 211.575 354.9C208.05 355.2 204.9 355.5 201.75 355.5Z" fill="white"/>
<path d="M286.575 311.775C283.65 311.775 280.2 310.875 278.625 310.125C278.325 309.975 277.875 309.75 277.95 309.375C278.1 308.7 280.425 308.4 287.475 308.175C288.6 308.175 289.5 307.8 290.55 307.425C291.75 306.975 293.175 306.45 295.05 306.375C295.5 306.375 296.175 306.375 296.325 306.825C296.55 307.875 292.05 310.2 290.1 311.175C289.125 311.625 287.925 311.775 286.575 311.775ZM278.325 309.525C278.325 309.525 278.325 309.675 278.775 309.825C281.4 311.1 287.175 312.15 289.95 310.8C293.85 308.925 296.1 307.35 296.025 306.9C296.025 306.825 295.8 306.75 295.125 306.75C293.325 306.825 291.975 307.275 290.775 307.725C289.725 308.1 288.75 308.475 287.55 308.55C285.075 308.625 278.55 308.85 278.325 309.525Z" fill="white"/>
<path d="M185.7 306.375C182.025 306.375 177.525 304.65 173.1 303C171 302.175 169.05 301.425 167.25 300.9L167.325 300.525C169.125 301.05 171.075 301.8 173.175 302.625C177.975 304.5 183 306.375 186.75 305.925C192.225 305.325 206.025 300.6 206.175 300.525L206.325 300.9C206.175 300.975 192.3 305.7 186.825 306.3C186.525 306.375 186.15 306.375 185.7 306.375Z" fill="white"/>
<path d="M189.75 303.525C186.75 303.525 181.875 301.05 181.65 300.9L181.8 300.6C181.875 300.6 187.125 303.3 189.975 303.15C192.825 303 199.95 300.6 200.025 300.6L200.175 300.975C199.875 301.05 192.9 303.45 189.975 303.6C189.9 303.525 189.825 303.525 189.75 303.525Z" fill="white"/>
<path d="M192.525 316.875C192.45 316.875 184.725 313.35 179.175 312.15C175.65 311.4 173.325 312.3 171 313.2C169.65 313.725 168.3 314.25 166.8 314.4L166.725 314.025C168.225 313.875 169.5 313.35 170.85 312.825C173.175 311.925 175.65 310.95 179.25 311.775C184.8 312.975 192.6 316.5 192.675 316.575L192.525 316.875Z" fill="white"/>
<path d="M199.2 316.875C196.65 316.05 195.3 315.45 195.225 314.7C195.225 314.4 195.375 314.175 195.75 313.95C197.25 313.125 210.3 312.75 210.9 312.75V313.125C206.25 313.275 197.1 313.65 195.975 314.25C195.825 314.325 195.6 314.475 195.6 314.625C195.675 315.225 198.15 316.05 199.275 316.425L199.2 316.875Z" fill="white"/>
<path d="M177.675 315.825C177.3 315.825 177 315.675 176.625 315.45C176.025 315.075 175.5 314.325 175.425 313.725C175.35 313.5 175.425 313.35 175.575 313.2C175.8 312.9 176.4 312.9 177 312.9C177.3 312.9 177.675 312.9 177.975 312.9C178.5 312.825 178.875 313.2 179.025 313.875C179.175 314.7 178.8 315.6 178.05 315.825C177.9 315.75 177.825 315.825 177.675 315.825ZM176.625 313.275C176.25 313.275 175.95 313.275 175.8 313.425C175.8 313.425 175.725 313.5 175.8 313.65C175.875 314.175 176.325 314.775 176.85 315.15C177.075 315.3 177.525 315.525 177.975 315.375C178.5 315.225 178.725 314.475 178.65 313.875C178.65 313.65 178.5 313.2 178.05 313.2C177.675 313.2 177.375 313.2 177 313.2C176.85 313.275 176.775 313.275 176.625 313.275Z" fill="white"/>
<path d="M264.9 303.3C264.75 303.3 264.6 303.3 264.45 303.3V302.925C268.425 303.15 284.025 300.525 284.175 300.525L284.25 300.9C283.65 300.975 269.55 303.3 264.9 303.3Z" fill="white"/>
<path d="M272.25 316.875C272.175 316.8 266.475 312.45 262.575 311.55L262.65 311.175C266.7 312.075 272.25 316.425 272.475 316.575L272.25 316.875Z" fill="white"/>
<path d="M298.875 316.8L298.5 316.65C298.65 316.2 298.8 315.825 298.875 315.525C300 312.15 300.45 311.025 303.075 311.175C304.425 311.25 306.45 312.15 308.625 313.125C310.8 314.1 313.05 315.15 314.775 315.375L314.7 315.75C312.975 315.525 310.65 314.55 308.475 313.5C306.375 312.525 304.425 311.625 303.075 311.55C300.75 311.4 300.45 312.3 299.25 315.6C299.175 315.975 299.025 316.35 298.875 316.8Z" fill="white"/>
<path d="M359.85 309C359.475 309 359.175 309 358.875 308.925C358.65 308.925 358.2 308.85 358.275 308.55C358.275 307.65 367.05 306.525 369.3 306.375V306.75C365.925 306.975 359.925 308.025 358.8 308.55C358.875 308.55 358.875 308.55 358.95 308.55C361.5 308.85 368.7 307.5 368.775 307.5L368.85 307.875C368.475 307.95 362.925 309 359.85 309Z" fill="white"/>
<path d="M341.85 355.8H330.375L341.85 359.7V355.8Z" fill="#000061"/>
<path d="M227.925 349.725L234.375 355.8H277.05L281.1 349.425L227.925 349.725Z" fill="#000061"/>
<path d="M188.7 343.125L188.325 343.05C189.375 338.925 187.125 331.425 185.325 325.425C184.2 321.675 183.225 318.45 183.225 316.725H183.6C183.6 318.375 184.5 321.6 185.625 325.275C187.5 331.35 189.75 338.85 188.7 343.125Z" fill="white"/>
<path d="M192.45 343.2C189.9 339.75 188.475 329.1 189.75 326.475L190.05 326.625C188.85 329.1 190.275 339.6 192.675 342.9L192.45 343.2Z" fill="white"/>
<path d="M180.75 316.725L188.025 318.75L187.5 316.725H180.75Z" fill="#000061"/>
<path d="M288.075 349.05H280.725V349.8H288.075V349.05Z" fill="#000061"/>
<path d="M262.425 349.05H255.075V349.8H262.425V349.05Z" fill="#000061"/>
<path d="M427.627 296.995L427.097 297.526L482.728 353.157L483.258 352.627L427.627 296.995Z" fill="white"/>
<path d="M417.11 315.938L416.58 316.468L472.211 372.099L472.741 371.569L417.11 315.938Z" fill="white"/>
<path d="M434.659 293.162L434.129 293.692L485.783 345.346L486.313 344.816L434.659 293.162Z" fill="white"/>
<path d="M197.325 409.8C197.325 409.725 196.725 402.075 195.075 396.75C193.725 392.325 191.85 383.625 193.875 374.85C195.825 366.6 195.3 360.6 192.375 355.875L192.675 355.65C195.675 360.45 196.2 366.6 194.25 374.925C192.225 383.625 194.1 392.25 195.45 396.6C197.025 402 197.7 409.65 197.7 409.725L197.325 409.8Z" fill="white"/>
<path d="M199.425 409.8C199.35 409.05 199.05 407.25 198.675 405.075C197.25 396.3 194.625 379.95 196.2 375.75C197.1 373.275 197.1 370.575 197.1 367.425C197.1 364.05 197.025 360.225 198.225 355.65L198.6 355.725C197.4 360.225 197.475 364.05 197.475 367.35C197.475 370.5 197.55 373.2 196.575 375.75C195 379.875 197.775 396.75 199.125 404.85C199.5 407.175 199.8 408.825 199.875 409.575L199.425 409.8Z" fill="white"/>
<path d="M201.9 390.3C200.025 388.8 198.6 385.05 198.45 381.15C198.375 378.75 198.675 374.325 201.9 371.325L202.125 371.625C198.975 374.55 198.675 378.825 198.75 381.15C198.9 384.975 200.25 388.575 202.05 390.075L201.9 390.3Z" fill="white"/>
<path d="M190.725 355.8L202.125 359.7V355.8H190.725Z" fill="#000061"/>
<path d="M337.725 409.05L337.35 408.975C337.35 408.75 341.025 386.25 338.925 379.2C336.825 372 337.5 366.75 339.525 358.875L339.9 358.95C337.875 366.675 337.275 371.925 339.3 379.05C341.325 386.25 337.875 408.15 337.725 409.05Z" fill="white"/>
<path d="M335.475 392.7C335.25 392.7 334.875 392.55 334.575 391.95C331.575 386.325 332.775 374.925 333.675 373.125C333.9 372.675 334.2 372.6 334.35 372.675C335.625 372.9 337.425 378 337.8 382.65C338.175 387 337.05 392.25 335.625 392.625C335.625 392.7 335.55 392.7 335.475 392.7ZM334.95 391.875C335.175 392.25 335.4 392.4 335.55 392.4C336.525 392.1 337.875 387.375 337.425 382.8C337.05 377.925 335.175 373.35 334.275 373.2C334.2 373.2 334.125 373.2 333.975 373.425C333.15 375.15 332.025 386.325 334.95 391.875Z" fill="white"/>
<path d="M335.25 409.05H334.875C335.175 404.55 334.8 397.275 333.225 396C331.5 394.65 330.3 390.45 330.225 390.3L330.6 390.225C330.6 390.3 331.875 394.5 333.45 395.775C335.175 397.125 335.55 404.55 335.25 409.05Z" fill="white"/>
<path d="M341.625 378.075C339.675 374.4 339.675 366.975 341.175 363.825L341.55 363.975C340.125 366.975 340.05 374.4 341.925 377.925L341.625 378.075Z" fill="white"/>
<path d="M189.792 359.511L188.934 360.741L191.394 362.458L192.252 361.228L189.792 359.511Z" fill="#B9C3EE"/>
<path d="M193.364 298.848L191.349 300.864L192.409 301.924L194.424 299.909L193.364 298.848Z" fill="#B9C3EE"/>
<path d="M290.688 315.69L289.203 317.175L290.264 318.236L291.749 316.751L290.688 315.69Z" fill="#B9C3EE"/>
<path d="M342.383 369.874L340.526 371.73L341.587 372.79L343.443 370.934L342.383 369.874Z" fill="#B9C3EE"/>
<path d="M581.549 406.125H460.199V407.625H581.549V406.125Z" fill="#000061"/>
<path d="M361.349 410.55H174.899V409.05H361.349C365.924 409.05 370.199 406.875 372.899 403.2C375.824 399.15 380.624 396.675 385.649 396.675H568.499V398.175H385.649C381.074 398.175 376.799 400.35 374.099 404.025C371.174 408.15 366.374 410.55 361.349 410.55Z" fill="#000061"/>
<path d="M571.5 196.125L588.975 196.2C597.075 196.2 602.85 204 600.6 211.8L549.3 387.825C547.725 393.225 542.85 396.9 537.225 396.9L504.975 396.825" fill="#000061"/>
<path d="M529.425 396.825L444.45 396.75C438.45 396.75 434.175 390.975 435.825 385.2L487.875 206.625C489.675 200.4 495.45 196.05 501.975 196.05L586.875 196.125C592.875 196.125 597.15 201.9 595.5 207.675L543.45 386.25C541.65 392.55 535.95 396.825 529.425 396.825Z" fill="#FF5776"/>
<path d="M585 201.675H568.05C567 204 564.6 205.575 562.05 205.575H520.95C518.925 205.575 517.425 203.55 518.025 201.675H502.35C498 201.675 494.175 204.525 492.975 208.65L441.375 383.85C440.475 387 442.8 390.15 446.1 390.15L527.85 390.225C532.35 390.225 536.325 387.225 537.6 382.95L589.275 207.525C590.175 204.6 588 201.675 585 201.675Z" fill="#FFE9E9"/>
<path d="M541.049 203.475C540.974 203.475 540.824 203.475 540.749 203.4C539.924 203.175 539.624 202.05 539.999 200.775C540.374 199.5 541.274 198.75 542.024 198.975C542.849 199.2 543.149 200.325 542.774 201.6C542.624 202.125 542.324 202.65 541.949 203.025C541.724 203.25 541.349 203.475 541.049 203.475ZM541.799 199.65C541.499 199.65 540.974 200.1 540.749 201C540.449 201.9 540.674 202.65 540.974 202.725C541.124 202.725 541.274 202.65 541.499 202.5C541.724 202.275 541.949 201.825 542.099 201.45C542.399 200.4 542.174 199.725 541.799 199.65C541.874 199.65 541.874 199.65 541.799 199.65Z" fill="#000061"/>
<path d="M518.85 380.625H460.875V382.125H518.85V380.625Z" fill="#000061"/>
<path d="M508.574 209.55H500.399V210.3H508.574V209.55Z" fill="#000061"/>
<path d="M507.15 212.55H498.975V213.3H507.15V212.55Z" fill="#000061"/>
<path d="M506.025 215.55H497.85V216.3H506.025V215.55Z" fill="#000061"/>
<path d="M526.649 393.3L441.749 393.225C438.749 393.225 436.049 391.875 434.249 389.475C432.449 387.075 431.924 384.075 432.749 381.225L484.799 202.65C486.674 196.275 492.599 191.85 499.199 191.85L584.099 191.925C587.099 191.925 589.799 193.275 591.599 195.675C593.399 198.075 593.924 201.075 593.099 203.925L588.374 220.2L587.624 219.975L592.349 203.7C593.099 201.075 592.649 198.3 590.999 196.125C589.349 193.95 586.874 192.675 584.099 192.675L499.199 192.6C492.899 192.6 487.274 196.8 485.474 202.875L433.424 381.45C432.674 384.075 433.124 386.85 434.774 389.025C436.424 391.2 438.899 392.475 441.674 392.475L526.574 392.55C532.874 392.55 538.499 388.35 540.299 382.275L577.574 254.475L578.324 254.7L541.049 382.5C539.249 388.875 533.324 393.3 526.649 393.3Z" fill="#000061"/>
<path d="M589.425 252.675C589.2 252.675 588.975 252.675 588.75 252.6C588.15 252.45 587.7 252 587.4 251.475C587.1 250.95 587.025 250.275 587.25 249.675L591.3 236.175C591.675 234.975 592.95 234.225 594.225 234.6C595.425 234.975 596.175 236.25 595.8 237.525L591.75 251.025C591.6 251.625 591.15 252.075 590.625 252.375C590.175 252.525 589.8 252.675 589.425 252.675ZM593.4 235.2C592.725 235.2 592.125 235.65 591.9 236.325L587.85 249.825C587.7 250.2 587.775 250.65 588 251.025C588.225 251.4 588.525 251.7 588.9 251.775C589.275 251.925 589.725 251.85 590.1 251.625C590.475 251.4 590.775 251.1 590.85 250.725L594.9 237.225C595.125 236.4 594.675 235.5 593.85 235.275C593.7 235.275 593.55 235.2 593.4 235.2Z" fill="#FF5776"/>
<path d="M553.35 288.825L533.85 355.5C533.4 357.075 531.9 358.2 530.25 358.2H460.2C459.225 358.2 458.475 357.225 458.775 356.25L478.275 289.575C478.725 288 480.225 286.875 481.875 286.875H551.925C552.9 286.95 553.65 287.925 553.35 288.825Z" fill="white"/>
<path d="M570.75 228.225L558.825 270.525C558.375 272.175 556.875 273.225 555.225 273.225H485.25C484.275 273.225 483.525 272.25 483.825 271.35L495.75 229.05C496.2 227.4 497.7 226.35 499.35 226.35H569.4C570.3 226.35 571.05 227.325 570.75 228.225Z" fill="white"/>
<path d="M169.2 409.05H165.675V410.55H169.2V409.05Z" fill="#000061"/>
<path d="M580.726 396.6H575.476V398.1H580.726V396.6Z" fill="#000061"/>
<path d="M298.426 232.275C298.426 232.275 300.226 222.9 301.276 220.725C301.951 219.225 304.501 217.05 305.926 215.925C306.526 215.475 306.901 215.175 306.901 215.175L308.626 223.725L306.451 226.05L305.101 233.25L298.426 232.275Z" fill="#F3AE88"/>
<path d="M297.601 368.1L305.551 401.775H313.126L310.501 373.275L309.826 368.775L297.601 368.1Z" fill="#F3AE88"/>
<path d="M313.726 367.2L324.901 401.625H332.776C332.776 401.625 329.851 384 328.726 376.8C328.126 372.75 324.826 367.725 324.826 367.725L313.726 367.2Z" fill="#F3AE88"/>
<path d="M248.325 245.325C249.975 245.55 256.5 244.65 257.925 244.05C259.275 243.45 259.05 236.85 259.05 236.85L246.45 241.65L248.325 245.325Z" fill="#B9C3EE"/>
<path d="M255.225 322.125C255.225 322.125 275.775 332.325 279.075 334.8C282.525 337.425 283.875 341.925 282.375 345.975L265.275 392.625C264.975 393.375 264.525 394.05 263.85 394.5L262.125 395.775L250.725 393.75L250.05 391.05C249.9 390.45 249.9 389.925 250.05 389.325C251.325 384.075 257.775 356.775 258.675 354.45C259.65 351.9 260.7 349.425 260.7 349.425H251.55L240.825 325.65L255.225 322.125Z" fill="#3850B5"/>
<path d="M201.9 342.375C200.625 343.575 195.075 347.025 194.1 347.7H194.025L189.075 348.45H187.725C187.275 348.45 186.9 348.825 186.9 349.275C186.9 349.725 187.275 350.1 187.725 350.1H193.875C193.875 350.1 198.3 349.275 198.975 349.275C199.5 349.275 201.3 350.025 202.2 350.475C201.9 351.225 201.15 351.9 200.925 353.025C200.55 354.675 201.075 356.25 201.6 356.475C202.125 356.775 202.425 354.375 203.25 353.625C204.075 352.875 206.4 350.625 206.4 350.625L208.2 346.2L209.1 343.65L202.8 340.5L201.9 342.375Z" fill="#F3AE88"/>
<path d="M286.575 290.4L267.6 291.45L264.9 300.75H289.275L286.575 290.4Z" fill="#F3AE88"/>
<path d="M250.8 393.75L247.5 409.05H274.5C274.5 409.05 271.2 404.325 261.3 400.875L262.2 395.85L250.8 393.75Z" fill="#000061"/>
<path d="M247.426 407.625H273.226L274.501 409.05H247.501L247.426 407.625Z" fill="#B9C3EE"/>
<path d="M261.17 400.514L258.214 401.803L258.514 402.491L261.47 401.202L261.17 400.514Z" fill="#3850B5"/>
<path d="M266.022 402.492L262.071 404.125L262.358 404.818L266.309 403.185L266.022 402.492Z" fill="#3850B5"/>
<path d="M269.538 404.503L266.691 405.853L267.013 406.53L269.859 405.181L269.538 404.503Z" fill="#3850B5"/>
<path d="M229.65 391.875L228.6 397.95L226.65 409.05H252.375C252.375 409.05 249.075 404.325 239.175 400.875L240.9 391.8L229.65 391.875Z" fill="#000061"/>
<path d="M226.575 407.625H251.1L252.375 409.05H226.65L226.575 407.625Z" fill="#B9C3EE"/>
<path d="M239.052 400.509L236.096 401.798L236.395 402.486L239.352 401.197L239.052 400.509Z" fill="#3850B5"/>
<path d="M243.903 402.488L239.952 404.121L240.239 404.814L244.19 403.181L243.903 402.488Z" fill="#3850B5"/>
<path d="M247.421 404.498L244.574 405.848L244.896 406.525L247.742 405.176L247.421 404.498Z" fill="#3850B5"/>
<path d="M313.65 401.475L315.3 409.05H294.825C294.825 409.05 297.3 405.45 304.8 402.825L304.575 401.475H313.65Z" fill="#3850B5"/>
<path d="M315.375 408H295.875L294.9 409.05H315.375V408Z" fill="#FFE9E9"/>
<path d="M332.851 400.65L334.351 409.05H314.926C314.926 409.05 317.401 405.45 324.901 402.825L324.526 400.875L332.851 400.65Z" fill="#3850B5"/>
<path d="M334.426 407.925H315.901L314.926 408.975H334.351L334.426 407.925Z" fill="#FFE9E9"/>
<path d="M285.9 289.8C287.1 296.4 289.275 301.95 290.025 303.45C298.875 301.8 307.275 298.125 309.6 296.025C309.6 296.025 308.1 305.25 309.6 308.775C311.1 312.3 313.05 312.375 313.05 312.375L315.45 324.975C315.45 324.975 309.675 330.825 304.95 333.675C300.225 336.525 291.975 340.05 291.225 344.025C290.475 348 292.35 368.1 292.35 368.1C292.35 368.1 294.825 370.275 297.6 369.225C300.45 368.175 303.225 370.575 306.975 370.425C310.725 370.275 313.35 367.8 317.7 368.1C322.05 368.4 325.425 370.65 328.8 370.425C332.175 370.2 337.05 368.4 338.025 368.1C337.425 361.65 336.225 349.425 336.225 349.425H350.175C355.275 345.45 353.4 336.6 352.125 331.575C351.375 328.575 343.05 303.075 343.05 303.075L345.9 279.15L342.675 276.45C340.5 274.65 337.725 273.675 334.875 273.75L318.825 274.35C315.675 274.35 312.675 275.475 310.275 277.5C307.65 279.675 304.125 282.45 301.2 283.875C296.85 285.9 285.9 289.8 285.9 289.8Z" fill="#FF5776"/>
<path d="M318.976 272.475C318.076 272.475 317.251 272.925 316.651 273.525C314.551 275.85 313.726 280.725 316.651 281.325C320.251 282.075 325.201 277.725 325.201 277.725C325.201 277.725 331.201 282.45 333.901 280.5C336.076 278.85 333.976 275.1 332.401 273.3C331.726 272.475 330.751 272.025 329.701 272.1L318.976 272.475Z" fill="white"/>
<path d="M342.975 303.15C342.975 303.15 341.7 310.425 338.775 311.1C339.75 313.2 343.8 321.15 343.8 321.15L348.825 321.6L342.975 303.15Z" fill="#D62D51"/>
<path d="M222.375 322.8C221.25 328.8 218.25 338.325 219.75 342.75C221.25 347.175 225.75 349.425 225.75 349.425H236.475C236.475 349.425 234.225 354.75 233.85 358.275C233.175 365.325 228.975 381 228 388.125C227.7 390.3 229.425 393.75 229.425 393.75L240.375 395.325L242.025 393.675C242.625 393.075 243 392.4 243.225 391.65L257.4 346.425C258.6 342.675 257.325 338.55 254.175 336.075L240.975 325.725L222.375 322.8Z" fill="#3850B5"/>
<path d="M357.901 312.45C357.526 310.65 356.926 308.25 355.951 306L344.701 311.325L345.076 313.575L334.726 322.275L334.576 322.35C334.126 322.725 332.401 324.15 332.101 324.225C328.501 325.125 327.976 325.125 325.801 326.925C324.901 327.675 323.101 328.65 322.801 329.1C322.801 329.325 323.626 329.625 324.601 329.25C325.876 328.725 326.851 327.975 326.701 328.275C326.926 328.575 327.001 328.575 326.026 329.1L321.601 331.875C321.376 332.025 321.301 332.175 321.301 332.4C321.301 332.55 321.301 332.7 321.376 332.775C321.601 333.075 321.976 333.225 322.351 333L326.851 330.15C327.151 330 327.451 329.925 327.526 330.075C327.601 330.225 327.601 330.525 327.301 330.675C325.801 331.8 321.676 334.875 321.526 335.025C321.226 335.25 321.151 335.7 321.376 336C321.601 336.3 322.051 336.375 322.351 336.15C322.351 336.15 325.351 333.9 327.151 332.475C327.676 332.025 328.126 332.1 328.276 332.25C328.426 332.4 328.276 332.775 327.901 333.15L323.701 336.45C323.551 336.6 323.476 336.75 323.401 336.975C323.401 337.125 323.476 337.275 323.551 337.425C323.776 337.725 324.226 337.8 324.526 337.575L328.801 334.275C329.101 334.05 329.326 333.975 329.401 334.05C329.476 334.05 329.551 334.2 329.551 334.275C329.551 334.35 329.551 334.5 329.476 334.575C328.726 335.325 327.901 336.15 327.076 336.825C326.776 337.05 326.776 337.5 327.001 337.8C327.226 338.1 327.676 338.1 327.976 337.875C328.426 337.5 329.176 336.825 329.926 336C329.926 336 329.926 336 330.001 336C330.151 335.85 330.376 335.7 330.451 335.55C332.176 333.9 334.051 331.875 334.576 330.9L336.226 329.55C338.851 328.05 347.101 323.475 350.101 321.6C351.301 320.85 353.851 319.05 355.801 317.625C357.526 316.425 358.276 314.475 357.901 312.45Z" fill="#F3AE88"/>
<path d="M345.751 279.225C347.551 281.325 356.026 303.75 356.626 305.025C355.276 308.25 347.026 311.55 344.776 311.325C342.076 306.975 340.051 296.775 340.051 296.775L345.751 279.225Z" fill="#FF5776"/>
<path d="M301.5 232.425C299.625 232.05 297.15 231.075 297.15 231.075L296.025 235.425L292.875 240.075C292.575 240.45 292.35 240.9 292.125 241.275C290.925 243.3 286.35 250.8 285.225 254.325C282.3 256.5 279.375 260.175 273.225 264.075C270.675 265.725 267.75 266.4 267.75 266.4V266.55L247.275 267.45L232.65 272.475C227.925 273.375 223.95 276.45 221.925 280.8C217.65 289.875 203.175 329.025 203.175 330.45V336.375L201.15 339.675C201.15 339.675 203.325 341.175 204.825 341.925C206.325 342.675 209.175 343.65 209.175 343.65L210.9 339.3L214.425 336.6C215.4 335.85 216.3 334.95 216.975 333.825L235.875 295.575L269.85 286.95C269.85 286.95 290.1 272.175 294.9 265.575C297.375 262.2 300.9 252.75 302.475 248.175C303.075 246.525 303.45 244.8 303.675 243L304.35 236.625L305.1 233.25C305.025 233.25 303.375 232.8 301.5 232.425Z" fill="#FF5776"/>
<path d="M232.125 271.725C231.525 271.875 231.225 272.55 231.525 273.15C233.775 277.65 237.075 291.75 234 298.425L227.85 312.075L223.5 320.175C223.125 321.075 222.15 323.925 222.15 323.925C222.15 323.925 235.275 327.075 241.425 326.175C246.6 325.425 251.7 323.55 255.15 322.2C255.75 321.975 256.35 321.675 256.8 321.525C257.925 321 258.825 320.1 259.35 318.975C260.775 315.75 263.775 309 264.825 306.225C265.65 304.05 267.525 299.175 268.95 295.425C270.15 292.2 270.6 288.75 270.15 285.375L267.675 266.55H263.325C263.325 266.55 260.4 280.2 254.625 284.4C248.475 281.7 240.825 269.4 240.825 269.4L232.125 271.725Z" fill="#000061"/>
<path d="M247.276 249.825C249.098 249.825 250.576 248.348 250.576 246.525C250.576 244.703 249.098 243.225 247.276 243.225C245.453 243.225 243.976 244.703 243.976 246.525C243.976 248.348 245.453 249.825 247.276 249.825Z" fill="#B9C3EE"/>
<path d="M247.501 254.925C248.992 254.925 250.201 253.716 250.201 252.225C250.201 250.734 248.992 249.525 247.501 249.525C246.01 249.525 244.801 250.734 244.801 252.225C244.801 253.716 246.01 254.925 247.501 254.925Z" fill="#B9C3EE"/>
<path d="M261.976 267.45L263.251 258.6C263.251 258.6 265.576 258 266.476 255.3C268.201 250.125 263.776 236.85 263.776 236.85C260.326 238.125 258.076 236.25 257.026 240.525C255.976 244.725 253.351 243.675 251.701 244.275C251.176 244.425 249.901 248.775 249.226 248.55C248.701 247.425 246.901 247.2 246.301 248.175C245.401 249.525 247.051 252.75 248.926 251.925C250.126 254.7 247.501 264.075 246.676 267.6C246.676 267.6 251.251 271.575 255.826 270.975C260.326 270.3 261.976 267.45 261.976 267.45Z" fill="#F3AF88"/>
<path d="M250.5 253.95C250.575 257.85 254.175 269.775 257.55 270.6C261.525 269.625 262.425 266.775 262.425 266.775L262.65 263.4L250.5 253.95Z" fill="#000061"/>
<path d="M251.25 242.025C251.925 246.825 254.85 253.125 257.25 253.35C259.65 253.575 262.65 249.3 264.9 249.15C267.15 248.925 268.35 249.45 269.25 252.45C270.15 255.45 269.85 261.9 265.425 263.4C261 264.9 255.375 263.925 253.5 260.85C252.3 258.825 250.65 255 250.2 252.9C249.975 251.7 248.4 242.025 248.4 242.025H251.25Z" fill="#B9C3EE"/>
<path d="M286.8 258.75L285.075 254.4L285.45 254.25L287.175 258.6L286.8 258.75Z" fill="#D62D51"/>
<path d="M290.25 257.1L285.75 252.975L285.975 252.675L290.475 256.875L290.25 257.1Z" fill="#D62D51"/>
<path d="M210.901 339.375C208.051 338.775 204.376 337.8 203.101 336.45L203.401 336.225C204.301 337.2 207.001 338.25 210.976 339.075L210.901 339.375Z" fill="#D62D51"/>
<path d="M254.775 274.05C249.675 274.05 246.15 271.05 244.65 268.35L244.95 268.2C246.45 270.825 249.975 273.825 255.15 273.675C260.1 273.525 262.425 269.625 262.425 269.55L262.725 269.775C262.725 269.85 260.325 273.9 255.15 274.05C255 274.05 254.85 274.05 254.775 274.05Z" fill="#D62D51"/>
<path d="M242.25 315.75C236.4 315.75 228.6 315.675 226.275 314.85L226.425 314.475C229.125 315.45 239.775 315.375 245.475 315.375C246.225 315.375 246.9 315.375 247.425 315.375C252.075 315.375 261.75 312.9 261.825 312.9L261.9 313.275C261.825 313.275 252.15 315.75 247.425 315.75C246.9 315.75 246.225 315.75 245.475 315.75C244.575 315.75 243.45 315.75 242.25 315.75Z" fill="#3850B5"/>
<path d="M244.8 307.275C238.125 307.275 230.55 306.375 230.4 306.375L230.475 306C230.625 306 242.025 307.35 249.075 306.75C256.125 306.15 265.2 304.725 265.275 304.65L265.35 305.025C265.275 305.025 256.2 306.45 249.15 307.125C247.8 307.2 246.3 307.275 244.8 307.275Z" fill="#3850B5"/>
<path d="M245.85 297.825C239.4 297.825 234.45 297.45 234.375 297.45V297.075C234.6 297.075 257.025 298.65 268.875 295.05L268.95 295.425C262.65 297.375 253.275 297.825 245.85 297.825Z" fill="#3850B5"/>
<path d="M244.125 290.025C239.925 290.025 236.475 289.8 235.125 289.5L235.2 289.125C239.475 290.325 264.75 289.65 269.7 286.8L269.85 287.1C266.475 289.05 253.425 290.025 244.125 290.025Z" fill="#3850B5"/>
<path d="M239.4 281.025C237.3 281.025 235.2 280.875 233.775 280.5L233.85 280.125C237.15 281.1 245.325 280.35 245.4 280.35V280.725C245.25 280.725 242.4 281.025 239.4 281.025Z" fill="#3850B5"/>
<path d="M261.975 279.375L261.9 279C264.825 278.4 268.8 276.525 268.875 276.525L269.025 276.9C269.025 276.9 264.975 278.85 261.975 279.375Z" fill="#3850B5"/>
<path d="M224.25 332.85C222.6 332.85 221.1 332.475 220.275 332.325L220.35 331.95C224.025 332.775 229.125 333.3 230.85 327.9L231.225 327.975C229.95 331.95 226.95 332.85 224.25 332.85Z" fill="#B9C3EE"/>
<path d="M255.075 394.35L254.7 394.275C255.675 390.975 257.175 384.3 258.75 377.25C261.075 367.2 263.4 356.775 264.675 353.7C265.425 351.825 266.025 350.7 266.4 349.8C267.15 348.3 267.3 347.925 266.925 346.875C266.4 345.45 260.1 343.575 257.7 342.9L257.775 342.525C258.675 342.75 266.625 344.85 267.225 346.725C267.675 347.925 267.45 348.375 266.7 349.95C266.25 350.775 265.725 351.975 264.975 353.775C263.775 356.85 261.375 367.2 259.125 377.325C257.55 384.375 256.05 391.125 255.075 394.35Z" fill="#B9C3EE"/>
<path d="M233.775 394.35L233.4 394.275C233.4 393.975 236.625 367.875 237.525 361.2C238.35 355.2 238.875 349.725 238.95 348.6C237.825 348.6 231.975 348.3 227.85 347.175C223.125 345.825 221.4 338.325 223.05 332.625L223.425 332.7C221.85 338.325 223.425 345.525 227.925 346.8C232.425 348.075 239.025 348.225 239.1 348.225H239.325V348.45C239.325 348.525 238.725 354.6 237.825 361.275C237 367.95 233.85 394.125 233.775 394.35Z" fill="#B9C3EE"/>
<path d="M261.375 240.075C263.032 240.075 264.375 238.933 264.375 237.525C264.375 236.117 263.032 234.975 261.375 234.975C259.718 234.975 258.375 236.117 258.375 237.525C258.375 238.933 259.718 240.075 261.375 240.075Z" fill="#B9C3EE"/>
<path d="M271.29 233.395L239.011 245.787L239.548 247.187L271.828 234.795L271.29 233.395Z" fill="#000061"/>
<path d="M245.701 244.05C244.876 240.6 242.551 231.525 245.251 230.475C247.951 229.425 251.476 231.675 251.476 231.675C251.476 231.675 251.701 225.975 255.826 225.375C260.251 224.7 264.376 236.85 264.376 236.85L245.701 244.05Z" fill="#000061"/>
<path d="M318.6 313.275C318.225 313.275 317.85 313.275 317.475 313.2C315.375 313.125 313.2 313.05 311.175 311.625L311.4 311.325C313.35 312.75 315.45 312.825 317.475 312.825C317.85 312.825 318.225 312.825 318.6 312.9V313.275Z" fill="#D62D51"/>
<path d="M319.576 327.6C316.951 326.925 315.301 325.125 315.226 325.05L315.526 324.825C315.526 324.825 317.176 326.55 319.726 327.225L319.576 327.6Z" fill="#D62D51"/>
<path d="M298.725 363.75C299.678 363.75 300.45 362.978 300.45 362.025C300.45 361.072 299.678 360.3 298.725 360.3C297.772 360.3 297 361.072 297 362.025C297 362.978 297.772 363.75 298.725 363.75Z" fill="white"/>
<path d="M302.55 341.775C303.503 341.775 304.275 341.003 304.275 340.05C304.275 339.097 303.503 338.325 302.55 338.325C301.597 338.325 300.825 339.097 300.825 340.05C300.825 341.003 301.597 341.775 302.55 341.775Z" fill="white"/>
<path d="M326.4 360C327.353 360 328.125 359.228 328.125 358.275C328.125 357.322 327.353 356.55 326.4 356.55C325.447 356.55 324.675 357.322 324.675 358.275C324.675 359.228 325.447 360 326.4 360Z" fill="white"/>
<path d="M333.3 351.975C334.253 351.975 335.025 351.203 335.025 350.25C335.025 349.297 334.253 348.525 333.3 348.525C332.347 348.525 331.575 349.297 331.575 350.25C331.575 351.203 332.347 351.975 333.3 351.975Z" fill="white"/>
<path d="M348.451 338.25C349.403 338.25 350.176 337.478 350.176 336.525C350.176 335.572 349.403 334.8 348.451 334.8C347.498 334.8 346.726 335.572 346.726 336.525C346.726 337.478 347.498 338.25 348.451 338.25Z" fill="white"/>
<path d="M346.725 349.725C347.678 349.725 348.45 348.953 348.45 348C348.45 347.047 347.678 346.275 346.725 346.275C345.772 346.275 345 347.047 345 348C345 348.953 345.772 349.725 346.725 349.725Z" fill="white"/>
<path d="M313.65 304.875C314.603 304.875 315.375 304.103 315.375 303.15C315.375 302.197 314.603 301.425 313.65 301.425C312.697 301.425 311.925 302.197 311.925 303.15C311.925 304.103 312.697 304.875 313.65 304.875Z" fill="white"/>
<path d="M315.375 293.25C316.328 293.25 317.1 292.478 317.1 291.525C317.1 290.572 316.328 289.8 315.375 289.8C314.423 289.8 313.65 290.572 313.65 291.525C313.65 292.478 314.423 293.25 315.375 293.25Z" fill="white"/>
<path d="M300.15 291.525C301.103 291.525 301.875 290.753 301.875 289.8C301.875 288.847 301.103 288.075 300.15 288.075C299.197 288.075 298.425 288.847 298.425 289.8C298.425 290.753 299.197 291.525 300.15 291.525Z" fill="white"/>
<path d="M290.4 289.35C290.4 290.325 289.65 291.075 288.675 291.075C287.7 291.075 286.95 290.325 286.95 289.35L289.875 288.15C290.175 288.45 290.4 288.9 290.4 289.35Z" fill="white"/>
<path d="M310.65 294.975C310.65 295.575 310.05 296.325 309.6 296.625C309.3 296.775 309.525 295.95 309.525 295.95C309.525 295.95 308.7 296.925 308.4 296.775C307.875 296.475 307.2 295.575 307.2 294.975C307.2 294 307.95 293.25 308.925 293.25C309.9 293.25 310.65 294.075 310.65 294.975Z" fill="white"/>
<path d="M336.076 291.525C337.028 291.525 337.801 290.753 337.801 289.8C337.801 288.847 337.028 288.075 336.076 288.075C335.123 288.075 334.351 288.847 334.351 289.8C334.351 290.753 335.123 291.525 336.076 291.525Z" fill="white"/>
<path d="M324.826 297C325.778 297 326.551 296.228 326.551 295.275C326.551 294.322 325.778 293.55 324.826 293.55C323.873 293.55 323.101 294.322 323.101 295.275C323.101 296.228 323.873 297 324.826 297Z" fill="white"/>
<path d="M324.826 284.175C325.778 284.175 326.551 283.403 326.551 282.45C326.551 281.497 325.778 280.725 324.826 280.725C323.873 280.725 323.101 281.497 323.101 282.45C323.101 283.403 323.873 284.175 324.826 284.175Z" fill="white"/>
<path d="M324.826 309.45C325.778 309.45 326.551 308.678 326.551 307.725C326.551 306.772 325.778 306 324.826 306C323.873 306 323.101 306.772 323.101 307.725C323.101 308.678 323.873 309.45 324.826 309.45Z" fill="white"/>
<path d="M334.35 320.55C335.303 320.55 336.075 319.778 336.075 318.825C336.075 317.872 335.303 317.1 334.35 317.1C333.397 317.1 332.625 317.872 332.625 318.825C332.625 319.778 333.397 320.55 334.35 320.55Z" fill="white"/>
<path d="M307.576 353.7C308.528 353.7 309.301 352.928 309.301 351.975C309.301 351.022 308.528 350.25 307.576 350.25C306.623 350.25 305.851 351.022 305.851 351.975C305.851 352.928 306.623 353.7 307.576 353.7Z" fill="white"/>
<path d="M313.576 363.9C314.528 363.9 315.301 363.128 315.301 362.175C315.301 361.222 314.528 360.45 313.576 360.45C312.623 360.45 311.851 361.222 311.851 362.175C311.851 363.128 312.623 363.9 313.576 363.9Z" fill="white"/>
<path d="M321 351.975C321.953 351.975 322.725 351.203 322.725 350.25C322.725 349.297 321.953 348.525 321 348.525C320.048 348.525 319.275 349.297 319.275 350.25C319.275 351.203 320.048 351.975 321 351.975Z" fill="white"/>
<path d="M328.951 342.3C329.903 342.3 330.676 341.528 330.676 340.575C330.676 339.622 329.903 338.85 328.951 338.85C327.998 338.85 327.226 339.622 327.226 340.575C327.226 341.528 327.998 342.3 328.951 342.3Z" fill="white"/>
<path d="M333.3 365.475C334.253 365.475 335.025 364.703 335.025 363.75C335.025 362.797 334.253 362.025 333.3 362.025C332.347 362.025 331.575 362.797 331.575 363.75C331.575 364.703 332.347 365.475 333.3 365.475Z" fill="white"/>
<path d="M315.3 342C316.253 342 317.025 341.228 317.025 340.275C317.025 339.322 316.253 338.55 315.3 338.55C314.347 338.55 313.575 339.322 313.575 340.275C313.575 341.228 314.347 342 315.3 342Z" fill="white"/>
<path d="M315.3 331.95C316.253 331.95 317.025 331.178 317.025 330.225C317.025 329.272 316.253 328.5 315.3 328.5C314.347 328.5 313.575 329.272 313.575 330.225C313.575 331.178 314.347 331.95 315.3 331.95Z" fill="white"/>
<path d="M294.075 347.7C294.075 348.675 293.325 349.425 292.35 349.425C291.375 349.425 291.075 348.675 291.075 347.7C291.075 346.725 291.45 345.975 292.35 345.975C293.25 345.975 294.075 346.725 294.075 347.7Z" fill="white"/>
<path d="M339.675 332.475C340.628 332.475 341.4 331.703 341.4 330.75C341.4 329.797 340.628 329.025 339.675 329.025C338.722 329.025 337.95 329.797 337.95 330.75C337.95 331.703 338.722 332.475 339.675 332.475Z" fill="white"/>
<path d="M334.35 304.2C335.303 304.2 336.075 303.428 336.075 302.475C336.075 301.522 335.303 300.75 334.35 300.75C333.397 300.75 332.625 301.522 332.625 302.475C332.625 303.428 333.397 304.2 334.35 304.2Z" fill="white"/>
<path d="M349.5 297.3C350.453 297.3 351.225 296.528 351.225 295.575C351.225 294.622 350.453 293.85 349.5 293.85C348.548 293.85 347.775 294.622 347.775 295.575C347.775 296.528 348.548 297.3 349.5 297.3Z" fill="white"/>
<path d="M348.451 307.725C349.403 307.725 350.176 306.953 350.176 306C350.176 305.047 349.403 304.275 348.451 304.275C347.498 304.275 346.726 305.047 346.726 306C346.726 306.953 347.498 307.725 348.451 307.725Z" fill="white"/>
<path d="M324.826 322.8C325.778 322.8 326.551 322.028 326.551 321.075C326.551 320.122 325.778 319.35 324.826 319.35C323.873 319.35 323.101 320.122 323.101 321.075C323.101 322.028 323.873 322.8 324.826 322.8Z" fill="white"/>
<path d="M315.375 317.7C316.328 317.7 317.1 316.928 317.1 315.975C317.1 315.022 316.328 314.25 315.375 314.25C314.423 314.25 313.65 315.022 313.65 315.975C313.65 316.928 314.423 317.7 315.375 317.7Z" fill="white"/>
<path d="M310.35 281.4C311.303 281.4 312.075 280.628 312.075 279.675C312.075 278.722 311.303 277.95 310.35 277.95C309.397 277.95 308.625 278.722 308.625 279.675C308.625 280.628 309.397 281.4 310.35 281.4Z" fill="white"/>
<path d="M292.725 301.8C293.678 301.8 294.45 301.028 294.45 300.075C294.45 299.122 293.678 298.35 292.725 298.35C291.772 298.35 291 299.122 291 300.075C291 301.028 291.772 301.8 292.725 301.8Z" fill="white"/>
<path d="M341.025 280.95C341.978 280.95 342.75 280.178 342.75 279.225C342.75 278.272 341.978 277.5 341.025 277.5C340.072 277.5 339.3 278.272 339.3 279.225C339.3 280.178 340.072 280.95 341.025 280.95Z" fill="white"/>
<path d="M304.95 267.825C308.25 271.575 330.9 269.775 338.475 261.15C343.425 255.525 336.375 253.95 335.4 254.475C335.925 250.65 335.025 248.25 333.15 248.475C332.85 242.775 331.125 240.75 328.875 241.425C326.475 236.475 322.95 239.7 322.65 241.8C319.95 236.475 314.925 237.375 313.575 242.475C307.95 240.6 307.05 249.675 308.25 252.075C300.9 254.325 304.425 259.125 305.7 261.825C302.7 265.425 303.9 266.625 304.95 267.825Z" fill="#B9C3EE"/>
<path d="M329.4 272.25L328.05 266.7C328.05 266.7 330.45 266.1 331.35 263.325C333.075 258.075 329.475 247.5 329.475 247.5C325.725 249.6 324 249 320.1 247.575C319.875 252.225 318.45 255.3 315.15 255.3C315.15 255.3 316.2 257.4 315.525 257.1C315 255.975 313.2 255.75 312.525 256.725C311.625 258.075 313.95 261.525 315.825 260.625C316.2 261.375 316.875 262.125 317.7 263.925C318.45 265.725 320.025 270.975 318.375 273.3L317.775 274.575C318.45 275.85 319.05 276.375 325.35 276.15C330.825 276 331.425 273.825 331.425 273.825L329.4 272.25Z" fill="#F3AE88"/>
<path d="M340.876 301.875C337.801 293.625 337.801 287.25 340.876 282.975L341.176 283.2C338.176 287.325 338.176 293.55 341.176 301.725L340.876 301.875Z" fill="#D62D51"/>
<path d="M318.976 265.2C321.451 267.15 323.626 266.475 324.676 266.25C326.026 266.925 327.151 266.925 328.201 266.625C328.576 267.975 329.251 271.35 329.251 271.35C329.251 271.35 326.176 270.975 324.601 270.225C321.451 268.65 318.976 265.2 318.976 265.2Z" fill="#000061"/>
<path d="M323.1 260.1C324.011 260.1 324.75 259.361 324.75 258.45C324.75 257.539 324.011 256.8 323.1 256.8C322.189 256.8 321.45 257.539 321.45 258.45C321.45 259.361 322.189 260.1 323.1 260.1Z" fill="#FF5776"/>
<path d="M331.725 257.85C330.975 258 330.3 257.55 330.225 256.8C330.15 256.05 330.675 255.45 331.35 255.225L331.725 257.85Z" fill="#FF5776"/>
<path d="M314.626 259.725C313.651 259.35 313.201 258.6 313.351 257.55L314.101 257.625C314.026 258.375 314.251 258.825 314.926 259.05L314.626 259.725Z" fill="#000061"/>
<path d="M329.025 253.65L328.5 253.5C328.725 252.825 329.175 252.3 329.775 252.075C330.3 251.85 330.975 252 331.575 252.3L331.275 252.75C330.825 252.45 330.375 252.375 330 252.525C329.475 252.75 329.175 253.125 329.025 253.65Z" fill="#000061"/>
<path d="M330.226 253.8C330.599 253.8 330.901 253.498 330.901 253.125C330.901 252.752 330.599 252.45 330.226 252.45C329.853 252.45 329.551 252.752 329.551 253.125C329.551 253.498 329.853 253.8 330.226 253.8Z" fill="#000061"/>
<path d="M322.8 255.375L322.275 255.225C322.5 254.55 322.95 254.025 323.55 253.8C324.075 253.575 324.75 253.65 325.35 254.025L325.05 254.475C324.6 254.175 324.15 254.1 323.775 254.25C323.25 254.475 322.95 254.85 322.8 255.375Z" fill="#000061"/>
<path d="M324 255.3C324.373 255.3 324.675 254.998 324.675 254.625C324.675 254.252 324.373 253.95 324 253.95C323.627 253.95 323.325 254.252 323.325 254.625C323.325 254.998 323.627 255.3 324 255.3Z" fill="#000061"/>
<path d="M331.05 250.05C331.35 249.15 328.875 248.925 328.5 249.6C328.125 250.275 328.875 250.5 329.475 250.35C330.075 250.2 330.9 250.425 331.05 250.05Z" fill="#000061"/>
<path d="M321.751 252.75C321.001 252 323.251 250.65 323.926 251.1C324.601 251.55 324.001 252.15 323.326 252.3C322.801 252.45 322.051 253.05 321.751 252.75Z" fill="#000061"/>
<path d="M325.875 261.825C327.375 262.125 330.3 261 330.3 261C330.3 261 330.225 263.1 328.5 263.25C326.55 263.4 325.875 261.825 325.875 261.825Z" fill="white"/>
<path d="M248.55 251.1C247.5 250.875 246.9 250.125 246.9 248.925H247.65C247.65 249.75 247.95 250.2 248.7 250.35L248.55 251.1Z" fill="#000061"/>
<path d="M264.451 244.35L263.926 244.275C264.076 243.525 264.451 242.925 265.051 242.625C265.576 242.325 266.251 242.4 266.926 242.7L266.701 243.225C266.176 243 265.726 242.925 265.276 243.15C264.901 243.375 264.601 243.825 264.451 244.35Z" fill="#000061"/>
<path d="M265.726 244.35C266.099 244.35 266.401 244.048 266.401 243.675C266.401 243.302 266.099 243 265.726 243C265.353 243 265.051 243.302 265.051 243.675C265.051 244.048 265.353 244.35 265.726 244.35Z" fill="#000061"/>
<path d="M258.076 246.975L257.551 246.9C257.701 246.15 258.076 245.55 258.676 245.25C259.201 244.95 259.951 245.025 260.551 245.325L260.326 245.85C259.801 245.625 259.351 245.55 258.901 245.775C258.526 245.925 258.226 246.375 258.076 246.975Z" fill="#000061"/>
<path d="M259.351 246.675C259.724 246.675 260.026 246.373 260.026 246C260.026 245.627 259.724 245.325 259.351 245.325C258.978 245.325 258.676 245.627 258.676 246C258.676 246.373 258.978 246.675 259.351 246.675Z" fill="#000061"/>
<path d="M266.25 240.3C266.475 239.325 263.85 239.4 263.55 240.15C263.25 240.9 264.075 241.05 264.675 240.825C265.2 240.6 266.175 240.75 266.25 240.3Z" fill="#000061"/>
<path d="M256.801 244.275C255.976 243.6 258.076 242.025 258.751 242.4C259.501 242.775 258.901 243.375 258.301 243.6C257.776 243.825 257.176 244.575 256.801 244.275Z" fill="#000061"/>
<path d="M261.9 254.025C263.55 254.1 266.475 252.6 266.475 252.6C266.475 252.6 266.7 254.775 264.825 255.15C262.8 255.6 261.9 254.025 261.9 254.025Z" fill="white"/>
<path d="M254.55 355.875L254.175 355.725C254.25 355.65 258.525 344.475 257.175 340.65C255.675 336.375 249.9 332.55 247.2 330.675C246.675 330.3 246.225 330.075 246 329.85L246.225 329.55C246.45 329.7 246.825 330 247.35 330.375C250.125 332.25 255.975 336.225 257.475 340.575C258.9 344.475 254.7 355.425 254.55 355.875Z" fill="#B9C3EE"/>
<path d="M234.976 328.125C229.576 328.125 223.426 327.6 221.476 326.55L221.626 326.25C224.401 327.825 238.951 328.275 242.926 327.225C246.751 326.175 253.051 322.8 253.126 322.8L253.276 323.1C253.201 323.1 246.901 326.55 243.001 327.6C241.576 327.9 238.426 328.125 234.976 328.125Z" fill="#B9C3EE"/>
<path d="M305.55 401.775L304.575 397.575H312.75L313.125 401.775H305.55Z" fill="#FF5776"/>
<path d="M324.525 400.875L323.7 397.875H332.625L332.85 400.65L324.525 400.875Z" fill="#FF5776"/>
<path d="M302.625 219.075C302.625 219.3 302.775 219.6 303.075 219.675C303.45 219.9 303.975 219.75 304.275 219.375L306.525 215.475C306.75 215.1 306.6 214.575 306.225 214.275C305.85 214.05 305.325 214.2 305.025 214.575L302.775 218.475C302.625 218.7 302.625 218.85 302.625 219.075Z" fill="#F3AE88"/>
<path d="M303.975 217.65C303.9 217.95 303.975 218.325 304.2 218.55C304.5 218.925 305.1 218.925 305.4 218.55L309.45 214.05C309.825 213.675 309.825 213.075 309.45 212.7C309.15 212.325 308.55 212.325 308.25 212.7L304.2 217.2C304.05 217.275 303.975 217.425 303.975 217.65Z" fill="#F3AE88"/>
<path d="M312.75 212.475C312.975 212.175 312.9 211.8 312.675 211.5C312.375 211.125 311.85 211.125 311.475 211.425L307.125 215.1C306.75 215.4 306.75 215.925 307.05 216.3C307.35 216.675 307.875 216.675 308.25 216.375L312.6 212.7C312.6 212.625 312.675 212.55 312.75 212.475Z" fill="#F3AE88"/>
<path d="M308.175 214.725C310.275 213.75 313.8 211.5 314.925 211.95C316.05 212.4 315.375 212.775 314.1 213.825C312.75 214.8 308.625 217.275 308.625 218.25C308.625 219.225 308.85 221.925 309.675 221.175C310.65 220.275 312.9 219.3 314.025 219.45C315.15 219.6 315.675 220.575 314.775 220.8C313.875 221.025 311.55 223.125 310.575 223.725C309.6 224.325 306.45 226.125 306.45 226.125L305.325 216.45L308.175 214.725Z" fill="#F3AE88"/>
<path d="M364.276 349.05H334.351V349.8H364.276V349.05Z" fill="#000061"/>
<path d="M242.1 349.05H219.375V349.8H242.1V349.05Z" fill="#000061"/>
<path d="M306.526 368.55C306.451 368.55 306.451 368.55 306.376 368.55C305.476 368.475 304.276 368.175 303.076 367.8C301.576 367.35 300.076 366.9 298.801 366.9C296.401 366.9 293.401 366.525 292.051 365.625L292.276 365.325C293.551 366.15 296.551 366.525 298.801 366.525C300.151 366.525 301.726 366.975 303.226 367.425C304.426 367.8 305.626 368.175 306.451 368.175C307.426 368.25 309.226 367.65 310.951 367.05C312.601 366.525 314.251 366 315.376 365.925C317.776 365.775 320.026 366.45 322.276 367.125C324.076 367.65 325.726 368.175 327.301 368.175C333.151 368.175 336.001 366.525 337.576 365.25L337.801 365.55C336.151 366.825 333.226 368.55 327.301 368.55C325.726 368.55 324.001 368.025 322.201 367.5C320.026 366.825 317.776 366.15 315.451 366.3C314.326 366.375 312.676 366.9 311.101 367.425C309.226 368.025 307.576 368.55 306.526 368.55Z" fill="white"/>
<path d="M307.65 260.55C306.45 258.9 306.15 257.025 306.825 255.6C307.425 254.325 308.775 253.575 310.275 253.575V254.325C309 254.325 307.95 254.925 307.425 255.975C306.825 257.175 307.05 258.75 308.175 260.175L307.65 260.55Z" fill="white"/>
<path d="M327.526 246.075L326.851 245.775C327.076 245.25 327.076 244.8 326.926 244.425C326.626 243.975 326.026 243.825 325.801 243.75L325.951 243C326.326 243.075 327.151 243.3 327.601 244.05C327.826 244.65 327.826 245.325 327.526 246.075Z" fill="white"/>
<path d="M254.851 288.225C248.476 287.325 240.601 274.425 238.351 270L238.651 269.85C240.901 274.275 248.626 286.95 254.701 287.85C260.626 283.8 264.001 276.975 265.351 266.4L265.726 266.475C264.451 277.125 261.001 284.025 254.851 288.225Z" fill="#3850B5"/>
<path d="M303.225 236.85C300.9 236.85 297.525 236.1 296.025 235.2L296.25 234.9C297.9 235.95 302.175 236.775 304.275 236.475L304.35 236.85C304.05 236.85 303.675 236.85 303.225 236.85Z" fill="#D62D51"/>
<path d="M332.85 349.05H331.125V349.8H332.85V349.05Z" fill="#000061"/>
<path d="M374.699 237.975C380.099 235.125 395.174 226.725 402.524 219.225C397.574 206.1 390.149 194.7 385.499 187.65C385.049 186.975 385.724 186.15 386.474 186.375C425.699 198.675 486.674 232.95 494.849 238.65C501.224 243.075 498.074 244.425 493.724 244.725C489.449 245.1 410.099 248.025 374.849 239.55C374.099 239.4 373.949 238.35 374.699 237.975Z" fill="#A6F4DC"/>
<path d="M399.45 211.95L448.125 228.375L399.9 222L389.25 229.5L399.45 211.95Z" fill="#60C49E"/>
<path d="M453.6 241.425C432.675 241.425 389.25 238.425 372.375 233.25L372.6 232.5C390.9 238.125 440.625 241.2 458.55 240.6V241.35C457.125 241.35 455.475 241.425 453.6 241.425Z" fill="#000061"/>
<path d="M186.599 409.05C193.061 409.05 198.299 403.812 198.299 397.35C198.299 390.888 193.061 385.65 186.599 385.65C180.138 385.65 174.899 390.888 174.899 397.35C174.899 403.812 180.138 409.05 186.599 409.05Z" fill="#FCB560"/>
<path d="M181.361 387.019L180.831 387.549L196.688 403.406L197.218 402.875L181.361 387.019Z" fill="white"/>
<path d="M183.328 385.9L182.798 386.43L197.541 401.173L198.071 400.643L183.328 385.9Z" fill="white"/>
<path d="M187.575 408.225C180.9 408.225 175.5 402.825 175.5 396.15C175.5 389.475 180.9 384.075 187.575 384.075C194.25 384.075 199.65 389.475 199.65 396.15C199.65 402.825 194.25 408.225 187.575 408.225ZM187.575 384.75C181.35 384.75 176.25 389.85 176.25 396.075C176.25 402.3 181.35 407.4 187.575 407.4C193.8 407.4 198.9 402.3 198.9 396.075C198.9 389.85 193.8 384.75 187.575 384.75Z" fill="#000061"/>
<path d="M323.55 206.25L323.25 205.575C334.575 200.4 353.25 199.725 361.8 201.225L361.65 201.975C353.175 200.475 334.725 201.15 323.55 206.25Z" fill="#000061"/>
<path d="M381.974 196.5C374.024 191.925 349.874 190.575 340.424 194.1L340.199 193.425C350.099 189.75 374.099 191.175 382.424 195.825L381.974 196.5Z" fill="#000061"/>
<path d="M273.074 422.85L270.899 424.875L273.974 425.175L273.074 422.85Z" fill="#000061"/>
<path d="M286.574 433.8C286.574 433.8 286.274 425.325 286.274 425.175L286.649 424.8C287.024 424.8 287.024 424.8 287.174 429.45L287.324 433.725L286.574 433.8Z" fill="#000061"/>
<path d="M283.585 424.066L279.543 433.594L280.233 433.887L284.275 424.359L283.585 424.066Z" fill="#000061"/>
<path d="M292.875 414.825C292.875 414.825 289.95 423.6 287.4 425.7C284.85 427.725 281.1 427.35 279 424.725C276.975 422.175 277.35 418.425 279.975 416.325C282.6 414.3 292.875 414.825 292.875 414.825Z" fill="#FCB560"/>
<path d="M277.05 426.825C279.328 426.825 281.175 424.978 281.175 422.7C281.175 420.422 279.328 418.575 277.05 418.575C274.772 418.575 272.925 420.422 272.925 422.7C272.925 424.978 274.772 426.825 277.05 426.825Z" fill="#FCB560"/>
<path d="M286.95 434.325C287.406 434.325 287.775 433.956 287.775 433.5C287.775 433.044 287.406 432.675 286.95 432.675C286.494 432.675 286.125 433.044 286.125 433.5C286.125 433.956 286.494 434.325 286.95 434.325Z" fill="#000061"/>
<path d="M275.924 422.925C276.214 422.925 276.449 422.69 276.449 422.4C276.449 422.11 276.214 421.875 275.924 421.875C275.634 421.875 275.399 422.11 275.399 422.4C275.399 422.69 275.634 422.925 275.924 422.925Z" fill="#000061"/>
<path d="M279.899 434.325C280.355 434.325 280.724 433.956 280.724 433.5C280.724 433.044 280.355 432.675 279.899 432.675C279.444 432.675 279.074 433.044 279.074 433.5C279.074 433.956 279.444 434.325 279.899 434.325Z" fill="#000061"/>
<path d="M426.224 389.85C422.849 385.5 419.474 383.175 416.849 385.65C412.949 389.4 424.049 396.675 424.049 396.675H430.499C430.574 396.675 427.949 392.1 426.224 389.85Z" fill="#3850B5"/>
<path d="M426.212 309.062L421.97 304.82L417.727 309.062L421.97 313.305L426.212 309.062Z" fill="#FCB560"/>
<path d="M545.669 173.538L541.427 169.295L537.184 173.538L541.427 177.78L545.669 173.538Z" fill="#FCB560"/>
<path d="M620.722 293.117L616.479 288.875L612.237 293.117L616.479 297.36L620.722 293.117Z" fill="#FCB560"/>
<path d="M166.839 368.098L162.597 363.855L158.354 368.098L162.597 372.34L166.839 368.098Z" fill="#FFE9E9"/>
<path d="M277.425 435.225C275.7 435.225 274.8 434.7 273.975 434.175C273.225 433.725 272.625 433.35 271.275 433.35C269.925 433.35 269.325 433.725 268.575 434.175C267.75 434.625 266.85 435.225 265.125 435.225C263.4 435.225 262.5 434.7 261.675 434.175C260.925 433.725 260.325 433.35 258.975 433.35C257.625 433.35 257.025 433.725 256.275 434.175C255.45 434.625 254.55 435.225 252.825 435.225C251.1 435.225 250.2 434.7 249.375 434.175C248.625 433.725 248.025 433.35 246.675 433.35V431.85C248.4 431.85 249.3 432.375 250.125 432.9C250.875 433.35 251.475 433.725 252.825 433.725C254.175 433.725 254.775 433.35 255.525 432.9C256.35 432.45 257.25 431.85 258.975 431.85C260.7 431.85 261.6 432.375 262.425 432.9C263.175 433.35 263.775 433.725 265.125 433.725C266.475 433.725 267.075 433.35 267.825 432.9C268.65 432.45 269.55 431.85 271.275 431.85C273 431.85 273.9 432.375 274.725 432.9C275.475 433.35 276.075 433.725 277.425 433.725V435.225Z" fill="#B9C3EE"/>
<path d="M365.699 419.175C363.974 419.175 363.074 418.65 362.249 418.125C361.499 417.675 360.899 417.3 359.549 417.3C358.199 417.3 357.599 417.675 356.849 418.125C356.024 418.575 355.124 419.175 353.399 419.175C351.674 419.175 350.774 418.65 349.949 418.125C349.199 417.675 348.599 417.3 347.249 417.3C345.899 417.3 345.299 417.675 344.549 418.125C343.724 418.575 342.824 419.175 341.099 419.175C339.374 419.175 338.474 418.65 337.649 418.125C336.899 417.675 336.299 417.3 334.949 417.3V415.8C336.674 415.8 337.574 416.325 338.399 416.85C339.149 417.3 339.749 417.675 341.099 417.675C342.449 417.675 343.049 417.3 343.799 416.85C344.624 416.4 345.524 415.8 347.249 415.8C348.974 415.8 349.874 416.325 350.699 416.85C351.449 417.3 352.049 417.675 353.399 417.675C354.749 417.675 355.349 417.3 356.099 416.85C356.924 416.4 357.824 415.8 359.549 415.8C361.274 415.8 362.174 416.325 362.999 416.85C363.749 417.3 364.349 417.675 365.699 417.675V419.175Z" fill="#000061"/>
<path d="M419.174 419.175C417.449 419.175 416.549 418.65 415.724 418.125C414.974 417.675 414.374 417.3 413.024 417.3C411.674 417.3 411.074 417.675 410.324 418.125C409.499 418.575 408.599 419.175 406.874 419.175C405.149 419.175 404.249 418.65 403.424 418.125C402.674 417.675 402.074 417.3 400.724 417.3C399.374 417.3 398.774 417.675 398.024 418.125C397.199 418.575 396.299 419.175 394.574 419.175C392.849 419.175 391.949 418.65 391.124 418.125C390.374 417.675 389.774 417.3 388.424 417.3V415.8C390.149 415.8 391.049 416.325 391.874 416.85C392.624 417.3 393.224 417.675 394.574 417.675C395.924 417.675 396.524 417.3 397.274 416.85C398.099 416.4 398.999 415.8 400.724 415.8C402.449 415.8 403.349 416.325 404.174 416.85C404.924 417.3 405.524 417.675 406.874 417.675C408.224 417.675 408.824 417.3 409.574 416.85C410.399 416.4 411.299 415.8 413.024 415.8C414.749 415.8 415.649 416.325 416.474 416.85C417.224 417.3 417.824 417.675 419.174 417.675V419.175Z" fill="#B9C3EE"/>
<path d="M284.717 413.394L282.901 416.239L284.166 417.046L285.982 414.202L284.717 413.394Z" fill="#FCB560"/>
<path d="M386.249 410.175L387.599 412.875L384.599 412.05L386.249 410.175Z" fill="#000061"/>
<path d="M374.699 417.75H373.949L374.099 413.475C374.249 408.825 374.249 408.825 374.624 408.825L374.999 409.2C375.074 409.275 374.699 417.75 374.699 417.75Z" fill="#000061"/>
<path d="M377.778 408.109L377.087 408.401L381.124 417.931L381.815 417.639L377.778 408.109Z" fill="#000061"/>
<path d="M370.799 395.4C370.799 395.4 370.274 404.7 371.924 407.475C373.574 410.25 377.249 411.3 380.099 409.65C382.949 408 383.924 404.325 382.274 401.475C380.624 398.625 370.799 395.4 370.799 395.4Z" fill="#FCB560"/>
<path d="M382.648 412.725C384.927 412.725 386.773 410.878 386.773 408.6C386.773 406.322 384.927 404.475 382.648 404.475C380.37 404.475 378.523 406.322 378.523 408.6C378.523 410.878 380.37 412.725 382.648 412.725Z" fill="#FCB560"/>
<path d="M374.324 418.35C374.78 418.35 375.149 417.981 375.149 417.525C375.149 417.069 374.78 416.7 374.324 416.7C373.868 416.7 373.499 417.069 373.499 417.525C373.499 417.981 373.868 418.35 374.324 418.35Z" fill="#000061"/>
<path d="M383.774 409.275C384.064 409.275 384.299 409.04 384.299 408.75C384.299 408.46 384.064 408.225 383.774 408.225C383.484 408.225 383.249 408.46 383.249 408.75C383.249 409.04 383.484 409.275 383.774 409.275Z" fill="#000061"/>
<path d="M381.449 418.35C381.905 418.35 382.274 417.981 382.274 417.525C382.274 417.069 381.905 416.7 381.449 416.7C380.993 416.7 380.624 417.069 380.624 417.525C380.624 417.981 380.993 418.35 381.449 418.35Z" fill="#000061"/>
<path d="M370.475 403.041L369.597 404.258L371.299 405.487L372.177 404.271L370.475 403.041Z" fill="#FCB560"/>
<path d="M297.778 189.816C293.921 179.881 286.733 174.545 278.143 173.625C267.274 172.337 256.405 178.961 256.405 178.961C256.405 178.961 260.437 162.586 255.002 149.707C251.321 140.876 245.185 132.596 236.946 130.572C228.356 128.364 219.24 132.78 212.753 139.772C206.267 146.763 202.235 155.962 198.553 165.162C196.625 158.538 194.17 151.363 188.561 148.787C182.775 146.211 175.938 150.627 172.958 156.882C169.978 163.138 169.802 170.681 170.153 177.673C163.316 173.441 154.726 172.153 148.064 176.385C143.681 179.145 140.701 184.48 140 190H297.778V189.816Z" fill="#E2F3FF"/>
<path d="M456 137C456 137 456.107 137 456.213 137C465.5 137 474.894 137 484.18 137C500.725 137 517.271 137 533.816 137C545.985 137 549.827 136.557 561.996 137C562.103 129.252 560.075 121.836 556.445 117.962C553.457 114.752 548.44 112.981 544.277 114.088C539.046 115.527 535.417 119.179 532.001 121.836C530.827 111.099 526.557 101.359 521.967 99.145C514.068 95.4923 505.742 101.248 502.113 107.004C499.018 111.653 497.416 117.187 496.776 122.832C491.759 117.187 480.658 112.759 476.708 121.836C475.107 125.378 475.214 129.473 475.427 133.347C468.702 131.466 461.444 132.905 456 137Z" fill="#E2F3FF"/>
</svg>
